<svg width="75" height="76" viewBox="0 0 75 76" fill="none" xmlns="http://www.w3.org/2000/svg">
<!-- <path d="M17.933 0.721008H74.721V57.509C74.721 67.4132 66.6922 75.442 56.788 75.442H0V18.654C0 8.74978 8.02877 0.721008 17.933 0.721008Z" fill="white"/> -->
<path d="M42.8066 46.5374C45.5731 44.8184 47.0226 41.4619 46.5302 37.7777C45.9661 33.5662 43.12 30.2943 39.2194 29.3159L37.7479 24.9008C37.6799 24.6976 37.5341 24.5297 37.3424 24.4338C37.1508 24.338 36.9289 24.3221 36.7256 24.3897C36.5224 24.4578 36.3546 24.6036 36.2588 24.7952C36.163 24.9869 36.147 25.2086 36.2144 25.412L37.83 30.2588C37.923 30.5334 38.1544 30.7383 38.4381 30.7951C42.6283 31.6333 44.5527 35.196 44.9276 37.9916C45.3638 41.246 44.0047 44.1676 41.4663 45.4368C41.2925 45.5242 41.156 45.6712 41.0816 45.851C41.0072 46.0307 40.9999 46.2312 41.0611 46.4159L42.3232 50.1989H29.796L31.283 35.3285L38.2358 38.8046C38.4274 38.9 38.649 38.9157 38.8522 38.8481C39.0553 38.7805 39.2234 38.6352 39.3195 38.444C39.3671 38.349 39.3954 38.2456 39.4029 38.1397C39.4104 38.0338 39.397 37.9275 39.3634 37.8267C39.3298 37.726 39.2767 37.6329 39.207 37.5528C39.1374 37.4726 39.0527 37.407 38.9577 37.3596L29.7844 32.7733L31.3179 22.0406C31.3205 22.0206 31.3134 22.0025 31.3147 21.9831C31.3159 21.9637 31.3263 21.9463 31.3263 21.9262C31.3263 21.89 31.3101 21.859 31.3056 21.8241C31.3004 21.7706 31.2898 21.7178 31.2739 21.6664C31.2566 21.6186 31.2343 21.5726 31.2074 21.5294C31.1815 21.4842 31.1557 21.4422 31.1221 21.4028C31.0875 21.365 31.0494 21.3306 31.0083 21.3C30.9693 21.2676 30.9271 21.2393 30.8823 21.2154C30.8336 21.1919 30.7824 21.1737 30.7298 21.1611C30.6962 21.152 30.6678 21.132 30.6329 21.1268C30.6128 21.1242 30.5947 21.1314 30.5754 21.1301C30.556 21.1288 30.5392 21.1184 30.5191 21.1184H29.7113V13.8477C29.7113 11.0546 30.9573 9.8087 33.7503 9.8087C36.0612 9.8087 37.4442 11.8618 37.7893 12.4421V16.7441L34.7946 19.7387C34.7196 19.8138 34.6601 19.903 34.6195 20.0011C34.579 20.0992 34.5581 20.2043 34.5582 20.3105C34.5582 20.4166 34.5792 20.5217 34.6199 20.6198C34.6606 20.7178 34.7202 20.8069 34.7953 20.8819C34.8704 20.9569 34.9595 21.0164 35.0576 21.057C35.1557 21.0976 35.2608 21.1184 35.367 21.1183C35.4731 21.1183 35.5783 21.0973 35.6763 21.0566C35.7744 21.016 35.8634 20.9564 35.9385 20.8813L39.1696 17.6501C39.3195 17.4989 39.4048 17.2934 39.4048 17.0788V12.2321C39.4048 12.1067 39.3758 11.9833 39.3195 11.8708C39.2446 11.7203 37.4384 8.19312 33.7503 8.19312C30.0513 8.19312 28.0958 10.1486 28.0958 13.8477V21.9256C28.0958 22.3715 28.4577 22.7334 28.9036 22.7334H29.5879L28.1042 33.1203C28.1029 33.1313 28.1067 33.1403 28.1061 33.1513C28.0996 33.2101 28.1093 33.2663 28.1158 33.3245C28.121 33.3723 28.1203 33.4195 28.1339 33.4647C28.1488 33.5145 28.1765 33.5565 28.2005 33.6024C28.225 33.6489 28.2438 33.6961 28.2767 33.7368C28.3058 33.7736 28.3459 33.8001 28.382 33.8318C28.4253 33.8699 28.4661 33.9093 28.5171 33.9378C28.5268 33.9429 28.532 33.952 28.5423 33.9572L29.776 34.5743C29.7521 34.6383 29.723 34.699 29.7159 34.7701L28.1003 50.926C28.0889 51.0382 28.1012 51.1516 28.1364 51.2589C28.1716 51.3661 28.2289 51.4647 28.3046 51.5484C28.3803 51.6321 28.4727 51.699 28.5759 51.7447C28.6791 51.7904 28.7907 51.814 28.9036 51.8139H31.4038L32.9464 67.2427C32.957 67.3482 32.9882 67.4506 33.0384 67.5441C33.0885 67.6376 33.1566 67.7202 33.2387 67.7874C33.4044 67.923 33.6173 67.9872 33.8304 67.9658C33.936 67.9553 34.0384 67.924 34.1318 67.8739C34.2253 67.8237 34.308 67.7557 34.3751 67.6736C34.4422 67.5915 34.4926 67.497 34.5232 67.3954C34.5538 67.2939 34.5641 67.1873 34.5536 67.0818L33.0272 51.8139H37.7046L36.1776 67.0811C36.167 67.1867 36.1773 67.2932 36.2079 67.3948C36.2386 67.4963 36.2889 67.5908 36.356 67.6729C36.4232 67.755 36.5058 67.8231 36.5993 67.8732C36.6928 67.9234 36.7952 67.9546 36.9007 67.9652C37.0062 67.9758 37.1128 67.9654 37.2143 67.9348C37.3159 67.9042 37.4104 67.8539 37.4925 67.7867C37.5746 67.7196 37.6426 67.6369 37.6928 67.5435C37.7429 67.45 37.7742 67.3476 37.7847 67.2421L39.3273 51.8132H43.4438C43.5718 51.813 43.6978 51.7824 43.8117 51.724C43.9255 51.6655 44.0239 51.581 44.0987 51.4771C44.1735 51.3733 44.2226 51.2532 44.242 51.1268C44.2614 51.0003 44.2505 50.871 44.2102 50.7495L42.8066 46.5374ZM33.0278 31.2578C32.932 31.4495 32.9163 31.6713 32.984 31.8745C33.0517 32.0778 33.1975 32.2458 33.3891 32.3416L36.6202 33.9572C36.8119 34.0528 37.0336 34.0684 37.2368 34.0007C37.44 33.933 37.608 33.7874 37.704 33.5959C37.7515 33.501 37.7798 33.3977 37.7873 33.2918C37.7948 33.186 37.7814 33.0797 37.7478 32.979C37.7142 32.8783 37.661 32.7853 37.5914 32.7052C37.5218 32.6251 37.4371 32.5595 37.3421 32.5122L34.1109 30.8966C33.9194 30.801 33.6977 30.7853 33.4946 30.8531C33.2915 30.9208 33.1236 31.0664 33.0278 31.2578Z" fill="black"/>
</svg>
