<svg width="75" height="75" viewBox="0 0 75 75" fill="none" xmlns="http://www.w3.org/2000/svg">
<path d="M17.933 0.163025H74.721V56.951C74.721 66.8552 66.6922 74.884 56.788 74.884H0V18.0961C0 8.1918 8.02877 0.163025 17.933 0.163025Z" fill="#EC407A"/>
<path d="M42.8066 45.9794C45.5731 44.2604 47.0226 40.9039 46.5302 37.2197C45.9661 33.0082 43.12 29.7363 39.2194 28.7579L37.7479 24.3429C37.6799 24.1396 37.5341 23.9717 37.3424 23.8758C37.1508 23.78 36.9289 23.7641 36.7256 23.8317C36.5224 23.8998 36.3546 24.0456 36.2588 24.2373C36.163 24.4289 36.147 24.6507 36.2144 24.854L37.83 29.7008C37.923 29.9754 38.1544 30.1803 38.4381 30.2371C42.6283 31.0753 44.5527 34.638 44.9276 37.4336C45.3638 40.688 44.0047 43.6097 41.4663 44.8789C41.2925 44.9662 41.156 45.1132 41.0816 45.293C41.0072 45.4727 40.9999 45.6733 41.0611 45.8579L42.3232 49.641H29.796L31.283 34.7705L38.2358 38.2466C38.4274 38.3421 38.649 38.3577 38.8522 38.2901C39.0553 38.2226 39.2234 38.0772 39.3195 37.886C39.3671 37.791 39.3954 37.6876 39.4029 37.5817C39.4104 37.4758 39.397 37.3695 39.3634 37.2688C39.3298 37.168 39.2767 37.0749 39.207 36.9948C39.1374 36.9146 39.0527 36.849 38.9577 36.8016L29.7844 32.2153L31.3179 21.4826C31.3205 21.4626 31.3134 21.4445 31.3147 21.4251C31.3159 21.4057 31.3263 21.3883 31.3263 21.3682C31.3263 21.3321 31.3101 21.301 31.3056 21.2661C31.3004 21.2126 31.2898 21.1598 31.2739 21.1085C31.2566 21.0606 31.2343 21.0147 31.2074 20.9715C31.1815 20.9262 31.1557 20.8842 31.1221 20.8448C31.0875 20.8071 31.0494 20.7726 31.0083 20.742C30.9693 20.7097 30.9271 20.6813 30.8823 20.6574C30.8336 20.6339 30.7824 20.6157 30.7298 20.6031C30.6962 20.5941 30.6678 20.574 30.6329 20.5688C30.6128 20.5663 30.5947 20.5734 30.5754 20.5721C30.556 20.5708 30.5392 20.5604 30.5191 20.5604H29.7113V13.2897C29.7113 10.4967 30.9573 9.25072 33.7503 9.25072C36.0612 9.25072 37.4442 11.3038 37.7893 11.8841V16.1861L34.7946 19.1807C34.7196 19.2558 34.6601 19.345 34.6195 19.4431C34.579 19.5412 34.5581 19.6463 34.5582 19.7525C34.5582 19.8586 34.5792 19.9637 34.6199 20.0618C34.6606 20.1598 34.7202 20.2489 34.7953 20.3239C34.8704 20.3989 34.9595 20.4584 35.0576 20.499C35.1557 20.5396 35.2608 20.5604 35.367 20.5604C35.4731 20.5603 35.5783 20.5393 35.6763 20.4987C35.7744 20.458 35.8634 20.3984 35.9385 20.3233L39.1696 17.0921C39.3195 16.9409 39.4048 16.7354 39.4048 16.5208V11.6741C39.4048 11.5487 39.3758 11.4253 39.3195 11.3128C39.2446 11.1623 37.4384 7.63513 33.7503 7.63513C30.0513 7.63513 28.0958 9.59063 28.0958 13.2897V21.3676C28.0958 21.8135 28.4577 22.1754 28.9036 22.1754H29.5879L28.1042 32.5623C28.1029 32.5733 28.1067 32.5823 28.1061 32.5933C28.0996 32.6521 28.1093 32.7083 28.1158 32.7665C28.121 32.8143 28.1203 32.8615 28.1339 32.9067C28.1488 32.9565 28.1765 32.9985 28.2005 33.0444C28.225 33.0909 28.2438 33.1381 28.2767 33.1788C28.3058 33.2156 28.3459 33.2421 28.382 33.2738C28.4253 33.3119 28.4661 33.3513 28.5171 33.3798C28.5268 33.385 28.532 33.394 28.5423 33.3992L29.776 34.0163C29.7521 34.0803 29.723 34.141 29.7159 34.2121L28.1003 50.368C28.0889 50.4802 28.1012 50.5937 28.1364 50.7009C28.1716 50.8081 28.2289 50.9068 28.3046 50.9905C28.3803 51.0741 28.4727 51.141 28.5759 51.1867C28.6791 51.2325 28.7907 51.256 28.9036 51.2559H31.4038L32.9464 66.6847C32.957 66.7902 32.9882 66.8927 33.0384 66.9861C33.0885 67.0796 33.1566 67.1622 33.2387 67.2294C33.4044 67.365 33.6173 67.4292 33.8304 67.4079C33.936 67.3973 34.0384 67.366 34.1318 67.3159C34.2253 67.2657 34.308 67.1977 34.3751 67.1156C34.4422 67.0335 34.4926 66.939 34.5232 66.8375C34.5538 66.7359 34.5641 66.6293 34.5536 66.5238L33.0272 51.2559H37.7046L36.1776 66.5232C36.167 66.6287 36.1773 66.7353 36.2079 66.8368C36.2386 66.9383 36.2889 67.0329 36.356 67.115C36.4232 67.197 36.5058 67.2651 36.5993 67.3152C36.6928 67.3654 36.7952 67.3966 36.9007 67.4072C37.0062 67.4178 37.1128 67.4075 37.2143 67.3768C37.3159 67.3462 37.4104 67.2959 37.4925 67.2287C37.5746 67.1616 37.6426 67.0789 37.6928 66.9855C37.7429 66.892 37.7742 66.7896 37.7847 66.6841L39.3273 51.2552H43.4438C43.5718 51.255 43.6978 51.2244 43.8117 51.166C43.9255 51.1076 44.0239 51.023 44.0987 50.9191C44.1735 50.8153 44.2226 50.6953 44.242 50.5688C44.2614 50.4423 44.2505 50.313 44.2102 50.1915L42.8066 45.9794ZM33.0278 30.6999C32.932 30.8915 32.9163 31.1133 32.984 31.3165C33.0517 31.5198 33.1975 31.6878 33.3891 31.7836L36.6202 33.3992C36.8119 33.4948 37.0336 33.5105 37.2368 33.4427C37.44 33.375 37.608 33.2294 37.704 33.0379C37.7515 32.943 37.7798 32.8397 37.7873 32.7338C37.7948 32.628 37.7814 32.5217 37.7478 32.421C37.7142 32.3203 37.661 32.2273 37.5914 32.1472C37.5218 32.0671 37.4371 32.0015 37.3421 31.9542L34.1109 30.3386C33.9194 30.243 33.6977 30.2274 33.4946 30.2951C33.2915 30.3628 33.1236 30.5084 33.0278 30.6999Z" fill="white"/>
</svg>
