<svg width="75" height="76" viewBox="0 0 75 76" fill="none" xmlns="http://www.w3.org/2000/svg">
<path d="M17.933 0.442017H74.721V57.23C74.721 67.1342 66.6922 75.163 56.788 75.163H0V18.3751C0 8.47079 8.02877 0.442017 17.933 0.442017Z" fill="black"/>
<path d="M42.8066 46.2584C45.5731 44.5394 47.0226 41.1829 46.5302 37.4987C45.9661 33.2872 43.12 30.0153 39.2194 29.0369L37.7479 24.6218C37.6799 24.4186 37.5341 24.2507 37.3424 24.1548C37.1508 24.059 36.9289 24.0431 36.7256 24.1107C36.5224 24.1788 36.3546 24.3246 36.2588 24.5163C36.163 24.7079 36.147 24.9296 36.2144 25.133L37.83 29.9798C37.923 30.2544 38.1544 30.4593 38.4381 30.5161C42.6283 31.3543 44.5527 34.917 44.9276 37.7126C45.3638 40.967 44.0047 43.8886 41.4663 45.1579C41.2925 45.2452 41.156 45.3922 41.0816 45.572C41.0072 45.7517 40.9999 45.9522 41.0611 46.1369L42.3232 49.9199H29.796L31.283 35.0495L38.2358 38.5256C38.4274 38.6211 38.649 38.6367 38.8522 38.5691C39.0553 38.5015 39.2234 38.3562 39.3195 38.165C39.3671 38.07 39.3954 37.9666 39.4029 37.8607C39.4104 37.7548 39.397 37.6485 39.3634 37.5477C39.3298 37.447 39.2767 37.3539 39.207 37.2738C39.1374 37.1936 39.0527 37.128 38.9577 37.0806L29.7844 32.4943L31.3179 21.7616C31.3205 21.7416 31.3134 21.7235 31.3147 21.7041C31.3159 21.6847 31.3263 21.6673 31.3263 21.6472C31.3263 21.611 31.3101 21.58 31.3056 21.5451C31.3004 21.4916 31.2898 21.4388 31.2739 21.3874C31.2566 21.3396 31.2343 21.2937 31.2074 21.2504C31.1815 21.2052 31.1557 21.1632 31.1221 21.1238C31.0875 21.086 31.0494 21.0516 31.0083 21.021C30.9693 20.9886 30.9271 20.9603 30.8823 20.9364C30.8336 20.9129 30.7824 20.8947 30.7298 20.8821C30.6962 20.873 30.6678 20.853 30.6329 20.8478C30.6128 20.8453 30.5947 20.8524 30.5754 20.8511C30.556 20.8498 30.5392 20.8394 30.5191 20.8394H29.7113V13.5687C29.7113 10.7756 30.9573 9.52971 33.7503 9.52971C36.0612 9.52971 37.4442 11.5828 37.7893 12.1631V16.4651L34.7946 19.4597C34.7196 19.5348 34.6601 19.624 34.6195 19.7221C34.579 19.8202 34.5581 19.9253 34.5582 20.0315C34.5582 20.1376 34.5792 20.2427 34.6199 20.3408C34.6606 20.4388 34.7202 20.5279 34.7953 20.6029C34.8704 20.6779 34.9595 20.7374 35.0576 20.778C35.1557 20.8186 35.2608 20.8394 35.367 20.8394C35.4731 20.8393 35.5783 20.8183 35.6763 20.7776C35.7744 20.737 35.8634 20.6774 35.9385 20.6023L39.1696 17.3711C39.3195 17.2199 39.4048 17.0144 39.4048 16.7998V11.9531C39.4048 11.8277 39.3758 11.7043 39.3195 11.5918C39.2446 11.4413 37.4384 7.91412 33.7503 7.91412C30.0513 7.91412 28.0958 9.86963 28.0958 13.5687V21.6466C28.0958 22.0925 28.4577 22.4544 28.9036 22.4544H29.5879L28.1042 32.8413C28.1029 32.8523 28.1067 32.8613 28.1061 32.8723C28.0996 32.9311 28.1093 32.9873 28.1158 33.0455C28.121 33.0933 28.1203 33.1405 28.1339 33.1857C28.1488 33.2355 28.1765 33.2775 28.2005 33.3234C28.225 33.3699 28.2438 33.4171 28.2767 33.4578C28.3058 33.4946 28.3459 33.5211 28.382 33.5528C28.4253 33.5909 28.4661 33.6303 28.5171 33.6588C28.5268 33.6639 28.532 33.673 28.5423 33.6782L29.776 34.2953C29.7521 34.3593 29.723 34.42 29.7159 34.4911L28.1003 50.647C28.0889 50.7592 28.1012 50.8727 28.1364 50.9799C28.1716 51.0871 28.2289 51.1858 28.3046 51.2694C28.3803 51.3531 28.4727 51.42 28.5759 51.4657C28.6791 51.5115 28.7907 51.535 28.9036 51.5349H31.4038L32.9464 66.9637C32.957 67.0692 32.9882 67.1717 33.0384 67.2651C33.0885 67.3586 33.1566 67.4412 33.2387 67.5084C33.4044 67.644 33.6173 67.7082 33.8304 67.6868C33.936 67.6763 34.0384 67.645 34.1318 67.5949C34.2253 67.5447 34.308 67.4767 34.3751 67.3946C34.4422 67.3125 34.4926 67.218 34.5232 67.1164C34.5538 67.0149 34.5641 66.9083 34.5536 66.8028L33.0272 51.5349H37.7046L36.1776 66.8022C36.167 66.9077 36.1773 67.0143 36.2079 67.1158C36.2386 67.2173 36.2889 67.3119 36.356 67.3939C36.4232 67.476 36.5058 67.5441 36.5993 67.5942C36.6928 67.6444 36.7952 67.6756 36.9007 67.6862C37.0062 67.6968 37.1128 67.6864 37.2143 67.6558C37.3159 67.6252 37.4104 67.5749 37.4925 67.5077C37.5746 67.4406 37.6426 67.3579 37.6928 67.2645C37.7429 67.171 37.7742 67.0686 37.7847 66.9631L39.3273 51.5342H43.4438C43.5718 51.534 43.6978 51.5034 43.8117 51.445C43.9255 51.3866 44.0239 51.302 44.0987 51.1981C44.1735 51.0943 44.2226 50.9742 44.242 50.8478C44.2614 50.7213 44.2505 50.592 44.2102 50.4705L42.8066 46.2584ZM33.0278 30.9788C32.932 31.1705 32.9163 31.3923 32.984 31.5955C33.0517 31.7988 33.1975 31.9668 33.3891 32.0626L36.6202 33.6782C36.8119 33.7738 37.0336 33.7895 37.2368 33.7217C37.44 33.654 37.608 33.5084 37.704 33.3169C37.7515 33.222 37.7798 33.1187 37.7873 33.0128C37.7948 32.907 37.7814 32.8007 37.7478 32.7C37.7142 32.5993 37.661 32.5063 37.5914 32.4262C37.5218 32.3461 37.4371 32.2805 37.3421 32.2332L34.1109 30.6176C33.9194 30.522 33.6977 30.5064 33.4946 30.5741C33.2915 30.6418 33.1236 30.7874 33.0278 30.9788Z" fill="white"/>
</svg>
