<svg width="75" height="75" viewBox="0 0 75 75" fill="none" xmlns="http://www.w3.org/2000/svg">
<path d="M17.933 0H74.721V56.788C74.721 66.6922 66.6922 74.721 56.788 74.721H0V17.933C0 8.02877 8.02877 0 17.933 0Z" fill="#CD1D93"/>
<path d="M42.8066 45.8164C45.5731 44.0974 47.0226 40.7409 46.5302 37.0567C45.9661 32.8452 43.12 29.5733 39.2194 28.5949L37.7479 24.1798C37.6799 23.9766 37.5341 23.8087 37.3424 23.7128C37.1508 23.617 36.9289 23.6011 36.7256 23.6687C36.5224 23.7368 36.3546 23.8826 36.2588 24.0742C36.163 24.2659 36.147 24.4876 36.2144 24.691L37.83 29.5378C37.923 29.8124 38.1544 30.0173 38.4381 30.0741C42.6283 30.9123 44.5527 34.475 44.9276 37.2706C45.3638 40.525 44.0047 43.4466 41.4663 44.7158C41.2925 44.8032 41.156 44.9502 41.0816 45.13C41.0072 45.3097 40.9999 45.5102 41.0611 45.6949L42.3232 49.4779H29.796L31.283 34.6075L38.2358 38.0835C38.4274 38.179 38.649 38.1947 38.8522 38.1271C39.0553 38.0595 39.2234 37.9142 39.3195 37.7229C39.3671 37.628 39.3954 37.5246 39.4029 37.4187C39.4104 37.3128 39.397 37.2064 39.3634 37.1057C39.3298 37.005 39.2767 36.9119 39.207 36.8318C39.1374 36.7516 39.0527 36.6859 38.9577 36.6386L29.7844 32.0522L31.3179 21.3196C31.3205 21.2996 31.3134 21.2815 31.3147 21.2621C31.3159 21.2427 31.3263 21.2252 31.3263 21.2052C31.3263 21.169 31.3101 21.138 31.3056 21.1031C31.3004 21.0496 31.2898 20.9968 31.2739 20.9454C31.2566 20.8976 31.2343 20.8516 31.2074 20.8084C31.1815 20.7632 31.1557 20.7212 31.1221 20.6818C31.0875 20.644 31.0494 20.6096 31.0083 20.579C30.9693 20.5466 30.9271 20.5183 30.8823 20.4944C30.8336 20.4709 30.7824 20.4527 30.7298 20.4401C30.6962 20.431 30.6678 20.411 30.6329 20.4058C30.6128 20.4032 30.5947 20.4103 30.5754 20.4091C30.556 20.4078 30.5392 20.3974 30.5191 20.3974H29.7113V13.1266C29.7113 10.3336 30.9573 9.08769 33.7503 9.08769C36.0612 9.08769 37.4442 11.1408 37.7893 11.7211V16.0231L34.7946 19.0177C34.7196 19.0928 34.6601 19.182 34.6195 19.2801C34.579 19.3782 34.5581 19.4833 34.5582 19.5894C34.5582 19.6956 34.5792 19.8007 34.6199 19.8988C34.6606 19.9968 34.7202 20.0859 34.7953 20.1609C34.8704 20.2359 34.9595 20.2954 35.0576 20.336C35.1557 20.3766 35.2608 20.3974 35.367 20.3973C35.4731 20.3973 35.5783 20.3763 35.6763 20.3356C35.7744 20.295 35.8634 20.2354 35.9385 20.1603L39.1696 16.9291C39.3195 16.7779 39.4048 16.5724 39.4048 16.3578V11.5111C39.4048 11.3857 39.3758 11.2623 39.3195 11.1498C39.2446 10.9992 37.4384 7.47211 33.7503 7.47211C30.0513 7.47211 28.0958 9.42761 28.0958 13.1266V21.2046C28.0958 21.6505 28.4577 22.0124 28.9036 22.0124H29.5879L28.1042 32.3993C28.1029 32.4103 28.1067 32.4193 28.1061 32.4303C28.0996 32.4891 28.1093 32.5453 28.1158 32.6035C28.121 32.6513 28.1203 32.6985 28.1339 32.7437C28.1488 32.7935 28.1765 32.8355 28.2005 32.8814C28.225 32.9279 28.2438 32.9751 28.2767 33.0158C28.3058 33.0526 28.3459 33.0791 28.382 33.1108C28.4253 33.1489 28.4661 33.1883 28.5171 33.2168C28.5268 33.2219 28.532 33.231 28.5423 33.2361L29.776 33.8533C29.7521 33.9173 29.723 33.978 29.7159 34.0491L28.1003 50.2049C28.0889 50.3172 28.1012 50.4306 28.1364 50.5379C28.1716 50.6451 28.2289 50.7437 28.3046 50.8274C28.3803 50.9111 28.4727 50.978 28.5759 51.0237C28.6791 51.0694 28.7907 51.093 28.9036 51.0929H31.4038L32.9464 66.5217C32.957 66.6272 32.9882 66.7296 33.0384 66.8231C33.0885 66.9165 33.1566 66.9992 33.2387 67.0663C33.4044 67.202 33.6173 67.2662 33.8304 67.2448C33.936 67.2343 34.0384 67.203 34.1318 67.1529C34.2253 67.1027 34.308 67.0347 34.3751 66.9526C34.4422 66.8705 34.4926 66.776 34.5232 66.6744C34.5538 66.5729 34.5641 66.4663 34.5536 66.3608L33.0272 51.0929H37.7046L36.1776 66.3601C36.167 66.4657 36.1773 66.5722 36.2079 66.6738C36.2386 66.7753 36.2889 66.8698 36.356 66.9519C36.4232 67.034 36.5058 67.1021 36.5993 67.1522C36.6928 67.2024 36.7952 67.2336 36.9007 67.2442C37.0062 67.2547 37.1128 67.2444 37.2143 67.2138C37.3159 67.1832 37.4104 67.1329 37.4925 67.0657C37.5746 66.9986 37.6426 66.9159 37.6928 66.8224C37.7429 66.729 37.7742 66.6266 37.7847 66.521L39.3273 51.0922H43.4438C43.5718 51.092 43.6978 51.0614 43.8117 51.003C43.9255 50.9445 44.0239 50.8599 44.0987 50.7561C44.1735 50.6523 44.2226 50.5322 44.242 50.4057C44.2614 50.2793 44.2505 50.15 44.2102 50.0285L42.8066 45.8164ZM33.0278 30.5368C32.932 30.7284 32.9163 30.9503 32.984 31.1535C33.0517 31.3567 33.1975 31.5247 33.3891 31.6206L36.6202 33.2361C36.8119 33.3318 37.0336 33.3474 37.2368 33.2797C37.44 33.212 37.608 33.0664 37.704 32.8749C37.7515 32.78 37.7798 32.6767 37.7873 32.5708C37.7948 32.4649 37.7814 32.3586 37.7478 32.258C37.7142 32.1573 37.661 32.0643 37.5914 31.9842C37.5218 31.9041 37.4371 31.8385 37.3421 31.7912L34.1109 30.1756C33.9194 30.08 33.6977 30.0643 33.4946 30.1321C33.2915 30.1998 33.1236 30.3454 33.0278 30.5368Z" fill="white"/>
</svg>
