<svg width="24" height="19" viewBox="0 0 24 19" fill="none" xmlns="http://www.w3.org/2000/svg">
<path d="M11.7752 18.3495C8.31882 18.2762 4.94078 17.2398 2.01906 14.9114C1.39867 14.4162 0.874976 13.8003 0.305865 13.2414C-0.0515682 12.8898 -0.0830636 12.5383 0.145459 12.0695C1.66162 8.93756 3.14849 5.79097 4.64487 2.64878C4.9796 1.9449 5.3114 1.23955 5.65052 0.537135C5.92299 -0.0283132 6.10537 -0.0891026 6.684 0.137956C8.92382 1.01689 11.2413 1.29376 13.6291 1.02788C14.9387 0.88139 16.2175 0.618434 17.4334 0.0859458C17.8648 -0.103025 18.0874 0.0127052 18.3248 0.501979C18.9864 1.87263 19.6437 3.24474 20.2965 4.61832C21.4831 7.10864 22.6557 9.59895 23.8621 12.0812C24.0818 12.528 24.04 12.8459 23.7295 13.2136C22.3012 14.9077 20.5324 16.1258 18.5115 16.9974C16.4409 17.8866 14.2721 18.3202 11.7752 18.3495ZM6.53971 1.34429L1.22801 12.4965C6.7404 18.9135 17.7417 18.5282 22.7714 12.4826L17.4583 1.34429C13.7887 2.56528 10.1873 2.5748 6.53971 1.34429Z" fill="black"/>
<path d="M16.2446 12.5793C16.2747 12.9528 16.3677 13.3344 16.3215 13.6985C16.1831 14.7971 15.4946 15.4622 14.4904 15.8225C13.5236 16.1705 12.5377 16.0943 11.5606 15.8599C9.53689 15.3743 8.01707 14.1467 6.81952 12.5038C5.96988 11.3371 5.84683 10.0538 6.45769 8.70026C5.85049 8.01249 5.60439 7.2024 5.66665 6.28319C5.7875 4.50481 7.15937 3.32191 8.93848 3.47133C9.61233 3.52772 10.2525 3.68227 10.8275 4.04849C11.6017 4.54289 12.0257 5.2497 12.0829 6.17259C12.0968 6.39818 12.1048 6.6245 12.1122 6.77685C12.5516 6.98487 12.9721 7.11598 13.3083 7.36281C13.6877 7.6426 13.7214 8.11063 13.6598 8.58452C14.6772 9.13972 15.7275 9.36897 16.8591 9.18659C16.9878 9.15345 17.1181 9.12729 17.2495 9.10822C18.0508 9.06794 18.5826 9.79892 18.1819 10.4838C17.8003 11.1356 17.303 11.7238 16.8174 12.3083C16.6936 12.4621 16.4263 12.4987 16.2446 12.5793ZM9.61013 10.3409C10.076 10.3805 10.473 10.3995 10.8648 10.4523C11.231 10.5021 11.4801 10.3717 11.6939 10.086C11.9737 9.71103 12.411 8.66729 12.4652 8.1663C11.91 8.01249 11.8924 8.01981 11.6976 8.4981C11.5687 8.81452 11.4537 9.13679 11.3138 9.45028C11.1673 9.77768 10.9644 9.90366 10.6443 9.85605C10.2496 9.79819 9.85624 9.72787 9.46731 9.63632C9.11354 9.55575 8.93482 9.29133 8.9817 8.97711C9.02857 8.6629 9.27467 8.49297 9.65701 8.51934C9.89798 8.53618 10.1375 8.58013 10.3799 8.61236C10.7557 7.87991 10.9886 7.15187 10.9505 6.34691C10.9197 5.6965 10.6224 5.23212 10.0481 4.93475C9.58686 4.70412 9.07522 4.59257 8.55981 4.61027C7.87058 4.61979 7.34028 4.91131 7.04584 5.54048C6.71404 6.25169 6.68621 6.97315 7.11909 7.66458C7.18632 7.75687 7.2706 7.83543 7.36739 7.89602C8.01413 8.35453 8.03318 8.42705 7.58712 9.11262C7.23262 9.65683 7.12128 10.2574 7.30879 10.8588C7.45341 11.31 7.67331 11.7334 7.9592 12.1113C8.54925 12.8853 9.27916 13.5419 10.1111 14.0471C11.0705 14.6475 12.1893 14.943 13.32 14.8945C13.9653 14.8704 14.5578 14.6748 14.9672 14.1255C15.0734 13.9894 15.1449 13.8296 15.1757 13.6598C15.2064 13.49 15.1955 13.3152 15.1438 13.1506C15.0515 12.8437 14.9533 12.5529 14.5527 12.4702C14.267 12.4116 14.1132 12.1039 14.1579 11.8578C14.1796 11.7258 14.2469 11.6056 14.3481 11.5181C14.4492 11.4306 14.5779 11.3813 14.7116 11.3788C15.072 11.3576 15.4345 11.3744 15.7949 11.3539C15.937 11.3458 16.1208 11.3217 16.2058 11.2309C16.4321 10.9862 16.6152 10.7013 16.8694 10.3592C15.5364 10.494 14.3659 10.2274 13.2541 9.69418C13.0636 10.0304 12.9442 10.371 12.7179 10.609C12.3517 10.9935 12.3773 11.3773 12.5568 11.808C12.5934 11.8952 12.63 11.9831 12.66 12.0739C12.7758 12.4306 12.6754 12.7287 12.4022 12.8496C12.0953 12.9843 11.7672 12.8583 11.606 12.5112C11.4793 12.2387 11.3914 11.9479 11.2764 11.6403L9.53103 11.4521C9.55813 11.0741 9.5845 10.7555 9.61013 10.3409Z" fill="black"/>
</svg>
