<svg width="24" height="25" viewBox="0 0 24 25" fill="none" xmlns="http://www.w3.org/2000/svg">
<path d="M3.33458 12.7329C3.33458 11.602 3.26795 10.4658 3.35649 9.34192C3.42575 8.45648 2.43949 7.41324 1.5786 7.32558C0.779958 7.24405 0.707199 7.15024 0.575699 6.36649C0.400365 5.318 0.225031 4.26921 0.0496966 3.22012C0.0356698 3.13246 0.0260269 3.04479 0.0172602 2.95712C-0.0476134 2.29524 0.049691 2.12692 0.66862 1.91739C1.73816 1.55533 2.81208 1.20642 3.8825 0.847858C4.07427 0.794613 4.25974 0.720838 4.43568 0.627813C5.28517 0.115838 6.22233 -0.00426902 7.18492 0.000114336C7.37428 0.000114336 7.60572 0.029928 7.74687 0.138635C8.81816 0.962705 10.0692 1.19765 11.3675 1.27831C12.5703 1.34844 13.7643 1.27831 14.904 0.850491C15.3134 0.696197 15.6869 0.447214 16.0857 0.26136C16.3181 0.152653 16.567 0.0158931 16.8116 0.00975643C17.776 -0.013037 18.6938 0.159667 19.567 0.623426C20.093 0.8987 20.6821 1.04773 21.2467 1.23709C21.9384 1.47292 22.6371 1.68771 23.3279 1.92441C23.9416 2.13569 24.0678 2.30839 23.9705 2.9659C23.7952 4.17132 23.5918 5.37323 23.377 6.57164C23.2745 7.13972 23.114 7.28086 22.5372 7.32908C21.8919 7.38255 21.4142 7.69728 21.0267 8.18646C20.775 8.49892 20.6432 8.89094 20.655 9.29194C20.6699 11.3758 20.6322 13.4605 20.6725 15.5444C20.691 16.5897 20.4443 17.6228 19.9554 18.547C19.1115 20.2145 17.927 21.6863 16.4785 22.8672C16.131 23.1418 15.7625 23.3889 15.3765 23.6062C14.8953 23.8861 14.3454 24.0261 13.7889 24.0104C12.5913 23.9884 11.3938 23.9911 10.1945 24.0104C9.61581 24.0188 9.04603 23.8671 8.54813 23.572C7.1139 22.748 5.99615 21.5794 5.08003 20.2319C4.5365 19.4315 4.09991 18.5513 3.67297 17.6791C3.39945 17.1206 3.31529 16.4999 3.32669 15.8661C3.34861 14.8176 3.33458 13.7752 3.33458 12.7329ZM5.4833 1.5641C5.46016 1.65013 5.44548 1.73822 5.43946 1.8271C5.6148 3.84344 5.30183 5.80543 4.75216 7.74024C4.68652 7.97395 4.6529 8.21548 4.65222 8.45823C4.64433 10.9217 4.63907 13.3842 4.65222 15.8477C4.64156 16.2462 4.7009 16.6435 4.82755 17.0215C5.63799 19.1757 7.09383 21.0271 8.99612 22.3228C9.38503 22.5847 9.84797 22.7145 10.3164 22.6927C11.293 22.6761 12.2731 22.6314 13.2445 22.7032C14.2351 22.776 15.0171 22.4148 15.7298 21.7985C17.0013 20.7172 18.0462 19.3949 18.8043 17.9079C19.1641 17.2174 19.349 16.4492 19.3426 15.6706C19.318 13.3185 19.3426 10.9664 19.3277 8.61428C19.3247 8.26134 19.277 7.91021 19.1857 7.56929C18.6868 5.69234 18.3739 3.79961 18.5483 1.84726C18.5409 1.74346 18.5218 1.64083 18.4913 1.54131L17.314 1.32652C17.051 2.6538 16.5171 3.75489 15.5545 4.61403C14.5919 5.47317 13.4505 5.97989 12.167 5.96498C9.11885 5.92904 7.36551 4.24934 6.63173 1.31863L5.4833 1.5641ZM15.7009 1.99454C14.5024 2.42345 13.2383 2.63974 11.9654 2.63364C10.7258 2.6389 9.51949 2.41096 8.3053 2.01997C8.62792 3.27448 10.0464 4.62806 11.9952 4.64998C13.6267 4.66926 15.2196 3.55326 15.7009 1.99454ZM19.8782 2.18566C19.7441 3.81276 19.9773 5.30836 20.3902 6.76889L22.1435 5.90624L22.6047 3.08862L19.8782 2.18566ZM1.39538 3.09125C1.5602 4.09066 1.71713 5.03834 1.86002 5.90712L3.57654 6.74434C4.07975 5.48983 4.31996 3.10177 4.00787 2.22247L1.39538 3.09125Z" fill="black"/>
<path d="M9.38098 9.98274C9.85087 8.7782 10.6346 8.02864 11.9593 8.00936C13.1813 7.99182 13.9239 8.53536 14.6252 9.96959C14.7331 9.98537 14.8628 10.0003 14.9908 10.0231C16.0428 10.2116 16.7301 11.0917 16.6565 12.163C16.6237 12.6551 16.4061 13.1165 16.0472 13.4548C15.6883 13.793 15.2148 13.9829 14.7217 13.9865C12.907 14.0093 11.0914 14.0049 9.27666 13.9865C8.78461 13.9798 8.31291 13.789 7.95447 13.4519C7.59604 13.1147 7.37686 12.6555 7.3401 12.1648C7.2647 11.1233 7.9222 10.2422 8.93563 10.0327C9.06187 10.0055 9.19512 10.002 9.38098 9.98274ZM11.968 12.6794C12.5896 12.6794 13.2103 12.6794 13.831 12.6794C14.141 12.6919 14.4516 12.6819 14.7602 12.6496C14.9275 12.6274 15.0798 12.5416 15.1855 12.41C15.2911 12.2784 15.342 12.1111 15.3274 11.943C15.3029 11.6212 15.0864 11.3924 14.7199 11.3425C14.5016 11.3127 14.2816 11.3372 14.0563 11.3205C13.6179 11.2864 13.4259 11.1075 13.3374 10.6797C13.3181 10.5266 13.2888 10.3749 13.2497 10.2256C13.1645 9.9657 13.0003 9.73887 12.7801 9.57666C12.5599 9.41446 12.2946 9.32495 12.0211 9.32061C11.7476 9.31627 11.4796 9.39731 11.2543 9.55245C11.0291 9.70758 10.8578 9.92909 10.7644 10.1861C10.7163 10.3327 10.6811 10.4832 10.6592 10.6359C10.5619 11.1452 10.3848 11.2995 9.8535 11.3232C9.6545 11.3319 9.452 11.3127 9.2565 11.3407C8.90583 11.3924 8.67877 11.6405 8.66211 11.9544C8.6541 12.1111 8.70167 12.2657 8.79646 12.3908C8.89125 12.5159 9.02716 12.6035 9.18023 12.6382C9.35335 12.6724 9.52995 12.6856 9.70623 12.6776C10.4593 12.6811 11.2141 12.6785 11.968 12.6794Z" fill="black"/>
</svg>
