<svg width="24" height="31" viewBox="0 0 24 31" fill="none" xmlns="http://www.w3.org/2000/svg">
<path d="M5.21196 14.9171C5.27909 14.2073 5.34145 13.5495 5.40779 12.851C5.29236 12.8614 5.17779 12.8799 5.06491 12.9061C3.34173 13.4249 2.26114 14.5846 1.72005 16.2766C1.40035 17.266 1.3596 18.2955 1.27168 19.3137C1.12222 21.0569 0.997538 22.8016 0.872056 24.5464C0.839287 24.982 0.816895 25.42 0.818493 25.8563C0.824887 27.2526 1.94943 28.0871 3.30256 27.7002C4.8555 27.2566 6.40524 26.8027 7.95658 26.3519C8.55521 26.1776 9.15545 26.001 9.87477 25.7924C8.65752 25.2729 7.58014 24.759 6.32532 25.1266C6.05065 25.2028 5.76782 25.2457 5.48291 25.2545C4.60853 25.2921 3.95474 24.8197 3.6782 23.9757C3.34332 22.9559 3.77891 21.7482 4.74201 21.0697C5.37181 20.6261 6.07036 20.4303 6.84483 20.5477C7.57694 20.662 8.30985 20.7699 9.04116 20.8914C9.34005 20.9472 9.6483 20.924 9.93552 20.8243C11.03 20.4417 12.1287 20.0717 13.2316 19.7141C13.5234 19.6304 13.8203 19.5655 14.1204 19.5199C15.2034 19.3153 16.0498 20.0146 16.3583 20.8666C16.522 21.3553 16.5901 21.8708 16.5589 22.3852C16.5477 22.7185 16.3774 22.8696 16.0426 22.8456C15.7229 22.8224 15.4032 22.7657 15.0835 22.7113L6.9791 21.4021C5.95047 21.2359 5.10886 21.6108 4.6365 22.43C4.44306 22.7615 4.37447 23.1513 4.44309 23.5289C4.55179 24.1883 5.00257 24.5072 5.66674 24.4009C5.83682 24.3819 6.00533 24.3509 6.17105 24.3082C7.10777 24.0221 8.02053 24.1484 8.90689 24.4912C10.6972 25.1842 12.4795 25.8979 14.2619 26.606C14.3569 26.652 14.4489 26.7038 14.5376 26.7611L14.2315 27.4804C14.0133 27.4005 13.8366 27.3405 13.664 27.2726C12.9742 27.0001 12.2813 26.7363 11.5996 26.4446C11.3409 26.329 11.0482 26.3148 10.7795 26.4046C8.39137 27.1064 5.99923 27.7953 3.60948 28.4931C3.12993 28.6337 2.65038 28.7049 2.14925 28.5994C0.880846 28.3324 -0.00872713 27.3118 6.45902e-05 26.0154C0.00965556 24.8565 0.0759931 23.6976 0.159914 22.5403C0.278203 20.929 0.434058 19.3201 0.581919 17.7112C0.675431 16.6978 0.92879 15.7243 1.41793 14.8283C2.34186 13.1371 3.81008 12.2156 5.68032 11.9071C7.11178 11.6721 7.11337 11.6889 8.27228 12.5808C8.85839 13.0327 9.44905 13.4811 10.0442 13.926C10.1777 14.0267 10.3207 14.1154 10.4862 14.2273C11.0457 13.8029 11.5868 13.3897 12.1302 12.9773C12.5546 12.6576 12.9727 12.3259 13.409 12.0182C13.5569 11.9151 13.7511 11.8112 13.9214 11.816C15.6629 11.8639 17.2686 12.2955 18.5426 13.5743C19.4745 14.5118 20.0036 15.6659 20.197 16.9503C20.3977 18.2803 20.4976 19.6254 20.6478 21.0265L19.803 21.1312C19.7463 20.5486 19.6967 20.0226 19.6432 19.4967C19.5688 18.759 19.5121 18.0189 19.409 17.286C19.2998 16.4728 19.0221 15.6912 18.5938 14.9914C17.8896 13.8445 16.6468 13.0212 15.3968 12.8638V15.5876C16.4542 16.1894 16.8306 16.856 16.6132 17.6657C16.4182 18.3914 15.7588 18.9189 15.0323 18.9301C14.6685 18.9288 14.3147 18.8103 14.0235 18.5922C13.7322 18.3741 13.519 18.068 13.4154 17.7192C13.1757 16.8776 13.5289 16.2182 14.5871 15.594C14.5512 14.6581 14.7278 13.6862 14.3753 12.7615C14.0429 12.5729 13.8159 12.7487 13.5841 12.9253C12.723 13.5839 11.8614 14.2417 10.9993 14.8987C10.4766 15.2983 10.4486 15.2983 9.91874 14.8931C9.05555 14.2377 8.19342 13.581 7.33236 12.9229C7.23203 12.8356 7.12367 12.758 7.00868 12.6911C6.70737 12.5433 6.46119 12.6456 6.3373 12.9685C6.10152 13.5847 6.08234 14.2241 6.11111 14.8931C6.35088 14.9666 6.56989 15.0257 6.78169 15.0977C7.89504 15.4757 8.47529 16.2822 8.47689 17.4507C8.47689 18.1164 8.48807 18.7822 8.46809 19.4488C8.4553 19.8916 8.19556 20.1585 7.80393 20.1329C7.72365 20.1253 7.6457 20.1016 7.57473 20.0633C7.50376 20.025 7.44118 19.9728 7.39071 19.91C7.32996 19.8204 7.35554 19.5687 7.43467 19.5047C7.69123 19.2993 7.65206 19.0404 7.65286 18.7782C7.65286 18.3786 7.62969 17.979 7.65766 17.5793C7.73759 16.4716 7.00149 16.0048 6.28616 15.8282C5.82242 15.705 5.33221 15.7253 4.88028 15.8865C4.1106 16.1695 3.66302 16.6746 3.72457 17.509C3.75494 17.9254 3.72937 18.3458 3.73097 18.7638C3.73097 19.0268 3.70457 19.2825 3.93236 19.5055C4.01228 19.5855 4.00109 19.8412 3.93236 19.9659C3.88121 20.0642 3.68301 20.1257 3.54794 20.1313C3.14831 20.1425 2.90853 19.8916 2.88216 19.436C2.86058 19.0188 2.87576 18.6 2.87496 18.1812C2.87496 17.9718 2.87496 17.7632 2.87496 17.5538C2.88055 16.2438 3.45922 15.4549 4.70364 15.0625C4.86829 15.0106 5.03212 14.9722 5.21196 14.9171ZM15.6174 21.9368C15.7293 20.8523 15.0843 20.1785 14.1156 20.3679C13.4682 20.4942 12.8432 20.7364 12.2102 20.933C11.9784 21.0049 11.7522 21.0928 11.5236 21.1767C11.53 21.2127 11.5364 21.2479 11.5436 21.2839L15.6174 21.9368ZM15.0211 16.4588C14.9132 16.455 14.8056 16.473 14.7047 16.5117C14.6038 16.5503 14.5117 16.6088 14.4339 16.6837C14.356 16.7586 14.2941 16.8484 14.2516 16.9477C14.2091 17.0471 14.187 17.1539 14.1867 17.262C14.1863 17.37 14.2076 17.477 14.2494 17.5766C14.2912 17.6762 14.3525 17.7664 14.4298 17.8419C14.5072 17.9173 14.5988 17.9765 14.6994 18.0158C14.8001 18.0552 14.9076 18.0739 15.0155 18.0709C15.225 18.0651 15.4239 17.9779 15.5703 17.828C15.7166 17.6781 15.7988 17.4771 15.7995 17.2675C15.8003 17.058 15.7194 16.8565 15.5741 16.7055C15.4288 16.5546 15.2305 16.4661 15.0211 16.4588Z" fill="black"/>
<path d="M10.5142 0.000669614C11.233 0.00297301 11.9443 0.146964 12.6074 0.424411C13.2705 0.701859 13.8724 1.10731 14.3786 1.61759C14.8849 2.12786 15.2856 2.73294 15.5578 3.39821C15.83 4.06349 15.9684 4.7759 15.965 5.4947C15.9482 8.50946 13.4674 10.9759 10.4662 10.9592C9.74142 10.9641 9.02287 10.8253 8.35213 10.5507C7.68139 10.276 7.0718 9.87103 6.55866 9.35917C6.04552 8.84731 5.63901 8.23874 5.3627 7.56869C5.08638 6.89864 4.94573 6.18044 4.94891 5.45566C4.95208 4.73088 5.099 4.01392 5.38117 3.34632C5.66335 2.67871 6.07516 2.07372 6.59277 1.56637C7.11037 1.05902 7.72348 0.659402 8.3966 0.390644C9.06971 0.121886 9.78946 -0.0106602 10.5142 0.000669614ZM10.4806 10.0976C11.0894 10.0968 11.692 9.97609 12.2541 9.7424C12.8162 9.50871 13.3268 9.16659 13.7567 8.73557C14.1866 8.30456 14.5274 7.79309 14.7597 7.23037C14.9919 6.66764 15.111 6.06469 15.1102 5.45593C15.1095 4.84717 14.9888 4.24453 14.7551 3.68241C14.5214 3.12029 14.1793 2.6097 13.7482 2.1798C13.3172 1.7499 12.8058 1.40909 12.243 1.17686C11.6803 0.944622 11.0774 0.825502 10.4686 0.826289C9.23914 0.827879 8.06068 1.31779 7.19246 2.18827C6.32423 3.05874 5.83738 4.23847 5.83897 5.46792C5.84056 6.69736 6.33047 7.87582 7.20095 8.74405C8.07142 9.61228 9.25114 10.0992 10.4806 10.0976Z" fill="black"/>
<path d="M23.9991 26.4997C24.0014 27.0805 23.8893 27.656 23.6692 28.1934C23.4491 28.7308 23.1253 29.2196 22.7163 29.6319C22.3073 30.0442 21.821 30.3718 21.2854 30.5962C20.7498 30.8206 20.1752 30.9373 19.5944 30.9396C19.0137 30.9419 18.4382 30.8298 17.9008 30.6097C17.3634 30.3896 16.8746 30.0658 16.4623 29.6568C16.05 29.2477 15.7223 28.7615 15.498 28.2259C15.2736 27.6902 15.1569 27.1156 15.1546 26.5349C15.1362 24.0868 17.0992 22.0823 19.5329 22.0679C22.1336 22.0527 24.0486 24.1963 23.9991 26.4997ZM19.5233 30.0844C20.4745 30.0998 21.3931 29.7377 22.0779 29.0774C22.7628 28.4171 23.1581 27.5124 23.1774 26.5613C23.2086 24.572 21.5853 22.9223 19.5808 22.9079C17.6498 22.8951 16.0138 24.5064 15.9842 26.4454C15.9773 26.9166 16.0634 27.3845 16.2374 27.8225C16.4115 28.2604 16.6701 28.6597 16.9986 28.9977C17.327 29.3356 17.7188 29.6055 18.1516 29.792C18.5844 29.9785 19.0497 30.0778 19.5209 30.0844H19.5233Z" fill="black"/>
<path d="M19.1484 27.3957C19.6528 26.7107 20.1467 26.037 20.6422 25.368C20.7257 25.2411 20.8195 25.1213 20.9228 25.01C20.9936 24.9304 21.0929 24.8819 21.1992 24.8748C21.3055 24.8678 21.4103 24.9028 21.491 24.9724C21.6653 25.1059 21.6884 25.2921 21.5837 25.4815C21.5386 25.5649 21.4875 25.645 21.4311 25.7213C20.846 26.5205 20.2642 27.3142 19.6727 28.1054C19.353 28.5298 19.2012 28.549 18.7864 28.2333C18.4091 27.9456 18.0375 27.6499 17.6634 27.3541C17.6013 27.3105 17.5421 27.263 17.486 27.2119C17.271 26.9993 17.2342 26.7915 17.3741 26.6077C17.514 26.4238 17.7473 26.3911 17.9823 26.5437C18.1725 26.6676 18.3452 26.8194 18.5258 26.9585C18.6761 27.0752 18.8247 27.1927 18.9758 27.3078C19.0315 27.3407 19.0891 27.37 19.1484 27.3957Z" fill="black"/>
</svg>
