<svg width="24" height="33" viewBox="0 0 24 33" fill="none" xmlns="http://www.w3.org/2000/svg">
<path d="M12.0328 16.4212C12.5009 16.0704 12.9429 15.7429 13.3806 15.4099C14.0419 14.9088 14.6934 14.3942 15.3646 13.9065C15.5436 13.7758 15.7798 13.6452 15.991 13.6461C18.0172 13.6541 19.8652 14.1723 21.3391 15.6525C22.4801 16.798 23.0842 18.2227 23.2838 19.7968C23.503 21.5258 23.6417 23.2665 23.7805 25.0053C23.8834 26.2985 23.9406 27.6006 23.9899 28.8937C24.0149 29.4035 23.9936 29.9145 23.9263 30.4205C23.8302 31.0686 23.5228 31.6669 23.0519 32.1225C22.5811 32.5782 21.973 32.8657 21.3221 32.9406C20.5596 33.0453 19.7831 32.9548 19.0651 32.6775C17.1858 31.9418 15.2876 31.2384 13.4065 30.5001C13.0379 30.3434 12.6254 30.323 12.2431 30.4428C9.51093 31.2527 6.77336 32.043 4.03579 32.8341C2.45894 33.2905 0.966195 32.6426 0.282474 31.217C0.076555 30.7936 -0.019456 30.3251 0.00327009 29.8549C0.0685994 28.4525 0.113334 27.0475 0.215355 25.6487C0.339749 23.9296 0.51337 22.2149 0.668191 20.4985C0.747437 19.4999 0.991477 18.5213 1.3904 17.6025C2.25042 15.6659 3.72168 14.4336 5.76031 13.9056C6.39302 13.7418 7.06062 13.7132 7.71212 13.6192C8.14079 13.5566 8.48712 13.7006 8.82629 13.9664C9.85993 14.7799 10.9159 15.5692 12.0328 16.4212ZM16.7759 17.9936C16.7759 17.1882 16.7884 16.4006 16.7687 15.6149C16.7528 15.3599 16.7004 15.1086 16.613 14.8685C16.5164 14.5759 16.2846 14.4837 16.0072 14.6179C15.8586 14.7008 15.7186 14.7983 15.5892 14.9088C14.5896 15.6695 13.5918 16.4301 12.5903 17.1926C12.0767 17.5819 12.0006 17.5837 11.4771 17.1926C10.4756 16.4346 9.4787 15.6713 8.47907 14.9088C8.34936 14.7984 8.2111 14.6985 8.06561 14.6099C7.7318 14.4309 7.43918 14.5419 7.29689 14.8784C6.99082 15.6256 6.97651 16.3997 7.05705 17.1891C7.25931 17.2454 7.42217 17.2884 7.58415 17.3358C9.02408 17.7528 9.7418 18.697 9.74538 20.179C9.74538 20.818 9.74538 21.4569 9.74538 22.0959C9.75133 22.266 9.74055 22.4363 9.71318 22.6042C9.68544 22.7634 9.60527 22.9087 9.48542 23.017C9.36558 23.1253 9.21294 23.1905 9.05182 23.202C8.81824 23.2307 8.59273 23.168 8.52203 22.947C8.49675 22.8606 8.49007 22.7698 8.50241 22.6807C8.51475 22.5915 8.54584 22.506 8.59363 22.4297C8.73323 22.2507 8.83166 22.1004 8.82719 21.8677C8.81645 21.2296 8.82719 20.5897 8.82719 19.9508C8.82719 19.3735 8.55872 18.9359 8.09784 18.6021C7.22081 17.9658 5.84801 17.9658 4.97367 18.6093C4.51637 18.9449 4.25772 19.387 4.26488 19.9678C4.27025 20.5853 4.26488 21.2028 4.26488 21.8203C4.26488 22.0386 4.27652 22.2355 4.47071 22.3921C4.55794 22.4573 4.61617 22.554 4.6329 22.6616C4.64963 22.7692 4.62352 22.879 4.56021 22.9676C4.4206 23.2002 4.1933 23.236 3.94451 23.185C3.54269 23.0955 3.34849 22.8459 3.34133 22.3304C3.3297 21.4569 3.34132 20.5835 3.34669 19.7109C3.35206 19.2008 3.55163 18.7596 3.86575 18.3686C4.2801 17.8495 4.82958 17.5425 5.45334 17.3492L5.99656 17.181C6.08068 16.3505 6.15854 15.5818 6.23729 14.8014C6.16531 14.7935 6.0927 14.7935 6.02073 14.8014C4.3678 15.2488 3.12653 16.2064 2.36048 17.7493C1.86917 18.7337 1.66335 19.7986 1.56938 20.8878C1.40919 22.7331 1.23647 24.5775 1.09686 26.4238C1.01184 27.5487 0.979634 28.6772 0.924148 29.8048C0.903609 30.2335 1.01477 30.6582 1.24272 31.0219C1.7573 31.864 2.68804 32.2309 3.67693 31.949C6.05026 31.2715 8.42001 30.5789 10.7889 29.8907C10.9401 29.8468 11.0851 29.7806 11.35 29.6795C10.6779 29.4164 10.1293 29.1864 9.56998 28.9868C8.92591 28.7507 8.22666 28.709 7.55909 28.8669C7.26914 28.9349 6.97739 29.0011 6.68386 29.0459C5.29136 29.2777 4.20224 28.3962 4.11991 26.9777C4.00805 25.0348 5.8677 23.3828 7.8598 23.6665C8.68133 23.7828 9.50466 23.9001 10.3181 24.0602C10.7351 24.1438 11.167 24.1098 11.5657 23.9618C12.7291 23.5519 13.8924 23.1385 15.0693 22.7662C15.5554 22.6113 16.0578 22.5131 16.5665 22.4736C17.4265 22.41 18.0879 22.8029 18.5523 23.5206C18.9998 24.2124 19.0848 24.9937 19.0553 25.791C19.0409 26.1651 18.8521 26.3074 18.4664 26.2993C18.3387 26.2933 18.2117 26.2784 18.0861 26.2546C15.0398 25.766 11.9931 25.2771 8.94622 24.7878C8.44238 24.7073 7.93585 24.6088 7.42485 24.599C6.86588 24.5895 6.32173 24.779 5.88948 25.1335C5.45723 25.4881 5.16502 25.9847 5.06496 26.5347C4.88597 27.5442 5.55625 28.2467 6.56751 28.1026C6.71538 28.0865 6.86193 28.0598 7.00604 28.023C8.25893 27.665 9.43037 27.8851 10.6161 28.3595C13.5792 29.5461 16.5584 30.6943 19.543 31.8273C19.9827 31.9838 20.4486 32.0537 20.9149 32.0331C22.1785 31.9911 23.0001 31.1212 23.0448 29.8585C23.0515 29.7309 23.0515 29.603 23.0448 29.4754C22.8918 26.9696 22.7495 24.4639 22.575 21.9581C22.5202 21.13 22.4168 20.3059 22.2654 19.4899C22.0085 18.1395 21.4223 16.9465 20.3592 16.0337C19.5996 15.3752 18.6725 14.94 17.6807 14.7763C17.7147 15.9165 17.7469 16.9886 17.7782 18.0312C18.8834 18.5833 19.322 19.3485 19.1099 20.2855C19.0254 20.7023 18.8021 21.0781 18.4763 21.3516C18.1506 21.6251 17.7418 21.78 17.3166 21.791C16.8915 21.802 16.4752 21.6685 16.1357 21.4123C15.7963 21.156 15.5538 20.7922 15.4478 20.3803C15.1785 19.4174 15.5937 18.654 16.7795 17.9936H16.7759ZM17.9939 25.28C18.146 24.045 17.3674 23.2217 16.2586 23.458C15.3521 23.6522 14.4733 23.9797 13.5846 24.2563C13.4629 24.2938 13.3537 24.3726 13.1085 24.4988L17.9939 25.28ZM17.2556 20.8197C17.3779 20.8245 17.5 20.8047 17.6144 20.7614C17.7289 20.7181 17.8336 20.6521 17.9221 20.5676C18.0106 20.483 18.0811 20.3815 18.1296 20.269C18.1781 20.1566 18.2034 20.0356 18.2042 19.9132C18.2059 19.7898 18.1833 19.6673 18.1376 19.5526C18.092 19.4379 18.0242 19.3334 17.9382 19.245C17.8521 19.1565 17.7495 19.0858 17.6361 19.037C17.5227 18.9882 17.4009 18.9623 17.2775 18.9605C17.1541 18.9588 17.0316 18.9815 16.9169 19.0271C16.8023 19.0727 16.6977 19.1405 16.6093 19.2266C16.5208 19.3127 16.4501 19.4153 16.4013 19.5286C16.3525 19.642 16.3266 19.7638 16.3249 19.8872C16.3233 20.0103 16.3464 20.1324 16.3928 20.2464C16.4392 20.3603 16.508 20.4638 16.5951 20.5508C16.6822 20.6377 16.7859 20.7063 16.8999 20.7525C17.014 20.7987 17.1361 20.8215 17.2592 20.8197H17.2556Z" fill="black"/>
<path d="M18.3411 6.2969C18.3501 9.76562 15.5669 12.5873 12.1277 12.6043C8.58827 12.6222 5.77373 9.83812 5.76478 6.31392C5.75762 2.83178 8.57665 -0.030187 12.0463 0.000240399C15.898 0.0333525 18.4029 3.17094 18.3411 6.2969ZM17.4158 6.31123C17.417 5.60759 17.2793 4.9106 17.0108 4.26021C16.7423 3.60982 16.3481 3.01879 15.8508 2.52095C15.3536 2.0231 14.763 1.62822 14.1129 1.35892C13.4628 1.08962 12.766 0.951178 12.0624 0.951532C9.10464 0.951532 6.68387 3.35708 6.68745 6.29959C6.69542 7.71983 7.26259 9.07976 8.26611 10.0848C9.26963 11.0898 10.6287 11.659 12.0489 11.6691C14.9878 11.6808 17.4086 9.26269 17.4158 6.31123Z" fill="black"/>
</svg>
