<svg width="24" height="23" viewBox="0 0 24 23" fill="none" xmlns="http://www.w3.org/2000/svg">
<path d="M9.80754 11.6225C10.1483 11.686 10.3837 11.7221 10.6179 11.7697C10.7213 11.7897 10.8222 11.8212 10.9186 11.8636C11.0811 11.9366 11.123 12.0781 11.0868 12.2412C11.0475 12.4182 10.9104 12.4842 10.7492 12.4785C10.6296 12.4633 10.5114 12.4385 10.3958 12.4043C8.20403 11.9537 6.30543 13.8003 6.70012 16.006C6.7219 16.1092 6.73718 16.2137 6.74582 16.3188C6.75501 16.3952 6.73432 16.4722 6.68808 16.5337C6.64185 16.5952 6.57363 16.6364 6.4977 16.6488C6.42342 16.6693 6.34411 16.6607 6.27596 16.6247C6.20781 16.5887 6.15594 16.5281 6.13093 16.4553C6.08133 16.3289 6.04621 16.1974 6.02623 16.0631C5.86941 15.1606 6.04888 14.232 6.53067 13.453C7.01245 12.6739 7.76312 12.0985 8.64059 11.8357C8.76954 11.8043 8.8895 11.7435 8.9911 11.6581C9.09269 11.5727 9.17317 11.4649 9.22628 11.3433C9.42363 10.9366 9.64382 10.5406 9.85196 10.1376C10.3184 9.23785 11.0703 8.69975 12.0253 8.42435C12.9803 8.14896 13.9391 8.18322 14.8941 8.37359C15.4425 8.47405 15.9795 8.62924 16.497 8.83681C17.7452 9.36349 18.4083 10.3597 18.5999 11.6809C18.8118 13.1403 18.4482 14.4634 17.5846 15.6513C17.3536 15.9686 17.0332 16.2471 16.8993 16.5987C16.7654 16.9502 16.846 17.3766 16.7724 17.7593C16.6829 18.2314 16.5344 18.6921 16.405 19.1553C16.3803 19.2425 16.3401 19.3247 16.2863 19.3977C16.188 19.5316 16.0503 19.5963 15.8897 19.5246C15.8169 19.4986 15.7566 19.4458 15.7213 19.3769C15.6859 19.3081 15.6781 19.2284 15.6994 19.154C15.7424 19.0095 15.7931 18.8674 15.851 18.7282C16.0205 18.2744 16.1167 17.7966 16.1359 17.3125L15.6619 17.659C13.9074 18.9503 11.9371 19.3983 9.79865 19.1185C9.10381 19.0271 8.52067 18.699 8.3468 17.9465C8.19895 17.3119 8.34679 16.7129 8.75418 16.2014C9.00038 15.8905 9.34367 15.7484 9.75042 15.7572C10.1419 15.7649 10.5385 15.7845 10.925 15.7376C12.5348 15.5415 13.7215 14.6899 14.5616 13.3263C14.6164 13.2192 14.6801 13.1169 14.752 13.0204C14.8618 12.898 15.0058 12.8567 15.1587 12.95C15.2269 12.9851 15.2797 13.0442 15.3069 13.1159C15.3341 13.1876 15.3337 13.2669 15.3059 13.3383C15.2752 13.4237 15.2347 13.5052 15.1854 13.5814C14.0571 15.4476 12.4346 16.4521 10.2225 16.4299C10.1172 16.4299 10.0112 16.4223 9.90525 16.4204C9.42616 16.4121 9.20724 16.5536 9.06447 17.0067C9.01259 17.1951 8.98258 17.3889 8.975 17.5841C8.95025 17.9262 9.12666 18.1667 9.423 18.3037C9.61244 18.3964 9.81592 18.4571 10.0252 18.4833C12.1319 18.6832 14.0394 18.2022 15.6683 16.796C16.4427 16.1397 17.077 15.334 17.5332 14.4272C17.8008 13.9072 17.958 13.3375 17.9951 12.7539C18.0323 12.1703 17.9485 11.5853 17.749 11.0355C17.4317 10.1338 16.7553 9.57162 15.8555 9.29178C15.0305 9.03796 14.1879 8.84125 13.3172 8.89773C12.8523 8.93248 12.3925 9.01758 11.946 9.15155C11.4441 9.29076 11.0081 9.60411 10.7162 10.0355C10.3983 10.5235 10.1343 11.0482 9.80754 11.6225Z" fill="black"/>
<path d="M11.2879 21.3787C12.9625 21.3997 14.6574 21.2518 16.3269 20.8597C16.4279 20.8288 16.5324 20.8107 16.6379 20.8057C16.7984 20.8102 16.9323 20.8743 16.9647 21.0596C16.9951 21.2322 16.9285 21.366 16.7743 21.4263C16.6035 21.4852 16.4288 21.5318 16.2514 21.5659C14.8047 21.8796 13.3286 22.0379 11.8483 22.038C9.70601 22.0488 7.60182 21.8014 5.56047 21.1243C4.48172 20.7658 3.45058 20.2994 2.56792 19.5633C2.32296 19.3623 2.09889 19.1372 1.89909 18.8913C0.929496 17.6774 0.982798 16.3055 2.04123 15.1607C2.26752 14.9178 2.51398 14.6945 2.77796 14.4932C3.52736 13.9221 4.36877 13.5134 5.25778 13.2044C5.35614 13.1695 5.47353 13.1143 5.56047 13.141C5.67469 13.1752 5.82381 13.2634 5.85554 13.3611C5.88727 13.4589 5.82 13.6264 5.73941 13.707C5.65883 13.7876 5.49955 13.8218 5.37264 13.8694C4.50711 14.1975 3.67204 14.5852 2.96959 15.202C2.69592 15.4382 2.45231 15.7071 2.24429 16.0028C1.75949 16.7053 1.75886 17.4407 2.20114 18.1711C2.50446 18.6717 2.9366 19.0468 3.41569 19.371C4.50648 20.1109 5.72926 20.5342 6.9952 20.8464C8.38995 21.1884 9.81705 21.3331 11.2879 21.3787Z" fill="black"/>
<path d="M13.8427 7.5258C11.7398 7.5296 10.0817 5.87596 10.0747 3.77305C10.0727 3.02861 10.2916 2.30029 10.7036 1.68027C11.1156 1.06024 11.7023 0.576351 12.3894 0.28984C13.0765 0.00332955 13.8332 -0.0729273 14.5636 0.0707055C15.2941 0.214338 15.9655 0.571406 16.493 1.09674C17.0205 1.62208 17.3802 2.29207 17.5268 3.02194C17.6734 3.75181 17.6002 4.50877 17.3165 5.19703C17.0328 5.88529 16.5513 6.47392 15.9329 6.88845C15.3146 7.30299 14.5871 7.52479 13.8427 7.5258ZM13.8573 6.87728C15.4652 6.83667 16.9507 5.62911 16.9349 3.73053C16.9184 1.85859 15.4392 0.660562 13.7888 0.658024C12.1218 0.658024 10.7131 2.10228 10.7226 3.77559C10.7321 5.47366 12.1649 6.88998 13.8573 6.87728Z" fill="black"/>
<path d="M23.9981 17.2909C23.9346 18.3925 23.4905 19.3304 22.7836 20.1566C21.9333 21.1528 20.8609 21.8438 19.6806 22.3775C19.3779 22.5146 19.0663 22.6313 18.758 22.7532C18.6741 22.7873 18.5881 22.8155 18.5003 22.8376C18.3233 22.8813 18.1646 22.8547 18.0764 22.6745C17.9952 22.5101 18.0714 22.3337 18.27 22.2303C18.3798 22.1805 18.4923 22.1369 18.6069 22.0996C19.6857 21.6865 20.706 21.1719 21.5843 20.4098C22.3876 19.7117 23.0171 18.8995 23.2474 17.8322C23.2845 17.64 23.3095 17.4456 23.3223 17.2503C23.3521 16.9203 23.4676 16.7642 23.6846 16.7776C23.9016 16.7909 24.0165 16.9794 23.9981 17.2909Z" fill="black"/>
<path d="M22.1909 17.1202C22.1707 17.7221 21.9603 18.3022 21.59 18.7771C21.1996 19.2791 20.722 19.7066 20.18 20.0392C20.1051 20.0868 20.0093 20.1515 19.9357 20.1382C19.8095 20.1202 19.6917 20.0642 19.5981 19.9776C19.4947 19.8647 19.5391 19.713 19.6501 19.6128C19.7656 19.516 19.8871 19.4266 20.0137 19.345C20.4757 19.0226 20.8939 18.659 21.1921 18.1717C21.6414 17.4394 21.6217 16.7154 21.1597 15.999C20.7644 15.3866 20.1971 14.9659 19.5848 14.596C19.4782 14.5406 19.3762 14.4769 19.2796 14.4056C19.2234 14.3653 19.1837 14.3059 19.1681 14.2386C19.1524 14.1712 19.1618 14.1005 19.1945 14.0395C19.2237 13.9686 19.2781 13.9109 19.3472 13.8777C19.4163 13.8444 19.4953 13.8379 19.5689 13.8593C19.6419 13.8768 19.712 13.9048 19.777 13.9424C20.4814 14.3371 21.1191 14.8124 21.609 15.4653C21.9704 15.943 22.1738 16.5215 22.1909 17.1202Z" fill="black"/>
<path d="M0.367316 15.3778C0.103342 15.3613 -0.0362698 15.1874 0.00814897 14.9901C0.0407684 14.8746 0.0933994 14.7657 0.163627 14.6683C0.619236 13.9779 1.21445 13.4265 1.89088 12.9589C2.47549 12.5556 3.10871 12.2279 3.7755 11.9835C3.88718 11.9423 4.01536 11.8788 4.11942 11.901C4.24389 11.9326 4.35235 12.009 4.42401 12.1155C4.50206 12.2424 4.44877 12.3878 4.31868 12.4696C4.2139 12.5287 4.10359 12.5773 3.98934 12.6149C2.84714 13.0547 1.83186 13.6879 1.02598 14.629C0.880028 14.8003 0.76645 15.0002 0.621138 15.1728C0.544421 15.2504 0.459286 15.3191 0.367316 15.3778Z" fill="black"/>
</svg>
