<svg width="24" height="30" viewBox="0 0 24 30" fill="none" xmlns="http://www.w3.org/2000/svg">
<path d="M22.6441 8.35062C22.6441 9.92545 22.652 11.495 22.6441 13.0664C22.6314 13.3951 22.7498 13.7154 22.9731 13.957C24.4473 15.6578 24.1323 18.1443 23.288 19.4925C23.0369 19.895 22.7176 20.2336 22.2775 20.4225C22.1644 20.4635 22.0645 20.5345 21.9887 20.6279C21.9129 20.7213 21.8639 20.8336 21.8471 20.9527C21.5998 22.1915 21.1344 23.3764 20.4726 24.4523C20.3836 24.6049 20.3064 24.764 20.2416 24.9283C19.1454 27.6405 17.1191 29.2249 14.2853 29.77C12.5412 30.1205 10.7397 30.0639 9.02101 29.6046C6.57712 28.9403 4.85179 27.446 3.84507 25.1216C3.70432 24.7976 3.54573 24.4815 3.37001 24.175C2.81569 23.215 2.4162 22.1736 2.18626 21.0892C2.11802 20.7664 2.00515 20.5389 1.67969 20.3893C1.06725 20.1084 0.684063 19.5818 0.448714 18.9693C-0.260833 17.125 -0.202227 15.3708 1.15737 13.8074C1.34023 13.5974 1.35685 13.3804 1.35685 13.1363C1.35685 11.8957 1.35685 10.6557 1.35685 9.41626C1.35685 7.49147 1.37172 5.56669 1.34722 3.6419C1.3411 3.14933 1.50033 2.79849 1.87216 2.49752C2.96229 1.62262 4.22391 1.10292 5.55551 0.73634C8.03586 0.0521653 10.5722 -0.0458229 13.1252 0.0154203C15.2381 0.0661647 17.3151 0.329517 19.3247 1.00669C20.3353 1.3479 21.2854 1.8151 22.1244 2.49403C22.3012 2.62395 22.4427 2.79614 22.5357 2.99483C22.6288 3.19353 22.6706 3.41239 22.6572 3.6314C22.6266 5.20623 22.6441 6.77842 22.6441 8.35062ZM2.65957 12.7636C5.74098 11.5458 8.86526 11.3402 12.021 11.3393C15.1768 11.3384 18.2871 11.5606 21.3344 12.7566V12.0935C21.3344 9.48013 21.3178 6.86679 21.3493 4.25433C21.3554 3.68827 21.1524 3.36018 20.6861 3.08721C19.5636 2.42929 18.3527 2.02246 17.0876 1.77486C13.9038 1.16243 10.7008 1.16242 7.50918 1.65937C6.01659 1.89209 4.57913 2.32254 3.2659 3.10995C2.82845 3.37242 2.63683 3.69265 2.64383 4.23334C2.67358 6.8458 2.65784 9.45913 2.65784 12.0725L2.65957 12.7636ZM20.0072 22.3876C20.3286 21.6637 20.5454 20.8978 20.6511 20.1128C20.7325 19.5555 20.8217 19.4426 21.3738 19.3307C21.7543 19.2528 22.0378 19.0498 22.1901 18.7182C22.365 18.3403 22.5461 17.9413 22.596 17.5354C22.8427 15.5231 22.4289 14.7838 20.7989 14.0812C19.923 13.7113 19.0152 13.4219 18.0867 13.2168C15.6099 12.6508 13.0867 12.6044 10.5626 12.6762C8.61067 12.7295 6.67889 12.9474 4.7926 13.4732C3.89495 13.7243 3.02792 14.0497 2.25976 14.5992C1.92555 14.8389 1.65432 15.1241 1.52833 15.5178C1.35666 16.0325 1.28981 16.5764 1.33173 17.1174C1.37366 17.6583 1.52351 18.1854 1.77243 18.6675C1.95791 19.0402 2.25364 19.2922 2.69984 19.3298C3.09267 19.363 3.27377 19.6194 3.32976 19.9851C3.34639 20.0944 3.34463 20.2073 3.36913 20.3149C3.52574 21.0148 3.63159 21.7314 4.01567 22.3692C8.36919 19.2134 15.567 19.1863 20.0072 22.3867V22.3876ZM4.73747 23.6124C4.79259 23.8198 4.83896 24.056 4.91858 24.2809C5.6325 26.2704 7.01835 27.5687 9.01488 28.2302C10.4305 28.6991 11.8872 28.7359 13.35 28.5863C14.3454 28.4941 15.3116 28.2007 16.19 27.7236C17.8313 26.8146 18.8392 25.4375 19.2652 23.6378C15.7971 20.6456 8.53105 20.4794 4.73747 23.6107V23.6124Z" fill="black"/>
<path d="M11.3412 6.01904V5.264C11.3412 4.27973 11.4909 4.00415 12.0158 4.0164C12.5145 4.0269 12.6545 4.29461 12.6545 5.2325V6.01205C13.1007 6.01205 13.4707 6.00592 13.84 6.01205C14.4008 6.02342 14.6545 6.23165 14.6449 6.65685C14.6352 7.08205 14.3675 7.29203 13.8242 7.3139C13.6492 7.32178 13.4742 7.3139 13.294 7.3139H12.728C12.6963 7.46449 12.6726 7.61664 12.6571 7.76972C12.6457 7.9902 12.6571 8.21156 12.6571 8.43203C12.6466 9.01734 12.4139 9.31568 11.9852 9.30693C11.5792 9.29381 11.3605 9.00947 11.3482 8.4679C11.343 8.24743 11.3482 8.03045 11.3482 7.8056C11.3482 7.67611 11.336 7.54313 11.3255 7.33577C11.0053 7.32965 10.7069 7.3279 10.4086 7.3174C10.2108 7.32241 10.0131 7.30598 9.8189 7.26841C9.66679 7.23029 9.53472 7.13605 9.4492 7.00461C9.36368 6.87317 9.33104 6.71425 9.35783 6.55974C9.37 6.41534 9.43555 6.28066 9.54167 6.18199C9.64779 6.08331 9.78687 6.02771 9.93177 6.02605C10.3622 6.00155 10.8014 6.01904 11.3412 6.01904Z" fill="black"/>
<path d="M6.68239 17.9938C6.6776 17.8224 6.70711 17.6518 6.76921 17.4921C6.83132 17.3323 6.92475 17.1865 7.04401 17.0633C7.16326 16.9401 7.30594 16.8421 7.46365 16.7748C7.62136 16.7076 7.79092 16.6726 7.96236 16.6718C8.73315 16.6596 9.32371 17.2283 9.32371 17.9842C9.32482 18.1612 9.29035 18.3366 9.22236 18.5C9.15437 18.6634 9.05424 18.8115 8.92791 18.9354C8.80159 19.0594 8.65164 19.1567 8.48698 19.2216C8.32232 19.2865 8.1463 19.3176 7.96936 19.3132C7.79794 19.312 7.62842 19.2769 7.47067 19.2098C7.31292 19.1427 7.17006 19.045 7.05035 18.9222C6.93065 18.7995 6.8365 18.6543 6.77334 18.4949C6.71017 18.3355 6.67926 18.1652 6.68239 17.9938Z" fill="black"/>
<path d="M17.3133 18.0043C17.3154 18.1816 17.2813 18.3574 17.2129 18.5209C17.1445 18.6845 17.0433 18.8323 16.9156 18.9552C16.7879 19.0782 16.6363 19.1737 16.4703 19.2358C16.3043 19.298 16.1273 19.3255 15.9502 19.3167C15.6053 19.3013 15.2797 19.1531 15.0416 18.9031C14.8035 18.6531 14.6714 18.3207 14.6729 17.9754C14.6733 17.7985 14.7098 17.6235 14.78 17.461C14.8502 17.2986 14.9526 17.1521 15.0812 17.0305C15.2098 16.9089 15.3617 16.8147 15.5278 16.7537C15.6939 16.6926 15.8706 16.6659 16.0473 16.6753C16.2183 16.6777 16.387 16.7141 16.5437 16.7825C16.7004 16.8509 16.8418 16.9499 16.9597 17.0737C17.0776 17.1975 17.1696 17.3435 17.2304 17.5033C17.2911 17.6631 17.3193 17.8335 17.3133 18.0043Z" fill="black"/>
</svg>
