<svg width="24" height="49" viewBox="0 0 24 49" fill="none" xmlns="http://www.w3.org/2000/svg">
<path d="M21.4051 39.842C22.6287 42.5118 22.882 45.2146 22.4048 48.1157L21.2094 47.8918C21.2448 47.4268 21.2754 47.001 21.3097 46.5752C21.4773 44.5062 21.202 42.5106 20.321 40.6165C20.2557 40.4967 20.1842 40.3802 20.1069 40.2678C19.8047 40.3436 19.4951 40.4097 19.2002 40.4978C16.0475 41.4277 12.8952 42.3592 9.74334 43.2924C9.4664 43.3824 9.1845 43.4563 8.89906 43.5139C7.87127 43.6888 6.99766 43.3915 6.31001 42.6023C5.72311 41.9408 5.39655 41.0885 5.39112 40.2041C5.38377 38.9243 6.08976 38.0837 7.24113 37.6041C9.36279 36.7194 11.4894 35.847 13.6122 34.9673C14.4687 34.6112 15.3252 34.249 16.2784 33.8465C15.7009 32.1873 15.1405 30.5771 14.5458 28.8654L15.729 28.4163C16.2184 29.783 16.6895 31.0935 17.1569 32.4039C17.3135 32.8419 17.4701 33.2812 17.6133 33.7241C17.8433 34.4362 17.7577 34.643 17.0578 34.9367C15.4476 35.6121 13.83 36.2704 12.2162 36.936C10.7895 37.5233 9.35914 38.0996 7.93368 38.704C6.63304 39.2583 6.34305 40.1283 7.00866 41.3616C7.43202 42.1435 8.02544 42.431 8.89539 42.1851C11.0497 41.5765 13.2003 40.9505 15.3472 40.3069C17.2144 39.7514 19.0804 39.1861 20.9377 38.5939C22.3436 38.1449 22.7853 37.582 22.7449 36.1052C22.7182 34.7943 22.607 33.4864 22.4121 32.1898C21.8175 28.2755 20.8812 24.4208 19.6138 20.6699C19.3953 20.0373 19.1336 19.4204 18.8308 18.8236C17.9486 17.0763 15.7314 16.0424 13.8239 16.4425C13.1351 16.5865 12.505 16.9329 12.0143 17.4373C11.5911 17.8374 11.2124 18.2821 10.8849 18.7636C9.30161 21.2511 7.11023 23.0938 4.69369 24.7065C4.37329 24.9077 4.06521 25.1279 3.77112 25.366C2.80206 26.198 2.44722 27.2698 2.69438 28.5069C2.89504 29.509 3.57412 30.1354 4.52972 30.4327C4.93962 30.5551 5.38622 30.5771 5.81936 30.6163C6.2109 30.653 6.67587 30.4939 6.87042 31.009C7.06986 31.5486 6.62569 31.7836 6.30634 32.0686C5.20579 33.0254 4.22031 34.107 3.36979 35.2915C2.45211 36.5848 1.73879 37.9711 1.42188 39.5446C0.991188 41.6798 1.49897 43.5971 2.80329 45.2954C3.40284 46.0748 4.12473 46.7636 4.86865 47.5724L4.13451 48.5133C1.6152 46.4137 -0.117369 43.9972 0.00621088 40.5944C0.075954 38.6367 0.763584 36.8883 1.82808 35.294C2.50349 34.2821 3.3233 33.3669 4.08191 32.4113C4.22017 32.2363 4.37556 32.076 4.57133 31.8509C4.37312 31.7689 4.25074 31.7077 4.12104 31.6661C1.10985 30.7129 0.450377 27.1169 2.46559 24.8398C2.78704 24.5047 3.14163 24.2029 3.52396 23.9393C4.34007 23.3275 5.17699 22.7488 5.99555 22.1431C7.37611 21.1136 8.57218 19.8576 9.53289 18.4284C9.87612 17.9232 10.2487 17.4387 10.6488 16.9772C12.8512 14.4371 15.6776 14.8017 17.6157 15.8503C18.8687 16.5294 19.8084 17.5156 20.2721 18.8603C20.9658 20.8657 21.6486 22.8797 22.2029 24.9255C22.9845 27.73 23.5434 30.5918 23.8743 33.4843C23.9851 34.5261 24.0228 35.5744 23.9868 36.6215C23.9354 38.0898 23.2429 39.1666 21.7979 39.667C21.7037 39.7098 21.6009 39.76 21.4051 39.842Z" fill="black"/>
<path d="M8.64943 0.00145892C9.65595 -0.00406858 10.6536 0.190232 11.5844 0.573122C12.5153 0.956013 13.3609 1.51987 14.0722 2.232C14.7836 2.94413 15.3465 3.79037 15.7283 4.72166C16.1102 5.65296 16.3034 6.65078 16.2967 7.65729C16.2967 11.892 12.8707 15.2776 8.60295 15.2691C4.40857 15.2593 0.94589 11.8517 0.991162 7.65362C1.045 2.90741 4.86495 -0.0756256 8.64943 0.00145892ZM2.29669 7.64506C2.30404 11.1408 5.1415 14.0015 8.61397 14.0076C9.87666 14.0183 11.114 13.6535 12.169 12.9595C13.224 12.2656 14.0489 11.2739 14.5391 10.1102C15.0294 8.94648 15.1628 7.66335 14.9223 6.42372C14.6819 5.18409 14.0786 4.04386 13.1889 3.14779C12.2992 2.25172 11.1633 1.64023 9.92542 1.39098C8.68753 1.14172 7.40348 1.26594 6.23632 1.74785C5.06917 2.22975 4.07153 3.0476 3.37009 4.09759C2.66865 5.14757 2.29504 6.38233 2.29669 7.64506Z" fill="black"/>
</svg>
