<svg width="24" height="28" viewBox="0 0 24 28" fill="none" xmlns="http://www.w3.org/2000/svg">
<path d="M11.4029 14.6008C11.3355 14.9996 11.2705 15.3842 11.2055 15.7665C9.75064 15.4328 7.41995 13.3873 7.02354 10.4589C6.65533 7.73492 7.79209 5.09949 10.2458 3.55537C12.4887 2.14521 15.8127 1.91018 18.6284 4.31136L21.2669 1.61875L20.0009 1.81304C19.8787 1.84177 19.7542 1.85985 19.6288 1.8671C19.4697 1.86581 19.3164 1.80706 19.1972 1.70168C19.078 1.5963 19.0009 1.45138 18.9801 1.29364C18.9705 1.14534 19.014 0.998459 19.1026 0.879213C19.1913 0.759966 19.3195 0.676107 19.4643 0.642609C19.8716 0.546248 20.2884 0.485922 20.7021 0.41463C21.4677 0.284583 22.2336 0.157146 22.9998 0.0323207C23.1445 0.0057704 23.2916 -0.00446968 23.4386 0.0017757C23.7887 0.0252783 23.9783 0.208596 23.9979 0.557218C24.0055 0.746073 23.9926 0.935189 23.9595 1.12128C23.7895 2.17811 23.6133 3.23652 23.437 4.28865C23.4224 4.37136 23.4014 4.45281 23.3743 4.53229C23.2552 4.89423 22.9975 5.07442 22.6763 5.02428C22.3332 4.97101 22.1083 4.67487 22.1584 4.28159C22.2289 3.7332 22.33 3.1801 22.4201 2.61682C21.4675 3.55693 20.547 4.4704 19.6061 5.40267C21.2191 8.01381 21.3789 10.6915 19.6625 13.3599C18.6197 14.9808 16.4935 16.2742 15.027 16.2186C15.0779 15.8269 15.128 15.4438 15.1758 15.0748C18.9472 13.8997 19.8944 10.7989 19.541 8.55359C19.1391 5.99415 16.9275 3.96745 14.3853 3.78178C13.0966 3.67992 11.8113 4.01693 10.7383 4.73804C9.66528 5.45915 8.86772 6.52196 8.47522 7.75372C7.71374 10.1573 8.58648 13.034 11.4029 14.6008Z" fill="black"/>
<path d="M5.85074 7.70594C5.78964 8.15798 5.73715 8.54577 5.68075 8.95942C4.0293 9.4044 2.75858 10.3374 1.93442 11.833C1.32107 12.9261 1.10619 14.1982 1.32649 15.432C1.83258 18.362 4.15621 19.9508 6.28555 20.1796C9.34089 20.5086 11.5995 18.5493 12.3484 16.358C13.1405 14.0399 12.4213 11.0511 9.47798 9.39578C9.53126 9.02444 9.58922 8.62255 9.64798 8.21595C11.9982 8.72518 13.9936 11.8683 13.8902 14.8923C13.7884 17.8779 11.5219 20.9708 7.6103 21.4675C7.6009 21.8639 7.5876 22.2736 7.58289 22.6834C7.57819 23.0931 7.58289 23.5209 7.58289 24.0238L8.4086 24.0426C8.55589 24.0426 8.70396 24.0371 8.84968 24.0489C9.24139 24.081 9.45683 24.2839 9.47642 24.6184C9.49365 24.978 9.26568 25.2271 8.84968 25.2608C8.55746 25.2843 8.26211 25.2734 7.96833 25.2773C7.86492 25.2773 7.76151 25.2773 7.58289 25.2773V26.2895C7.58289 26.5629 7.59465 26.8379 7.58289 27.1089C7.56096 27.5453 7.29537 27.8179 6.9303 27.8007C6.57698 27.7834 6.35683 27.5414 6.34195 27.1175C6.32785 26.7399 6.34195 26.3608 6.34195 25.9831V25.2976C5.92204 25.2859 5.55069 25.289 5.1817 25.2585C4.99657 25.2484 4.81644 25.1948 4.65603 25.1018C4.44059 24.9639 4.41161 24.7187 4.46723 24.4751C4.53382 24.1915 4.73438 24.052 5.01562 24.045C5.43162 24.0356 5.84761 24.045 6.30199 24.045V21.4824C3.96662 21.1628 2.11775 20.0276 0.904233 17.9492C0.0996604 16.5719 -0.141638 15.0685 0.0761525 13.5103C0.480397 10.5498 2.99439 8.01305 5.85074 7.70594Z" fill="black"/>
</svg>
