<svg width="24" height="40" viewBox="0 0 24 40" fill="none" xmlns="http://www.w3.org/2000/svg">
<path d="M6.54188 33.1386C5.79084 32.313 5.1069 31.5854 4.45067 30.8354C3.36087 29.5901 2.28918 28.3309 1.21216 27.076C1.13759 26.9897 1.08111 26.8884 1.01293 26.7968C-0.125877 25.2649 -0.305913 23.667 0.480281 21.8879C1.63401 19.2769 3.07751 16.8661 5.08029 14.8239C5.71947 14.1772 6.47689 13.6521 7.1704 13.064C7.50305 12.7994 7.8121 12.5064 8.09404 12.1883C8.45411 11.7526 8.58725 11.2551 8.39443 10.6713C8.20907 10.112 8.11 9.52293 7.91931 8.72182C7.63807 9.29921 7.42075 9.68059 7.25989 10.0918C7.08199 10.5414 6.97119 11.0175 6.80287 11.4767C6.55785 12.134 6.03052 12.3289 5.43928 11.9369C4.52071 11.3551 3.6996 10.6321 3.00614 9.79459C2.62902 9.32479 2.44897 8.80279 2.55976 8.19663C2.80052 6.89376 3.16806 5.63989 3.98302 4.565C4.39597 3.99713 4.92656 3.52502 5.53858 3.18086C6.1506 2.8367 6.82966 2.6286 7.52942 2.57075C7.82131 2.54092 8.06953 2.51749 8.27513 2.25116C9.49597 0.62018 11.258 0.142924 13.167 0.0140222C15.1804 -0.120206 16.7326 0.711799 17.783 2.40031C19.1881 4.65982 19.1338 7.05994 18.2538 9.47818C17.9002 10.4529 17.1289 11.106 16.2745 11.6642C15.288 12.3034 15.1367 12.7572 15.6918 13.7884C16.0608 14.4641 16.4984 15.0999 16.9978 15.6857C17.6946 16.5173 18.4353 17.311 19.2169 18.0635C20.4356 19.2353 20.5804 20.5137 19.8688 22.0381C19.7367 22.3215 19.578 22.5921 19.4108 22.9074C19.5243 23.024 19.6441 23.1342 19.7698 23.2377C22.9998 25.625 24.2909 28.8678 23.9457 32.8052C23.8392 33.9898 23.3705 35.07 22.7292 36.066C21.916 37.3139 20.8665 38.3906 19.6398 39.2353C19.3409 39.4552 18.9785 39.5715 18.6075 39.5667C15.0654 39.5581 11.5243 39.5507 7.98217 39.5752C7.34299 39.5752 6.97653 39.312 6.70381 38.7783C5.98792 37.3615 5.90268 35.8817 6.23399 34.3594C6.33413 33.8843 6.46944 33.4209 6.54188 33.1386ZM8.13984 37.7769C8.20978 37.8104 8.28345 37.8354 8.35929 37.8515C11.6436 37.8579 14.929 37.8664 18.2134 37.8515C18.4666 37.8446 18.7116 37.7602 18.9154 37.6097C21.1035 35.9116 22.5374 33.8417 22.2732 30.8983C21.9941 27.8494 20.5687 25.5717 17.865 24.1059C17.0351 23.6563 16.9329 23.2238 17.4943 22.4877C17.8184 22.0897 18.1038 21.6616 18.3465 21.2093C18.7588 20.3762 18.6469 19.9672 18.0131 19.2918C17.1331 18.3575 16.2223 17.4435 15.418 16.4453C14.8393 15.7397 14.3555 14.9615 13.9788 14.1304C13.2895 12.5612 13.7657 11.2104 15.1921 10.3017C15.3839 10.1792 15.6183 10.0886 15.7578 9.92242C16.1104 9.51974 16.5557 9.12983 16.7283 8.65044C17.3313 6.98217 17.3675 5.28728 16.56 3.65949C15.8441 2.20748 14.5807 1.53847 12.9731 1.74194C12.407 1.80838 11.8482 1.92678 11.3038 2.09563C10.5496 2.33319 9.89758 2.77743 9.51833 3.48053C9.18915 4.09201 8.77261 4.30826 8.07377 4.26884C6.9094 4.20492 5.95595 4.70882 5.30398 5.6825C4.99631 6.12852 4.75683 6.6179 4.59343 7.13451C4.11937 8.74845 3.99793 8.48213 5.31358 9.65823C5.34874 9.68912 5.42011 9.67953 5.52664 9.69871C5.63317 9.45901 5.7397 9.20015 5.86647 8.953C6.13173 8.44804 6.34906 7.90261 6.69848 7.46157C7.08136 6.96645 7.54013 6.535 8.05781 6.1832C8.6597 5.79117 9.24668 6.13632 9.37984 6.84155C9.60249 8.01339 9.76976 9.20973 10.0872 10.3571C10.3674 11.3691 10.1309 12.2395 9.58226 13.0267C9.20716 13.5632 8.74309 14.0316 8.21014 14.4116C5.02168 16.6637 3.13291 19.8308 1.77677 23.3868C1.67328 23.6397 1.63111 23.9136 1.6537 24.1859C1.67629 24.4583 1.76299 24.7214 1.90674 24.9539C2.2172 25.4993 2.55975 26.0257 2.93261 26.5305C4.38249 28.4161 6.06461 30.0854 7.83301 31.6727C8.0623 31.887 8.33018 32.0559 8.62242 32.1702C9.61422 32.525 10.6081 32.8861 11.6266 33.1493C12.2743 33.3165 12.9699 33.3836 13.6507 33.096V32.4057C12.9231 32.0381 12.1667 31.9295 11.4029 31.8272C11.1014 31.7867 10.7562 31.743 10.525 31.5726C8.6842 30.2143 6.903 28.7836 5.46058 26.9843C5.07485 26.4895 4.73706 25.959 4.45174 25.4002C4.16624 24.8548 4.06823 24.2412 4.34521 23.6627C5.16833 21.9682 6.00959 20.2818 6.86894 18.6036C7.1033 18.1444 7.5081 18.0017 7.94381 18.1359C8.32093 18.2499 8.45197 18.5503 8.54359 18.8997C9.25308 21.5886 9.72607 24.3072 9.5716 27.1026C9.13696 28.3117 9.80384 28.9924 10.72 29.5954C11.1525 29.8798 11.5478 30.128 12.0911 30.2111C12.9284 30.3454 13.7465 30.6213 14.5615 30.877C15.1378 31.057 15.4542 31.449 15.3945 32.1021C15.3567 32.5006 15.3567 32.9019 15.3945 33.3005C15.451 33.8715 15.1591 34.2113 14.7234 34.4915C14.0949 34.8953 13.3929 34.9741 12.6695 34.9741C11.3624 34.9741 10.1362 34.6109 8.92495 34.1656C8.67034 34.0718 8.4115 33.9898 8.1228 33.8918C7.70733 35.2724 7.56351 36.5422 8.13877 37.7769H8.13984ZM7.68602 26.9726L7.87671 26.8554C7.98283 25.1316 7.79405 23.4023 7.31849 21.742C6.81175 22.5626 6.36149 23.4168 5.97087 24.2987C5.88244 24.5022 5.98152 24.8782 6.12853 25.0753C6.61324 25.7369 7.16082 26.3462 7.68495 26.9726H7.68602Z" fill="black"/>
</svg>
