<svg width="24" height="18" viewBox="0 0 24 18" fill="none" xmlns="http://www.w3.org/2000/svg">
<path d="M2.57722 8.74136C2.57895 8.65047 2.57318 8.55959 2.55995 8.46965C2.22879 7.14306 2.51073 5.90471 3.08803 4.70534C3.19419 4.47881 3.34606 4.27668 3.53408 4.11165C3.72211 3.94662 3.94223 3.82225 4.18063 3.74637C5.12746 3.41903 6.07749 3.39985 6.99875 3.80518C7.34524 3.95904 7.72054 4.03728 8.09965 4.0347C8.89113 4.0379 9.62699 4.54615 9.88975 5.24365C9.95687 5.42265 10.001 5.61127 10.1538 5.79923C10.1996 5.66967 10.2343 5.5364 10.2574 5.40092C10.2944 4.97129 10.3059 4.53912 10.3456 4.11013C10.3788 3.74828 10.3923 3.37492 10.4945 3.03097C10.726 2.25036 11.41 1.99207 12.1024 2.41338C12.7162 2.78738 13.1394 3.28989 13.0691 4.07561C13.0461 4.33581 13.0652 4.59986 13.0652 4.9144L14.0134 4.85877C14.0476 4.80333 14.0749 4.74385 14.0945 4.68168C14.1988 3.82691 14.6578 3.21126 15.3693 2.75862C15.4948 2.67703 15.6152 2.588 15.7299 2.49201C16.0496 2.23181 16.2043 1.9032 16.1576 1.48509C16.1269 1.25462 16.1092 1.02261 16.1046 0.790155C16.1046 0.324091 16.368 0.045992 16.8334 0.0114687C17.5176 -0.0446995 18.2028 0.106338 18.7999 0.444929C19.5818 0.887338 19.8529 1.58419 19.5511 2.4332C19.4188 2.80592 19.2155 3.15372 19.0442 3.51238C18.938 3.73358 18.8313 3.95415 18.7053 4.21563C18.9284 4.30258 19.11 4.37225 19.2909 4.4445C19.399 4.48797 19.5057 4.53465 19.6106 4.58004C21.1795 5.24685 21.5874 6.45451 21.3668 7.92687C21.3259 8.20049 21.2389 8.46709 21.1641 8.77972C21.3438 8.76118 21.4883 8.74903 21.6315 8.73113C22.0975 8.67168 22.5598 8.67232 23.0156 8.7989C23.77 9.0086 24.1376 9.59485 23.9528 10.3556C23.8745 10.7107 23.7453 11.0527 23.5693 11.3709C23.2368 11.936 22.7465 12.0844 22.1225 11.8574C21.735 11.7167 21.3604 11.7935 21.003 11.9213C20.6137 12.0575 20.2173 12.2116 19.8734 12.4328C19.1637 12.8899 18.486 13.3975 17.7694 13.9032C17.8601 14.0266 17.9209 14.1193 17.9918 14.2031C18.7622 15.1115 19.2021 16.1786 19.4731 17.3223C19.569 17.7283 19.376 17.9495 18.9527 17.9731C18.8364 17.9795 18.72 17.9731 18.6037 17.9731C14.1853 17.9731 9.76636 17.9635 5.34738 17.9827C4.58851 17.9866 4.36667 17.7622 4.60066 16.9828C4.93375 15.8742 5.39533 14.8386 6.2322 13.9461C5.91254 13.7025 5.62805 13.4576 5.3167 13.2505C4.73747 12.8669 4.15697 12.4788 3.55026 12.1413C3.25234 11.9757 2.90071 11.8855 2.56187 11.8254C2.31762 11.7905 2.06866 11.8104 1.83305 11.8836C1.29666 12.0415 0.886217 11.9552 0.543542 11.5314C0.187794 11.0855 -0.0040445 10.5309 0.000120664 9.96054C-0.00755116 9.40881 0.351107 8.94851 0.933526 8.82001C1.34844 8.72858 1.78638 8.73816 2.21216 8.71003C2.33439 8.71265 2.45633 8.72312 2.57722 8.74136ZM11.4637 3.21893C11.4134 3.41604 11.3741 3.61582 11.3461 3.81734C11.3237 4.06475 11.3557 4.31728 11.325 4.56342C11.2553 5.12026 11.1844 5.67903 11.0693 6.22565C11.0054 6.52421 10.8225 6.7793 10.4747 6.82086C9.86865 6.8931 9.02667 6.6444 9.01068 5.84653C9.00109 5.376 8.46726 4.98792 8.04787 5.01924C7.94877 5.02628 7.84776 5.01349 7.74867 5.01924C7.40088 5.04194 7.05404 4.96263 6.75069 4.79102C6.03849 4.41254 5.28026 4.40294 4.53417 4.68424C4.34621 4.75521 4.13332 4.89649 4.0419 5.06783C3.41281 6.22244 3.18393 7.42756 3.67684 8.70237C3.70634 8.79573 3.75888 8.88016 3.82961 8.94787C3.90033 9.01558 3.98697 9.06439 4.08153 9.0898C6.15868 9.74446 8.25693 10.2777 10.4421 10.4324C11.7669 10.5291 13.0977 10.5019 14.4174 10.3512C16.0521 10.1594 17.6472 9.7892 19.2212 9.30012C19.7461 9.13709 20.0389 8.84365 20.2071 8.36544C20.2864 8.16504 20.3468 7.95763 20.3874 7.74595C20.5459 6.70833 20.2691 5.90279 19.1727 5.47445C18.9099 5.37216 18.6427 5.28265 18.385 5.16565C17.7514 4.88691 17.5616 4.44514 17.8096 3.79175C17.9215 3.49831 18.0807 3.22339 18.2182 2.93954C18.346 2.67102 18.495 2.40891 18.6017 2.13144C18.6874 1.91152 18.7207 1.66091 18.5142 1.48254C18.1267 1.14818 17.6671 1.02223 17.1844 1.01904C17.166 1.05114 17.1508 1.08497 17.139 1.12004C17.1354 1.20274 17.1368 1.28559 17.1435 1.3681C17.247 2.27657 16.8468 2.93699 16.1314 3.44653C15.9556 3.5712 15.7747 3.69011 15.6097 3.83012C15.1622 4.20476 14.996 4.68361 15.1207 5.25324C15.2357 5.7794 15.5535 6.17834 15.955 6.51718C16.1065 6.64504 16.2804 6.75052 16.421 6.88925C16.6998 7.16352 16.6262 7.57076 16.2868 7.7031C16.1941 7.74315 16.0917 7.75517 15.9923 7.73768C15.8929 7.72018 15.8008 7.67394 15.7274 7.60466C15.3725 7.285 15.0158 6.95958 14.6949 6.60476C14.4999 6.38931 14.3701 6.11377 14.1988 5.84589L13.1049 5.93667C13.1049 6.25953 13.1247 6.52485 13.1004 6.78569C13.0588 7.23002 13.064 7.698 12.9195 8.11036C12.362 9.69715 11.5002 10.0679 10.3059 10.0098C9.92235 9.99123 9.5963 9.84547 9.29326 9.6345C9.01963 9.4427 8.94867 9.13582 9.10147 8.90183C9.25426 8.66784 9.51191 8.63205 9.80472 8.78612C9.84883 8.80914 9.88655 8.84366 9.93258 8.86732C10.5444 9.2004 11.2355 9.0265 11.6472 8.45942C12.059 7.89235 12.1146 7.2313 12.1088 6.56193C12.1018 5.74871 12.0628 4.93549 12.0749 4.12292C12.0864 3.67539 11.8978 3.41008 11.4657 3.21829L11.4637 3.21893ZM1.27364 10.8984C1.78062 10.8645 2.18403 10.7706 2.56507 10.8294C3.05451 10.9115 3.53217 11.0528 3.98755 11.25C4.74259 11.5646 5.40556 12.0441 6.04168 12.5543C6.67789 13.0645 7.39601 13.4631 8.1655 13.7332C9.83732 14.3252 11.5539 14.4933 13.3165 14.3002C15.1386 14.1001 16.7982 13.5273 18.2393 12.3471C18.7603 11.9207 19.3664 11.5851 19.9654 11.2718C20.778 10.8479 21.6423 10.6414 22.5604 10.9304C22.586 10.9387 22.6243 10.9138 22.7266 10.8831C22.8033 10.6644 22.9018 10.4062 22.9824 10.1428C23.0431 9.95096 22.9581 9.80072 22.7586 9.77835C22.4325 9.7419 22.0975 9.69459 21.7747 9.72784C20.8298 9.82565 19.9207 10.0961 19.0218 10.3889C17.1396 10.9949 15.1864 11.353 13.2116 11.454C10.3315 11.6113 7.52171 11.2027 4.7688 10.3377C3.93385 10.0756 3.06821 9.8998 2.20705 9.73358C1.89314 9.67348 1.54983 9.74063 1.22378 9.77899C1.02431 9.802 0.944395 9.96182 1.00129 10.1498C1.08441 10.4132 1.19181 10.6689 1.27364 10.8984ZM16.7228 14.4645C16.6262 14.4997 16.5176 14.5368 16.4108 14.579C15.1322 15.0828 13.7985 15.3219 12.4278 15.3634C10.7336 15.4152 9.08612 15.1806 7.50509 14.5464C7.31329 14.4697 7.16689 14.4607 7.00897 14.6103C6.32554 15.2496 5.9509 16.0584 5.6664 16.9374C6.25777 17.041 17.9298 17.0231 18.2904 16.9285C18.0558 15.8883 17.4196 14.8833 16.7228 14.4645Z" fill="black"/>
</svg>
