<svg width="24" height="26" viewBox="0 0 24 26" fill="none" xmlns="http://www.w3.org/2000/svg">
<path d="M21.3062 21.0614C22.2607 21.7478 22.4229 22.6685 22.2322 23.6748C22.0519 24.624 21.4061 25.146 20.4854 25.3367C20.1886 25.3957 19.8867 25.4246 19.5842 25.4231C17.2614 25.4299 14.9378 25.4156 12.6151 25.4306C11.3173 25.4389 10.3839 24.8614 9.79886 23.7334C9.22435 22.6242 8.69341 21.4924 8.14669 20.3682C7.78697 19.6307 7.4325 18.8903 7.0495 18.0965L7.72538 17.7518C7.80499 17.8907 7.87183 17.9936 7.92515 18.1032C8.72019 19.7419 9.51498 21.3808 10.3095 23.0199C10.4027 23.2128 10.507 23.4001 10.6219 23.5809C11.0725 24.2808 11.6943 24.6398 12.5452 24.6323C14.0997 24.615 15.655 24.6278 17.2096 24.6278C17.9959 24.6278 18.7821 24.6278 19.5684 24.6278C19.7469 24.6307 19.9254 24.6234 20.1031 24.606C21.352 24.4633 21.9536 23.1859 21.2709 22.1278C21.1819 21.982 21.0604 21.8587 20.916 21.7675C20.7715 21.6763 20.608 21.6197 20.4381 21.6021C19.0863 21.4519 17.7345 21.3152 16.3888 21.1725C15.788 21.1087 15.1827 21.0126 14.5774 20.987C14.1463 20.9697 13.9541 20.7617 13.8061 20.39C13.4359 19.461 13.0318 18.5456 12.6406 17.6249C12.2005 16.59 11.7672 15.5514 11.3173 14.5203C10.827 13.3991 10.1406 12.4326 9.03886 11.8318C6.64322 10.5251 3.67608 11.5449 2.54284 14.0517C2.11778 14.9919 1.94205 15.9915 1.81063 17.0046C1.58033 18.7754 1.34677 20.5457 1.10996 22.3155C1.01884 23.0054 0.927718 23.6958 0.836599 24.3867C0.820077 24.5076 0.799802 24.6286 0.772767 24.8095L0 24.7344C0.0750985 24.1036 0.145691 23.5224 0.225296 22.9433C0.536203 20.625 0.833593 18.3045 1.16853 15.99C1.3713 14.5901 1.84442 13.2917 2.80418 12.2088C3.37907 11.5399 4.13313 11.0493 4.97753 10.7947C7.64879 10.0039 10.1646 10.7759 11.6177 13.384C12.1802 14.3934 12.5783 15.4951 13.0446 16.5562C13.2451 17.0106 13.4351 17.4702 13.6326 17.9328C15.2097 18.0176 16.7274 17.7721 18.2812 17.5573C18.5291 16.6614 19.0247 15.9494 19.8876 15.5371C20.4555 15.2607 21.1002 15.1842 21.717 15.3201C22.3351 15.4469 22.8938 15.7747 23.3061 16.2523C23.7184 16.73 23.961 17.3306 23.9962 17.9605C24.0638 19.4843 23.225 20.4741 21.3062 21.0614ZM19.654 20.7182C19.5947 20.6003 19.5286 20.5282 19.5294 20.4576C19.5294 20.3074 19.5189 20.1106 19.6045 20.0228C19.6901 19.9349 19.8898 19.9319 20.037 19.9402C20.1549 19.9462 20.2623 20.0445 20.3855 20.0678C20.6799 20.1234 20.981 20.2067 21.2754 20.194C22.4424 20.1422 23.3496 19.0194 23.1814 17.8719C22.9974 16.6215 21.8462 15.8037 20.6626 16.0989C19.7336 16.3302 19.1997 16.934 19.048 17.8795C18.9729 18.3376 18.9106 18.3834 18.463 18.3856C18.2144 18.3856 17.9643 18.3939 17.7165 18.4164C16.6696 18.514 15.6235 18.6199 14.5766 18.7168C14.4062 18.7326 14.2327 18.7168 13.9646 18.7168C14.1944 19.2605 14.3851 19.7111 14.5834 20.1812L19.654 20.7182Z" fill="black"/>
<path d="M11.3722 10.6565C10.3197 10.6575 9.29054 10.3468 8.41446 9.76361C7.53837 9.18041 6.85462 8.35082 6.44946 7.37949C6.04429 6.40816 5.93585 5.3386 6.13783 4.30572C6.3398 3.27283 6.84313 2.3229 7.58434 1.57573C8.32554 0.828566 9.27142 0.317635 10.3026 0.107396C11.3339 -0.102843 12.4043 -0.00297726 13.3788 0.394397C14.3534 0.791771 15.1884 1.46886 15.7786 2.34024C16.3688 3.21162 16.6877 4.23828 16.6951 5.2907C16.6996 5.99299 16.5653 6.68923 16.2999 7.33945C16.0345 7.98968 15.6432 8.58106 15.1486 9.07965C14.654 9.57824 14.0658 9.97421 13.4177 10.2448C12.7696 10.5154 12.0745 10.6553 11.3722 10.6565ZM6.82419 5.30571C6.81518 7.80424 8.83758 9.88672 11.3301 9.8747C13.9465 9.86419 15.8683 7.83353 15.9111 5.3733C15.9539 2.86201 13.8834 0.782529 11.3729 0.781028C10.17 0.778832 9.01538 1.25406 8.16254 2.10239C7.30971 2.95072 6.82836 4.10281 6.82419 5.30571Z" fill="black"/>
</svg>
