<svg width="24" height="29" viewBox="0 0 24 29" fill="none" xmlns="http://www.w3.org/2000/svg">
<path d="M0.828601 24.4897H0.0493305C0.0275453 24.3466 0.0131383 24.2025 0.00616634 24.058C0.00616634 22.7739 -0.00770793 21.4897 0.00616634 20.204C0.010692 19.1944 0.149097 18.1898 0.417767 17.2165C1.10069 14.8154 2.69161 13.3879 5.1065 12.8584C5.60597 12.7489 6.12086 12.7096 6.62727 12.6272C6.94407 12.5763 7.18841 12.6888 7.42505 12.8931C8.21588 13.576 9.01828 14.2458 9.8145 14.9195C9.95402 15.0367 10.0997 15.1461 10.277 15.2856C10.9445 14.7253 11.6012 14.1741 12.2571 13.6223C12.5655 13.3625 12.8738 13.105 13.1775 12.836C13.2644 12.7551 13.3679 12.694 13.4807 12.6569C13.5935 12.6197 13.7131 12.6075 13.8311 12.621C14.9356 12.7104 16.0124 12.9131 17.0191 13.3956C18.8089 14.2535 19.7808 15.7396 20.2217 17.6211C20.3219 18.0474 20.389 18.4813 20.4838 18.9754L21.5067 18.8544C21.6886 18.8328 21.8697 18.7958 22.0524 18.7904C22.4717 18.7773 22.6374 18.9662 22.5326 19.3654C22.4447 19.7007 22.3137 20.026 22.2027 20.3559C22.1402 20.5447 22.0794 20.7344 22.01 20.9494C22.205 21.0427 22.3869 21.1228 22.5626 21.2138C23.4105 21.6485 23.9277 22.3368 23.9855 23.2895C24.0694 24.6701 23.7876 26.0485 23.1685 27.2853C22.8332 27.9629 22.2628 28.3799 21.5036 28.5086C20.7612 28.6444 19.9973 28.6048 19.2729 28.393C18.5792 28.1833 18.0327 27.7763 17.6812 27.0957C16.7809 27.2052 15.9084 27.3069 15.0405 27.4187C13.2229 27.6525 11.4054 27.8881 9.58789 28.1255C9.44264 28.1466 9.29608 28.1574 9.14931 28.1579C8.77162 28.1532 8.61438 27.959 8.71304 27.5882C8.79783 27.2699 8.91884 26.9616 9.02136 26.6487C9.66805 24.7009 10.3263 22.7569 10.9483 20.8014C11.0855 20.3721 11.3006 20.1586 11.75 20.1308C12.1492 20.1062 12.5454 20.0299 12.9963 19.969C12.7389 19.2752 12.6194 18.6008 12.9455 17.9271C13.2623 17.2727 13.7995 16.8927 14.487 16.7054C14.5279 15.7327 14.558 14.8 14.2558 13.8928C14.0793 13.3633 13.909 13.3039 13.485 13.6546C12.6526 14.3483 11.8278 15.0421 10.9992 15.7404C10.9013 15.8236 10.8042 15.9076 10.704 15.987C10.2893 16.3146 10.2107 16.3185 9.80679 15.9793C8.92192 15.2363 8.04245 14.4879 7.15989 13.744C7.07819 13.6747 6.98878 13.6145 6.86545 13.5228C6.31433 14.6436 6.47081 15.7943 6.46695 16.9436C6.7375 17.013 6.96797 17.0631 7.19227 17.1332C7.89831 17.3521 8.50878 17.7252 8.87182 18.3811C9.06393 18.7111 9.18006 19.0797 9.21174 19.4602C9.25799 20.5039 9.23718 21.5506 9.22947 22.5958C9.22947 23.1138 8.96894 23.3921 8.53576 23.409C8.32996 23.4175 8.17965 23.3435 8.09101 23.1554C8.00237 22.9673 8.06018 22.7931 8.20663 22.7184C8.4687 22.5858 8.43786 22.3746 8.43786 22.1565C8.43786 21.4412 8.43786 20.7259 8.43786 20.0106C8.43786 18.8004 7.92375 18.1167 6.75754 17.8524C6.04301 17.689 5.3362 17.7398 4.6764 18.1029C4.03201 18.4574 3.65433 18.9777 3.65279 19.7346C3.65279 20.5594 3.65279 21.3849 3.64893 22.2104C3.64893 22.4255 3.69132 22.5896 3.89019 22.7191C4.03433 22.8132 4.07595 22.9851 3.9981 23.1623C3.91177 23.3581 3.75145 23.4183 3.55181 23.4121C3.15485 23.399 2.88893 23.1423 2.86195 22.7014C2.8396 22.3361 2.85425 21.9684 2.85425 21.6015C2.85425 20.9964 2.86427 20.3906 2.85425 19.7863C2.82958 18.5993 3.41846 17.8061 4.44978 17.3197C4.80897 17.1494 5.20516 17.0577 5.63449 16.9128C5.6607 15.8221 5.55279 14.696 5.97827 13.5475C5.75165 13.5768 5.5975 13.586 5.44873 13.6169C3.83007 13.9537 2.50045 14.7029 1.69497 16.2152C1.32588 16.9142 1.08567 17.674 0.985841 18.4582C0.896134 19.1295 0.843642 19.8052 0.828601 20.4823C0.805477 21.6007 0.823206 22.7176 0.823976 23.8383L0.828601 24.4897ZM21.5714 19.6961C21.4687 19.691 21.3658 19.691 21.2631 19.6961C18.2508 20.0938 15.2393 20.4985 12.2255 20.887C11.8872 20.9301 11.7268 21.065 11.6205 21.3949C11.1071 22.9982 10.5622 24.5914 10.0311 26.1893C9.91856 26.5276 9.82067 26.8714 9.69272 27.2869C11.0455 27.1181 12.3134 26.9785 13.5783 26.7974C14.8547 26.6155 16.1458 26.5269 17.4068 26.2663C17.4068 26.0351 17.4014 25.8725 17.4068 25.7091C17.4392 24.8781 17.5656 24.0673 17.9641 23.3196C18.4435 22.4255 19.1889 21.9915 20.2125 22.0532C20.3913 22.064 20.5709 22.0532 20.769 22.0532C21.0303 21.2847 21.2878 20.5255 21.5699 19.6961H21.5714ZM21.5837 22.1942C21.731 22.2713 21.8682 22.2937 21.9144 22.3723C21.9982 22.5026 22.0404 22.6553 22.0354 22.8101C22.0162 22.9851 21.8574 23.0807 21.6701 23.0745C21.5609 23.0669 21.4523 23.0527 21.3448 23.0321C21.001 22.9781 20.6603 22.9041 20.315 22.8695C19.481 22.7877 18.9499 23.0961 18.6054 23.8607C18.3139 24.5164 18.1884 25.2338 18.24 25.9495C18.2994 26.9053 18.8282 27.5312 19.7731 27.6838C20.2356 27.7609 20.7204 27.7478 21.1937 27.7332C21.7741 27.7154 22.2027 27.4063 22.4594 26.8968C23.0051 25.8123 23.2178 24.6415 23.1993 23.4421C23.1862 22.585 22.622 22.0108 21.7348 21.8142L21.5837 22.1942ZM19.5797 19.1057C19.5026 16.1281 17.6997 13.9868 15.1499 13.6816C15.2208 14.6836 15.2923 15.6929 15.3642 16.7093C16.6923 17.1232 17.1894 18.0751 17.0484 19.444L19.5797 19.1057ZM14.1841 19.8225C14.7599 19.7454 15.2486 19.6892 15.735 19.6113C16.0988 19.5535 16.1751 19.4572 16.2452 19.0849C16.2911 18.7947 16.2432 18.4974 16.1085 18.2364C15.9737 17.9753 15.7591 17.7641 15.496 17.6335C15.2358 17.5078 14.9421 17.469 14.6581 17.5227C14.3742 17.5764 14.1149 17.7197 13.9185 17.9317C13.7221 18.1437 13.5988 18.413 13.5669 18.7002C13.5349 18.9875 13.5959 19.2773 13.7409 19.5273C13.8666 19.737 14.0153 19.8695 14.1872 19.8225H14.1841Z" fill="black"/>
<path d="M10.2662 11.5565C7.03425 11.5565 4.48524 8.98903 4.4968 5.74322C4.50679 4.21282 5.12322 2.74884 6.21095 1.67224C7.29867 0.595646 8.76892 -0.00570538 10.2993 4.08048e-05C13.455 0.0154567 16.0448 2.60533 16.0479 5.74785C16.051 8.98749 13.492 11.5565 10.2662 11.5565ZM10.2731 0.820165C8.95526 0.819953 7.69103 1.34212 6.75742 2.27226C5.82382 3.2024 5.29695 4.46467 5.29226 5.78253C5.28378 8.50574 7.53295 10.7557 10.2654 10.7572C12.984 10.7572 15.2393 8.53272 15.2417 5.84651C15.2424 3.05008 13.0457 0.827103 10.2731 0.820165Z" fill="black"/>
</svg>
