<svg width="24" height="21" viewBox="0 0 24 21" fill="none" xmlns="http://www.w3.org/2000/svg">
<path d="M13.18 6.4524L12.7309 6.8474C12.6109 6.72434 12.5052 6.61808 12.4056 6.50462C11.6688 5.66896 10.9331 4.83229 10.1987 3.99463C10.1327 3.91959 10.0667 3.84456 9.99643 3.77372C9.68606 3.45974 9.46634 3.41353 9.07913 3.63265C8.33171 4.05288 7.58971 4.4803 6.8495 4.91134C4.92444 6.03196 3.00018 7.15478 1.07672 8.2798C0.596461 8.55955 0.505812 8.79428 0.724932 9.30036C0.8345 9.56372 0.984152 9.80856 1.16858 10.0262C2.55374 11.6038 3.9477 13.1737 5.35048 14.7358C5.50294 14.9049 5.68076 15.0493 5.87757 15.1638C8.58986 16.7487 11.3118 18.3185 14.0186 19.9136C14.392 20.1333 14.6712 20.1201 15.0338 19.9064C17.6686 18.3575 20.3167 16.8285 22.9552 15.2911C23.3574 15.0569 23.4504 14.8258 23.3202 14.3617C23.1731 13.8365 22.8219 13.4721 22.3596 13.2031C21.6693 12.7997 20.9789 12.3999 20.2855 11.9976C19.792 11.7107 19.2985 11.4231 18.8051 11.135C18.721 11.0857 18.6418 11.0275 18.5427 10.9615C18.6418 10.7868 18.7312 10.6295 18.8315 10.4542C18.9408 10.5028 19.0332 10.5346 19.1154 10.5821C20.3005 11.2704 21.4849 11.9604 22.6688 12.652C23.0199 12.847 23.3249 13.1152 23.5633 13.4384C23.7828 13.7399 23.9259 14.0901 23.9805 14.459C24.067 15.0497 23.8671 15.4916 23.3526 15.7911C20.6251 17.3792 17.8974 18.9665 15.1695 20.5529C14.7096 20.8225 14.293 20.8021 13.8421 20.5385C11.1923 18.9877 8.53783 17.4446 5.87877 15.9094C5.37215 15.6177 4.91852 15.2424 4.53703 14.7994C3.28834 13.3676 2.01984 11.9532 0.766355 10.5262C0.573057 10.3164 0.407052 10.0831 0.272284 9.83164C0.146545 9.57688 0.0605035 9.30438 0.017144 9.0236C-0.0645009 8.49051 0.146813 8.07988 0.622274 7.80613C1.3895 7.36369 2.15012 6.91105 2.91554 6.4668C4.79257 5.3758 6.6702 4.28639 8.54844 3.1986C9.47174 2.6631 9.91719 2.73454 10.6376 3.54318C11.388 4.38365 12.1318 5.23492 12.8774 6.08198C12.9729 6.18944 13.0587 6.30291 13.18 6.4524Z" fill="black"/>
<path d="M18.9396 7.81334L19.5063 8.03786C19.358 8.31642 19.2475 8.57817 19.0914 8.80749C18.1417 10.2039 16.7862 10.9014 15.1293 11.0353C14.3308 11.0995 13.7587 10.3533 13.97 9.57891C13.9994 9.47085 14.0379 9.36459 14.0751 9.24812C13.4615 8.87892 13.1176 8.37585 13.282 7.64404C13.3393 7.37652 13.4776 7.13315 13.6782 6.94708C13.8787 6.76102 14.1318 6.64132 14.4029 6.60428C15.0974 6.51423 15.5393 6.78018 15.9793 7.57681C16.2092 7.60743 16.4632 7.63684 16.7147 7.67586C16.9134 7.70768 17.0347 7.62905 17.1314 7.45855C17.337 7.08196 17.4679 6.66916 17.5168 6.24288C17.5785 5.72864 17.7911 5.24419 18.1279 4.85071C18.7883 4.09309 19.6197 3.86497 20.567 4.13992C21.545 4.42448 22.1045 5.12507 22.215 6.12101C22.3674 7.49637 22.4551 8.88253 22.5697 10.2591C22.5938 10.5412 22.6154 10.824 22.6418 11.1524L22.0259 11.2394C21.9814 10.7412 21.9382 10.2897 21.901 9.83705C21.8055 8.67061 21.7167 7.50357 21.617 6.33773C21.5474 5.51347 21.0395 4.89334 20.3113 4.72224C19.4396 4.51753 18.6364 4.92695 18.3044 5.76621C18.2155 6.00703 18.1521 6.25655 18.1153 6.51063C17.85 8.1045 16.791 9.13647 15.1827 9.35679C15.1263 9.36459 15.068 9.36279 15.0122 9.3748C14.712 9.43964 14.5271 9.67496 14.5631 9.95411C14.5992 10.2333 14.7877 10.4122 15.0968 10.396C15.3957 10.3798 15.6922 10.3334 15.9817 10.2573C17.2466 9.9229 18.212 9.2001 18.8135 8.02105C18.8477 7.95802 18.8873 7.90039 18.9396 7.81334ZM16.3323 8.29361C16.1522 8.25999 16.0568 8.22096 15.9685 8.23057C15.5963 8.27079 15.3844 8.15192 15.3184 7.7461C15.2691 7.43933 15.0182 7.26584 14.7072 7.22622C14.5718 7.20324 14.4326 7.22159 14.3077 7.27888C14.1829 7.33617 14.0782 7.42975 14.0072 7.5474C13.9243 7.66573 13.8792 7.80648 13.878 7.951C13.8769 8.09551 13.9196 8.23697 14.0006 8.35664C14.1675 8.62439 14.4239 8.73065 14.7366 8.68382C14.9041 8.65921 15.0878 8.55895 15.2319 8.60217C15.6467 8.72464 15.9289 8.49712 16.3323 8.2918V8.29361Z" fill="black"/>
<path d="M11.1953 13.026C11.5459 13.4696 11.9757 13.7962 12.4416 14.073C12.8696 14.3281 13.3144 14.5532 13.7623 14.7753C14.1387 14.959 14.3164 15.2556 14.3302 15.6584C14.347 16.1357 14.0348 16.5157 13.5372 16.6376C13.2593 16.7087 12.9664 16.6945 12.6967 16.5968C11.2559 16.0703 9.97121 15.2862 8.91463 14.1738C8.60475 13.8394 8.35367 13.455 8.17202 13.0368C7.63593 11.8325 8.02434 10.6619 9.14156 9.96311C10.3422 9.21329 12.0081 9.32255 13.1968 10.2417C13.4218 10.4165 13.6282 10.614 13.8127 10.8312C14.0475 11.1073 13.9664 11.3259 13.6086 11.4195C12.7178 11.6466 11.9203 12.1464 11.3274 12.8489C11.2763 12.9005 11.2415 12.9606 11.1953 13.026ZM13.0275 10.902C12.836 10.7645 12.7147 10.6655 12.582 10.5856C11.6942 10.0513 10.748 9.91628 9.79472 10.3377C8.56644 10.881 8.27048 11.931 8.84079 13.0128C9.09404 13.4787 9.4375 13.8895 9.85115 14.2212C10.586 14.8364 11.3996 15.3508 12.2705 15.7509C12.4999 15.8659 12.7416 15.9547 12.9909 16.0156C13.1707 16.0459 13.3554 16.0228 13.5222 15.949C13.7509 15.8451 13.7509 15.5288 13.539 15.3865C13.4167 15.3129 13.289 15.2484 13.1572 15.1938C12.2495 14.7573 11.4108 14.223 10.7192 13.4798C10.4022 13.1394 10.3902 13.0332 10.6592 12.6646C11.1581 11.9802 11.8094 11.4807 12.57 11.1181L13.0275 10.902Z" fill="black"/>
<path d="M17.3823 3.38453e-05C18.622 -0.00656979 19.5825 0.953947 19.5825 2.19423C19.582 2.62724 19.4533 3.05041 19.2126 3.41034C18.9718 3.77026 18.6299 4.05082 18.2299 4.21661C17.8298 4.38239 17.3897 4.42599 16.9649 4.34188C16.5402 4.25776 16.1498 4.0497 15.8432 3.74398C15.5365 3.43825 15.3273 3.04855 15.2419 2.62405C15.1565 2.19954 15.1988 1.75925 15.3634 1.35874C15.528 0.958221 15.8075 0.615425 16.1667 0.373613C16.5259 0.131802 16.9487 0.00181312 17.3817 3.38453e-05H17.3823ZM17.3955 0.619564C16.985 0.623724 16.5921 0.786541 16.2991 1.07392C16.006 1.36129 15.8355 1.75094 15.8232 2.16122C15.8058 3.01129 16.528 3.74369 17.3931 3.7521C18.2233 3.7605 18.9539 3.04371 18.9654 2.20565C18.9786 1.35078 18.2564 0.621365 17.3955 0.619564Z" fill="black"/>
<path d="M10.0715 7.73766C10.0719 8.15487 9.94884 8.56287 9.71774 8.91022C9.48663 9.25757 9.15785 9.52872 8.77285 9.68946C8.38785 9.85021 7.96387 9.89335 7.55438 9.81346C7.14489 9.73357 6.76823 9.53422 6.47188 9.24055C6.17554 8.94688 5.97279 8.57205 5.88919 8.1633C5.80559 7.75455 5.84489 7.3302 6.00214 6.94376C6.15939 6.55732 6.42755 6.22608 6.77279 5.99183C7.11803 5.75759 7.5249 5.63082 7.94209 5.6275C8.2208 5.62505 8.49723 5.67781 8.75543 5.78275C9.01363 5.88768 9.24849 6.04272 9.44646 6.2389C9.64443 6.43508 9.80159 6.66852 9.90886 6.92576C10.0161 7.183 10.0714 7.45895 10.0715 7.73766ZM7.9481 6.26625C7.75048 6.26621 7.55482 6.30545 7.3725 6.3817C7.19017 6.45794 7.02482 6.56966 6.88606 6.71037C6.74729 6.85108 6.63788 7.01797 6.56418 7.20133C6.49048 7.3847 6.45396 7.58087 6.45674 7.77848C6.45953 7.97608 6.50156 8.17117 6.5804 8.35238C6.65924 8.5336 6.77331 8.69733 6.91599 8.83407C7.05867 8.97081 7.22709 9.07783 7.41149 9.1489C7.59589 9.21998 7.79258 9.25369 7.99012 9.24808C8.78256 9.23548 9.45193 8.55231 9.45193 7.75507C9.44923 7.35828 9.2895 6.9787 9.00769 6.69936C8.72587 6.42002 8.3449 6.26364 7.9481 6.26445V6.26625Z" fill="black"/>
</svg>
