<svg width="24" height="24" viewBox="0 0 24 24" fill="none" xmlns="http://www.w3.org/2000/svg">
<path d="M2.76646 19.7733V21.6114H2.09305C2.08033 21.4775 2.05623 21.3437 2.05556 21.2098C2.05155 20.5886 2.04753 19.9674 2.05556 19.3462C2.06525 19.0764 1.98443 18.8111 1.82596 18.5925C0.834584 17.1807 0.30108 15.5949 0.0975836 13.892C0.0125705 13.1804 -0.0664198 12.4675 0.0875411 11.7499C0.500558 9.82673 1.92637 8.64926 3.88569 8.63721C5.2874 8.62851 6.68912 8.62517 8.09016 8.64659C8.93962 8.65998 9.77101 8.80992 10.5495 9.16938C11.9593 9.82003 12.7103 10.9004 12.6916 12.4795C12.6856 12.9093 12.6916 13.3397 12.6916 13.7695C12.6916 13.9087 12.6728 14.0479 12.6608 14.2119H12.0028C11.9927 14.0781 11.976 13.9569 11.9753 13.8351C11.972 13.3096 11.9693 12.7834 11.9753 12.258C11.9847 11.4333 11.6406 10.7793 11.0127 10.2692C10.4993 9.8515 9.90422 9.61654 9.2616 9.50007V11.0832C9.47046 11.1675 9.6378 11.2211 9.79176 11.3007C10.3112 11.5685 10.6272 11.9755 10.6238 12.5866C10.6238 13.0646 10.6318 13.5425 10.6191 14.0205C10.6098 14.3599 10.4237 14.5446 10.1305 14.5493C9.85134 14.554 9.65387 14.3157 9.78641 14.0734C10.0696 13.5546 9.90824 13.013 9.91091 12.4842C9.91091 12.1388 9.59831 11.9186 9.13643 11.8262C8.41147 11.681 7.89202 12.0685 7.90206 12.8002C7.90808 13.2346 7.80567 13.6865 8.03594 14.1102C8.08079 14.1919 8.00314 14.4007 7.91745 14.4817C7.78357 14.6096 7.58276 14.5801 7.42813 14.4763C7.34834 14.4227 7.28407 14.349 7.24177 14.2626C7.19948 14.1762 7.18064 14.0803 7.18715 13.9843C7.18715 13.491 7.17376 12.9963 7.19384 12.5036C7.21727 11.942 7.52854 11.5544 8.01586 11.3074C8.17183 11.2291 8.33784 11.1736 8.54736 11.0879C8.53798 10.5356 8.62902 9.96797 8.38202 9.38292H4.8215C4.6508 9.75778 4.6073 10.6246 4.70771 11.6401C5.60537 12.2285 5.87513 12.7687 5.63348 13.4957C5.45006 14.0493 4.85296 14.4589 4.26925 14.4328C3.97258 14.4192 3.68783 14.312 3.45585 14.1266C3.22388 13.9412 3.05659 13.687 2.97799 13.4006C2.79592 12.6763 3.08242 12.1415 3.95665 11.6428V9.39765C3.8728 9.37555 3.78687 9.36232 3.70026 9.35815C2.33871 9.38292 1.29044 10.215 0.857345 11.5718C0.663221 12.183 0.694685 12.7955 0.751584 13.416C0.878769 14.795 1.22418 16.1097 1.88085 17.3353C3.0456 19.5102 4.86434 20.8095 7.25609 21.3229C7.76818 21.432 8.295 21.4755 8.81712 21.5237C9.00729 21.5388 9.19863 21.5198 9.38209 21.4675C9.82992 21.3457 10.0361 21.0538 10.0394 20.5886C10.0479 20.396 9.99227 20.2061 9.88118 20.0486C9.77008 19.8911 9.60984 19.775 9.4256 19.7184C9.28979 19.6729 9.14918 19.6433 9.00656 19.63C6.85044 19.4098 5.35568 18.2638 4.41786 16.35C4.26524 16.0381 4.1501 15.7054 3.99882 15.3238L4.66085 15.1016C4.7452 15.3124 4.8128 15.4878 4.8851 15.6612C5.54311 17.253 6.61682 18.393 8.34186 18.8073C8.66517 18.8857 9.00187 18.9064 9.33055 18.966C9.99392 19.0865 10.502 19.4292 10.6693 20.1039C10.8367 20.7787 10.743 21.4106 10.1546 21.8758C9.77168 22.1777 9.31448 22.2507 8.84523 22.232C8.03295 22.2019 7.22723 22.0743 6.44545 21.8517C5.18632 21.4896 4.05438 20.8985 3.07773 20.0183C3.00745 19.9527 2.93113 19.8991 2.76646 19.7733ZM4.29737 12.351C4.12081 12.3569 3.95333 12.4307 3.82986 12.557C3.70639 12.6833 3.63647 12.8525 3.63466 13.0291C3.63405 13.1648 3.67397 13.2976 3.7493 13.4105C3.82464 13.5234 3.93196 13.6112 4.05751 13.6627C4.18307 13.7142 4.32115 13.727 4.45404 13.6995C4.58694 13.6721 4.70861 13.6055 4.80346 13.5085C4.89831 13.4114 4.96202 13.2883 4.98643 13.1548C5.01084 13.0213 4.99484 12.8835 4.94047 12.7592C4.88611 12.6349 4.79586 12.5296 4.68128 12.4569C4.5667 12.3841 4.43302 12.3473 4.29737 12.351Z" fill="black"/>
<path d="M14.1529 14.7093C14.5926 14.6497 14.9956 14.5754 15.4026 14.5453C15.7641 14.5158 15.9381 14.6303 15.9589 14.8465C15.9803 15.0828 15.817 15.1986 15.4194 15.2294C12.9707 15.4209 11.3621 17.6178 11.9519 19.9868C12.1888 20.9393 12.7505 21.675 13.5691 22.2145C13.6801 22.2768 13.7867 22.3464 13.8884 22.4227C13.9536 22.4713 13.9972 22.5436 14.0097 22.6239C14.0222 22.7043 14.0027 22.7863 13.9554 22.8525C13.8603 23.0011 13.7157 23.0807 13.5471 22.9964C13.3326 22.8922 13.1277 22.7694 12.9346 22.6296C12.3714 22.2143 11.9134 21.6728 11.5974 21.0485C11.2814 20.4242 11.1161 19.7345 11.1149 19.0348C11.1136 18.3351 11.2765 17.6448 11.5903 17.0194C11.9041 16.394 12.3601 15.8508 12.9218 15.4336C13.0496 15.3446 13.1579 15.2305 13.2401 15.0983C13.3223 14.966 13.3766 14.8184 13.3998 14.6644C13.5069 14.0694 13.6374 13.4789 13.774 12.8892C14.0652 11.6307 14.7982 10.7003 15.9562 10.1447C17.4684 9.42241 19.0816 9.24703 20.7129 9.54826C22.1856 9.8207 23.106 10.8067 23.6154 12.1823C24.0967 13.4823 24.1416 14.7997 23.663 16.1097C23.4508 16.6914 23.1944 17.259 22.9346 17.82C22.8229 18.059 22.7579 18.2685 22.8088 18.5429C22.9855 19.5028 22.9922 20.4748 22.9346 21.4474C22.9266 21.5893 22.8952 21.7292 22.8677 21.926L22.2037 21.8732C22.2579 20.9527 22.3529 20.0537 22.1535 19.1132C22.0397 19.227 21.948 19.308 21.869 19.3991C20.4351 21.0404 18.6177 21.9756 16.4803 22.3076C16.182 22.3491 15.8789 22.3423 15.5827 22.2875C15.2329 22.2324 14.9116 22.0618 14.6699 21.8029C14.4283 21.5441 14.2802 21.2118 14.2492 20.859C14.1662 20.0357 14.5291 19.4345 15.3002 19.1313C15.7018 18.974 16.1182 18.8582 16.5051 18.6714C18.1458 17.8762 19.2021 16.5816 19.7135 14.8365C19.7396 14.7468 19.7758 14.6604 19.824 14.5286L20.482 14.6711C20.2317 15.8271 19.681 16.8966 18.8855 17.7718C18.1124 18.6272 17.1298 19.2665 16.0345 19.6267C15.8531 19.6876 15.6684 19.7398 15.4923 19.8134C15.3263 19.8749 15.1836 19.9865 15.0838 20.1327C14.984 20.2789 14.9321 20.4525 14.9354 20.6294C14.932 20.8214 14.9852 21.0101 15.0884 21.172C15.1917 21.3339 15.3403 21.4618 15.5157 21.5398C15.8504 21.6817 16.2052 21.6643 16.55 21.5954C20.1265 20.8825 22.3068 18.6989 23.177 15.2013C23.4795 13.9857 23.2439 12.7915 22.6033 11.7037C22.0678 10.7913 21.2525 10.2592 20.2042 10.1681C18.9558 10.0603 17.718 10.1554 16.5433 10.6434C15.422 11.1086 14.7058 11.9293 14.4387 13.1242C14.3483 13.5258 14.2593 13.9321 14.1783 14.3378C14.1611 14.4609 14.1526 14.585 14.1529 14.7093Z" fill="black"/>
<path d="M6.49699 1.25561e-05C8.65312 0.00469832 10.4056 1.74044 10.3795 3.89322C10.3802 4.40763 10.2789 4.91708 10.0814 5.39211C9.88402 5.86714 9.5944 6.29833 9.22933 6.66075C8.86426 7.02317 8.43097 7.30962 7.95451 7.50357C7.47806 7.69752 6.96789 7.79509 6.45349 7.79067C5.93909 7.78625 5.43066 7.67991 4.95761 7.4778C4.48456 7.27569 4.05627 6.98182 3.69748 6.61317C3.33869 6.24453 3.05653 5.80842 2.86732 5.33007C2.6781 4.85172 2.58557 4.34061 2.59509 3.82628C2.61048 1.70296 4.35292 -0.0053426 6.49699 1.25561e-05ZM9.67127 3.86778C9.66596 3.23796 9.47412 2.62383 9.11996 2.10298C8.76581 1.58214 8.26523 1.17794 7.68148 0.941439C7.09772 0.704941 6.45697 0.646759 5.84016 0.774238C5.22335 0.901716 4.65816 1.20914 4.21598 1.65767C3.7738 2.10621 3.47446 2.67572 3.3558 3.29429C3.23713 3.91286 3.30446 4.55272 3.54926 5.13304C3.79406 5.71337 4.20537 6.20812 4.73121 6.55481C5.25706 6.90149 5.87385 7.08456 6.50369 7.08088C8.24679 7.07418 9.67395 5.62896 9.67127 3.86778Z" fill="black"/>
<path d="M16.3699 9.21089C15.3686 9.21009 14.4086 8.81157 13.7012 8.10298C12.9937 7.39439 12.5967 6.43379 12.5975 5.43249C12.5983 4.4312 12.9969 3.47123 13.7055 2.76377C14.414 2.05631 15.3746 1.65932 16.3759 1.66012C18.447 1.66012 20.1493 3.35369 20.1527 5.41878C20.156 7.62711 18.3245 9.25708 16.3699 9.21089ZM16.4007 2.37637C15.5882 2.36636 14.8049 2.67911 14.2227 3.24598C13.6405 3.81285 13.307 4.58754 13.2954 5.40003C13.2773 7.10297 14.6697 8.51807 16.3666 8.52142C17.1815 8.52595 17.9648 8.20657 18.5442 7.63356C19.1236 7.06056 19.4516 6.28085 19.4562 5.46596C19.4607 4.65108 19.1413 3.86777 18.5683 3.28836C17.9953 2.70895 17.2156 2.3809 16.4007 2.37637Z" fill="black"/>
</svg>
