<svg width="24" height="26" viewBox="0 0 24 26" fill="none" xmlns="http://www.w3.org/2000/svg">
<path d="M21.2023 25.7051H20.3769V22.2039C20.2942 22.2695 20.215 22.3392 20.1394 22.4128C18.5226 24.2693 16.4549 25.2997 14.0669 25.7391C13.5836 25.8405 13.0909 25.8903 12.5971 25.8876C12.2242 25.8745 11.8568 25.7074 11.3957 25.5844C10.0644 26.1514 8.67047 25.7391 7.29584 25.3299C5.60018 24.8255 4.17991 23.8601 3.00331 22.5365C2.88573 22.4035 2.7604 22.2774 2.5732 22.0794V25.6857H1.78107C1.77178 25.5535 1.75631 25.4289 1.75631 25.3051C1.75631 23.98 1.75632 22.6549 1.76483 21.3298C1.76619 20.9813 1.67745 20.6383 1.50722 20.3342C0.606228 18.6178 0.0938758 16.7242 0.00649727 14.7877C-0.112632 12.467 1.41903 10.7505 3.56491 10.2662C3.65423 10.2434 3.74532 10.2281 3.83721 10.2206C5.81986 10.1154 7.80561 9.97302 9.77279 10.3791C10.7678 10.5862 11.7044 11.0116 12.5151 11.6246C12.5878 11.6787 12.6698 11.7252 12.7534 11.7793C14.8296 10.8092 16.9639 10.9129 19.1523 11.4521C19.2482 11.3237 19.3449 11.196 19.4401 11.0653C19.9313 10.3977 20.585 10.2306 21.3338 10.5818C21.367 10.5973 21.3995 10.6151 21.4312 10.6336C22.2212 11.107 22.9372 11.6939 23.5562 12.3757C24.0335 12.9064 24.1457 13.5252 23.7953 14.1619C23.5763 14.5611 23.277 14.9146 23.0263 15.2967C22.9304 15.4421 22.8167 15.6061 22.8005 15.7678C22.6365 17.4921 22.1816 19.1259 21.3632 20.6583C21.2602 20.871 21.2073 21.1043 21.2085 21.3406C21.1938 22.5915 21.2007 23.8431 21.2007 25.0947C21.2015 25.2966 21.2023 25.4939 21.2023 25.7051ZM10.9664 18.0143V17.4449C10.9664 16.6528 10.9618 15.8614 10.9664 15.0693C10.9757 14.0985 11.2464 13.2205 11.9086 12.4848C11.9534 12.4198 11.9918 12.3507 12.0231 12.2783C11.2992 11.7279 10.4618 11.3457 9.57167 11.1597C7.80561 10.7814 6.01326 10.9415 4.23405 10.9756C4.08678 10.9839 3.9408 11.0078 3.79853 11.0467C2.43473 11.3662 1.42367 12.0988 0.963401 13.4734C0.779291 14.0265 0.771564 14.5966 0.826487 15.1675C0.946767 16.5451 1.28843 17.8942 1.83831 19.163C3.21371 22.2697 5.48955 24.2809 8.89016 24.8928C9.46492 24.9965 10.0505 25.1249 10.64 24.9632C10.9718 24.8719 11.2712 24.7312 11.4004 24.3854C11.4914 24.1533 11.5337 23.9049 11.5245 23.6557C11.5153 23.4066 11.4549 23.162 11.347 22.9372C11.1498 22.5118 10.7413 22.5079 10.3638 22.4445L10.3089 22.436C7.61145 22.0391 5.79124 20.5299 4.7446 18.0429C4.67302 17.8946 4.61777 17.739 4.57983 17.5787C4.55587 17.4541 4.57129 17.3252 4.62393 17.2097C4.77864 16.9173 5.1515 16.9568 5.3155 17.2871C5.47949 17.6174 5.59012 17.9694 5.75489 18.2927C6.02641 18.8342 6.33893 19.3479 6.80616 19.7625C8.25119 19.2891 9.60261 18.6733 10.9664 18.0143ZM11.791 16.1066C12.8176 14.7591 14.0816 14.2052 15.6426 14.8326C16.9639 15.3632 17.5495 16.4408 17.5851 17.9075C17.6524 17.8797 17.6562 17.7938 17.7003 17.742C17.8326 17.5872 18.002 17.5331 18.1915 17.6437C18.402 17.7667 18.4298 17.9624 18.3656 18.1721C18.3081 18.3659 18.2357 18.5549 18.149 18.7375C17.1209 20.8803 15.4098 22.1412 13.1022 22.6263C12.8176 22.6858 12.529 22.7276 12.2459 22.781C12.2714 23.1546 12.3233 23.5012 12.3093 23.8431C12.2915 24.2028 12.2057 24.5586 12.143 24.9547C12.2637 24.9926 12.4014 25.0754 12.5352 25.07C12.9756 25.0626 13.415 25.0251 13.8503 24.9578C15.6581 24.6337 17.3081 23.9522 18.6951 22.7145C20.5857 21.0319 21.5272 18.8605 21.907 16.4068C21.9192 16.2337 21.9192 16.06 21.907 15.8869C21.6811 15.8869 21.4831 15.8869 21.2881 15.8869C19.6528 15.8521 18.5033 14.5456 18.6781 12.9273C18.7029 12.6952 18.7315 12.4631 18.7555 12.2249C17.9312 11.9823 17.0749 11.8665 16.2158 11.8814C15.2713 11.8814 14.3399 11.9727 13.465 12.3703C12.6644 12.7347 12.1237 13.328 11.9017 14.1866C11.7469 14.7885 11.7268 15.4042 11.791 16.1066ZM7.52791 20.4386C7.66406 20.5469 7.74451 20.622 7.83734 20.6815C8.64143 21.2051 9.55454 21.5379 10.5069 21.6547C10.8164 21.6853 11.1195 21.7617 11.4066 21.8813C11.9303 22.1211 12.8918 21.9316 13.12 21.2516C13.178 21.0776 13.2399 20.9051 13.2949 20.7295C13.3807 20.4556 13.3962 20.1269 13.5625 19.9172C13.7706 19.6558 14.1179 19.8677 14.4018 19.877C14.9687 19.8923 15.5206 19.694 15.9482 19.3215C16.3757 18.949 16.6477 18.4294 16.7102 17.8657C16.8339 16.7626 16.048 15.6789 14.9627 15.4568C13.8023 15.2201 12.6358 15.9032 12.3465 17.0303C12.2621 17.3583 12.2962 17.7203 12.2962 18.0669C12.2962 18.4134 12.2242 18.531 11.9094 18.6339C11.4592 18.784 11.0051 18.9309 10.568 19.115C9.56935 19.5335 8.58383 19.976 7.52791 20.4378V20.4386ZM21.4042 15.0716C22.0493 15.0762 22.5398 14.7622 22.8848 14.1681C23.287 13.4719 23.2716 13.1733 22.672 12.6295C22.2791 12.2713 21.8606 11.941 21.4421 11.6114C21.2829 11.4866 21.1085 11.3826 20.923 11.302C20.5958 11.1604 20.3459 11.2061 20.1494 11.5031C19.9174 11.852 19.6915 12.2218 19.5677 12.6163C19.1608 13.9236 19.9932 15.0399 21.4042 15.0708V15.0716ZM13.9176 21.5386C14.6105 21.3227 15.2509 20.9649 15.7981 20.4881L14.1419 20.7388C14.0823 20.9492 14.0112 21.2029 13.9176 21.5379V21.5386Z" fill="black"/>
<path d="M10.9038 4.69807C10.8759 7.29881 8.78651 9.37894 6.21284 9.34645C3.428 9.31164 1.49949 6.99944 1.57144 4.5333C1.64183 2.00528 3.73742 -0.0230099 6.32578 0.000197174C8.86309 0.0218571 10.9316 2.14375 10.9038 4.69807ZM6.23682 8.52415C7.25104 8.51063 8.21919 8.09844 8.93191 7.37673C9.64463 6.65503 10.0446 5.68179 10.0455 4.66748C10.0463 3.65317 9.64783 2.67929 8.93626 1.95644C8.2247 1.23359 7.25721 0.819858 6.243 0.80471C4.14818 0.792333 2.37052 2.56689 2.37516 4.66868C2.37844 5.69128 2.78654 6.67097 3.51021 7.39348C4.23388 8.11598 5.21422 8.52252 6.23682 8.52415Z" fill="black"/>
<path d="M20.4944 5.85922C20.4774 8.36403 18.5265 10.2902 16.0232 10.274C13.5517 10.2577 11.6139 8.2627 11.6386 5.76407C11.6649 3.33739 13.6793 1.39728 16.1454 1.42358C17.3095 1.43787 18.4205 1.91253 19.2355 2.74376C20.0505 3.57499 20.5031 4.69514 20.4944 5.85922ZM19.6969 5.84453C19.6915 4.09085 18.3486 2.266 16.0611 2.2281C14.097 2.19483 12.4346 3.89049 12.4408 5.86387C12.447 7.83724 14.104 9.49963 16.0766 9.48416C18.0624 9.46946 19.7008 7.82331 19.6969 5.84143V5.84453Z" fill="black"/>
</svg>
