<svg width="24" height="34" viewBox="0 0 24 34" fill="none" xmlns="http://www.w3.org/2000/svg">
<path d="M18.9822 30.8993V33.0533H18.0934C18.0934 32.1801 18.0813 31.3225 18.0986 30.4649C18.1055 30.1309 18.3712 30.0521 18.6585 30.0045C19.5923 29.8496 20.5261 29.6956 21.4547 29.513C22.5269 29.3018 23.0859 28.5982 23.0738 27.5052C23.0757 27.2584 23.0496 27.0122 22.9959 26.7714C22.3097 23.9943 21.6355 21.2138 20.9138 18.4462C20.411 16.5189 19.1899 15.2546 17.2384 14.7388C17.1593 14.7165 17.079 14.6989 16.9978 14.686C16.9157 14.6813 16.8333 14.6813 16.7512 14.686C16.778 15.1888 16.778 15.6959 16.8498 16.1927C16.868 16.3182 17.1095 16.4237 17.2583 16.5172C17.4623 16.6389 17.6396 16.8005 17.7795 16.9924C17.9194 17.1844 18.0192 17.4026 18.0727 17.634C18.1262 17.8654 18.1324 18.1052 18.0909 18.3391C18.0494 18.5729 17.9611 18.796 17.8312 18.9949C17.6367 19.3026 17.3496 19.5405 17.0111 19.6744C16.6727 19.8083 16.3004 19.8313 15.9481 19.74C15.2437 19.5721 14.8014 19.1126 14.6448 18.4038C14.5684 18.0596 14.5976 17.7003 14.7287 17.3729C14.8598 17.0456 15.0866 16.7655 15.3795 16.5691C15.5327 16.4688 15.6997 16.3883 15.9291 16.2602C15.8763 15.7894 15.8538 15.2979 15.756 14.821C15.6694 14.4056 15.4315 14.3277 15.0844 14.5761C14.5989 14.9223 14.1325 15.297 13.6591 15.6596C13.2662 15.9599 12.8802 16.2654 12.4796 16.5587C12.0408 16.8859 11.9396 16.885 11.5043 16.5587C10.7003 15.953 9.8998 15.3368 9.09411 14.7293C8.93661 14.6107 8.7618 14.5138 8.54198 14.3727C8.10928 15.1213 8.08764 15.8612 8.1162 16.6366C8.30053 16.6964 8.45371 16.7491 8.60776 16.795C9.83144 17.1559 10.4701 17.9581 10.5064 19.2181C10.5272 19.9381 10.5168 20.659 10.5125 21.3816C10.5123 21.5466 10.4929 21.711 10.4545 21.8715C10.4231 22.0244 10.337 22.1607 10.2122 22.2545C10.0874 22.3484 9.93259 22.3934 9.77692 22.3812C9.37104 22.3743 9.12872 22.035 9.36844 21.7174C9.59863 21.4171 9.58999 21.1177 9.59085 20.7932C9.59085 20.2376 9.58652 19.6811 9.59085 19.1255C9.59085 18.5501 9.31911 18.1476 8.83016 17.8776C8.53432 17.7073 8.20491 17.6036 7.86487 17.5737C7.52484 17.5438 7.18238 17.5885 6.86137 17.7045C6.26078 17.9105 5.67404 18.3969 5.72683 19.2753C5.76144 19.8499 5.73375 20.428 5.73375 21.0061C5.73375 21.2319 5.71471 21.4535 5.91116 21.6335C6.08424 21.7927 6.11799 22.0333 5.95096 22.1821C5.79517 22.3033 5.60116 22.3647 5.40403 22.3552C5.0648 22.337 4.88479 22.119 4.85191 21.7252C4.82335 21.3981 4.83632 21.0675 4.83459 20.7378C4.83459 20.2436 4.85969 19.7478 4.83459 19.2554C4.75498 17.9356 5.64635 17.1567 6.62771 16.8175C6.80079 16.7578 6.98079 16.7197 7.17118 16.6678C7.22397 16.0161 7.27503 15.387 7.33042 14.7085C7.20235 14.6944 7.07303 14.6959 6.94531 14.7129C5.04142 15.1845 3.71217 16.3199 3.14447 18.2186C2.73773 19.5781 2.42791 20.9663 2.08262 22.3431C1.75203 23.6602 1.42491 24.9783 1.11249 26.2989C1.00725 26.6951 0.942874 27.1011 0.920378 27.5104C0.894416 28.6121 1.45261 29.2957 2.53955 29.513C3.44736 29.6938 4.36209 29.8418 5.27336 30.0045C5.8376 30.1058 5.91202 30.1698 5.92068 30.7055C5.93366 31.4843 5.92068 32.2571 5.92068 33.0646H5.03969V30.8942C4.27641 30.7566 3.5737 30.6345 2.87619 30.5021C2.59156 30.4569 2.30961 30.3962 2.03156 30.3204C0.716151 29.9249 -0.0549284 28.9063 0.0030536 27.3728C0.0245343 27.0237 0.0807807 26.6775 0.170947 26.3395C0.820864 23.681 1.46904 21.0225 2.14233 18.37C2.61916 16.493 3.67756 15.0633 5.48106 14.2533C6.50095 13.8021 7.60243 13.5644 8.71765 13.5549C8.94006 13.5549 9.19536 13.6692 9.38315 13.8042C10.0521 14.2836 10.6977 14.7959 11.3537 15.2935C11.5493 15.4415 11.7492 15.5834 11.9871 15.7565C12.181 15.6224 12.3671 15.5038 12.5427 15.3706C13.2316 14.8513 13.9184 14.3263 14.6033 13.7955C14.8032 13.6406 15.0013 13.5264 15.2731 13.5359C16.3721 13.5835 17.4444 13.7644 18.4586 14.1997C20.2578 14.9707 21.3205 16.377 21.8008 18.2307C22.5027 20.9394 23.1647 23.6577 23.8406 26.3733C23.9808 26.9349 24.0535 27.4983 23.9539 28.0842C23.7575 29.2404 23.0998 29.9924 21.9851 30.297C21.2539 30.4969 20.4941 30.5965 19.7481 30.7427C19.5049 30.7903 19.2678 30.8405 18.9822 30.8993ZM16.3419 18.8841C16.7962 18.8841 17.2168 18.4799 17.2168 18.0317C17.2168 17.5834 16.7893 17.1663 16.3462 17.1767C16.1245 17.1837 15.9142 17.2768 15.7599 17.4361C15.6055 17.5954 15.5192 17.8085 15.5192 18.0304C15.5192 18.2522 15.6055 18.4653 15.7599 18.6247C15.9142 18.784 16.1245 18.877 16.3462 18.8841H16.3419Z" fill="black"/>
<path d="M12.033 12.2395C11.2288 12.2485 10.4308 12.0981 9.68495 11.7971C8.93912 11.4962 8.26025 11.0505 7.68746 10.4859C7.11467 9.92136 6.6593 9.24899 6.34761 8.50758C6.03591 7.76617 5.87405 6.97041 5.87136 6.16615C5.85751 2.7781 8.58439 0.0140061 11.9551 0.000159688C12.7593 -0.00565567 13.5567 0.147416 14.3016 0.450587C15.0465 0.753759 15.7241 1.20104 16.2957 1.7668C16.8672 2.33255 17.3214 3.00564 17.6321 3.74738C17.9429 4.48912 18.104 5.28492 18.1064 6.08912C18.1125 9.51006 15.4332 12.2248 12.033 12.2395ZM11.9802 11.3464C13.0095 11.3468 14.0158 11.0423 14.8722 10.4714C15.7287 9.9006 16.3969 9.08895 16.7926 8.13883C17.1884 7.18871 17.2939 6.14267 17.096 5.13263C16.898 4.1226 16.4054 3.1938 15.6803 2.46337C14.9551 1.73293 14.03 1.23358 13.0214 1.02827C12.0128 0.822958 10.9661 0.920891 10.0131 1.30971C9.0601 1.69854 8.2436 2.36085 7.66653 3.21311C7.08947 4.06538 6.77768 5.06943 6.7705 6.09865C6.75406 8.96313 9.11315 11.3395 11.9802 11.3464Z" fill="black"/>
<path d="M12.9261 23.2561C13.8962 21.0649 15.4358 20.2186 17.2704 20.8408C18.0381 21.103 18.6812 21.6406 19.0754 22.3495C19.4696 23.0585 19.5869 23.8884 19.4045 24.6789C18.9831 26.5222 17.4452 27.4179 15.2194 27.1228C15.1865 27.153 15.1381 27.1755 15.1329 27.2093C14.7798 28.6666 13.6851 29.3988 12.4268 29.9569C11.9136 30.1854 11.6055 29.9665 11.6895 29.3962C11.8807 28.0981 11.2334 27.0319 9.56576 26.7749C8.26765 26.5741 6.97993 26.2876 5.69048 26.0289C5.39971 25.9709 5.04229 25.9709 4.99816 25.5512C4.96614 25.2518 5.13143 25.147 5.6775 24.9904C7.17811 24.5577 8.68045 24.1311 10.1698 23.6637C11.1867 23.3409 11.8045 23.2172 12.9261 23.2561ZM7.88774 25.3772V25.5053C7.98293 25.5304 8.0764 25.5607 8.17246 25.5797C8.79728 25.7035 9.4247 25.8143 10.0469 25.9484C11.4186 26.2452 12.3437 27.0016 12.5851 28.4494C12.6128 28.5639 12.6472 28.6766 12.6881 28.7869C13.5786 28.3326 14.1706 27.719 14.2571 26.716C14.2683 26.5931 14.2571 26.4676 14.2727 26.3465C14.322 26.0003 14.5487 25.8463 14.8845 25.9501C15.0792 26.0098 15.2566 26.1232 15.4496 26.189C16.042 26.3982 16.6932 26.3635 17.2601 26.0926C17.8269 25.8216 18.2628 25.3366 18.472 24.7442C18.6813 24.1518 18.6466 23.5006 18.3756 22.9338C18.1047 22.3669 17.6196 21.931 17.0273 21.7218C15.7603 21.2718 14.4172 21.9 13.9758 23.1592C13.9126 23.3756 13.8634 23.5959 13.8287 23.8187C13.7257 24.3102 13.5804 24.4244 13.1053 24.2834C12.5718 24.1141 12.0007 24.103 11.461 24.2514C10.2598 24.5967 9.0794 25.0008 7.88774 25.3772Z" fill="black"/>
</svg>
