<svg width="24" height="39" viewBox="0 0 24 39" fill="none" xmlns="http://www.w3.org/2000/svg">
<path d="M2.58206 29.2843C2.46928 29.2465 2.35451 29.2149 2.23828 29.1896C0.944634 28.9718 -0.0421753 28.002 0.00138829 26.3352C0.0685059 24.1268 0.418608 21.9361 1.04313 19.8168C1.37639 18.6191 1.93185 17.4947 2.68055 16.5022C3.70322 15.1378 5.13494 14.1358 6.767 13.6421C10.1015 12.6297 13.4777 12.6231 16.8349 13.483C19.7556 14.2302 21.6837 16.1347 22.7406 18.936C23.3571 20.5687 23.6507 22.2772 23.8515 24.0008C23.9415 24.783 23.986 25.5719 23.9992 26.3589C24.0267 27.9878 23.3117 28.8591 21.7169 29.2085C21.6316 29.2275 21.5502 29.2653 21.4204 29.3098C21.142 32.2845 19.8579 34.7221 17.3861 36.4666C15.5517 37.7621 13.5033 38.2659 11.2559 38.1315C7.66195 37.9146 3.12755 35.1048 2.58206 29.2843ZM19.3446 24.6978C18.174 24.5302 17.0859 24.3635 15.9939 24.2243C15.528 24.1656 15.0469 24.1059 14.5848 24.1514C13.865 24.2214 13.4767 24.7063 13.4483 25.4308C13.418 26.1808 13.7552 26.6032 14.634 26.8267C16.029 27.1828 17.4287 27.5256 18.8332 27.8448C19.5775 28.0143 20.3314 28.1961 21.089 28.2378C22.3694 28.3098 23.0153 27.6497 23.0209 26.3655C23.0187 25.8024 22.9871 25.2397 22.9262 24.6798C22.7482 22.9297 22.4754 21.1976 21.894 19.527C20.9109 16.7001 18.9724 14.9272 16.0441 14.2937C13.4602 13.7301 10.7859 13.7227 8.19892 14.2719C5.12863 14.9149 3.11713 16.7541 2.12369 19.7117C1.6123 21.2326 1.33671 22.8085 1.15109 24.3976C1.06012 25.1121 1.0149 25.8318 1.01567 26.5521C1.02987 27.5285 1.64355 28.145 2.61047 28.2283C2.92562 28.2678 3.24494 28.2592 3.55751 28.2028C5.57469 27.7406 7.59187 27.2766 9.59769 26.7652C10.3553 26.5758 10.6934 26.0009 10.6224 25.302C10.558 24.6703 10.0807 24.211 9.32305 24.1561C8.82907 24.1326 8.334 24.1571 7.84473 24.229C6.80299 24.355 5.76125 24.5131 4.63333 24.6675C4.59545 24.3247 4.5623 24.0292 4.52537 23.6939L8.64307 23.0935C8.38169 22.781 8.16955 22.5726 8.01329 22.3359C7.67994 21.8321 7.3068 21.3387 7.06626 20.7903C6.80662 20.1976 6.7356 19.5394 6.86283 18.9049C6.99006 18.2704 7.30938 17.6905 7.77748 17.2437C8.24993 16.7866 8.848 16.481 9.49516 16.3657C10.1423 16.2505 10.8091 16.331 11.4103 16.5969C11.6139 16.6916 11.8118 16.7919 12.0031 16.8867C12.2693 16.7635 12.506 16.63 12.7608 16.54C14.0715 16.0732 15.2704 16.2938 16.2534 17.2721C17.2118 18.2267 17.4742 19.3935 17.0215 20.6928C16.7876 21.3623 16.3898 21.9325 15.939 22.4704L15.4058 23.1011C16.834 23.3852 18.193 23.4714 19.5321 23.7716C19.4554 24.1078 19.4061 24.372 19.3436 24.6978H19.3446ZM3.63895 29.2521C3.76869 33.4124 7.50569 37.586 12.7816 37.1257C15.1606 36.9183 17.1209 35.834 18.6049 33.9503C19.6883 32.5752 20.3096 31.0211 20.3759 29.2331C19.0595 28.9254 17.8123 28.6412 16.5679 28.342C15.7581 28.1459 14.9475 27.9518 14.1491 27.715C13.2087 27.4366 12.5827 26.8504 12.4653 25.821C12.4463 25.7238 12.4181 25.6287 12.381 25.5369H11.7001C11.6594 25.6022 11.6196 25.6382 11.6149 25.678C11.4719 26.8996 10.719 27.537 9.58253 27.8183C8.86089 27.9963 8.14588 28.1971 7.42329 28.3713C6.17321 28.6678 4.92502 28.9528 3.638 29.2521H3.63895ZM11.9899 24.5169C13.2693 23.6835 14.3802 22.8028 15.2742 21.6853C15.5974 21.2833 15.8609 20.8367 16.0565 20.3594C16.4088 19.4825 16.1985 18.6699 15.5517 17.9918C14.7448 17.1461 13.5629 17.0789 12.5392 17.793C12.0079 18.1652 12.0079 18.1652 11.488 17.8062C11.4141 17.7551 11.3393 17.7039 11.2626 17.6575C10.9691 17.4776 10.6388 17.3661 10.2962 17.3314C9.95366 17.2967 9.60771 17.3397 9.28409 17.4572C8.96046 17.5747 8.66748 17.7637 8.42697 18.01C8.18646 18.2564 8.0046 18.5538 7.89491 18.8802C7.62974 19.6378 7.83809 20.3064 8.23017 20.9381C9.16489 22.4382 10.5457 23.4771 11.9889 24.5131L11.9899 24.5169Z" fill="black"/>
<path d="M18.0528 6.06395C18.0544 6.85939 17.8989 7.64732 17.5952 8.38249C17.2915 9.11767 16.8456 9.78562 16.283 10.348C15.7205 10.9104 15.0524 11.3561 14.3171 11.6596C13.5818 11.963 12.7938 12.1183 11.9984 12.1164C8.62507 12.1164 5.93265 9.39277 5.93738 5.99103C5.94307 2.68872 8.71409 -0.0179044 12.0704 8.92006e-05C15.3727 0.0171358 18.0509 2.73323 18.0528 6.06395ZM6.94786 6.08004C6.94786 7.42179 7.48087 8.70858 8.42963 9.65734C9.37838 10.6061 10.6652 11.1391 12.0069 11.1391C13.3487 11.1391 14.6355 10.6061 15.5842 9.65734C16.533 8.70858 17.066 7.42179 17.066 6.08004C17.083 3.23894 14.7808 0.99826 11.9312 1.01531C10.5988 1.02656 9.32553 1.56638 8.39108 2.5161C7.45663 3.46582 6.93752 4.74773 6.94786 6.08004Z" fill="black"/>
<path d="M12.6074 35.2705C12.5969 35.5546 12.3308 35.7629 11.9899 35.7582C11.649 35.7535 11.4046 35.5404 11.4151 35.2411C11.4255 34.9419 11.6755 34.7392 12.0193 34.7515C12.363 34.7638 12.6187 34.9921 12.6074 35.2705Z" fill="black"/>
<path d="M8.47262 19.8092C8.4622 18.8811 9.42912 17.9246 10.344 17.9606C10.6101 17.971 10.8298 18.0553 10.8866 18.3546C10.9434 18.6538 10.8241 18.8593 10.4728 18.9228C9.86097 19.0326 9.51909 19.348 9.44428 19.9768C9.41208 20.2505 9.21414 20.4058 8.91867 20.3812C8.64687 20.3585 8.48019 20.1359 8.47262 19.8092Z" fill="black"/>
</svg>
