<svg width="30" height="23" viewBox="0 0 30 23" fill="#FFCDD2" xmlns="http://www.w3.org/2000/svg">
<path d="M14.719 22.9368C10.3985 22.8453 6.17598 21.5498 2.52382 18.6392C1.74834 18.0203 1.09372 17.2503 0.382332 16.5518C-0.0644603 16.1123 -0.103829 15.6728 0.181824 15.0869C2.07703 11.1719 3.93561 7.23872 5.80609 3.31098C6.2245 2.43113 6.63925 1.54944 7.06315 0.671419C7.40374 -0.0353915 7.63171 -0.111378 8.355 0.172444C11.1548 1.27111 14.0516 1.6172 17.0363 1.28485C18.6733 1.10174 20.2719 0.773042 21.7917 0.107432C22.331 -0.128781 22.6093 0.0158815 22.906 0.627474C23.733 2.34079 24.5546 4.05593 25.3706 5.7729C26.8538 8.88579 28.3196 11.9987 29.8276 15.1015C30.1022 15.66 30.05 16.0574 29.6618 16.517C27.8765 18.6347 25.6654 20.1572 23.1394 21.2467C20.5511 22.3582 17.8402 22.9002 14.719 22.9368ZM8.17464 1.68036L1.53502 15.6206C8.4255 23.6418 22.1772 23.1602 28.4643 15.6032L21.8228 1.68036C17.2359 3.2066 12.7341 3.2185 8.17464 1.68036Z" fill="#E91E63"/>
<path d="M20.3058 15.725C20.3433 16.192 20.4596 16.669 20.4019 17.124C20.2289 18.4973 19.3683 19.3287 18.113 19.7791C16.9045 20.214 15.6722 20.1188 14.4508 19.8258C11.9211 19.2188 10.0213 17.6843 8.5244 15.6307C7.46235 14.1723 7.30854 12.5682 8.07211 10.8763C7.31312 10.0166 7.00549 9.00394 7.08331 7.85492C7.23438 5.63195 8.94922 4.15332 11.1731 4.34009C12.0154 4.41059 12.8156 4.60378 13.5343 5.06155C14.5021 5.67956 15.0322 6.56307 15.1036 7.71667C15.121 7.99866 15.1311 8.28157 15.1402 8.472C15.6896 8.73202 16.2151 8.89591 16.6353 9.20445C17.1096 9.55419 17.1517 10.1392 17.0748 10.7316C18.3465 11.4256 19.6594 11.7122 21.0739 11.4842C21.2347 11.4427 21.3976 11.41 21.5619 11.3862C22.5636 11.3359 23.2282 12.2496 22.7274 13.1056C22.2504 13.9205 21.6288 14.6557 21.0218 15.3863C20.867 15.5786 20.5328 15.6243 20.3058 15.725ZM12.0127 12.9271C12.595 12.9765 13.0912 13.0003 13.581 13.0663C14.0388 13.1285 14.3501 12.9656 14.6174 12.6085C14.9672 12.1397 15.5138 10.8351 15.5815 10.2088C14.8875 10.0165 14.8655 10.0257 14.622 10.6236C14.4609 11.0191 14.3171 11.4219 14.1423 11.8138C13.9591 12.223 13.7055 12.3805 13.3054 12.321C12.812 12.2487 12.3203 12.1608 11.8341 12.0463C11.3919 11.9456 11.1685 11.6151 11.2271 11.2223C11.2857 10.8296 11.5933 10.6171 12.0713 10.6501C12.3725 10.6712 12.6719 10.7261 12.9749 10.7664C13.4446 9.85083 13.7358 8.94077 13.6881 7.93457C13.6497 7.12156 13.278 6.54109 12.5602 6.16938C11.9836 5.88109 11.344 5.74166 10.6998 5.76378C9.83822 5.77568 9.17536 6.14008 8.80731 6.92654C8.39256 7.81555 8.35777 8.71737 8.89886 9.58166C8.9829 9.69703 9.08826 9.79523 9.20924 9.87097C10.0177 10.4441 10.0415 10.5348 9.4839 11.3917C9.04077 12.072 8.90161 12.8227 9.13599 13.5744C9.31676 14.1384 9.59165 14.6677 9.94901 15.14C10.6866 16.1076 11.599 16.9284 12.6389 17.5598C13.8381 18.3103 15.2366 18.6797 16.65 18.6191C17.4566 18.5889 18.1973 18.3445 18.7091 17.6578C18.8418 17.4877 18.9312 17.288 18.9696 17.0757C19.008 16.8634 18.9943 16.645 18.9297 16.4392C18.8143 16.0556 18.6917 15.6921 18.1909 15.5886C17.8338 15.5154 17.6415 15.1309 17.6974 14.8232C17.7245 14.6582 17.8086 14.508 17.9351 14.3986C18.0616 14.2892 18.2224 14.2276 18.3895 14.2244C18.84 14.1979 19.2932 14.219 19.7436 14.1933C19.9213 14.1832 20.1511 14.153 20.2573 14.0395C20.5402 13.7337 20.7691 13.3776 21.0868 12.95C19.4204 13.1184 17.9574 12.7852 16.5676 12.1187C16.3295 12.5389 16.1803 12.9646 15.8974 13.2622C15.4396 13.7429 15.4716 14.2226 15.696 14.761C15.7417 14.8699 15.7875 14.9798 15.8251 15.0933C15.9697 15.5392 15.8443 15.9118 15.5028 16.0629C15.1192 16.2313 14.709 16.0739 14.5076 15.6399C14.3492 15.2993 14.2393 14.9358 14.0956 14.5513L11.9138 14.316C11.9477 13.8436 11.9806 13.4453 12.0127 12.9271Z" fill="#E91E63"/>
</svg>
