<svg width="82" height="86" viewBox="0 0 82 86" fill="none" xmlns="http://www.w3.org/2000/svg">
<path d="M47.65 82.8449L57.39 80.8449C57.4174 80.3257 57.2886 79.8102 57.02 79.3649C56.925 79.2199 56.8143 79.0858 56.69 78.965C56.1397 78.334 55.7276 77.5948 55.48 76.795L53.67 76.9549C52.08 80.4249 50.94 81.295 50.19 81.405C49.65 81.485 49.19 81.8849 48.68 81.9949C48.34 82.0749 47.92 82.1249 47.74 82.4449C47.6707 82.5663 47.6394 82.7056 47.65 82.8449Z" fill="#FF8C64"/>
<path d="M40.9701 43.2149C43.4034 40.5483 45.8267 37.8816 48.24 35.2149C48.24 31.7249 48.24 28.2149 48.24 24.7349C48.34 24.2249 49.17 20.1349 48 16.9549C47.6134 15.9307 47.0813 14.9675 46.4201 14.0949C46.0183 13.5838 45.5622 13.1178 45.06 12.7049L41.06 14.0449C40.66 14.3549 36.2101 17.8749 36.9101 22.2249C37.0198 22.9272 37.2534 23.6044 37.6001 24.2249L38.77 30.9049C39.4967 35.0249 40.2301 39.1283 40.9701 43.2149Z" fill="#FF8C64"/>
<path d="M46.12 46.2549C48.8041 46.2549 50.98 43.6224 50.98 40.3749C50.98 37.1275 48.8041 34.4949 46.12 34.4949C43.4359 34.4949 41.26 37.1275 41.26 40.3749C41.26 43.6224 43.4359 46.2549 46.12 46.2549Z" fill="#FF8C64"/>
<path d="M47.33 58.4849C48.13 61.4849 49.44 63.7549 50.47 63.6749C51.5 63.5949 52.67 60.8249 52.71 56.8149C51.9967 51.4149 51.29 46.0183 50.59 40.6249L41.11 40.8149C41.4761 47.1735 43.6323 53.2991 47.33 58.4849Z" fill="#FF8C64"/>
<path d="M31.72 56.1349C29.97 58.7449 29.17 61.2049 29.91 61.9249C30.65 62.6449 33.5 61.6849 36.54 59.0549L47.26 46.7449L40.84 39.7449C39.3612 41.2107 38.0221 42.8109 36.84 44.5249C34.4243 48.0418 32.6877 51.9795 31.72 56.1349Z" fill="#FF8C64"/>
<path d="M53.52 78.5549L56 78.0749C56.296 75.5286 56.4563 72.9683 56.48 70.4049C56.48 63.9249 55.61 62.2749 55.15 61.5649C54.6056 60.8178 54.1047 60.0398 53.65 59.2349C52.9573 57.9675 52.4104 56.6256 52.02 55.2349C51.08 57.2349 50.15 59.2349 49.21 61.2349C49.62 62.2349 50.01 63.2349 50.39 64.2949C52.0126 68.9024 53.0638 73.6915 53.52 78.5549Z" fill="#FF8C64"/>
<path d="M24.04 82.6049H33.98C34.1179 82.1009 34.0969 81.5666 33.92 81.075C33.8566 80.9185 33.7796 80.768 33.69 80.625C33.2695 79.8965 33.0167 79.0834 32.95 78.2449L31.14 78.0349C28.87 81.0949 27.58 81.7149 26.82 81.6649C26.28 81.6649 25.76 81.935 25.22 81.935C24.88 81.935 24.45 81.935 24.22 82.185C24.1154 82.3013 24.0521 82.4489 24.04 82.6049Z" fill="#FF8C64"/>
<path d="M30.67 79.6149H33.19C33.9918 77.1868 34.6595 74.7164 35.19 72.2149C36.56 65.8749 36.02 64.0749 35.71 63.2849C35.3272 62.4415 34.9933 61.5767 34.71 60.6949C34.2881 59.3098 34.0297 57.8801 33.94 56.4349L29.94 61.7649C30.14 62.7649 30.32 63.8849 30.47 65.0049C31.1363 69.8482 31.2035 74.7552 30.67 79.6149Z" fill="#FF8C64"/>
<path d="M39.95 15.8149L46.01 13.8149L42.89 6.73492L38.1 8.30492C38.3748 8.68339 38.6221 9.08108 38.84 9.49493C39.3195 10.4155 39.6567 11.4033 39.84 12.4249L39.93 12.9849C40.0708 13.9225 40.0775 14.8754 39.95 15.8149Z" fill="#FF8C64"/>
<path d="M39.97 12.9949H40.07C41.07 12.6549 41.52 11.1349 41.01 9.59495C40.9316 9.36091 40.8347 9.13352 40.72 8.91495L38.84 9.53495C39.3195 10.4555 39.6567 11.4434 39.84 12.465L39.97 12.9949Z" fill="#122275"/>
<path d="M43.6 6.98494C43.5406 7.32579 43.4502 7.66051 43.33 7.98494C43.1642 8.39913 42.9493 8.79193 42.69 9.15494C41.81 10.3149 38.85 12.0149 37.32 10.9249C36.71 10.4949 36.45 9.73495 35.92 8.21495C35.8121 7.94692 35.748 7.66331 35.73 7.37494C35.73 7.03494 35.73 6.91494 35.73 6.55494C35.73 6.19494 35.65 6.25495 35.57 5.91495C35.57 5.84494 35.57 5.77494 35.57 5.69494C35.57 5.61494 35.49 5.32494 35.45 5.05494V4.93494C35.4144 4.77992 35.3877 4.623 35.37 4.46495V4.26494C35.26 3.47494 35.18 2.77494 35.13 2.18494C36.0762 1.30872 37.2518 0.719194 38.52 0.484945C39.8735 0.255783 41.2645 0.429661 42.52 0.984945C43.5202 2.84093 43.9119 4.96424 43.64 7.05494L43.6 6.98494Z" fill="#FF8C64"/>
<path d="M38.26 6.37495C38.234 6.38336 38.206 6.38336 38.18 6.37495C38.1568 6.35074 38.1438 6.3185 38.1438 6.28495C38.1438 6.2514 38.1568 6.21915 38.18 6.19495C38.2721 6.08619 38.38 5.99181 38.5 5.91495C38.781 5.76355 39.0929 5.67853 39.4119 5.6664C39.7308 5.65426 40.0483 5.71534 40.34 5.84495C40.3695 5.85817 40.3929 5.88187 40.4059 5.91145C40.4188 5.94102 40.4203 5.97434 40.41 6.00494C40.4045 6.02034 40.3959 6.03446 40.3848 6.04642C40.3736 6.05837 40.3601 6.06792 40.3452 6.07448C40.3302 6.08103 40.314 6.08445 40.2976 6.08453C40.2813 6.08461 40.265 6.08135 40.25 6.07494C39.994 5.96617 39.7175 5.91431 39.4395 5.92294C39.1615 5.93158 38.8887 6.0005 38.64 6.12495C38.5389 6.18757 38.4479 6.26512 38.37 6.35495C38.354 6.36566 38.336 6.37296 38.3171 6.3764C38.2982 6.37985 38.2787 6.37935 38.26 6.37495Z" fill="#122275"/>
<path d="M38.49 6.27494C38.4756 6.17172 38.502 6.06693 38.5636 5.98289C38.6253 5.89884 38.7172 5.84217 38.82 5.82494C38.9221 5.81065 39.0257 5.83734 39.1081 5.89917C39.1906 5.961 39.2452 6.05296 39.26 6.15494C39.2686 6.2055 39.2672 6.25727 39.2558 6.30727C39.2443 6.35727 39.2231 6.40452 39.1934 6.44632C39.1637 6.48812 39.126 6.52365 39.0825 6.55086C39.0391 6.57808 38.9906 6.59646 38.94 6.60494C38.8368 6.6194 38.732 6.59301 38.648 6.53137C38.5639 6.46974 38.5072 6.37773 38.49 6.27494Z" fill="#122275"/>
<path d="M35.5 6.70495C35.4706 6.71356 35.4394 6.71356 35.41 6.70495C35.3988 6.6938 35.3899 6.68055 35.3839 6.66596C35.3778 6.65137 35.3747 6.63574 35.3747 6.61995C35.3747 6.60415 35.3778 6.58851 35.3839 6.57393C35.3899 6.55934 35.3988 6.5461 35.41 6.53495C35.5028 6.42026 35.6143 6.32219 35.74 6.24495C35.9625 6.12923 36.2077 6.06386 36.4583 6.05349C36.7089 6.04313 36.9587 6.088 37.19 6.18494C37.2064 6.18898 37.2216 6.19674 37.2345 6.20762C37.2474 6.21849 37.2577 6.2322 37.2645 6.24767C37.2713 6.26314 37.2744 6.27996 37.2736 6.29683C37.2728 6.3137 37.2681 6.33016 37.26 6.34495C37.2545 6.36035 37.2459 6.37445 37.2347 6.38641C37.2236 6.39837 37.2101 6.40792 37.1951 6.41447C37.1801 6.42103 37.164 6.42445 37.1476 6.42454C37.1313 6.42462 37.1151 6.42135 37.1 6.41494C36.9071 6.32611 36.6973 6.28011 36.485 6.28011C36.2727 6.28011 36.0628 6.32611 35.87 6.41494C35.7689 6.47757 35.6779 6.55511 35.6 6.64494C35.5906 6.66331 35.5762 6.67868 35.5586 6.68929C35.5409 6.6999 35.5206 6.70532 35.5 6.70495Z" fill="#122275"/>
<path d="M35.72 6.61495C35.7048 6.53648 35.7135 6.45527 35.745 6.38179C35.7764 6.30831 35.8291 6.24593 35.8963 6.20268C35.9635 6.15944 36.0421 6.13732 36.122 6.13918C36.2019 6.14103 36.2794 6.16677 36.3445 6.21308C36.4096 6.2594 36.4594 6.32416 36.4874 6.39902C36.5154 6.47388 36.5203 6.5554 36.5015 6.63308C36.4827 6.71076 36.4411 6.78103 36.382 6.83483C36.323 6.88864 36.2491 6.9235 36.17 6.93494C36.1194 6.94354 36.0677 6.94209 36.0177 6.93065C35.9677 6.91921 35.9204 6.89802 35.8786 6.86829C35.8368 6.83857 35.8013 6.8009 35.7741 6.75742C35.7469 6.71395 35.7285 6.66553 35.72 6.61495Z" fill="#122275"/>
<path d="M38.19 5.10494C38.01 4.87494 38.02 4.73493 38.05 4.65493C38.19 4.22493 39.47 4.07494 40.4 4.55494C40.6266 4.67048 40.8327 4.8225 41.01 5.00493H40.82C40.34 5.00493 40.15 4.91493 39.82 4.89493C39.6535 4.88398 39.4865 4.88398 39.32 4.89493C38.9366 4.92213 38.5575 4.99258 38.19 5.10494Z" fill="#122275"/>
<path d="M36.2 5.55494C35.9767 5.58476 35.7561 5.63156 35.54 5.69494C35.54 5.53494 35.46 5.32494 35.42 5.05494C35.5268 4.99446 35.6473 4.96268 35.77 4.96268C35.8927 4.96268 36.0132 4.99446 36.12 5.05494C36.18 5.12494 36.24 5.25494 36.2 5.55494Z" fill="#122275"/>
<path d="M37.69 8.06494C37.5623 8.18373 37.3944 8.24976 37.22 8.24976C37.0456 8.24976 36.8777 8.18373 36.75 8.06494H37.69Z" fill="#122275"/>
<path d="M37.43 10.0749C37.4028 10.0672 37.379 10.0508 37.3619 10.0282C37.3449 10.0057 37.3358 9.97819 37.3358 9.94994C37.3358 9.92168 37.3449 9.89421 37.3619 9.87165C37.379 9.8491 37.4028 9.8327 37.43 9.82494H37.94C37.9571 9.82357 37.9743 9.8256 37.9906 9.8309C38.0069 9.8362 38.022 9.84467 38.035 9.85582C38.048 9.86697 38.0587 9.88059 38.0664 9.89588C38.0741 9.91118 38.0788 9.92785 38.08 9.94494C38.0764 9.97653 38.0628 10.0061 38.0412 10.0295C38.0196 10.0529 37.9912 10.0688 37.96 10.0749H37.45H37.43Z" fill="#EA522F"/>
<path d="M34.68 4.55494C35.0807 4.69349 35.5063 4.74552 35.9286 4.7076C36.3509 4.66967 36.7604 4.54266 37.13 4.33494C37.3982 4.16134 37.7027 4.05185 38.02 4.01494C38.3021 4.0113 38.5837 4.03813 38.86 4.09494C39.69 4.09494 39.86 3.63494 40.53 3.70494C40.9688 3.77379 41.3653 4.00598 41.64 4.35494C41.76 4.49494 41.88 4.68494 42.13 5.64494C42.44 6.83494 42.44 7.30494 42.83 7.55494C43.0114 7.66011 43.2213 7.70559 43.43 7.68494C43.72 6.95516 43.8792 6.17996 43.9 5.39494C43.9166 4.484 43.7745 3.57713 43.48 2.71494C43.3342 2.00122 43.0524 1.32222 42.65 0.714943C41.85 -0.135057 40.6 -0.0550598 38.34 0.0949402C38.07 0.0949402 38.07 0.214941 37.75 0.314941C36.32 0.774941 35.75 0.38494 35.24 0.84494C34.73 1.30494 35.24 1.56494 34.73 2.12494C34.22 2.68494 33.9 2.53494 33.73 2.91494C33.56 3.29494 34.02 4.19494 34.68 4.55494Z" fill="#3F469A"/>
<path d="M43.77 5.49495C43.77 6.15495 43.3501 6.68495 42.8601 6.67495C42.3701 6.66495 41.99 6.11495 42.01 5.45495C42.03 4.79495 42.4301 4.26495 42.9101 4.27495C43.1829 4.32851 43.4245 4.48522 43.5847 4.71247C43.7449 4.93972 43.8113 5.21999 43.77 5.49495Z" fill="#FF8C64"/>
<path d="M42.88 6.79493C42.707 6.79422 42.5388 6.73816 42.4 6.63494C42.3888 6.62379 42.38 6.61054 42.3739 6.59595C42.3678 6.58137 42.3647 6.56573 42.3647 6.54994C42.3647 6.53415 42.3678 6.5185 42.3739 6.50392C42.38 6.48933 42.3888 6.47609 42.4 6.46494C42.4112 6.45375 42.4244 6.44487 42.439 6.43882C42.4536 6.43276 42.4693 6.42964 42.485 6.42964C42.5008 6.42964 42.5164 6.43276 42.531 6.43882C42.5456 6.44487 42.5589 6.45375 42.57 6.46494C42.6665 6.53394 42.7815 6.57226 42.9 6.57493C43.035 6.56523 43.1647 6.51921 43.2756 6.44175C43.3865 6.36429 43.4745 6.25828 43.53 6.13494C43.5373 6.12049 43.5472 6.10761 43.5594 6.09703C43.5716 6.08645 43.5858 6.07837 43.6011 6.07326C43.6165 6.06815 43.6326 6.06612 43.6487 6.06727C43.6649 6.06841 43.6806 6.07272 43.695 6.07994C43.7095 6.08716 43.7223 6.09716 43.7329 6.10936C43.7435 6.12156 43.7516 6.13572 43.7567 6.15104C43.7618 6.16637 43.7638 6.18254 43.7627 6.19865C43.7616 6.21476 43.7572 6.23049 43.75 6.24494C43.6685 6.40687 43.5445 6.54358 43.3912 6.64046C43.238 6.73734 43.0613 6.79073 42.88 6.79493Z" fill="#EA522F"/>
<path d="M43.67 6.13494C43.57 6.13494 43.53 6.03494 43.56 5.96494C43.6019 5.84197 43.6287 5.71437 43.64 5.58494C43.6448 5.55137 43.6617 5.5207 43.6875 5.49863C43.7132 5.47656 43.7461 5.4646 43.78 5.46494C43.8109 5.46975 43.839 5.48554 43.8592 5.50942C43.8794 5.5333 43.8904 5.56366 43.89 5.59494C43.878 5.75215 43.8444 5.90695 43.79 6.05494C43.7801 6.07863 43.7635 6.09887 43.7421 6.11311C43.7207 6.12734 43.6957 6.13494 43.67 6.13494Z" fill="#EA522F"/>
<path d="M43.77 5.49495C43.7379 5.49296 43.7074 5.47994 43.6837 5.45808C43.66 5.43622 43.6446 5.40685 43.64 5.37494C43.64 4.82494 43.3001 4.37494 42.9101 4.37494C42.8277 4.37715 42.7464 4.39409 42.6701 4.42495C42.6409 4.43234 42.6101 4.42942 42.5829 4.41668C42.5557 4.40393 42.5337 4.38214 42.5208 4.35503C42.5078 4.32792 42.5046 4.29715 42.5118 4.26796C42.519 4.23878 42.536 4.21297 42.56 4.19494C42.6741 4.14769 42.7966 4.12388 42.9201 4.12494C43.2072 4.16232 43.4697 4.30666 43.6551 4.52911C43.8404 4.75156 43.9351 5.03576 43.9201 5.32494C43.9229 5.34148 43.9222 5.35843 43.9181 5.37469C43.914 5.39095 43.9065 5.40618 43.8961 5.41937C43.8858 5.43256 43.8728 5.44343 43.8579 5.45128C43.8431 5.45913 43.8268 5.46379 43.81 5.46495L43.77 5.49495Z" fill="#EA522F"/>
<path d="M42.69 6.16493C42.6736 6.16089 42.6584 6.15314 42.6454 6.14226C42.6325 6.13138 42.6223 6.11768 42.6155 6.10221C42.6088 6.08673 42.6057 6.06991 42.6064 6.05304C42.6072 6.03617 42.6118 6.0197 42.62 6.00492L43.08 4.91493C43.0951 4.88489 43.1213 4.86186 43.1529 4.85067C43.1846 4.83948 43.2194 4.84101 43.25 4.85493C43.2645 4.86141 43.2776 4.8707 43.2885 4.88228C43.2994 4.89386 43.3079 4.90749 43.3135 4.92238C43.3191 4.93727 43.3216 4.95311 43.321 4.969C43.3204 4.98488 43.3167 5.0005 43.31 5.01492L42.85 6.10493C42.8337 6.13119 42.8092 6.15131 42.7802 6.16216C42.7513 6.17302 42.7195 6.17399 42.69 6.16493Z" fill="#EA522F"/>
<path d="M42.93 5.55492C42.9074 5.55306 42.8856 5.5457 42.8664 5.53351C42.8472 5.52131 42.8313 5.50464 42.82 5.48492L42.62 5.13493C42.6088 5.12378 42.5999 5.11053 42.5939 5.09594C42.5878 5.08135 42.5847 5.06572 42.5847 5.04993C42.5847 5.03413 42.5878 5.01849 42.5939 5.00391C42.5999 4.98932 42.6088 4.97608 42.62 4.96493C42.6436 4.94452 42.6738 4.93329 42.705 4.93329C42.7362 4.93329 42.7664 4.94452 42.79 4.96493L43 5.31493C43.0147 5.34433 43.0178 5.37822 43.0085 5.40976C42.9992 5.4413 42.9783 5.46816 42.95 5.48492L42.93 5.55492Z" fill="#EA522F"/>
<path d="M37.39 9.55494C37.2014 9.55138 37.0137 9.52792 36.83 9.48494C36.7969 9.47561 36.7688 9.45353 36.7519 9.42354C36.7351 9.39355 36.7308 9.35809 36.74 9.32494C36.7493 9.29396 36.7699 9.26758 36.7976 9.25094C36.8253 9.2343 36.8583 9.22859 36.89 9.23494C37.141 9.28352 37.399 9.28352 37.65 9.23494C37.96 9.19344 38.257 9.08419 38.52 8.91494C38.5333 8.90038 38.5498 8.88903 38.5681 8.88176C38.5865 8.87449 38.6062 8.8715 38.6258 8.873C38.6455 8.8745 38.6646 8.88046 38.6816 8.89042C38.6987 8.90039 38.7132 8.9141 38.7242 8.93051C38.7351 8.94693 38.7422 8.96562 38.7448 8.98517C38.7475 9.00472 38.7456 9.02462 38.7394 9.04335C38.7333 9.06209 38.7229 9.07917 38.7092 9.09331C38.6954 9.10745 38.6786 9.11826 38.66 9.12494C38.3568 9.31608 38.0155 9.43893 37.66 9.48494L37.39 9.55494Z" fill="#EA522F"/>
<path d="M38.39 9.22495C38.3373 9.38743 38.2364 9.52999 38.1006 9.63361C37.9648 9.73724 37.8006 9.79701 37.63 9.80495C37.4904 9.80418 37.3529 9.77132 37.228 9.70889C37.1032 9.64647 36.9944 9.55615 36.91 9.44495C37.162 9.4816 37.418 9.4816 37.67 9.44495C37.9197 9.40793 38.1623 9.33378 38.39 9.22495Z" fill="white"/>
<path d="M53.12 57.2749C54.3612 59.213 55.3461 61.3038 56.05 63.4949C57.4078 67.784 57.6894 72.3413 56.87 76.765L53.31 76.6749C51.6765 70.4145 49.3941 64.3416 46.5 58.5549C45.5935 56.8489 44.8083 55.0812 44.15 53.265C42.8376 49.5936 42.0727 45.7491 41.88 41.8549L39.35 41.0949C39.62 40.0949 39.88 39.0149 40.14 37.9749L48.14 33.9749C48.7031 34.2189 49.2206 34.5571 49.67 34.9749C52.02 37.2249 51.45 40.885 51.35 41.435L53.12 57.2749Z" fill="#3F469A"/>
<path d="M35.13 60.4749C35.7202 61.8206 36.1531 63.2299 36.42 64.6749C37.1959 69.5988 36.2681 74.64 33.79 78.9649L30.86 77.5549C30.6881 73.5379 30.3076 69.5325 29.72 65.5549C29.309 63.7953 29.309 61.9646 29.72 60.2049C29.8 59.8849 29.8799 59.6249 29.9299 59.4549C31.2489 53.5853 33.8134 48.0674 37.45 43.2749C38.357 42.0955 39.3285 40.9671 40.36 39.8949L44.5 43.8949L44.42 50.5549C43.56 51.5749 42.66 52.6049 41.72 53.6449C39.5133 56.1449 37.3166 58.4216 35.13 60.4749Z" fill="#3F469A"/>
<path d="M49.24 35.8549C48.24 36.9449 47.29 37.8549 46.64 38.4449C42.86 42.0349 41.64 42.5249 40.53 42.6649C39.7427 42.7687 38.9423 42.7074 38.18 42.4849C38.087 36.8936 37.6227 31.3147 36.79 25.7849C36.3221 23.6437 36.4186 21.4177 37.07 19.3249C37.6948 17.5511 38.7216 15.9459 40.07 14.6349C40.0503 14.8103 40.1006 14.9864 40.21 15.1249C40.93 16.0049 44.41 14.2549 45.86 13.4849C46.0929 13.7303 46.3132 13.9873 46.52 14.2549C47.2509 15.2541 47.8148 16.3652 48.19 17.5449C49.08 20.4749 48.86 25.8849 48.84 26.4649C48.7234 29.6006 48.8572 32.7406 49.24 35.8549Z" fill="#E3E3FD"/>
<path d="M41.76 24.0549C41.87 24.8349 41.97 25.6049 42.09 26.3849C42.43 28.8716 42.7634 31.3583 43.09 33.8449H46.95C47.11 31.2049 47.16 28.9649 47.16 27.2249V26.7849C47.16 26.4649 47.16 26.1449 47.16 25.8449C47.06 18.8449 46.16 16.9649 44.88 16.1849C44.6711 16.0529 44.4459 15.9487 44.21 15.8749C43.4034 18.6083 42.5867 21.3349 41.76 24.0549Z" fill="#FF8C64"/>
<path d="M42.09 26.1849L47.2 27.0149V26.5549C47.2 26.2349 47.2 25.9149 47.2 25.6149H47.02L42.09 26.1849Z" fill="#122275"/>
<path d="M40.54 26.1849H47.69C47.3567 23.4049 47.0233 20.6249 46.69 17.8449C46.6145 17.0818 46.258 16.374 45.6897 15.8591C45.1214 15.3442 44.3819 15.059 43.615 15.059C42.8481 15.059 42.1087 15.3442 41.5403 15.8591C40.972 16.374 40.6155 17.0818 40.54 17.8449V26.1849Z" fill="#E3E3FD"/>
<path d="M34.33 83.2249H23.4999C23.3523 82.9779 23.2826 82.6922 23.2999 82.4049C23.3899 80.8849 26.2999 79.5449 30.2999 78.8949C30.9593 79.3821 31.5052 80.0064 31.9 80.7249C32.05 80.9949 32.17 81.2949 32.45 81.3749C32.73 81.4549 33.37 80.9949 33.73 80.5549C33.94 80.8619 34.1019 81.1991 34.21 81.5549C34.3829 82.094 34.4241 82.6667 34.33 83.2249Z" fill="#5B98E8"/>
<path d="M57.87 81.3349L47.16 83.0949C46.9736 82.8772 46.8553 82.6094 46.82 82.3249C46.66 80.8049 49.27 79.0149 53.19 77.7149C53.9186 78.0851 54.557 78.6108 55.06 79.2549C55.25 79.4949 55.42 79.7749 55.71 79.8049C56 79.8349 56.55 79.2849 56.84 78.8049C57.0998 79.0691 57.3158 79.3729 57.4801 79.7049C57.7327 80.2114 57.866 80.769 57.87 81.3349Z" fill="#5B98E8"/>
<path d="M44.15 53.3449C44.1236 53.3429 44.0982 53.3333 44.077 53.3174C44.0557 53.3014 44.0395 53.2798 44.0301 53.2549L42.75 49.1449C42.7474 49.1158 42.7547 49.0866 42.7708 49.0622C42.7868 49.0377 42.8106 49.0193 42.8384 49.0101C42.8662 49.0008 42.8963 49.0012 42.9238 49.0112C42.9513 49.0211 42.9746 49.0401 42.99 49.0649L44.27 53.1749C44.2797 53.2068 44.2768 53.2411 44.2619 53.2709C44.247 53.3007 44.2213 53.3236 44.19 53.335L44.15 53.3449Z" fill="#BBBBF9"/>
<path d="M38.41 46.215L40.88 46.9849C41.69 45.5049 42.44 44.335 42.98 43.525C45.25 40.125 45.98 39.075 46.54 37.125C46.8681 35.9544 47.0098 34.7396 46.96 33.525C46.9548 33.2623 46.8978 33.0033 46.7925 32.7626C46.6871 32.522 46.5354 32.3045 46.3459 32.1225C46.1565 31.9405 45.9331 31.7975 45.6884 31.7019C45.4438 31.6062 45.1827 31.5597 44.92 31.5649C44.6574 31.5702 44.3984 31.6271 44.1577 31.7325C43.9171 31.8379 43.6995 31.9896 43.5175 32.179C43.3355 32.3685 43.1926 32.5919 43.0969 32.8365C43.0013 33.0812 42.9548 33.3423 42.96 33.605C42.4641 34.4655 42.0393 35.3652 41.69 36.295C40.43 39.685 40.86 41.675 39.32 44.655C39.0518 45.1947 38.7478 45.7158 38.41 46.215Z" fill="#FF8C64"/>
<path d="M38.65 51.8149C38.4112 52.1041 38.0704 52.2904 37.698 52.3351C37.3256 52.3798 36.9504 52.2795 36.65 52.0549C36.5371 51.896 36.4614 51.7137 36.4285 51.5216C36.3956 51.3294 36.4064 51.1324 36.46 50.9449L37.46 47.7349C37.31 47.8449 36.2399 48.6449 36.0499 48.4549C35.8599 48.2649 36.53 47.3949 36.67 47.2049L38.9299 45.5549L41.1899 46.4249C41.0809 47.3182 40.8626 48.1948 40.54 49.0349C40.1266 50.0917 39.4806 51.0418 38.65 51.8149Z" fill="#FF8C64"/>
<path d="M43.02 35.0649C43.64 35.1549 43.95 35.2549 43.96 35.3849C43.97 35.5149 43.54 35.6949 42.68 35.8949C42.3193 35.7548 41.9961 35.5328 41.7358 35.2465C41.4755 34.9601 41.2852 34.6173 41.18 34.2449C41.0903 33.8901 41.0967 33.5178 41.1986 33.1663C41.3006 32.8147 41.4944 32.4967 41.76 32.2449C41.8423 32.1823 41.9333 32.1317 42.03 32.0949L43.03 32.2349L43.02 35.0649Z" fill="#FF8C64"/>
<path d="M20.33 78.1949H23.62C25.0767 78.1963 26.5194 77.9103 27.8655 77.3535C29.2116 76.7966 30.4347 75.9798 31.4648 74.9497C32.4948 73.9196 33.3116 72.6966 33.8685 71.3505C34.4254 70.0044 34.7113 68.5617 34.71 67.1049H9.23999C9.23868 68.5617 9.52463 70.0044 10.0815 71.3505C10.6383 72.6966 11.4552 73.9196 12.4853 74.9497C13.5153 75.9798 14.7384 76.7966 16.0844 77.3535C17.4305 77.9103 18.8733 78.1963 20.33 78.1949Z" fill="#FFC5D2"/>
<path d="M2.78 45.8149H34.59C34.7515 45.8149 34.9115 45.8468 35.0607 45.9086C35.2099 45.9704 35.3455 46.061 35.4597 46.1752C35.5739 46.2894 35.6645 46.425 35.7263 46.5742C35.7882 46.7235 35.82 46.8834 35.82 47.0449V49.9849C35.82 53.2948 34.5051 56.4692 32.1647 58.8096C29.8242 61.1501 26.6499 62.4649 23.34 62.4649H14.05C10.7401 62.4649 7.56573 61.1501 5.22528 58.8096C2.88483 56.4692 1.56998 53.2948 1.56998 49.9849V47.0449C1.56993 46.7222 1.69679 46.4123 1.92316 46.1822C2.14952 45.9521 2.45726 45.8202 2.78 45.8149Z" fill="#FFC5D2"/>
<path d="M20.83 45.8149H0.829987C1.32999 43.4749 1.82998 41.1249 2.31998 38.8149L5.89999 33.6049L11.9 29.7549L18.13 28.5549H20.83V45.8149Z" fill="#FFC5D2"/>
<path d="M20.83 45.9349L2.27 38.9349C2.24513 38.9195 2.22619 38.8962 2.21623 38.8687C2.20627 38.8411 2.20588 38.8111 2.21513 38.7833C2.22438 38.7556 2.24272 38.7317 2.26719 38.7157C2.29167 38.6997 2.32084 38.6923 2.34999 38.6949L20.88 45.6949C20.9081 45.7097 20.9303 45.7336 20.943 45.7627C20.9558 45.7918 20.9582 45.8243 20.95 45.8549C20.9401 45.8786 20.9234 45.8989 20.9021 45.9131C20.8807 45.9273 20.8557 45.9349 20.83 45.9349Z" fill="white"/>
<path d="M20.83 45.935C20.8041 45.9441 20.7759 45.9441 20.75 45.935L5.81 33.6949C5.78677 33.6707 5.7738 33.6385 5.7738 33.6049C5.7738 33.5714 5.78677 33.5392 5.81 33.515C5.82115 33.5038 5.83438 33.4949 5.84897 33.4888C5.86355 33.4828 5.8792 33.4796 5.89499 33.4796C5.91078 33.4796 5.92642 33.4828 5.94101 33.4888C5.9556 33.4949 5.96883 33.5038 5.97998 33.515L20.92 45.7549C20.9432 45.7792 20.9562 45.8114 20.9562 45.8449C20.9562 45.8785 20.9432 45.9107 20.92 45.935C20.8911 45.9466 20.8589 45.9466 20.83 45.935Z" fill="white"/>
<path d="M20.83 45.935C20.8082 45.9342 20.787 45.9284 20.7679 45.9179C20.7488 45.9075 20.7324 45.8928 20.72 45.875L11.72 29.7849C11.7097 29.7564 11.7096 29.7252 11.7198 29.6967C11.7301 29.6682 11.75 29.6441 11.7761 29.6287C11.8022 29.6133 11.8328 29.6074 11.8628 29.6122C11.8927 29.617 11.92 29.6321 11.94 29.655L20.94 45.7549C20.9486 45.7692 20.9542 45.7851 20.9563 45.8017C20.9585 45.8182 20.9572 45.835 20.9525 45.851C20.9478 45.867 20.9398 45.8818 20.929 45.8946C20.9183 45.9073 20.905 45.9176 20.89 45.9249L20.83 45.935Z" fill="white"/>
<path d="M35.92 48.6949H1.43997C1.05806 48.6949 0.691805 48.5432 0.421753 48.2732C0.151701 48.0031 0 47.6369 0 47.2549C0 46.873 0.151701 46.5068 0.421753 46.2367C0.691805 45.9667 1.05806 45.8149 1.43997 45.8149H35.92C36.3019 45.8149 36.6681 45.9667 36.9382 46.2367C37.2083 46.5068 37.36 46.873 37.36 47.2549C37.36 47.6369 37.2083 48.0031 36.9382 48.2732C36.6681 48.5432 36.3019 48.6949 35.92 48.6949Z" fill="#E3E3FD"/>
<path d="M7.32999 77.8249C7.40708 77.8799 7.49439 77.9189 7.58676 77.9396C7.67914 77.9603 7.77472 77.9623 7.86789 77.9456C7.96107 77.9288 8.04995 77.8936 8.12931 77.8419C8.20866 77.7903 8.2769 77.7233 8.32999 77.6449L38.01 34.8049C38.1161 34.6511 38.1567 34.4614 38.123 34.2777C38.0892 34.0939 37.9838 33.931 37.83 33.8249C37.6762 33.7189 37.4865 33.6782 37.3027 33.712C37.1189 33.7457 36.9561 33.8511 36.85 34.0049L7.16999 76.8449C7.06328 76.9968 7.02027 77.1844 7.05017 77.3676C7.08008 77.5507 7.18052 77.7149 7.32999 77.8249Z" fill="#3F469A"/>
<path d="M21.7282 55.1669L21.4248 55.3778C21.1893 55.5415 21.1311 55.8651 21.2948 56.1006L34.0799 74.4932C34.2436 74.7287 34.5672 74.7869 34.8027 74.6232L35.1061 74.4123C35.3416 74.2486 35.3998 73.925 35.2361 73.6895L22.451 55.2969C22.2873 55.0614 21.9637 55.0032 21.7282 55.1669Z" fill="#3F469A"/>
<path d="M37.09 35.0649H46.7C46.8802 35.0439 47.0463 34.9574 47.1669 34.8219C47.2875 34.6864 47.3541 34.5113 47.3541 34.3299C47.3541 34.1486 47.2875 33.9735 47.1669 33.838C47.0463 33.7025 46.8802 33.616 46.7 33.5949H37.09C36.9099 33.616 36.7437 33.7025 36.6231 33.838C36.5025 33.9735 36.4359 34.1486 36.4359 34.3299C36.4359 34.5113 36.5025 34.6864 36.6231 34.8219C36.7437 34.9574 36.9099 35.0439 37.09 35.0649Z" fill="#3F469A"/>
<path d="M34.17 78.2949C34.6007 78.1578 35.0423 78.0575 35.49 77.9949C35.49 77.8949 35.49 77.7849 35.49 77.6749C35.6217 77.1224 35.9622 76.6422 36.44 76.3349C36.0444 75.9467 35.6008 75.6106 35.12 75.3349C34.175 74.7567 33.105 74.4137 32 74.3349C32.26 74.0849 32.53 73.8349 32.83 73.5849C33.582 72.9429 34.3884 72.3674 35.24 71.8649C35.9695 72.5705 36.5627 73.4044 36.99 74.3249C37.239 74.8607 37.4333 75.4202 37.57 75.9949C37.738 75.9923 37.9058 76.0091 38.07 76.0449C38.5794 76.1594 39.0284 76.4587 39.33 76.8849C39.7053 76.4122 40.0147 75.8908 40.25 75.3349C40.6732 74.3173 40.8481 73.2135 40.76 72.1149C41.04 72.3349 41.33 72.5749 41.62 72.8349C42.346 73.494 43.015 74.2132 43.62 74.9849C43.0177 75.8022 42.2724 76.5035 41.42 77.0549C40.8794 77.409 40.2986 77.6977 39.69 77.9149C39.7295 78.1499 39.7295 78.3899 39.69 78.6249C39.5982 79.0449 39.378 79.4258 39.06 79.7149C39.4715 80.0848 39.9286 80.4007 40.42 80.6549C41.395 81.1662 42.4791 81.4338 43.58 81.4349C43.34 81.7049 43.08 81.9649 42.8 82.2349C42.0832 82.9152 41.3104 83.5341 40.49 84.0849C39.7232 83.4183 39.083 82.6188 38.6 81.7249C38.3548 81.2568 38.1507 80.7683 37.99 80.2649C37.6997 80.3248 37.4003 80.3248 37.11 80.2649C36.5597 80.1402 36.0813 79.8021 35.78 79.3249C35.41 79.6194 35.0745 79.9549 34.78 80.3249C34.0865 81.1989 33.6163 82.2285 33.41 83.3249C33.2 83.0349 32.99 82.7349 32.78 82.4049C32.2455 81.5729 31.7837 80.6964 31.4 79.7849C32.2213 79.1183 33.1611 78.6128 34.17 78.2949Z" fill="#E3E3FD"/>
<path d="M30.86 77.9649C30.86 76.5805 31.2705 75.2271 32.0397 74.0759C32.8089 72.9248 33.9021 72.0276 35.1812 71.4978C36.4603 70.968 37.8677 70.8293 39.2256 71.0994C40.5835 71.3695 41.8308 72.0362 42.8097 73.0152C43.7887 73.9942 44.4554 75.2414 44.7255 76.5993C44.9956 77.9572 44.8569 79.3646 44.3271 80.6437C43.7973 81.9228 42.9001 83.0161 41.749 83.7852C40.5978 84.5544 39.2445 84.9649 37.86 84.9649C36.0035 84.9649 34.223 84.2274 32.9102 82.9147C31.5975 81.6019 30.86 79.8215 30.86 77.9649ZM31.8 77.9649C31.8 79.1674 32.1566 80.343 32.8247 81.3428C33.4928 82.3427 34.4423 83.1219 35.5533 83.5821C36.6642 84.0423 37.8867 84.1627 39.0661 83.9281C40.2455 83.6935 41.3289 83.1145 42.1792 82.2641C43.0295 81.4138 43.6086 80.3305 43.8432 79.1511C44.0778 77.9717 43.9573 76.7492 43.4972 75.6382C43.037 74.5272 42.2577 73.5777 41.2578 72.9096C40.258 72.2415 39.0825 71.8849 37.88 71.8849C36.2683 71.8876 34.7234 72.529 33.5837 73.6686C32.4441 74.8083 31.8026 76.3532 31.8 77.9649Z" fill="#3F469A"/>
<path d="M5.15997 79.7649C5.48746 79.6648 5.82163 79.5879 6.15997 79.5349C6.1502 79.4519 6.1502 79.368 6.15997 79.2849C6.26672 78.8678 6.5323 78.5089 6.89999 78.2849C6.59889 77.9774 6.26335 77.7056 5.89999 77.4749C5.15898 77.0417 4.32671 76.7882 3.47 76.7349C3.67 76.5449 3.87999 76.3449 4.10999 76.1549C4.69732 75.648 5.33 75.1961 6 74.8049C6.56224 75.3604 7.02255 76.0102 7.35999 76.7249C7.56005 77.1428 7.71107 77.5824 7.81 78.0349C7.94259 78.0151 8.0774 78.0151 8.20999 78.0349C8.61238 78.1263 8.9678 78.3609 9.20999 78.6949C9.50074 78.3259 9.73962 77.9188 9.91998 77.4849C10.2557 76.6932 10.3963 75.8324 10.33 74.9749C10.55 75.1449 10.77 75.3349 10.99 75.5349C11.5723 76.0461 12.1078 76.6084 12.59 77.2149C12.1172 77.8498 11.5347 78.3951 10.87 78.8249C10.4487 79.1019 9.99537 79.3269 9.51999 79.4949C9.55467 79.68 9.55467 79.8699 9.51999 80.0549C9.45034 80.3828 9.27885 80.6803 9.03 80.9049C9.35089 81.1923 9.70709 81.4376 10.09 81.6349C10.8514 82.0362 11.6993 82.2456 12.56 82.2449C12.37 82.4549 12.17 82.6549 11.95 82.8649C11.3927 83.399 10.7905 83.8841 10.15 84.3149C9.54974 83.7959 9.04833 83.1725 8.66998 82.4749C8.47723 82.1061 8.31662 81.7214 8.18997 81.3249C7.96554 81.3699 7.73441 81.3699 7.50998 81.3249C7.09333 81.2172 6.73479 80.9519 6.50998 80.5849C6.23638 80.8106 5.98825 81.0654 5.76999 81.3449C5.23498 82.0191 4.86819 82.8109 4.69998 83.6549C4.52998 83.4249 4.36999 83.1849 4.20999 82.9349C3.79509 82.2994 3.43383 81.6304 3.12997 80.9349C3.73326 80.4296 4.42028 80.0336 5.15997 79.7649Z" fill="#E3E3FD"/>
<path d="M2.57999 79.5549C2.57999 78.4711 2.90139 77.4116 3.50354 76.5104C4.10569 75.6092 4.96155 74.9068 5.96289 74.4921C6.96423 74.0773 8.06607 73.9688 9.12909 74.1802C10.1921 74.3917 11.1685 74.9136 11.9349 75.68C12.7013 76.4464 13.2232 77.4228 13.4347 78.4858C13.6461 79.5489 13.5376 80.6507 13.1228 81.652C12.7081 82.6534 12.0057 83.5092 11.1045 84.1114C10.2033 84.7135 9.14384 85.0349 8.06 85.0349C6.60661 85.0349 5.21273 84.4576 4.18503 83.4299C3.15733 82.4022 2.57999 81.0083 2.57999 79.5549ZM3.31 79.5549C3.31 80.4944 3.58857 81.4128 4.1105 82.1939C4.63244 82.975 5.3743 83.5838 6.24225 83.9434C7.1102 84.3029 8.06525 84.3969 8.98666 84.2137C9.90807 84.0304 10.7544 83.578 11.4187 82.9137C12.083 82.2494 12.5354 81.403 12.7187 80.4816C12.902 79.5602 12.8079 78.6051 12.4484 77.7372C12.0889 76.8692 11.4801 76.1274 10.6989 75.6055C9.91781 75.0835 8.99946 74.8049 8.06 74.8049C6.80369 74.8102 5.60062 75.313 4.71414 76.2032C3.82767 77.0935 3.32998 78.2986 3.32999 79.5549H3.31Z" fill="#3F469A"/>
<path d="M32.16 75.155C32.253 75.018 32.2883 74.8499 32.2583 74.6871C32.2284 74.5243 32.1356 74.3799 32 74.2849L17.33 64.1049C17.2618 64.0574 17.1849 64.0237 17.1037 64.006C17.0224 63.9883 16.9385 63.9868 16.8567 64.0017C16.7749 64.0166 16.6968 64.0475 16.627 64.0927C16.5572 64.1378 16.4971 64.1964 16.45 64.265C16.3565 64.4035 16.3208 64.5731 16.3507 64.7375C16.3806 64.902 16.4737 65.0482 16.61 65.1449L31.33 75.3149C31.4636 75.3959 31.6224 75.4244 31.7758 75.3948C31.9292 75.3652 32.0661 75.2798 32.16 75.155Z" fill="#3F469A"/>
<path d="M60.99 32.3749L63.55 34.7449L56.33 42.0949C55.8285 41.4891 55.4145 40.8158 55.1 40.0949C54.6807 39.0223 54.4474 37.886 54.41 36.7349C54.28 35.2549 54.07 33.7349 54.01 32.2749C53.7366 28.9554 52.8731 25.7112 51.46 22.6949L54.69 16.8849C55.3582 16.1915 55.7617 15.2855 55.83 14.3249C55.8401 14.1417 55.8401 13.9581 55.83 13.7749C55.7698 13.0303 55.5183 12.3139 55.1 11.6949L56.1 11.2449L57.66 10.5349L60.74 16.1549C61.435 17.1934 61.8957 18.3706 62.09 19.6049C62.48 22.1849 61.41 23.6949 60.95 26.8249C60.694 28.6671 60.7075 30.5367 60.99 32.3749Z" fill="#FF8C64"/>
<path d="M55.89 24.0149C55.9603 24.5164 55.8802 25.0274 55.6601 25.4834C55.4399 25.9394 55.0895 26.3198 54.6531 26.5766C54.2167 26.8334 53.714 26.955 53.2085 26.9261C52.703 26.8971 52.2174 26.7189 51.8132 26.414C51.4089 26.1091 51.1042 25.6911 50.9375 25.213C50.7708 24.7349 50.7497 24.2181 50.8767 23.7279C51.0037 23.2378 51.2733 22.7963 51.6512 22.4594C52.0292 22.1224 52.4985 21.9051 53 21.8349C53.3331 21.787 53.6724 21.8055 53.9983 21.8892C54.3242 21.973 54.6303 22.1205 54.8989 22.3232C55.1676 22.5258 55.3935 22.7796 55.5636 23.07C55.7337 23.3604 55.8446 23.6815 55.89 24.0149Z" fill="#FF8C64"/>
<path d="M65.94 41.4049C65.5703 42.337 64.938 43.1417 64.1199 43.7215C63.3018 44.3012 62.333 44.631 61.3311 44.6709C60.3292 44.7109 59.3373 44.4591 58.4756 43.9463C57.614 43.4335 56.9198 42.6816 56.4771 41.7819C56.0344 40.8822 55.8624 39.8734 55.9819 38.8778C56.1013 37.8823 56.5072 36.9428 57.1502 36.1734C57.7932 35.404 58.6456 34.8377 59.6041 34.5433C60.5626 34.249 61.586 34.2391 62.55 34.5149C63.9099 34.9836 65.0294 35.9709 65.6645 37.2615C66.2995 38.5522 66.3985 40.0416 65.94 41.4049Z" fill="#FF8C64"/>
<path d="M56.78 58.7049L52.05 57.4249C51.7891 51.0831 52.8482 44.7562 55.16 38.8449L62.32 45.1349C62.2399 46.6614 61.9609 48.1708 61.49 49.625C61.11 50.755 60.69 51.6249 57.88 56.7249L56.78 58.7049Z" fill="#FF8C64"/>
<path d="M66.83 38.7449C66.9071 39.7443 66.6926 40.7445 66.2126 41.6244C65.7325 42.5043 65.0075 43.226 64.1254 43.702C63.2433 44.178 62.2421 44.3879 61.2431 44.3062C60.2441 44.2245 59.2903 43.8547 58.4973 43.2417C57.7043 42.6287 57.1062 41.7987 56.7754 40.8526C56.4447 39.9064 56.3956 38.8846 56.6341 37.911C56.8726 36.9375 57.3884 36.054 58.119 35.3678C58.8495 34.6816 59.7634 34.2221 60.75 34.0449C62.1788 33.8663 63.6202 34.2603 64.7594 35.1409C65.8986 36.0216 66.643 37.3172 66.83 38.7449Z" fill="#FF8C64"/>
<path d="M66.21 58.3049L61.39 59.2349C58.379 53.6511 56.5509 47.5066 56.02 41.1849L65.22 43.6849C65.8203 45.0909 66.2306 46.5706 66.44 48.0849C66.6 49.2649 66.6 50.2349 66.32 56.0849C66.33 56.9749 66.24 57.7449 66.21 58.3049Z" fill="#FF8C64"/>
<path d="M57.25 79.2749L55.01 79.4149C54.8569 72.303 53.7675 65.2423 51.77 58.4149C51.7199 58.206 51.7181 57.9884 51.7649 57.7787C51.8117 57.569 51.9058 57.3727 52.0401 57.2049C52.7101 56.5049 54.5901 56.8849 56.6701 58.3349C57.2665 59.4847 57.7746 60.6782 58.19 61.9049C58.8072 63.5624 59.181 65.3004 59.3 67.0649C59.45 70.4349 58.1201 71.4649 57.4701 76.8349C57.3301 77.8749 57.33 78.7249 57.25 79.2749Z" fill="#FF8C64"/>
<path d="M57.79 84.1749H48.33C48.2361 84.1384 48.152 84.0805 48.0843 84.0059C48.0166 83.9313 47.9672 83.8419 47.94 83.7449C47.9102 83.5929 47.9325 83.4352 48.0033 83.2973C48.074 83.1595 48.1891 83.0494 48.33 82.9849C49.0893 82.9177 49.8398 82.7736 50.57 82.5549C51.5835 82.3119 52.5386 81.8701 53.38 81.2549C54.0328 80.751 54.5828 80.1263 55 79.4149L57.24 79.2749C57.173 80.3914 57.4226 81.504 57.96 82.4849C58.1 82.7049 58.47 83.2549 58.28 83.7149C58.1805 83.9246 58.0055 84.0889 57.79 84.1749Z" fill="#FF8C64"/>
<path d="M77.63 75.2049L75.82 76.5549C73.5652 73.1424 71.0582 69.9034 68.32 66.8649C66.2997 64.6305 64.1564 62.5106 61.9 60.5149C61.25 59.7849 61.28 59.3349 61.32 59.1449C61.54 58.2249 63.39 57.6449 66.01 57.8449C67.1284 58.4938 68.1919 59.2329 69.19 60.0549C70.5979 61.1313 71.844 62.4043 72.89 63.8349C74.8 66.6049 74.23 68.1849 76.53 73.0849C76.97 73.9749 77.33 74.7149 77.63 75.2049Z" fill="#FF8C64"/>
<path d="M80.7 79.0649L72.7 84.0649C72.6014 84.0842 72.4997 84.0807 72.4026 84.0547C72.3056 84.0287 72.2158 83.9809 72.14 83.9149C72.0339 83.8 71.9694 83.6529 71.9567 83.497C71.944 83.3411 71.9839 83.1855 72.07 83.0549C72.6685 82.6073 73.2242 82.1052 73.73 81.5549C74.4626 80.8108 75.0374 79.9265 75.42 78.9549C75.7062 78.1811 75.8419 77.3597 75.82 76.5349L77.63 75.2249C78.166 76.2064 78.9708 77.0147 79.95 77.5549C80.19 77.6749 80.79 77.9349 80.88 78.4249C80.9049 78.6535 80.8404 78.8829 80.7 79.0649Z" fill="#FF8C64"/>
<path d="M56.12 13.3749C56.0303 13.5122 55.9264 13.6395 55.81 13.7549C55.7497 13.0103 55.4983 12.2939 55.08 11.6749L56.08 11.2249H56.16C56.69 11.6349 56.67 12.5549 56.12 13.3749Z" fill="#122275"/>
<path d="M57.89 10.8649C57.3218 11.4174 56.7207 11.935 56.09 12.4149C55.5809 12.7904 55.0085 13.0716 54.4 13.2449C54.2853 13.2965 54.1609 13.3232 54.035 13.3232C53.9092 13.3232 53.7848 13.2965 53.6701 13.2449C53.5701 13.1803 53.4864 13.0934 53.4257 12.9911C53.3649 12.8887 53.3288 12.7736 53.32 12.6549C53.3066 12.631 53.288 12.6105 53.2655 12.5949C53.2429 12.5793 53.2171 12.5691 53.19 12.5649C53.09 12.5649 53.01 12.6649 52.88 12.6349C52.813 12.621 52.752 12.5866 52.7054 12.5364C52.6588 12.4862 52.6289 12.4228 52.62 12.3549C52.6172 12.3231 52.6222 12.291 52.6343 12.2614C52.6465 12.2318 52.6656 12.2056 52.69 12.1849C52.6087 12.1877 52.5277 12.1721 52.4533 12.1392C52.3788 12.1063 52.3127 12.057 52.26 11.9949C52.2435 11.9571 52.235 11.9162 52.235 11.8749C52.235 11.8336 52.2435 11.7928 52.26 11.7549C52.26 11.6549 52.31 11.5349 52.33 11.3949C52.4372 10.6967 52.2803 9.98368 51.89 9.39493C51.7894 9.27729 51.6959 9.15374 51.6101 9.02493C51.5588 8.95661 51.5151 8.88283 51.48 8.80493C51.2501 8.38701 51.12 7.92152 51.1 7.44493C51.0489 6.8435 51.1203 6.23794 51.31 5.66493C51.5289 4.9386 51.936 4.28309 52.49 3.76493C53.77 2.59493 56.3 1.99493 57.88 3.30493C58.5166 3.95143 58.9373 4.77931 59.0842 5.67469C59.231 6.57007 59.0968 7.48895 58.7 8.30493C58.4194 8.71349 58.2097 9.16653 58.08 9.64493C57.9526 10.039 57.8885 10.4508 57.89 10.8649Z" fill="#FF8C64"/>
<path d="M52.46 11.1649C52.3673 11.1292 52.2694 11.109 52.1701 11.1049C52.0401 11.1049 52 11.1049 51.88 11.1049C51.7923 11.0985 51.7102 11.0592 51.65 10.9949C51.5754 10.932 51.5287 10.8422 51.52 10.7449C51.5181 10.6747 51.5304 10.6049 51.5562 10.5396C51.5819 10.4743 51.6207 10.4149 51.6701 10.3649C51.8498 10.0621 51.9464 9.7171 51.95 9.36493L52.4201 10.1749L52.46 11.1649Z" fill="#FF8C64"/>
<path d="M53.33 8.99493C53.3043 9.00497 53.2757 9.00497 53.25 8.99493C53.0631 8.84202 52.8314 8.75425 52.5901 8.74493C52.3648 8.74732 52.1454 8.81696 51.96 8.94493C51.9335 8.9635 51.9007 8.97077 51.8688 8.96514C51.8369 8.95952 51.8086 8.94145 51.7901 8.91493C51.7715 8.88841 51.7642 8.8556 51.7699 8.82372C51.7755 8.79183 51.7935 8.7635 51.82 8.74493C52.0439 8.58239 52.3134 8.49488 52.5901 8.49493C52.8903 8.50417 53.1788 8.61326 53.4101 8.80493C53.433 8.81965 53.4502 8.84172 53.4589 8.86752C53.4676 8.89331 53.4673 8.92131 53.458 8.9469C53.4487 8.97249 53.4309 8.99415 53.4077 9.00833C53.3844 9.02251 53.3571 9.02837 53.33 9.02493V8.99493Z" fill="#122275"/>
<path d="M52.66 8.92494C52.74 9.15494 52.66 9.39494 52.52 9.44494C52.38 9.49494 52.17 9.35494 52.09 9.12494C52.01 8.89494 52.09 8.65494 52.23 8.59494C52.37 8.53494 52.58 8.68494 52.66 8.92494Z" fill="#122275"/>
<path d="M52.9 12.1549C52.8699 12.155 52.8408 12.1438 52.8186 12.1234C52.7963 12.103 52.7826 12.075 52.78 12.0449C52.7771 12.0289 52.7777 12.0124 52.7819 11.9967C52.7861 11.9809 52.7937 11.9663 52.8042 11.9539C52.8147 11.9414 52.8279 11.9315 52.8427 11.9248C52.8576 11.918 52.8737 11.9147 52.89 11.9149C52.9918 11.905 53.0905 11.8744 53.18 11.8249C53.3231 11.7478 53.4359 11.6244 53.5 11.4749C53.5151 11.4449 53.5413 11.4219 53.5729 11.4107C53.6046 11.3995 53.6395 11.401 53.6701 11.4149C53.7001 11.43 53.7231 11.4562 53.7343 11.4878C53.7455 11.5195 53.744 11.5543 53.7301 11.5849C53.6562 11.7421 53.5426 11.8773 53.4005 11.9773C53.2585 12.0772 53.0929 12.1384 52.9201 12.1549H52.9Z" fill="#EA522F"/>
<path d="M52.8 11.8349C52.8969 11.8854 52.9905 11.9422 53.08 12.0049C52.9713 12.0986 52.8334 12.1516 52.69 12.1549C52.69 12.1549 52.33 12.1549 52.23 11.9049C52.23 11.8349 52.17 11.6949 52.23 11.6449C52.29 11.5949 52.53 11.6849 52.8 11.8349Z" fill="#EA522F"/>
<path d="M51.76 7.41495C51.6994 7.42319 51.6415 7.44559 51.5911 7.48034C51.5407 7.51508 51.4993 7.56119 51.47 7.61494C51.4493 7.66047 51.4386 7.70992 51.4386 7.75995C51.4386 7.80997 51.4493 7.85941 51.47 7.90495L51.76 7.41495Z" fill="#122275"/>
<path d="M51.81 7.40494C51.81 7.46494 51.74 7.55494 51.68 7.65494C51.62 7.75494 51.55 7.83494 51.57 7.86494C51.59 7.89494 52.15 7.77494 52.74 7.77494C53.0805 7.77558 53.4184 7.83304 53.74 7.94494C53.6916 7.87446 53.6382 7.80761 53.58 7.74494C53.3241 7.56988 53.0349 7.44935 52.7304 7.39086C52.4259 7.33236 52.1126 7.33716 51.81 7.40494Z" fill="#122275"/>
<path d="M53.2 12.6249C53.1776 12.6223 53.1561 12.6146 53.137 12.6025C53.118 12.5904 53.1019 12.5741 53.09 12.5549C53.0696 12.5313 53.0583 12.5012 53.0583 12.4699C53.0583 12.4387 53.0696 12.4086 53.09 12.3849L53.36 12.2349C53.3837 12.2145 53.4138 12.2033 53.445 12.2033C53.4762 12.2033 53.5064 12.2145 53.53 12.2349C53.5504 12.2586 53.5616 12.2887 53.5616 12.3199C53.5616 12.3512 53.5504 12.3813 53.53 12.4049L53.26 12.5549L53.2 12.6249Z" fill="#EA522F"/>
<path d="M56.2201 8.38494C56.2237 8.55469 56.1802 8.72213 56.0946 8.86873C56.0089 9.01532 55.8844 9.13536 55.7347 9.21554C55.585 9.29571 55.4161 9.33291 55.2466 9.32301C55.0771 9.31311 54.9136 9.25649 54.7743 9.15943C54.635 9.06237 54.5253 8.92865 54.4573 8.77308C54.3893 8.6175 54.3656 8.44614 54.389 8.27797C54.4124 8.10979 54.4818 7.95136 54.5897 7.82022C54.6975 7.68908 54.8395 7.59035 55 7.53494C55.2735 7.49339 55.5526 7.5584 55.7796 7.71656C56.0066 7.87471 56.1643 8.11396 56.2201 8.38494Z" fill="#FF8C64"/>
<path d="M55.56 9.96495H55.33C55.2987 9.95359 55.273 9.93066 55.2581 9.90089C55.2432 9.87113 55.2403 9.83679 55.25 9.80495C55.2593 9.77397 55.2799 9.74758 55.3076 9.73094C55.3354 9.7143 55.3683 9.7086 55.4 9.71495C55.5106 9.75019 55.6294 9.75019 55.74 9.71495C55.8641 9.6577 55.9705 9.56803 56.0479 9.4554C56.1253 9.34277 56.171 9.21133 56.18 9.07494C56.1809 9.05844 56.1855 9.04234 56.1934 9.02785C56.2014 9.01335 56.2125 9.00084 56.226 8.99123C56.2394 8.98162 56.2548 8.97516 56.2711 8.97234C56.2874 8.96953 56.3041 8.97041 56.32 8.97495C56.3359 8.97736 56.3511 8.98294 56.3647 8.99133C56.3784 8.99973 56.3903 9.01078 56.3996 9.02383C56.4089 9.03688 56.4155 9.05167 56.419 9.06732C56.4225 9.08297 56.4229 9.09916 56.42 9.11495C56.4041 9.29453 56.3399 9.46648 56.2343 9.61259C56.1287 9.7587 55.9855 9.87353 55.82 9.94495C55.7352 9.96674 55.6472 9.97352 55.56 9.96495Z" fill="#EA522F"/>
<path d="M56.33 9.02493C56.2982 9.02493 56.2677 9.01229 56.2452 8.98978C56.2227 8.96728 56.21 8.93676 56.21 8.90493C56.2097 8.76938 56.1894 8.63462 56.1501 8.50493C56.1437 8.47321 56.1494 8.44027 56.166 8.41253C56.1827 8.38479 56.209 8.36426 56.24 8.35494C56.2557 8.34868 56.2727 8.34613 56.2896 8.3475C56.3065 8.34886 56.3228 8.3541 56.3373 8.36281C56.3518 8.37152 56.3641 8.38346 56.3733 8.39771C56.3824 8.41195 56.3882 8.42811 56.39 8.44493C56.4376 8.59358 56.4613 8.74885 56.46 8.90493C56.4601 8.92157 56.4567 8.93803 56.45 8.95329C56.4434 8.96854 56.4336 8.98224 56.4214 8.99352C56.4092 9.00481 56.3948 9.01343 56.3791 9.01884C56.3633 9.02424 56.3466 9.02632 56.33 9.02493Z" fill="#EA522F"/>
<path d="M56.18 8.38494C56.1556 8.38473 56.1318 8.37815 56.1107 8.36588C56.0897 8.3536 56.0722 8.33604 56.06 8.31494C55.85 7.82494 55.4 7.53494 55.06 7.65494C54.979 7.68247 54.9066 7.73074 54.85 7.79494C54.8251 7.81133 54.7952 7.81861 54.7655 7.81555C54.7357 7.8125 54.708 7.79929 54.6868 7.77815C54.6657 7.75702 54.6525 7.72926 54.6494 7.69953C54.6464 7.66981 54.6537 7.63993 54.6701 7.61494C54.7557 7.52647 54.8623 7.46112 54.9801 7.42494C55.2603 7.36764 55.5518 7.41683 55.7977 7.5629C56.0436 7.70897 56.2263 7.94145 56.31 8.21494C56.3167 8.22937 56.3205 8.24498 56.3211 8.26087C56.3216 8.27675 56.3191 8.2926 56.3135 8.30749C56.3079 8.32238 56.2994 8.336 56.2885 8.34758C56.2776 8.35916 56.2645 8.36846 56.25 8.37494L56.18 8.38494Z" fill="#EA522F"/>
<path d="M55.4 9.39493C55.3834 9.39499 55.3669 9.39159 55.3517 9.38494C55.3364 9.3783 55.3227 9.36855 55.3114 9.35632C55.3001 9.3441 55.2915 9.32966 55.2861 9.31393C55.2807 9.29819 55.2786 9.28151 55.28 9.26493L55.34 8.08493C55.34 8.0531 55.3527 8.02258 55.3752 8.00008C55.3977 7.97757 55.4282 7.96494 55.46 7.96494C55.4945 7.96494 55.5276 7.97863 55.5519 8.00301C55.5763 8.02739 55.59 8.06045 55.59 8.09493L55.53 9.27493C55.5275 9.30765 55.5127 9.3382 55.4886 9.36046C55.4645 9.38272 55.4328 9.39503 55.4 9.39493Z" fill="#EA522F"/>
<path d="M55.4 8.71494C55.374 8.72334 55.346 8.72334 55.32 8.71494L55.01 8.46494C54.9897 8.44199 54.9783 8.41264 54.9775 8.38205C54.9768 8.35146 54.9868 8.32159 55.006 8.29769C55.0251 8.2738 55.052 8.25741 55.082 8.25142C55.112 8.24543 55.1432 8.25021 55.17 8.26493L55.48 8.52493C55.5032 8.54914 55.5162 8.58138 55.5162 8.61493C55.5162 8.64847 55.5032 8.68073 55.48 8.70493C55.4551 8.71666 55.4271 8.72016 55.4 8.71494Z" fill="#EA522F"/>
<path d="M57.25 79.2749L54.99 78.6549C54.7981 75.1331 54.3671 71.6283 53.7 68.1649C52.62 62.5949 51.58 60.4249 51.05 57.4349C50.36 53.4349 50.51 47.6149 54.62 39.6949C54.45 37.8549 54.29 36.0049 54.13 34.1649L60.99 32.3749C61.57 32.6949 64.92 34.6749 65.5 38.3749C65.6438 39.3138 65.6031 40.2717 65.38 41.1949C64.32 43.9249 63.08 46.8349 61.62 49.8549C60.16 52.8749 58.62 55.7149 57.16 58.2649C58.0661 59.9986 58.7386 61.8447 59.16 63.7549C60.253 68.9973 59.5814 74.454 57.25 79.2749Z" fill="#5B98E8"/>
<path d="M66.85 57.8449C69.4467 59.1864 71.6725 61.1477 73.33 63.5549C74.4644 65.3309 75.3462 67.256 75.95 69.2749C76.491 70.9046 76.8925 72.5773 77.15 74.2749L75.24 75.6249C69.49 68.9149 65.56 64.5149 64.08 63.3449C62.8776 62.4691 61.9595 61.2588 61.44 59.8649L61.33 59.5549C60.6804 58.534 60.1248 57.4563 59.67 56.3349C58.8032 54.2048 58.306 51.9423 58.2 49.6449L63.2 33.9949C64.2223 34.3842 65.1234 35.0369 65.8119 35.887C66.5004 36.737 66.9516 37.7541 67.12 38.8349C67.2842 40.277 66.9297 41.7304 66.12 42.9349C66.45 45.2649 66.72 47.8249 66.86 50.5849C66.93 53.2049 66.93 55.6149 66.85 57.8449Z" fill="#5B98E8"/>
<path d="M59.05 54.7049H59C58.9699 54.6899 58.947 54.6637 58.9358 54.632C58.9246 54.6003 58.9261 54.5655 58.94 54.5349L64.17 43.6849C64.7964 43.038 65.259 42.2508 65.5194 41.3888C65.7798 40.5268 65.8304 39.6151 65.667 38.7296C65.5036 37.8441 65.1309 37.0105 64.58 36.2983C64.0291 35.586 63.316 35.0157 62.5 34.6349C62.4699 34.6199 62.447 34.5937 62.4358 34.562C62.4246 34.5303 62.4261 34.4955 62.44 34.4649C62.4551 34.4349 62.4812 34.4119 62.5129 34.4007C62.5446 34.3895 62.5794 34.391 62.61 34.4049C63.4695 34.8335 64.2176 35.4558 64.7955 36.2228C65.3734 36.9898 65.7652 37.8806 65.94 38.8249C66.0682 39.7211 65.9956 40.6346 65.7276 41.4993C65.4595 42.3641 65.0026 43.1584 64.39 43.8249L59.16 54.6549C59.1486 54.6731 59.132 54.6875 59.1125 54.6964C59.0929 54.7053 59.0712 54.7082 59.05 54.7049Z" fill="#BBBBF9"/>
<path d="M58.1 41.7049C58.0806 41.7054 58.0612 41.701 58.0438 41.6923C58.0264 41.6836 58.0114 41.6708 58 41.655C57.71 41.2442 57.4684 40.8012 57.28 40.335C56.775 39.0162 56.6912 37.5733 57.04 36.2049C57.0435 36.1889 57.0502 36.1738 57.0597 36.1605C57.0693 36.1472 57.0815 36.1359 57.0955 36.1275C57.1096 36.1191 57.1252 36.1136 57.1415 36.1114C57.1577 36.1093 57.1742 36.1105 57.19 36.115C57.2068 36.1168 57.223 36.1226 57.2372 36.1317C57.2515 36.1409 57.2634 36.1532 57.2721 36.1677C57.2809 36.1822 57.2861 36.1985 57.2875 36.2154C57.2888 36.2323 57.2863 36.2492 57.28 36.265C56.941 37.59 57.0214 38.9875 57.51 40.265C57.6773 40.6847 57.892 41.084 58.15 41.4549C59.057 41.1385 59.8456 40.5523 60.41 39.775C60.8227 39.1477 61.093 38.4377 61.2018 37.6948C61.3107 36.9519 61.2555 36.1942 61.04 35.475C61.0338 35.4599 61.0309 35.4437 61.0317 35.4275C61.0325 35.4113 61.0369 35.3954 61.0445 35.381C61.0522 35.3667 61.0629 35.3542 61.076 35.3445C61.089 35.3348 61.104 35.3282 61.12 35.325C61.135 35.3187 61.1512 35.3159 61.1675 35.3167C61.1837 35.3175 61.1996 35.3219 61.2139 35.3295C61.2283 35.3372 61.2407 35.3479 61.2504 35.3609C61.2601 35.374 61.2668 35.389 61.27 35.405C61.4989 36.1589 61.5584 36.9541 61.4443 37.7338C61.3302 38.5134 61.0454 39.2582 60.61 39.915C59.9963 40.7618 59.1324 41.3948 58.14 41.725L58.1 41.7049Z" fill="#BBBBF9"/>
<path d="M53.25 57.4049C53.14 57.4049 53.11 57.3049 53.13 57.2449L57.98 41.5449C57.9894 41.5118 58.0114 41.4837 58.0414 41.4669C58.0714 41.45 58.1068 41.4457 58.14 41.4549C58.1713 41.4663 58.197 41.4892 58.2119 41.519C58.2268 41.5488 58.2297 41.5831 58.22 41.6149L53.33 57.3149C53.3269 57.3361 53.3176 57.3559 53.3034 57.3719C53.2892 57.3878 53.2706 57.3993 53.25 57.4049Z" fill="#BBBBF9"/>
<path d="M56.46 78.4749C56.4246 78.4724 56.3916 78.4566 56.3674 78.4306C56.3433 78.4046 56.3299 78.3704 56.33 78.3349C56.9545 71.1799 55.8572 63.9793 53.13 57.3349C53.1181 57.3044 53.1188 57.2704 53.1319 57.2404C53.145 57.2104 53.1695 57.1869 53.2 57.1749C53.2305 57.163 53.2645 57.1637 53.2945 57.1768C53.3245 57.1899 53.3481 57.2144 53.36 57.2449C56.1109 63.925 57.2152 71.1686 56.58 78.3649C56.5775 78.395 56.5637 78.423 56.5415 78.4434C56.5193 78.4638 56.4902 78.475 56.46 78.4749Z" fill="#BBBBF9"/>
<path d="M62.7 33.5549C60.075 35.973 56.7249 37.4565 53.1701 37.7749C53.0367 34.2549 52.9101 30.7349 52.7901 27.2149C52.2547 26.9731 51.7897 26.5989 51.4389 26.1277C51.0882 25.6564 50.8632 25.1036 50.7852 24.5214C50.7071 23.9391 50.7786 23.3466 50.9929 22.7996C51.2072 22.2526 51.5572 21.7692 52.01 21.3949L55.7301 14.8149L58.95 12.8149C60.6849 14.741 61.8181 17.1326 62.21 19.6949C62.3438 20.734 62.3438 21.7859 62.21 22.8249L62.7 33.5549Z" fill="#3F469A"/>
<path d="M58.63 84.1749H47.33C47.5096 83.8119 47.7384 83.4754 48.01 83.1749C48.6493 82.5868 49.4088 82.1445 50.2358 81.8786C51.0628 81.6127 51.9377 81.5296 52.8 81.6349C53.72 82.5249 54.31 82.6349 54.7 82.5249C55.25 82.3849 55.4 81.8449 56.11 81.5849C56.579 81.4395 57.081 81.4395 57.55 81.5849C57.7799 81.9188 57.9838 82.2699 58.16 82.6349C58.3843 83.1252 58.5423 83.643 58.63 84.1749Z" fill="#3F469A"/>
<path d="M81.44 78.7149L71.86 84.6549C71.8217 84.2541 71.8419 83.8499 71.92 83.4549C72.1528 82.6196 72.5639 81.8446 73.1249 81.1835C73.686 80.5223 74.3837 79.9906 75.17 79.6249C76.42 79.9049 76.99 79.6749 77.26 79.3849C77.53 79.0949 77.49 78.3849 77.97 77.8449C78.2805 77.4674 78.7051 77.2007 79.18 77.0849C79.5578 77.2321 79.917 77.4235 80.25 77.6549C80.695 77.95 81.0957 78.3069 81.44 78.7149Z" fill="#3F469A"/>
<path d="M53.16 27.9149L56.28 28.0649C57.4816 25.8385 58.4469 23.4923 59.16 21.0649C59.49 19.9449 59.74 18.8649 59.94 17.8449C59.7612 17.4582 59.4807 17.1274 59.1284 16.8879C58.7761 16.6483 58.3653 16.509 57.94 16.4849C57.3868 16.4663 56.8459 16.6513 56.42 17.0049C55.34 20.6316 54.2534 24.2683 53.16 27.9149Z" fill="#FF8C64"/>
<path d="M59.33 21.8649L54.93 21.3749L55.77 17.4349C55.9704 16.9089 56.3537 16.4727 56.8496 16.2064C57.3455 15.9401 57.9208 15.8615 58.47 15.9849C58.8773 16.1119 59.2414 16.3492 59.522 16.6704C59.8027 16.9917 59.9889 17.3843 60.06 17.8049C59.86 19.1649 59.61 20.5549 59.33 21.8649Z" fill="#3F469A"/>
<path d="M42.03 32.0549L42.36 33.2049C45.8702 33.2592 49.3597 32.659 52.65 31.4349C53.5358 31.1001 54.4036 30.7196 55.25 30.2949C55.6077 30.0531 55.8908 29.7162 56.0674 29.3223C56.2441 28.9283 56.3073 28.4929 56.25 28.0649L54.1 27.3749C53.375 27.4915 52.6597 27.662 51.96 27.8849C48.37 28.9949 47.15 30.7649 43.65 31.7149C43.1178 31.8626 42.5767 31.9761 42.03 32.0549Z" fill="#FF8C64"/>
<path d="M59.94 12.5349C61.4422 12.5349 62.66 11.156 62.66 9.45494C62.66 7.7539 61.4422 6.37494 59.94 6.37494C58.4378 6.37494 57.22 7.7539 57.22 9.45494C57.22 11.156 58.4378 12.5349 59.94 12.5349Z" fill="#3F469A"/>
<path d="M50.99 6.47495C51.26 6.79495 51.72 6.68495 52.44 6.80495C53.0472 6.90702 53.6283 7.1279 54.15 7.45495C55.15 8.13495 54.94 8.91495 56.15 9.88495C56.29 10.005 57.31 10.8849 57.67 10.5149C57.79 10.3949 57.67 10.1149 57.77 9.51495C57.8024 9.38601 57.8425 9.25912 57.89 9.13495C58.18 8.35495 59.34 7.90495 59.74 7.25495C60.31 6.25495 59.46 4.54495 58.44 3.58495C57.5484 2.78325 56.3779 2.36318 55.18 2.41495C54.2508 2.42976 53.3477 2.72381 52.5879 3.25885C51.8282 3.79388 51.247 4.54515 50.92 5.41495C50.8551 5.58635 50.8277 5.76968 50.8398 5.95256C50.8519 6.13543 50.9031 6.31357 50.99 6.47495Z" fill="#3F469A"/>
</svg>
