<svg width="54" height="69" viewBox="0 0 54 69" fill="none" xmlns="http://www.w3.org/2000/svg">
<path d="M6.66 64.2519H5.07001V67.2519H6.66V64.2519Z" fill="#3F469A"/>
<path d="M48.38 64.2519H46.79V67.2519H48.38V64.2519Z" fill="#3F469A"/>
<path d="M51.51 51.0619H1.94V64.2519H51.51V51.0619Z" fill="#E3E3FD"/>
<path d="M50.96 45.3219H2.48C1.11033 45.3219 0 46.4322 0 47.8019V48.5719C0 49.9415 1.11033 51.0519 2.48 51.0519H50.96C52.3297 51.0519 53.44 49.9415 53.44 48.5719V47.8019C53.44 46.4322 52.3297 45.3219 50.96 45.3219Z" fill="#E3E3FD"/>
<path d="M51.51 51.1819H1.97998C1.96334 51.1819 1.94687 51.1785 1.93162 51.1719C1.91637 51.1652 1.90267 51.1555 1.89139 51.1432C1.8801 51.131 1.87148 51.1166 1.86607 51.1009C1.86066 51.0851 1.85859 51.0684 1.85998 51.0519C1.85998 51.02 1.87262 50.9895 1.89512 50.967C1.91763 50.9445 1.94815 50.9319 1.97998 50.9319H51.56C51.5918 50.9319 51.6223 50.9445 51.6448 50.967C51.6673 50.9895 51.68 51.02 51.68 51.0519C51.681 51.0729 51.6769 51.0938 51.6681 51.1129C51.6592 51.132 51.6458 51.1487 51.6291 51.1615C51.6124 51.1743 51.5928 51.1828 51.572 51.1864C51.5513 51.1899 51.53 51.1884 51.51 51.1819Z" fill="#BBBBF9"/>
<path d="M45.49 3.99186L45.94 4.91186C45.9687 4.96698 46.0098 5.01466 46.0602 5.05112C46.1105 5.08757 46.1687 5.11179 46.23 5.12186L47.23 5.27186C47.3033 5.28102 47.3725 5.31082 47.4296 5.35779C47.4866 5.40476 47.5291 5.46697 47.5522 5.53718C47.5752 5.60739 47.5779 5.6827 47.5598 5.75434C47.5417 5.82598 47.5036 5.89101 47.45 5.94186L46.72 6.65186C46.6757 6.69764 46.6427 6.75311 46.6237 6.81387C46.6046 6.87462 46.5999 6.93898 46.61 7.00185L46.78 8.00185C46.7926 8.07405 46.7846 8.14835 46.7569 8.21621C46.7293 8.28408 46.683 8.34277 46.6235 8.38557C46.564 8.42837 46.4937 8.45353 46.4205 8.45818C46.3474 8.46283 46.2744 8.44678 46.21 8.41186L45.31 7.94186C45.2529 7.91206 45.1894 7.8965 45.125 7.8965C45.0606 7.8965 44.9971 7.91206 44.94 7.94186L44.04 8.41186C43.9749 8.44553 43.9018 8.46067 43.8287 8.45561C43.7555 8.45056 43.6852 8.42551 43.6253 8.38319C43.5655 8.34088 43.5184 8.28294 43.4892 8.21569C43.4601 8.14844 43.45 8.07447 43.46 8.00185L43.64 7.00185C43.6515 6.93812 43.6465 6.87252 43.6255 6.81126C43.6045 6.75001 43.5682 6.69514 43.52 6.65186L42.79 5.94186C42.7364 5.89101 42.6983 5.82598 42.6802 5.75434C42.6621 5.6827 42.6648 5.60739 42.6878 5.53718C42.7109 5.46697 42.7534 5.40476 42.8104 5.35779C42.8675 5.31082 42.9367 5.28102 43.01 5.27186L44.01 5.12186C44.0729 5.1125 44.1327 5.08865 44.1847 5.05221C44.2368 5.01576 44.2797 4.96772 44.31 4.91186L44.76 3.99186C44.7916 3.92145 44.8428 3.86168 44.9076 3.81974C44.9723 3.7778 45.0478 3.75549 45.125 3.75549C45.2022 3.75549 45.2777 3.7778 45.3424 3.81974C45.4072 3.86168 45.4584 3.92145 45.49 3.99186Z" fill="#E3E3FD"/>
<path d="M52.16 7.08185L52.49 7.74185C52.5097 7.7824 52.5392 7.81737 52.5759 7.84357C52.6126 7.86977 52.6553 7.88637 52.7 7.89185L53.42 7.99185C53.4718 7.99982 53.5203 8.02215 53.56 8.0563C53.5997 8.09046 53.6291 8.13508 53.6447 8.18508C53.6603 8.23508 53.6616 8.28846 53.6484 8.33915C53.6352 8.38985 53.608 8.43582 53.57 8.47185L53.05 8.98185C53.0198 9.0155 52.997 9.05518 52.9832 9.09827C52.9694 9.14136 52.9649 9.1869 52.97 9.23185L53.09 9.94185C53.0991 9.99288 53.0938 10.0454 53.0748 10.0937C53.0558 10.1419 53.0238 10.1839 52.9824 10.215C52.9409 10.2461 52.8916 10.2651 52.84 10.2698C52.7884 10.2745 52.7365 10.2649 52.69 10.2419L52.04 9.90185C51.9994 9.88235 51.955 9.87222 51.91 9.87222C51.865 9.87222 51.8206 9.88235 51.78 9.90185L51.14 10.2419C51.0933 10.2677 51.0401 10.2796 50.9868 10.2762C50.9335 10.2728 50.8823 10.2543 50.8392 10.2228C50.7961 10.1912 50.7629 10.148 50.7436 10.0983C50.7242 10.0485 50.7195 9.99422 50.73 9.94185L50.85 9.23185C50.86 9.18683 50.8579 9.13995 50.8439 9.09602C50.8298 9.05208 50.8043 9.01268 50.77 8.98185L50.25 8.47185C50.2153 8.43373 50.1914 8.38706 50.1808 8.33664C50.1701 8.28622 50.1731 8.23387 50.1894 8.18498C50.2057 8.13609 50.2347 8.09242 50.2735 8.05848C50.3123 8.02453 50.3594 8.00154 50.41 7.99185L51.13 7.89185C51.1747 7.88637 51.2174 7.86977 51.2541 7.84357C51.2908 7.81737 51.3203 7.7824 51.34 7.74185L51.66 7.08185C51.6833 7.03557 51.7191 6.99668 51.7632 6.96951C51.8074 6.94234 51.8582 6.92795 51.91 6.92795C51.9618 6.92795 52.0126 6.94234 52.0568 6.96951C52.1009 6.99668 52.1367 7.03557 52.16 7.08185Z" fill="#E3E3FD"/>
<path d="M43.11 12.8319C44.5 14.5119 46.48 16.9119 46.27 19.5019C46.1998 19.7998 46.1893 20.1088 46.2391 20.4108C46.2889 20.7129 46.3979 21.0021 46.56 21.2619C47 21.8119 47.67 21.7919 48.12 21.9419C50.02 22.6119 51.4 27.7019 49.32 31.0719C48.09 33.0719 46.08 33.7719 44.39 34.3619C43.14 34.7919 38.5 36.3619 34.74 34.3619C29.74 31.6319 29.63 24.2219 29.51 17.3619C29.3782 14.7255 29.843 12.0935 30.87 9.66185C31.48 8.28185 33.3 4.14185 35.73 4.29185C37.57 4.40185 39.8 6.98185 39.61 8.83185C39.61 9.24185 39.36 10.0519 39.8 10.5119C40.0679 10.7246 40.398 10.844 40.74 10.8519C41.65 11.0419 42.22 11.7319 43.11 12.8319Z" fill="#3F469A"/>
<path d="M34.45 29.1119L31.13 31.1119L27.2 26.1819L26.43 25.1819L25.58 24.1019C25.37 23.8519 25.17 23.6019 24.97 23.3419C24.29 20.5719 23.62 17.8119 22.97 15.0319C23.2139 14.9856 23.4617 14.9622 23.71 14.9619C25.23 14.9619 26.92 16.1319 30.58 22.1219L30.85 22.5619C30.93 22.6819 30.99 22.8119 31.07 22.9319L31.29 23.3019C32.14 24.8319 33.25 26.7519 34.45 29.1119Z" fill="#FF8C64"/>
<path d="M30.82 22.5519L27.2 26.1419L26.43 25.1419L25.58 24.0619L30.82 22.5519Z" fill="#122275"/>
<path d="M25.1 25.9719L31.25 22.3019L26.15 15.6319C25.645 14.9862 24.9128 14.5575 24.1027 14.433C23.2926 14.3085 22.4655 14.4976 21.79 14.9619C21.2297 15.3911 20.8276 15.994 20.6467 16.6762C20.4657 17.3584 20.5161 18.0814 20.79 18.7319C22.25 21.1419 23.68 23.5519 25.1 25.9719Z" fill="#E3E3FD"/>
<path d="M28.24 27.5119C28.1694 28.7775 28.1694 30.0462 28.24 31.3119L31.15 32.4719C31.33 31.2019 31.5 29.9319 31.67 28.6619C31.74 28.2219 31.8 27.7819 31.86 27.3419C32.14 25.2819 32.43 23.2119 32.71 21.1419C33.09 19.7219 32.71 18.4519 32.01 18.1419C31.31 17.8319 29.78 18.6119 29.21 20.4219C28.96 21.4219 28.75 22.5119 28.57 23.6719C28.3851 24.9443 28.2749 26.2265 28.24 27.5119Z" fill="#FF8C64"/>
<path d="M28.24 27.5119L31.69 28.6619C31.76 28.2219 31.82 27.7819 31.88 27.3419L28.24 27.5119Z" fill="#122275"/>
<path d="M27.43 27.4219L32.91 28.0619C33.08 25.5119 33.24 22.9619 33.41 20.4219C33.4826 19.7738 33.3071 19.1224 32.9188 18.5985C32.5306 18.0747 31.9583 17.7172 31.3172 17.5981C30.6762 17.479 30.0138 17.6071 29.4633 17.9566C28.9128 18.3061 28.515 18.851 28.35 19.4819C28.05 22.1219 27.7433 24.7685 27.43 27.4219Z" fill="#FFC5D2"/>
<path d="M26.98 43.8319C27.4029 44.2412 27.9589 44.4847 28.5465 44.5177C29.1341 44.5508 29.7139 44.3712 30.18 44.0119C30.406 43.817 30.5895 43.5779 30.7193 43.3092C30.849 43.0406 30.9223 42.7481 30.9345 42.45C30.9467 42.1519 30.8975 41.8545 30.7901 41.5762C30.6827 41.2978 30.5193 41.0445 30.31 40.8319L30.17 40.6719C29.91 40.3919 29.65 40.1119 29.41 39.8319C29.0238 39.7499 28.6243 39.755 28.2403 39.8467C27.8563 39.9383 27.4976 40.1143 27.19 40.3619C26.7071 40.7973 26.4145 41.4049 26.3753 42.0539C26.336 42.7029 26.5532 43.3414 26.98 43.8319Z" fill="#FF8C64"/>
<path d="M28.07 68.1919H17.71C17.5619 67.6654 17.5828 67.1057 17.77 66.5919C17.8346 66.4278 17.9149 66.2704 18.01 66.1219C18.4446 65.3606 18.7106 64.5148 18.79 63.6418L20.67 63.4218C23.04 66.6218 24.38 67.2618 25.17 67.2118C25.74 67.2118 26.28 67.4919 26.84 67.4919C27.2 67.4919 27.64 67.4918 27.9 67.7519C28.0066 67.874 28.0668 68.0298 28.07 68.1919Z" fill="#FF8C64"/>
<path d="M21.73 44.4119C19.92 45.6919 17.85 45.1419 13.73 44.7619L13.43 44.7119C11.6508 44.4415 9.90906 43.965 8.24002 43.2919C7.81107 42.3725 7.60222 41.3659 7.63002 40.3519L10.56 36.5819C11.5588 36.5108 12.5613 36.5108 13.56 36.5819C19.35 37.0519 21.3 38.3919 22.31 39.4619C22.6538 39.7584 22.9345 40.121 23.1355 40.5281C23.3365 40.9353 23.4536 41.3786 23.48 41.8319C23.3996 42.3653 23.2007 42.874 22.8979 43.3205C22.595 43.767 22.196 44.1399 21.73 44.4119Z" fill="#FF8C64"/>
<path d="M19.79 35.2319C19.5 35.6719 18.88 36.5519 17.65 38.3219C16.9508 39.4379 16.1791 40.5068 15.34 41.5219C13.7 43.1719 10.77 44.3619 9.09001 43.6819C6.65001 42.6819 5.56001 37.2519 7.71001 30.3719L9.65001 26.0219C9.65001 25.3419 9.65001 24.6419 9.65001 23.9119C9.78475 21.516 10.1804 19.1419 10.83 16.8319C11.054 16.0115 11.4418 15.2449 11.97 14.5784C12.4982 13.9119 13.1559 13.3593 13.9034 12.9537C14.6509 12.5482 15.4727 12.2982 16.3194 12.2189C17.1661 12.1395 18.0202 12.2323 18.83 12.4919C20.0134 12.8708 21.1639 13.3457 22.27 13.9119C22.6633 14.1119 23.0433 14.3219 23.41 14.5419C24.1987 14.9952 24.957 15.4997 25.68 16.0519C27.18 17.3319 26.25 21.3019 25.93 22.6319C24.57 28.1319 21.77 32.2819 19.79 35.2319Z" fill="#FF8C64"/>
<path d="M15.84 40.7519C15.8243 41.5446 15.6181 42.3219 15.2386 43.0181C14.8592 43.7144 14.3177 44.309 13.66 44.7519C12.7289 45.3876 11.6163 45.7035 10.49 45.6519C9.65715 45.6212 8.84315 45.3952 8.11361 44.9922C7.38408 44.5893 6.75943 44.0205 6.29001 43.3319C5.70282 42.466 5.40203 41.4377 5.43001 40.3919C5.45552 39.7201 5.61462 39.0602 5.89801 38.4507C6.18141 37.8411 6.58342 37.2942 7.08056 36.8417C7.57769 36.3893 8.16 36.0404 8.79347 35.8155C9.42694 35.5906 10.0989 35.4942 10.77 35.5319C11.8805 35.575 12.9501 35.963 13.83 36.6419C14.4649 37.1204 14.9779 37.742 15.3272 38.4562C15.6764 39.1704 15.8521 39.9569 15.84 40.7519Z" fill="#FF8C64"/>
<path d="M28.6 44.4119C26.8 45.6919 24.72 45.1419 20.6 44.7619L20.31 44.7119C18.5302 44.4442 16.7881 43.9676 15.12 43.2919C14.6879 42.3733 14.4757 41.3667 14.5 40.3519L17.44 36.5819C18.4387 36.5108 19.4412 36.5108 20.44 36.5819C26.23 37.0519 28.18 38.3919 29.19 39.4619C29.5351 39.7566 29.816 40.119 30.0156 40.5267C30.2151 40.9343 30.3289 41.3785 30.35 41.8319C30.271 42.3658 30.0726 42.875 29.7697 43.3217C29.4667 43.7684 29.0669 44.141 28.6 44.4119Z" fill="#FF8C64"/>
<path d="M21.66 40.0119C21.6593 40.7807 21.4854 41.5395 21.1513 42.232C20.8172 42.9245 20.3314 43.5328 19.73 44.0119C18.9292 44.6347 17.9336 44.9535 16.92 44.9119C16.1554 44.8616 15.4151 44.6236 14.7645 44.2189C14.1139 43.8142 13.5731 43.2554 13.19 42.5919C12.6526 41.6861 12.3887 40.6442 12.43 39.5919C12.4126 38.9595 12.5224 38.33 12.7531 37.741C12.9837 37.1519 13.3304 36.6152 13.7726 36.1628C14.2148 35.7103 14.7434 35.3514 15.327 35.1073C15.9106 34.8632 16.5374 34.7389 17.17 34.7419C18.1718 34.7828 19.1289 35.1677 19.88 35.8319C20.4697 36.3517 20.9356 36.9969 21.2436 37.7202C21.5515 38.4435 21.6938 39.2265 21.66 40.0119Z" fill="#FF8C64"/>
<path d="M21.12 64.0519L18.77 64.2419C18.64 63.6119 18.42 62.6319 18.1 61.4419C16.46 55.3219 14.66 53.4419 14.1 49.7219C13.748 47.233 13.9948 44.6961 14.82 42.3219L18.92 40.6919C18.92 40.9019 19.06 41.2419 19.15 41.6919C19.6533 44.0195 19.7983 46.4104 19.58 48.7819C19.4 50.8319 19.58 54.9719 21.12 64.0519Z" fill="#FF8C64"/>
<path d="M36.3 67.8918H25.93C25.7852 67.3792 25.8027 66.8342 25.98 66.3319C26.0428 66.1651 26.1268 66.0071 26.23 65.8619C26.6556 65.0974 26.9178 64.2529 27 63.3819L28.88 63.1619C31.25 66.3519 32.59 66.9919 33.39 66.9519C33.95 66.9519 34.49 67.2219 35.05 67.2319C35.2351 67.1996 35.4248 67.2061 35.6072 67.2509C35.7897 67.2956 35.9609 67.3777 36.11 67.4919C36.2107 67.604 36.2767 67.743 36.3 67.8918Z" fill="#FF8C64"/>
<path d="M29.27 65.1619L26.92 64.9519C26.92 64.3119 26.86 63.3019 26.75 62.0819C26.17 55.7719 24.75 53.5819 24.75 49.8519C24.8349 47.3333 25.5207 44.8716 26.75 42.6719L30.83 41.6719C30.89 41.9519 30.97 42.4119 31.04 42.9819C31.2781 45.289 31.0398 47.6205 30.34 49.8319C29.74 51.8319 29.14 56.0019 29.27 65.1619Z" fill="#FF8C64"/>
<path d="M23.12 16.0619L17.27 13.5419L20.98 6.76186L25.61 8.76186C25.3061 9.11663 25.0255 9.49075 24.77 9.88186C24.196 10.7491 23.7608 11.7005 23.48 12.7019C23.42 12.8919 23.38 13.0819 23.34 13.2619C23.1398 14.1809 23.0658 15.1229 23.12 16.0619Z" fill="#FF8C64"/>
<path d="M23.36 13.2519H23.26C22.26 12.8219 21.98 11.2519 22.62 9.78185C22.7143 9.55385 22.8316 9.33606 22.97 9.13185L24.79 9.91185C24.216 10.7791 23.7808 11.7305 23.5 12.7319C23.44 12.8819 23.4 13.0719 23.36 13.2519Z" fill="#122275"/>
<path d="M29.5 3.25186C29.34 3.82186 29.14 4.50186 28.87 5.25186L28.81 5.44186C28.75 5.58186 28.71 5.74185 28.65 5.89185V5.94186V6.05185C28.51 6.44185 28.41 6.68185 28.33 6.86185C28.25 7.04185 28.13 7.24186 28.06 7.46186C27.99 7.68186 27.99 7.94185 27.91 8.27185C27.8383 8.55123 27.7236 8.81775 27.57 9.06186C26.76 10.4519 26.35 11.1519 25.68 11.4619C23.97 12.2419 21.38 10.0119 20.74 8.71186C20.5548 8.30577 20.4172 7.8796 20.33 7.44186C20.274 7.11152 20.2472 6.77689 20.25 6.44186C20.3747 4.33583 21.1623 2.32319 22.5 0.691856C23.7991 0.376516 25.1624 0.452241 26.4186 0.909511C27.6747 1.36678 28.7677 2.18519 29.56 3.26186L29.5 3.25186Z" fill="#FF8C64"/>
<path d="M25.47 6.70185H25.41C25.395 6.69454 25.3817 6.68418 25.371 6.67144C25.3602 6.65871 25.3522 6.64387 25.3475 6.62788C25.3428 6.61188 25.3415 6.59508 25.3436 6.57855C25.3458 6.56201 25.3514 6.54611 25.36 6.53185C25.379 6.47679 25.379 6.41692 25.36 6.36185C25.28 6.11185 24.41 6.07185 23.63 6.16185C23.6106 6.16738 23.5903 6.16834 23.5705 6.16466C23.5507 6.16097 23.5321 6.15275 23.516 6.14063C23.4999 6.12852 23.4869 6.11284 23.4779 6.09483C23.469 6.07682 23.4643 6.05697 23.4643 6.03685C23.4643 6.01673 23.469 5.99688 23.4779 5.97888C23.4869 5.96087 23.4999 5.94519 23.516 5.93307C23.5321 5.92095 23.5507 5.91273 23.5705 5.90905C23.5903 5.90536 23.6106 5.90632 23.63 5.91185C24.18 5.85185 25.47 5.77185 25.63 6.28185C25.648 6.34359 25.6528 6.40842 25.6442 6.47215C25.6356 6.53588 25.6137 6.5971 25.58 6.65185C25.5666 6.66787 25.5497 6.68068 25.5307 6.68933C25.5116 6.69798 25.4909 6.70226 25.47 6.70185Z" fill="#122275"/>
<path d="M25.46 6.47185C25.4787 6.38061 25.4624 6.28565 25.4142 6.20594C25.366 6.12623 25.2895 6.06764 25.2 6.04185C25.1161 6.00309 25.0205 5.99808 24.933 6.02787C24.8455 6.05765 24.7728 6.11995 24.73 6.20185C24.7182 6.24655 24.7156 6.29318 24.7224 6.33891C24.7292 6.38465 24.7453 6.42851 24.7696 6.46782C24.7939 6.50713 24.826 6.54107 24.8639 6.56755C24.9018 6.59403 24.9447 6.61251 24.99 6.62185C25.0723 6.66397 25.1679 6.67184 25.2559 6.64374C25.344 6.61564 25.4173 6.55384 25.46 6.47185Z" fill="#122275"/>
<path d="M28.33 7.42186H28.27C28.2496 7.39824 28.2384 7.36807 28.2384 7.33686C28.2384 7.30564 28.2496 7.27547 28.27 7.25185C28.27 7.18185 28.33 7.12185 28.27 7.08185C28.21 7.04185 27.69 6.88186 26.81 7.03186C26.7942 7.03471 26.778 7.03437 26.7624 7.03086C26.7467 7.02735 26.732 7.02074 26.7189 7.01142C26.7058 7.0021 26.6948 6.99025 26.6864 6.97659C26.678 6.96292 26.6724 6.94771 26.67 6.93185C26.6641 6.89877 26.6712 6.86467 26.6898 6.83671C26.7084 6.80874 26.7372 6.78908 26.77 6.78186C27.47 6.66186 28.35 6.60185 28.51 6.99185C28.528 7.05577 28.532 7.12283 28.5217 7.18843C28.5113 7.25403 28.4869 7.3166 28.45 7.37186C28.4379 7.39186 28.4198 7.40749 28.3982 7.41648C28.3766 7.42547 28.3528 7.42735 28.33 7.42186Z" fill="#122275"/>
<path d="M28.28 7.27185C28.2908 7.1825 28.2713 7.0921 28.2244 7.01526C28.1775 6.93842 28.1061 6.87964 28.0217 6.84842C27.9373 6.81719 27.8448 6.81535 27.7592 6.8432C27.6736 6.87104 27.5999 6.92694 27.55 7.00185C27.5312 7.09309 27.5476 7.18805 27.5958 7.26776C27.644 7.34747 27.7205 7.40606 27.81 7.43185C27.8939 7.47061 27.9895 7.47562 28.077 7.44584C28.1645 7.41605 28.2372 7.35375 28.28 7.27185Z" fill="#122275"/>
<path d="M25.98 4.83185C26.18 4.62185 26.19 4.48185 26.17 4.40185C26.07 3.96185 24.82 3.67185 23.84 4.05185C23.6015 4.14319 23.3787 4.27142 23.18 4.43185H23.38C23.86 4.43185 24.05 4.43185 24.38 4.43185C24.5476 4.44267 24.7145 4.4627 24.88 4.49185C25.2584 4.56314 25.6274 4.6772 25.98 4.83185Z" fill="#122275"/>
<path d="M28.87 5.25185L28.81 5.44185C28.75 5.58185 28.71 5.74185 28.65 5.89185C28.3817 5.7408 28.1006 5.61364 27.81 5.51185C27.81 5.21185 27.9 5.11185 27.98 5.06185C28.06 5.01185 28.51 5.02185 28.87 5.25185Z" fill="#122275"/>
<path d="M25.79 8.60185C25.8498 8.68425 25.9259 8.75342 26.0137 8.80504C26.1014 8.85666 26.1989 8.88962 26.3 8.90185C26.4433 8.90735 26.5853 8.87272 26.71 8.80185L25.79 8.60185Z" fill="#122275"/>
<path d="M25.69 10.6219L25.16 10.5018C25.129 10.4925 25.1026 10.472 25.086 10.4443C25.0693 10.4165 25.0636 10.3836 25.07 10.3519C25.0734 10.3358 25.0802 10.3207 25.0897 10.3074C25.0993 10.2941 25.1114 10.2828 25.1255 10.2744C25.1396 10.266 25.1552 10.2605 25.1714 10.2583C25.1877 10.2562 25.2042 10.2574 25.22 10.2619L25.72 10.3819C25.7368 10.3837 25.753 10.3895 25.7672 10.3986C25.7815 10.4078 25.7934 10.4201 25.8021 10.4346C25.8108 10.4491 25.816 10.4654 25.8174 10.4823C25.8188 10.4992 25.8162 10.5161 25.81 10.5319C25.8032 10.5583 25.7876 10.5816 25.7658 10.5979C25.744 10.6143 25.7172 10.6227 25.69 10.6219Z" fill="#EA522F"/>
<path d="M26.61 9.65186C26.61 9.87186 25.94 10.1219 25.41 9.98186C24.58 9.77186 24.33 8.69186 24.31 8.62186C24.8224 8.78317 25.3263 8.97007 25.82 9.18185C26.52 9.47185 26.61 9.57186 26.61 9.65186Z" fill="white"/>
<path d="M29.72 2.72185C29.8 2.84185 30.3 2.56185 30.44 2.72185C30.58 2.88185 30.37 3.24185 30.17 3.48185C29.17 4.65185 26.33 3.80185 26.17 3.74185C24.99 3.38185 24.95 3.05185 24.34 2.99185C23.43 2.90185 22.09 3.47185 20.23 6.44185C20.154 5.89448 20.154 5.33923 20.23 4.79185C20.3722 3.89121 20.6844 3.02583 21.15 2.24185C21.4217 1.55088 21.8298 0.921708 22.35 0.391854C23.29 -0.298146 24.5 0.0218543 26.7 0.591854C28.44 1.04185 30.09 1.72185 30.03 2.24185C29.98 2.44185 29.66 2.62185 29.72 2.72185Z" fill="#3F469A"/>
<path d="M20.3 4.93186C20.2222 5.19718 20.2481 5.48217 20.3725 5.72912C20.4969 5.97606 20.7105 6.1665 20.97 6.26186C21.45 6.34186 21.97 5.88186 22.04 5.26186C22.12 4.99789 22.0949 4.71324 21.9701 4.4673C21.8453 4.22135 21.6303 4.03311 21.37 3.94186C20.89 3.83186 20.41 4.28186 20.3 4.93186Z" fill="#FF8C64"/>
<path d="M21.08 6.39186H20.98C20.8034 6.34808 20.6422 6.25698 20.5135 6.12834C20.3849 5.99971 20.2938 5.83843 20.25 5.66186C20.2403 5.63002 20.2432 5.59568 20.2581 5.56591C20.273 5.53614 20.2987 5.51322 20.33 5.50186C20.3632 5.49263 20.3986 5.49692 20.4286 5.51379C20.4586 5.53066 20.4807 5.55873 20.49 5.59186C20.5179 5.72402 20.5823 5.84567 20.6761 5.94293C20.7698 6.04019 20.889 6.10912 21.02 6.14186C21.1357 6.16502 21.2559 6.14736 21.36 6.09186C21.3906 6.08158 21.4239 6.08305 21.4535 6.09599C21.4831 6.10893 21.5068 6.13241 21.52 6.16186C21.5267 6.17628 21.5304 6.1919 21.531 6.20778C21.5316 6.22367 21.529 6.23952 21.5235 6.2544C21.5179 6.26929 21.5094 6.28292 21.4985 6.2945C21.4876 6.30608 21.4745 6.31538 21.46 6.32186C21.3404 6.37405 21.2104 6.398 21.08 6.39186Z" fill="#EA522F"/>
<path d="M20.3 5.58185C20.2714 5.58225 20.2435 5.57239 20.2215 5.55405C20.1995 5.53571 20.1848 5.5101 20.18 5.48185C20.1598 5.32584 20.1598 5.16787 20.18 5.01185C20.1745 4.99251 20.1735 4.97214 20.1772 4.95236C20.1809 4.93258 20.1891 4.91392 20.2012 4.89786C20.2133 4.88179 20.229 4.86876 20.247 4.85979C20.265 4.85082 20.2849 4.84615 20.305 4.84615C20.3251 4.84615 20.345 4.85082 20.363 4.85979C20.381 4.86876 20.3967 4.88179 20.4088 4.89786C20.4209 4.91392 20.4291 4.93258 20.4328 4.95236C20.4365 4.97214 20.4355 4.99251 20.43 5.01185C20.4149 5.14141 20.4149 5.27229 20.43 5.40185C20.4344 5.41833 20.4353 5.43556 20.4325 5.4524C20.4297 5.46923 20.4234 5.48528 20.4139 5.49948C20.4045 5.51367 20.3921 5.52568 20.3776 5.53472C20.3632 5.54375 20.3469 5.54959 20.33 5.55185L20.3 5.58185Z" fill="#EA522F"/>
<path d="M20.33 4.93185C20.23 4.93185 20.19 4.84185 20.21 4.77185C20.2471 4.48829 20.3886 4.22873 20.6068 4.04383C20.825 3.85894 21.1042 3.76197 21.39 3.77185C21.5117 3.7949 21.6274 3.84253 21.73 3.91185C21.7512 3.93707 21.7628 3.96893 21.7628 4.00185C21.7628 4.03477 21.7512 4.06664 21.73 4.09185C21.7064 4.11226 21.6762 4.12349 21.645 4.12349C21.6138 4.12349 21.5836 4.11226 21.56 4.09185C21.4927 4.04025 21.4137 4.00592 21.33 3.99185C20.96 3.93185 20.56 4.28185 20.43 4.80185C20.4291 4.83128 20.419 4.85969 20.401 4.88303C20.3831 4.90637 20.3582 4.92345 20.33 4.93185Z" fill="#EA522F"/>
<path d="M21.26 5.83186C21.2306 5.83098 21.2022 5.82084 21.1788 5.80289C21.1555 5.78493 21.1384 5.76008 21.13 5.73186L20.88 4.57186C20.8763 4.53908 20.8844 4.50606 20.9027 4.47862C20.921 4.45118 20.9484 4.43108 20.98 4.42186C21.0131 4.4159 21.0472 4.42299 21.0752 4.44163C21.1031 4.46028 21.1228 4.48903 21.13 4.52186L21.38 5.67186C21.386 5.70494 21.3789 5.73904 21.3602 5.76701C21.3416 5.79498 21.3128 5.81463 21.28 5.82186L21.26 5.83186Z" fill="#EA522F"/>
<path d="M21.15 5.13185C21.1211 5.14353 21.0889 5.14353 21.06 5.13185C21.0488 5.1207 21.0399 5.10746 21.0339 5.09287C21.0278 5.07829 21.0247 5.06265 21.0247 5.04685C21.0247 5.03106 21.0278 5.01542 21.0339 5.00083C21.0399 4.98625 21.0488 4.973 21.06 4.96185L21.33 4.65185C21.3398 4.63528 21.3531 4.62108 21.369 4.61028C21.3849 4.59948 21.403 4.59235 21.422 4.58939C21.441 4.58644 21.4605 4.58774 21.4789 4.5932C21.4974 4.59866 21.5144 4.60815 21.5287 4.62097C21.543 4.6338 21.5543 4.64964 21.5618 4.66737C21.5693 4.68509 21.5727 4.70425 21.5719 4.72347C21.5711 4.74268 21.566 4.76148 21.557 4.77849C21.548 4.7955 21.5354 4.81031 21.52 4.82185L21.25 5.12185C21.2351 5.13065 21.2184 5.1361 21.2011 5.13783C21.1838 5.13955 21.1664 5.13751 21.15 5.13185Z" fill="#EA522F"/>
<path d="M17.52 68.2618H28.09C28.1591 68.2256 28.2203 68.176 28.2701 68.1159C28.3198 68.0558 28.3572 67.9865 28.38 67.9118C28.4146 67.7811 28.4082 67.6429 28.3617 67.5159C28.3152 67.3889 28.2309 67.2793 28.12 67.2019C27.1771 66.7174 26.2014 66.2997 25.2 65.9519C24.67 65.7719 24.2 65.6219 23.69 65.4919L21.8 67.3518H17.61C17.4946 67.4222 17.4092 67.5325 17.37 67.6618C17.337 67.7659 17.3336 67.8771 17.3601 67.9831C17.3866 68.089 17.4419 68.1855 17.52 68.2618Z" fill="#3F469A"/>
<path d="M25.58 68.0018H36.15C36.2856 67.9212 36.391 67.7982 36.45 67.6518C36.4807 67.5201 36.4715 67.3821 36.4234 67.2556C36.3753 67.1291 36.2905 67.0199 36.18 66.9418C35.2379 66.4556 34.2621 66.0378 33.26 65.6918C32.74 65.5118 32.26 65.3618 31.75 65.2318L29.87 67.0919H25.68C25.562 67.1639 25.4761 67.2784 25.44 67.4118C25.4066 67.5135 25.402 67.6225 25.4267 67.7266C25.4515 67.8307 25.5045 67.926 25.58 68.0018Z" fill="#3F469A"/>
<path d="M13.76 46.1019C12.66 46.1019 11.45 46.0019 10.16 45.8619C8.87002 45.7219 7.60002 45.5119 6.48002 45.2719C5.64647 44.0414 5.20383 42.588 5.21003 41.1019C5.21871 39.7227 5.61739 38.3741 6.36002 37.2119C13.08 36.0819 18.66 38.2119 20.15 41.9519C20.6431 43.2834 20.6957 44.7381 20.3 46.1019C20.7334 51.1952 21.1667 56.2852 21.6 61.3719L17.66 62.8319C15.7218 59.389 14.472 55.602 13.98 51.6819C13.7334 49.8327 13.6597 47.9646 13.76 46.1019Z" fill="#3F469A"/>
<path d="M24.89 45.6219H16.52L16.13 35.5219C18.1486 35.5013 20.1626 35.7195 22.13 36.1719C24.48 36.7119 27.27 37.3919 29.61 39.6919C29.9656 40.0377 30.2995 40.405 30.61 40.7919C30.71 41.0219 30.84 41.3619 30.98 41.7919C32.08 45.0819 31.79 47.9019 31.24 51.7919C30.69 55.6819 30.14 58.8919 29.67 61.4519L26.67 61.4019C25.1161 57.334 24.4051 52.9929 24.58 48.6419C24.6294 47.6304 24.7329 46.6223 24.89 45.6219Z" fill="#3F469A"/>
<path d="M21.19 36.6719C20.1429 37.735 18.7834 38.4358 17.31 38.6719C15.31 38.9219 15.16 37.7919 12.61 37.7819C10.61 37.7819 9.49999 38.4519 7.25999 37.9319C6.87182 37.8437 6.49076 37.7267 6.12 37.5819C6.18 36.9719 6.28999 36.0619 6.43999 34.9719C7.12999 30.1819 7.88 28.2319 9.23 23.1919C11 16.5919 10.51 15.0519 12.39 13.5619C14.0202 12.4318 16.0147 11.9537 17.98 12.2219C18.2878 12.8493 18.7309 13.4006 19.2773 13.8364C19.8237 14.2721 20.4598 14.5813 21.14 14.7419C21.8829 14.8793 22.649 14.8172 23.36 14.5619C24.081 14.7571 24.7529 15.102 25.3318 15.574C25.9107 16.0461 26.3837 16.6348 26.72 17.3019C27.1603 18.3149 27.2823 19.4378 27.07 20.5218C26.34 25.4318 21.67 35.6419 21.19 36.6719Z" fill="#E3E3FD"/>
<path d="M20.3 46.2219C20.2809 46.2209 20.2623 46.2158 20.2455 46.2068C20.2286 46.1979 20.2139 46.1853 20.2025 46.17C20.191 46.1547 20.1831 46.1371 20.1792 46.1184C20.1753 46.0997 20.1756 46.0804 20.18 46.0619C20.4489 45.1047 20.49 44.0978 20.3 43.1219C19.8887 41.3429 18.7882 39.7999 17.24 38.8319C17.2196 38.8082 17.2084 38.7781 17.2084 38.7469C17.2084 38.7156 17.2196 38.6855 17.24 38.6619C17.2642 38.6386 17.2965 38.6257 17.33 38.6257C17.3636 38.6257 17.3958 38.6386 17.42 38.6619C18.2181 39.1634 18.9084 39.8187 19.4509 40.5895C19.9934 41.3603 20.3772 42.2313 20.58 43.1519C20.7721 44.1477 20.731 45.1745 20.46 46.1519C20.4545 46.1673 20.4459 46.1814 20.4347 46.1933C20.4236 46.2053 20.4101 46.2148 20.3951 46.2214C20.3801 46.2279 20.364 46.2314 20.3476 46.2314C20.3313 46.2315 20.3151 46.2283 20.3 46.2219Z" fill="#BBBBF9"/>
<path d="M24.89 45.7419C24.8643 45.7519 24.8357 45.7519 24.81 45.7419C24.7975 45.7315 24.7873 45.7186 24.7804 45.7039C24.7734 45.6892 24.7698 45.6731 24.7698 45.6569C24.7698 45.6406 24.7734 45.6245 24.7804 45.6098C24.7873 45.5952 24.7975 45.5822 24.81 45.5719L25.55 44.6519C25.5742 44.6286 25.6065 44.6157 25.64 44.6157C25.6736 44.6157 25.7058 44.6286 25.73 44.6519C25.7512 44.6771 25.7628 44.7089 25.7628 44.7419C25.7628 44.7748 25.7512 44.8066 25.73 44.8319L24.98 45.7419C24.9661 45.7489 24.9506 45.7526 24.935 45.7526C24.9194 45.7526 24.904 45.7489 24.89 45.7419Z" fill="#BBBBF9"/>
<path d="M28.32 68.1319C28.21 68.1319 28.18 68.0318 28.2 67.9718C28.2344 67.8782 28.2344 67.7754 28.2 67.6818C28.157 67.5405 28.06 67.4219 27.93 67.3518C27.9008 67.3373 27.8786 67.3117 27.8683 67.2807C27.858 67.2498 27.8604 67.216 27.875 67.1869C27.8896 67.1577 27.9152 67.1355 27.9461 67.1252C27.977 67.1149 28.0108 67.1173 28.04 67.1319C28.1394 67.1794 28.2275 67.2478 28.2982 67.3323C28.3689 67.4168 28.4207 67.5156 28.45 67.6218C28.4897 67.7624 28.4897 67.9113 28.45 68.0518C28.4395 68.0772 28.4213 68.0986 28.398 68.1129C28.3746 68.1273 28.3473 68.1339 28.32 68.1319Z" fill="#BBBBF9"/>
<path d="M15.55 21.8319L15.22 24.1719C14.8734 26.6585 14.54 29.1452 14.22 31.6319H10.35C10.19 28.9919 10.15 26.7419 10.15 25.0019V24.5619C10.15 24.2419 10.15 23.9219 10.15 23.6219C10.25 16.6219 11.15 14.7419 12.42 13.9619C12.6345 13.8336 12.8625 13.7296 13.1 13.6519C13.9 16.3985 14.7167 19.1252 15.55 21.8319Z" fill="#FF8C64"/>
<path d="M15.22 24.1919L10.11 25.0219V24.5819C10.11 24.2619 10.11 23.9419 10.11 23.6419H10.29L15.22 24.1919Z" fill="#122275"/>
<path d="M23.12 40.6919L21.43 41.8319C19.88 40.9819 18.57 40.3719 17.65 39.9619C13.46 38.1219 11.98 37.8319 10.98 36.3319C10.46 35.5619 9.88997 34.1619 10.36 31.6519L14.24 31.5519C14.3217 32.0289 14.4912 32.4867 14.74 32.9019C15.1193 33.5084 15.6411 34.013 16.26 34.3719C18.1726 35.6978 19.9361 37.2267 21.52 38.9319C21.84 39.3019 22.43 39.9019 23.12 40.6919Z" fill="#FF8C64"/>
<path d="M16.77 24.1919H9.60999C9.94999 21.4119 10.2833 18.6319 10.61 15.8519C10.6724 15.0778 11.024 14.3557 11.5947 13.8292C12.1654 13.3026 12.9135 13.0102 13.69 13.0102C14.4665 13.0102 15.2146 13.3026 15.7853 13.8292C16.356 14.3557 16.7076 15.0778 16.77 15.8519V24.1919Z" fill="#E3E3FD"/>
<path d="M46.98 40.8319C46.4277 39.2837 45.6996 37.8041 44.81 36.4219C44.4505 35.8726 44.0633 35.3419 43.65 34.8319C43.31 34.4018 42.97 34.0019 42.65 33.6518C42.5956 30.0353 42.7995 26.4194 43.26 22.8319C43.5 20.9519 43.8 19.1719 44.14 17.4919C43.56 15.9719 42.75 15.6918 42.5 15.5918C41.6705 15.3645 40.7869 15.4426 40.01 15.8118C38.19 16.3518 38.01 15.4618 35.32 15.7018C34.5383 15.7493 33.764 15.88 33.01 16.0918C32.15 17.0218 30.82 16.9318 29.94 17.7518C29.6125 18.5383 29.5876 19.4181 29.87 20.2218C29.8945 20.4272 29.9312 20.6309 29.98 20.8319C30.4652 22.0911 30.8563 23.3847 31.15 24.7018C31.53 26.1918 31.9 27.8019 32.34 29.2319C33 31.4619 33.72 33.0119 33.25 34.8319C33.2 34.9918 33.18 35.0519 33.1 35.3719C32.6813 36.7087 32.4655 38.1009 32.46 39.5018C32.5681 40.4928 32.9489 41.4343 33.56 42.2218L33.89 42.3319C35.9389 42.9901 38.0693 43.3603 40.22 43.4318C42.3981 43.499 44.5751 43.2668 46.69 42.7419L46.98 40.8319Z" fill="#FF8C64"/>
<path d="M29.85 23.4119C29.9168 23.83 30.1062 24.219 30.3942 24.5295C30.6822 24.84 31.0559 25.058 31.4679 25.156C31.8798 25.2541 32.3116 25.2276 32.7086 25.0801C33.1056 24.9326 33.4499 24.6706 33.6979 24.3274C33.9459 23.9841 34.0864 23.575 34.1018 23.1517C34.1171 22.7285 34.0066 22.3103 33.7841 21.9499C33.5616 21.5896 33.2373 21.3034 32.852 21.1275C32.4668 20.9516 32.038 20.8939 31.62 20.9619C31.0607 21.0527 30.5603 21.3617 30.2285 21.8209C29.8967 22.2802 29.7606 22.8524 29.85 23.4119Z" fill="#FF8C64"/>
<path d="M36.4 22.3519C36.4683 22.7669 36.658 23.1525 36.9452 23.4599C37.2323 23.7673 37.6041 23.9828 38.0135 24.0792C38.423 24.1756 38.8518 24.1486 39.246 24.0016C39.6401 23.8546 39.9819 23.5942 40.2283 23.2532C40.4746 22.9122 40.6145 22.5059 40.6302 22.0856C40.646 21.6652 40.5369 21.2496 40.3167 20.8912C40.0966 20.5327 39.7752 20.2475 39.3932 20.0714C39.0111 19.8953 38.5855 19.8363 38.17 19.9019C37.6107 19.9927 37.1103 20.3017 36.7785 20.7609C36.4467 21.2202 36.3106 21.7924 36.4 22.3519Z" fill="#FF8C64"/>
<path d="M44.13 17.4419L29.81 20.2119L29.15 20.3519C29.009 19.6163 29.133 18.8547 29.5 18.2019C29.6024 18.0329 29.7306 17.8811 29.88 17.7519C30.76 16.9319 32.09 17.0219 32.95 16.0919C33.3615 15.5735 33.59 14.9336 33.6 14.2719C33.6 14.0519 33.6 13.8219 33.6 13.5619C33.5693 13.0769 33.4991 12.5953 33.39 12.1219C33.39 11.9619 33.31 11.7819 33.27 11.6019C33.6783 11.3756 34.0664 11.1147 34.43 10.8219C35.2072 10.1889 35.8585 9.41543 36.35 8.54185L36.8 11.0519C37.19 13.5819 38.06 14.5419 38.8 14.9219C40.06 15.5119 41.32 14.7419 42.64 15.5919C43.3306 16.0234 43.8555 16.6752 44.13 17.4419Z" fill="#FF8C64"/>
<path d="M31.69 42.9419C32.09 44.2819 32.5 45.6219 32.91 46.9419C35.8455 47.1535 38.7958 47.0192 41.7 46.5419L42.42 46.4219C43.3044 46.2712 44.1392 45.9087 44.8532 45.3654C45.5671 44.8221 46.139 44.1141 46.52 43.3019C46.59 43.1419 46.65 42.9719 46.71 42.8019C47.58 40.1219 46.38 36.8919 43.65 34.8019C43.21 36.2419 42.77 37.6719 42.32 39.1119C40.5068 39.999 38.6436 40.7803 36.74 41.4519C34.98 42.0819 33.25 42.5619 31.69 42.9419Z" fill="#FF8C64"/>
<path d="M34.84 63.2319L36.43 63.4319C36.52 62.5019 36.67 61.0319 36.94 59.2319C37.76 53.6719 38.66 51.8619 38.17 49.0219C37.8397 47.2413 37.0965 45.563 36 44.1219L31.59 43.7419C32.41 47.2119 33.16 50.9519 33.78 54.9419C34.23 57.8319 34.58 60.5819 34.84 63.2319Z" fill="#FF8C64"/>
<path d="M29.04 67.8319H37.34C37.4716 67.3311 37.4542 66.8029 37.29 66.3119C37.2391 66.1521 37.1721 65.998 37.09 65.8518C36.7197 65.1081 36.4956 64.3001 36.43 63.4719L34.84 63.2719C32.84 66.3319 31.7 66.9419 31.03 66.9019C30.5428 66.8225 30.0434 66.9182 29.62 67.1718C29.3748 67.3402 29.1755 67.5671 29.04 67.8319Z" fill="#FF8C64"/>
<path d="M32.65 47.0719C33.1871 47.2906 33.7847 47.31 34.3349 47.1266C34.8851 46.9432 35.3515 46.5691 35.65 46.0719C35.8739 45.6861 35.9919 45.2479 35.9919 44.8019C35.9919 44.3558 35.8739 43.9176 35.65 43.5319C35.25 43.3519 34.85 43.1619 34.44 42.9519C34.03 42.7419 33.75 42.6219 33.44 42.4519C33.0513 42.5159 32.6817 42.6658 32.3582 42.8907C32.0347 43.1156 31.7655 43.4098 31.57 43.7519C31.276 44.3359 31.2246 45.0123 31.4268 45.6341C31.6291 46.2558 32.0687 46.7726 32.65 47.0719Z" fill="#FF8C64"/>
<path d="M23.98 43.5819L26.31 45.8319C28.8995 45.0631 31.5654 44.5802 34.26 44.3919C35.36 44.3119 36.41 44.2919 37.4 44.3019C38.8357 43.9326 40.0658 43.0081 40.82 41.7319C42 39.4719 41.17 36.2219 38.54 34.1419L36.69 35.4319C33.8844 36.0376 31.2265 37.1932 28.87 38.8319C26.9975 40.1448 25.3467 41.7483 23.98 43.5819Z" fill="#FF8C64"/>
<path d="M27.09 63.2319L28.68 63.4319C28.76 62.5019 28.92 61.0319 29.18 59.2319C30.01 53.6719 30.91 51.8619 30.41 49.0219C30.0889 47.2403 29.3485 45.5607 28.25 44.1219L23.83 43.7419C24.65 47.2119 25.41 50.9519 26.03 54.9419C26.48 57.8319 26.83 60.5819 27.09 63.2319Z" fill="#FF8C64"/>
<path d="M21.29 67.8319H29.59C29.7118 67.3301 29.6945 66.8046 29.54 66.3119C29.4869 66.1513 29.4165 65.9971 29.33 65.8518C28.9643 65.1069 28.7437 64.2992 28.68 63.4719L27.09 63.2719C25.09 66.3319 23.95 66.9419 23.27 66.9019C22.786 66.8223 22.2896 66.9181 21.87 67.1718C21.6248 67.3402 21.4255 67.5671 21.29 67.8319Z" fill="#FF8C64"/>
<path d="M25.16 46.5619C25.6971 46.7806 26.2948 46.8 26.8449 46.6166C27.3951 46.4332 27.8616 46.0591 28.16 45.5619C28.3839 45.1761 28.5019 44.7379 28.5019 44.2919C28.5019 43.8458 28.3839 43.4077 28.16 43.0219C27.76 42.8419 27.36 42.6519 26.94 42.4419L25.94 41.9419C25.5513 42.0059 25.1817 42.1558 24.8582 42.3807C24.5348 42.6056 24.2655 42.8998 24.07 43.2419C23.7768 43.8271 23.7268 44.5045 23.931 45.1264C24.1352 45.7484 24.577 46.2643 25.16 46.5619Z" fill="#FF8C64"/>
<path d="M34.87 12.8319C34.8551 13.1715 34.7253 13.496 34.5018 13.7521C34.2783 14.0083 33.9745 14.181 33.64 14.2419C33.64 14.0219 33.64 13.7919 33.64 13.5319C33.6093 13.0469 33.5391 12.5653 33.43 12.0919C33.7035 11.9726 33.9705 11.8391 34.23 11.6919C34.4232 11.8135 34.583 11.9815 34.6947 12.1806C34.8065 12.3797 34.8668 12.6036 34.87 12.8319Z" fill="#122275"/>
<path d="M36.19 11.4018C35.368 12.3055 34.3016 12.9516 33.12 13.2619C32.9445 13.3114 32.7621 13.3316 32.58 13.3219C32.3891 13.3121 32.2005 13.2751 32.02 13.2119C31.24 12.9719 30.51 11.6419 30.45 11.5319C30.0928 10.9948 29.8793 10.375 29.83 9.73185C29.83 9.19185 29.96 8.97185 29.96 8.09185C29.96 7.60185 29.96 7.39185 29.89 7.09185C29.89 7.01185 29.89 6.93185 29.89 6.85185C29.89 6.77185 29.89 6.75185 29.89 6.70185C29.89 6.65185 29.89 6.51185 29.89 6.40185V6.29185C29.8485 5.44225 30.1108 4.60562 30.63 3.93185C31.141 3.432 31.7819 3.08553 32.48 2.93185C32.7132 2.87368 32.9506 2.83356 33.19 2.81185H33.44C34.0893 2.79042 34.7364 2.89781 35.344 3.1278C35.9516 3.35779 36.5076 3.70584 36.98 4.15185C38.8 6.19185 37.65 9.73185 36.19 11.4018Z" fill="#FF8C64"/>
<path d="M37.98 8.49186C37.98 9.15186 37.58 9.68185 37.1 9.68185C36.62 9.68185 36.21 9.15186 36.21 8.49186C36.21 7.83186 36.61 7.29185 37.1 7.29185C37.59 7.29185 37.98 7.83186 37.98 8.49186Z" fill="#FF8C64"/>
<path d="M37.1 9.83185C36.9319 9.83002 36.7681 9.77777 36.63 9.68185C36.6096 9.65823 36.5984 9.62806 36.5984 9.59685C36.5984 9.56564 36.6096 9.53547 36.63 9.51185C36.6412 9.50067 36.6544 9.49179 36.669 9.48573C36.6836 9.47968 36.6992 9.47656 36.715 9.47656C36.7308 9.47656 36.7465 9.47968 36.761 9.48573C36.7756 9.49179 36.7889 9.50067 36.8 9.51185C36.8853 9.57168 36.9838 9.61012 37.087 9.62394C37.1903 9.63775 37.2954 9.62655 37.3934 9.59126C37.4914 9.55596 37.5795 9.49763 37.6503 9.42115C37.7211 9.34468 37.7724 9.25232 37.8 9.15185C37.8149 9.12429 37.8399 9.10363 37.8698 9.09428C37.8997 9.08494 37.9321 9.08766 37.96 9.10185C37.9756 9.10704 37.9897 9.11564 38.0015 9.127C38.0133 9.13837 38.0224 9.15223 38.0282 9.16756C38.0339 9.18289 38.0361 9.19931 38.0347 9.21562C38.0333 9.23194 38.0283 9.24773 38.02 9.26185C37.9375 9.43512 37.8069 9.581 37.6438 9.68207C37.4807 9.78314 37.2919 9.83513 37.1 9.83185Z" fill="#EA522F"/>
<path d="M37.89 9.13186C37.79 9.13186 37.75 9.03186 37.78 8.96186C37.8187 8.83851 37.8422 8.7109 37.85 8.58186C37.8499 8.56522 37.8533 8.54875 37.86 8.5335C37.8666 8.51825 37.8764 8.50455 37.8886 8.49326C37.9008 8.48198 37.9153 8.47336 37.931 8.46795C37.9467 8.46255 37.9634 8.46047 37.98 8.46186C37.9966 8.4618 38.0131 8.4652 38.0284 8.47185C38.0436 8.4785 38.0573 8.48824 38.0686 8.50046C38.0799 8.51269 38.0885 8.52713 38.0939 8.54286C38.0993 8.55859 38.1014 8.57528 38.1 8.59186C38.0903 8.74847 38.06 8.90313 38.01 9.05186C38.0001 9.07555 37.9835 9.09579 37.9621 9.11003C37.9408 9.12426 37.9157 9.13186 37.89 9.13186Z" fill="#EA522F"/>
<path d="M37.98 8.48185C37.9505 8.47992 37.9225 8.46796 37.9006 8.44796C37.8788 8.42796 37.8645 8.40111 37.86 8.37185C37.86 7.83185 37.49 7.42185 37.11 7.42185C37.0308 7.40569 36.9492 7.40569 36.87 7.42185C36.8464 7.44226 36.8162 7.45349 36.785 7.45349C36.7538 7.45349 36.7236 7.44226 36.7 7.42185C36.6917 7.40697 36.6866 7.39048 36.6851 7.37348C36.6837 7.35648 36.6858 7.33937 36.6915 7.32328C36.6972 7.30719 36.7063 7.2925 36.7181 7.28018C36.7299 7.26787 36.7442 7.25821 36.76 7.25185C36.868 7.19606 36.9884 7.16854 37.11 7.17185C37.3936 7.20898 37.6531 7.35044 37.838 7.56862C38.0229 7.7868 38.1199 8.06604 38.11 8.35185C38.1114 8.36843 38.1093 8.38512 38.1039 8.40085C38.0985 8.41659 38.0899 8.43102 38.0786 8.44325C38.0673 8.45547 38.0536 8.46522 38.0383 8.47186C38.0231 8.47851 38.0066 8.48191 37.99 8.48185H37.98Z" fill="#EA522F"/>
<path d="M36.91 9.19185C36.8 9.19185 36.77 9.08185 36.8 9.01185L37.24 7.92185C37.2455 7.90645 37.2541 7.89234 37.2653 7.88038C37.2764 7.86843 37.2899 7.85888 37.3049 7.85232C37.3199 7.84577 37.336 7.84234 37.3524 7.84226C37.3688 7.84218 37.385 7.84545 37.4 7.85185C37.4164 7.85589 37.4317 7.86365 37.4446 7.87452C37.4575 7.8854 37.4677 7.8991 37.4745 7.91458C37.4813 7.93005 37.4844 7.94687 37.4836 7.96374C37.4828 7.98061 37.4782 7.99707 37.47 8.01185L37.03 9.11185C37.0201 9.13554 37.0035 9.15578 36.9821 9.17002C36.9608 9.18426 36.9357 9.19185 36.91 9.19185Z" fill="#EA522F"/>
<path d="M37.13 8.54185C37.1093 8.54223 37.089 8.53681 37.0714 8.5262C37.0537 8.51559 37.0393 8.50023 37.03 8.48186L36.82 8.14186C36.8088 8.13071 36.7999 8.11746 36.7938 8.10287C36.7878 8.08829 36.7847 8.07265 36.7847 8.05685C36.7847 8.04106 36.7878 8.02542 36.7938 8.01084C36.7999 7.99625 36.8088 7.983 36.82 7.97186C36.8311 7.96067 36.8444 7.95179 36.8589 7.94574C36.8735 7.93968 36.8892 7.93656 36.905 7.93656C36.9208 7.93656 36.9364 7.93968 36.951 7.94574C36.9656 7.95179 36.9788 7.96067 36.99 7.97186L37.2 8.31186C37.2112 8.323 37.22 8.33625 37.2261 8.35084C37.2321 8.36542 37.2353 8.38106 37.2353 8.39685C37.2353 8.41265 37.2321 8.42829 37.2261 8.44287C37.22 8.45746 37.2112 8.47071 37.2 8.48186C37.1959 8.49786 37.187 8.51221 37.1745 8.52295C37.162 8.53369 37.1464 8.5403 37.13 8.54185Z" fill="#EA522F"/>
<path d="M33.75 7.91186C33.7513 7.97227 33.7645 8.03183 33.7888 8.08715C33.8132 8.14246 33.8481 8.19244 33.8918 8.23423C33.9354 8.27602 33.9869 8.3088 34.0432 8.3307C34.0995 8.3526 34.1596 8.36318 34.22 8.36185C34.3432 8.34682 34.4553 8.28373 34.5321 8.18632C34.6089 8.08891 34.6441 7.96509 34.63 7.84185C34.6287 7.78144 34.6155 7.72188 34.5912 7.66657C34.5669 7.61125 34.5319 7.56127 34.4882 7.51948C34.4446 7.47769 34.3931 7.44491 34.3368 7.42302C34.2805 7.40112 34.2204 7.39053 34.16 7.39186C34.038 7.4093 33.9273 7.47303 33.851 7.56984C33.7747 7.66665 33.7385 7.78911 33.75 7.91186Z" fill="#122275"/>
<path d="M33.58 8.12186C33.5506 8.13047 33.5193 8.13047 33.49 8.12186L33.19 7.82186C33.1788 7.81071 33.1699 7.79746 33.1638 7.78288C33.1578 7.76829 33.1547 7.75265 33.1547 7.73685C33.1547 7.72106 33.1578 7.70542 33.1638 7.69084C33.1699 7.67625 33.1788 7.663 33.19 7.65186C33.2152 7.63069 33.247 7.6191 33.28 7.6191C33.3129 7.6191 33.3447 7.63069 33.37 7.65186L33.53 7.80186C33.5752 7.67297 33.6547 7.55886 33.76 7.47186C34.038 7.32643 34.3575 7.28085 34.6651 7.34273C34.9728 7.40462 35.2498 7.57022 35.45 7.81186C35.4711 7.83707 35.4827 7.86894 35.4827 7.90186C35.4827 7.93477 35.4711 7.96664 35.45 7.99186C35.4258 8.01508 35.3935 8.02805 35.36 8.02805C35.3264 8.02805 35.2942 8.01508 35.27 7.99186C34.76 7.52186 34.18 7.45186 33.91 7.66186C33.7929 7.76464 33.7181 7.90715 33.7 8.06186C33.6942 8.08313 33.6842 8.103 33.6704 8.12021C33.6566 8.13742 33.6395 8.1516 33.62 8.16186L33.58 8.12186Z" fill="#122275"/>
<path d="M29.98 7.91186C29.9813 7.97227 29.9945 8.03183 30.0188 8.08715C30.0431 8.14246 30.0781 8.19244 30.1218 8.23423C30.1654 8.27602 30.2168 8.3088 30.2732 8.3307C30.3295 8.3526 30.3896 8.36318 30.45 8.36185C30.572 8.34442 30.6827 8.28069 30.759 8.18388C30.8353 8.08707 30.8715 7.9646 30.86 7.84185C30.8587 7.78144 30.8455 7.72188 30.8212 7.66657C30.7968 7.61125 30.7619 7.56127 30.7182 7.51948C30.6746 7.47769 30.6231 7.44491 30.5668 7.42302C30.5105 7.40112 30.4504 7.39053 30.39 7.39186C30.2669 7.40689 30.1547 7.46998 30.0779 7.56739C30.001 7.6648 29.9659 7.78862 29.98 7.91186Z" fill="#122275"/>
<path d="M29.8 8.12186C29.7711 8.13353 29.7388 8.13353 29.71 8.12186L29.4 7.82186C29.3874 7.81154 29.3773 7.79856 29.3703 7.78386C29.3634 7.76917 29.3598 7.75311 29.3598 7.73685C29.3598 7.7206 29.3634 7.70454 29.3703 7.68985C29.3773 7.67515 29.3874 7.66217 29.4 7.65186C29.4252 7.63069 29.4571 7.6191 29.49 7.6191C29.5229 7.6191 29.5548 7.63069 29.58 7.65186L29.73 7.80186C29.7784 7.67204 29.8614 7.55792 29.97 7.47186C30.248 7.32643 30.5675 7.28085 30.8752 7.34273C31.1828 7.40462 31.4598 7.57022 31.66 7.81186C31.6832 7.83606 31.6962 7.86831 31.6962 7.90186C31.6962 7.9354 31.6832 7.96765 31.66 7.99186C31.6497 8.00442 31.6367 8.01454 31.622 8.02148C31.6073 8.02843 31.5912 8.03204 31.575 8.03204C31.5587 8.03204 31.5427 8.02843 31.528 8.02148C31.5133 8.01454 31.5003 8.00442 31.49 7.99186C30.98 7.52186 30.39 7.45186 30.13 7.66186C30.0704 7.71147 30.0212 7.77233 29.9852 7.84096C29.9492 7.9096 29.927 7.98466 29.92 8.06186C29.9138 8.08438 29.9025 8.10515 29.8868 8.12251C29.8712 8.13987 29.8517 8.15335 29.83 8.16186L29.8 8.12186Z" fill="#122275"/>
<path d="M35.86 6.99185C35.4326 6.84287 34.9898 6.74224 34.54 6.69185C34.1511 6.64994 33.7589 6.64994 33.37 6.69185C33.3771 6.61991 33.3939 6.54927 33.42 6.48185C33.4774 6.33208 33.57 6.19831 33.69 6.09185C33.9955 6.12296 34.2992 6.16969 34.6 6.23185C34.8719 6.26006 35.1363 6.33802 35.38 6.46185C35.5864 6.59017 35.7527 6.77379 35.86 6.99185Z" fill="#122275"/>
<path d="M33.48 6.07185C33.4283 6.14884 33.3816 6.22899 33.34 6.31185C33.28 6.42914 33.2523 6.56032 33.26 6.69185C33.26 6.69185 33.38 6.48185 33.4 6.41185C33.4365 6.31377 33.4834 6.2199 33.54 6.13185L33.59 6.06185L33.48 6.07185Z" fill="#122275"/>
<path d="M31.22 6.68185C30.8279 6.66795 30.4354 6.69814 30.05 6.77185H29.87C29.87 6.72185 29.87 6.67185 29.87 6.62185C29.87 6.57185 29.87 6.43185 29.87 6.32185H29.98C30.2755 6.23392 30.5761 6.1638 30.88 6.11185C31.0058 6.2118 31.1082 6.33809 31.18 6.48185C31.18 6.55185 31.21 6.63185 31.22 6.68185Z" fill="#122275"/>
<path d="M31.06 6.07185C31.1187 6.14111 31.1722 6.21465 31.22 6.29185C31.2866 6.40369 31.3212 6.53168 31.32 6.66185C31.32 6.66185 31.2 6.46185 31.16 6.40185C31.1222 6.30048 31.0681 6.20592 31 6.12185L30.95 6.06185L31.06 6.07185Z" fill="#122275"/>
<path d="M32.18 9.61185C32.0638 9.5479 31.9325 9.51678 31.8 9.52185C31.6676 9.51824 31.5366 9.54926 31.42 9.61185C31.5366 9.67444 31.6676 9.70546 31.8 9.70185C31.9325 9.70692 32.0638 9.6758 32.18 9.61185Z" fill="#122275"/>
<path d="M32.08 11.0919C31.681 11.0914 31.2864 11.0097 30.92 10.8519C30.9055 10.8454 30.8924 10.8361 30.8815 10.8245C30.8706 10.8129 30.8621 10.7993 30.8565 10.7844C30.8509 10.7695 30.8484 10.7537 30.849 10.7378C30.8496 10.7219 30.8533 10.7063 30.86 10.6919C30.8655 10.6765 30.8741 10.6623 30.8852 10.6504C30.8964 10.6384 30.9099 10.6289 30.9249 10.6223C30.9399 10.6158 30.956 10.6123 30.9724 10.6123C30.9887 10.6122 31.0049 10.6154 31.02 10.6219C31.4533 10.8105 31.9291 10.8803 32.3984 10.8241C32.8677 10.7679 33.3135 10.5876 33.69 10.3019C33.7011 10.2907 33.7144 10.2818 33.729 10.2757C33.7435 10.2697 33.7592 10.2666 33.775 10.2666C33.7908 10.2666 33.8064 10.2697 33.821 10.2757C33.8356 10.2818 33.8488 10.2907 33.86 10.3019C33.8832 10.3261 33.8962 10.3583 33.8962 10.3919C33.8962 10.4254 33.8832 10.4576 33.86 10.4819C33.3782 10.8402 32.7999 11.0458 32.2 11.0719L32.08 11.0919Z" fill="#EA522F"/>
<path d="M31.11 10.8319C31.11 10.9919 31.61 11.0819 31.99 11.0819C32.37 11.0819 32.99 10.9218 32.99 10.8418C32.99 10.7618 32.92 10.8418 32.81 10.8418C32.45 10.7118 32.38 10.3719 32.17 10.3919C32.0935 10.3987 32.0165 10.3987 31.94 10.3919H31.85C31.69 10.3919 31.68 10.3919 31.62 10.3919C31.56 10.3919 31.33 10.6818 31.33 10.6818C31.16 10.7518 31.11 10.7419 31.11 10.8319Z" fill="#EA522F"/>
<path d="M32.05 11.7319H31.98C31.8802 11.7417 31.7798 11.7417 31.68 11.7319C31.664 11.7284 31.6489 11.7217 31.6355 11.7121C31.6222 11.7026 31.611 11.6904 31.6026 11.6763C31.5941 11.6623 31.5887 11.6466 31.5865 11.6304C31.5843 11.6141 31.5855 11.5976 31.59 11.5819C31.5972 11.549 31.6169 11.5203 31.6449 11.5016C31.6728 11.483 31.7069 11.4759 31.74 11.4819C31.823 11.4923 31.907 11.4923 31.99 11.4819C32.1844 11.4964 32.3795 11.4655 32.56 11.3919C32.5751 11.3854 32.5913 11.3822 32.6076 11.3823C32.624 11.3823 32.6401 11.3858 32.6551 11.3923C32.6701 11.3989 32.6836 11.4084 32.6947 11.4204C32.7059 11.4323 32.7145 11.4465 32.72 11.4619C32.7264 11.4769 32.7297 11.4931 32.7296 11.5095C32.7295 11.5258 32.7261 11.542 32.7195 11.557C32.713 11.5719 32.7034 11.5854 32.6915 11.5966C32.6795 11.6077 32.6654 11.6163 32.65 11.6219C32.4588 11.6962 32.2552 11.7335 32.05 11.7319Z" fill="#EA522F"/>
<path d="M32.76 10.9219C32.76 11.0319 32.35 11.2918 31.91 11.2518C31.47 11.2118 31.2 10.9819 31.23 10.9119C31.26 10.8419 31.32 10.9119 31.47 10.8519C31.62 10.7919 31.74 10.6619 31.91 10.6519C32.08 10.6419 32.02 10.6519 32.2 10.7419C32.59 10.8919 32.75 10.8319 32.76 10.9219Z" fill="white"/>
<path d="M42.63 32.8319C39.3697 34.045 35.8926 34.566 32.42 34.3619C31.77 34.3619 31.14 34.2519 30.54 34.1619C30.6 31.1619 30.67 28.1619 30.73 25.0819C30.2257 24.4214 29.8431 23.6764 29.6 22.8819C29.3882 22.2123 29.2802 21.5142 29.28 20.8119C29.0583 20.7098 28.8617 20.5601 28.7044 20.3735C28.5471 20.1868 28.433 19.9677 28.37 19.7319C28.14 18.5219 30.07 16.8819 33.26 15.6719C33.6481 15.9488 34.0976 16.1273 34.57 16.1919C35.2738 16.2252 35.9733 16.0647 36.5922 15.7279C37.2111 15.3911 37.7258 14.8909 38.08 14.2819C41.31 13.9319 43.85 15.2819 44.34 17.1319C44.5128 17.947 44.3812 18.7971 43.97 19.5219L42.63 32.8319Z" fill="#FFC5D2"/>
<path d="M45.63 45.2219C45.3603 45.6312 44.9576 45.9349 44.49 46.0819C43.457 46.4038 42.405 46.661 41.34 46.8519C40.2588 47.0455 39.1667 47.1724 38.07 47.2319L38.25 48.5719C38.742 53.122 38.3618 57.7241 37.13 62.1319L34.72 62.0719C33.31 54.9319 32.25 50.1619 31.5 48.1319C30.9355 46.8731 30.8431 45.4531 31.24 44.1319C31.3593 43.8138 31.5171 43.5115 31.71 43.2319C32.3748 42.1656 33.1346 41.1615 33.98 40.2319C36.5072 37.4687 39.7031 35.4024 43.26 34.2319C44.9968 35.2168 46.2837 36.8372 46.85 38.7519C47.1272 39.8543 47.1617 41.0038 46.9511 42.1209C46.7404 43.238 46.2897 44.2961 45.63 45.2219Z" fill="#5B98E8"/>
<path d="M29.44 61.8319L26.7 62.0219L23.98 45.5319C23.8478 45.2138 23.77 44.8757 23.75 44.5319C23.62 41.8619 27.22 39.6219 29.33 38.3119C30.4608 37.6017 31.6521 36.9926 32.89 36.4919C32.89 36.2219 32.89 35.9519 32.89 35.6819C34.2897 35.5512 35.6816 35.3475 37.06 35.0719C38.9632 34.6932 40.8351 34.1717 42.66 33.5119L43.66 34.5119L40.06 35.9419L33.84 44.4319L29.26 45.1119C29.8182 45.9215 30.2718 46.7984 30.61 47.7219C30.87 48.4519 31.46 50.3219 31.04 54.4619C30.7816 56.9703 30.245 59.4421 29.44 61.8319Z" fill="#5B98E8"/>
<path d="M31.24 44.2319C31.214 44.2403 31.186 44.2403 31.16 44.2319C31.1488 44.2207 31.1399 44.2075 31.1339 44.1929C31.1278 44.1783 31.1247 44.1627 31.1247 44.1469C31.1247 44.1311 31.1278 44.1154 31.1339 44.1008C31.1399 44.0863 31.1488 44.073 31.16 44.0619C31.5706 43.5495 32.0221 43.0713 32.51 42.6319C33.1278 42.0815 33.7976 41.5925 34.51 41.1719C36.51 39.9819 38.78 38.7919 39.98 38.1719C39.9941 38.1636 40.0099 38.1585 40.0262 38.1571C40.0425 38.1557 40.059 38.158 40.0743 38.1637C40.0896 38.1695 40.1035 38.1786 40.1149 38.1904C40.1262 38.2022 40.1348 38.2163 40.14 38.2319C40.1509 38.2421 40.1596 38.2545 40.1655 38.2683C40.1714 38.2821 40.1745 38.2969 40.1745 38.3119C40.1745 38.3268 40.1714 38.3417 40.1655 38.3554C40.1596 38.3692 40.1509 38.3816 40.14 38.3919C38.94 39.0019 36.65 40.1819 34.68 41.3919C33.9669 41.8001 33.2969 42.2792 32.68 42.8219C32.2046 43.2503 31.7633 43.715 31.36 44.2119C31.345 44.2279 31.3251 44.2386 31.3034 44.2422C31.2817 44.2458 31.2594 44.2422 31.24 44.2319Z" fill="#BBBBF9"/>
<path d="M36.61 40.0819C36.5961 40.0889 36.5806 40.0926 36.565 40.0926C36.5494 40.0926 36.534 40.0889 36.52 40.0819L35.52 39.0819C35.5036 39.0569 35.4963 39.027 35.4994 38.9973C35.5025 38.9675 35.5157 38.9398 35.5368 38.9186C35.5579 38.8975 35.5857 38.8843 35.6154 38.8813C35.6451 38.8782 35.675 38.8855 35.7 38.9019L36.7 39.9019C36.7212 39.9271 36.7328 39.9589 36.7328 39.9919C36.7328 40.0248 36.7212 40.0566 36.7 40.0819C36.6859 40.0882 36.6705 40.0915 36.655 40.0915C36.6395 40.0915 36.6242 40.0882 36.61 40.0819Z" fill="#BBBBF9"/>
<path d="M36.49 61.5019C36.4713 61.5024 36.4528 61.4987 36.4359 61.4909C36.419 61.4831 36.4041 61.4714 36.3925 61.4569C36.3808 61.4423 36.3727 61.4253 36.3688 61.407C36.3649 61.3888 36.3653 61.3699 36.37 61.3519C36.9323 58.3448 37.0369 55.2701 36.68 52.2319C36.3796 49.6988 35.7648 47.213 34.85 44.8319C34.8321 44.809 34.8224 44.7808 34.8224 44.7519C34.8224 44.7229 34.8321 44.6947 34.85 44.6719L42.98 40.3419C42.454 40.1256 41.9901 39.7819 41.63 39.3419C41.2566 38.8298 41.0102 38.2364 40.9111 37.6106C40.812 36.9847 40.863 36.3442 41.06 35.7419C41.0644 35.7256 41.0722 35.7104 41.0829 35.6973C41.0936 35.6843 41.107 35.6736 41.1221 35.6661C41.1372 35.6585 41.1537 35.6543 41.1706 35.6535C41.1874 35.6528 41.2043 35.6556 41.22 35.6619C41.2351 35.6664 41.2492 35.6739 41.2614 35.684C41.2736 35.694 41.2837 35.7063 41.2911 35.7202C41.2986 35.7342 41.3032 35.7494 41.3047 35.7652C41.3062 35.7809 41.3046 35.7968 41.3 35.8119C41.1158 36.3749 41.0668 36.9735 41.1572 37.559C41.2475 38.1445 41.4746 38.7005 41.82 39.1819C42.2176 39.6524 42.7416 39.9993 43.33 40.1819C43.3548 40.1892 43.3765 40.2044 43.3919 40.2251C43.4074 40.2459 43.4157 40.271 43.4157 40.2969C43.4157 40.3227 43.4074 40.3479 43.3919 40.3686C43.3765 40.3893 43.3548 40.4045 43.33 40.4119L35.12 44.8319C37.1423 50.0965 37.6583 55.8204 36.61 61.3619C36.6129 61.3792 36.612 61.397 36.6073 61.4139C36.6026 61.4309 36.5942 61.4466 36.5828 61.46C36.5713 61.4733 36.5571 61.484 36.541 61.4912C36.525 61.4985 36.5076 61.5021 36.49 61.5019Z" fill="#BBBBF9"/>
<path d="M29.23 45.1919H29.17L28.43 44.7719C28.4096 44.7482 28.3984 44.7181 28.3984 44.6869C28.3984 44.6556 28.4096 44.6255 28.43 44.6019C28.4412 44.5907 28.4544 44.5818 28.469 44.5757C28.4836 44.5697 28.4992 44.5666 28.515 44.5666C28.5308 44.5666 28.5464 44.5697 28.561 44.5757C28.5756 44.5818 28.5889 44.5907 28.6 44.6019L29.34 45.0119C29.369 45.0304 29.3902 45.0591 29.3994 45.0923C29.4087 45.1255 29.4053 45.161 29.39 45.1919C29.3797 45.2028 29.3673 45.2114 29.3536 45.2174C29.3398 45.2233 29.325 45.2264 29.31 45.2264C29.295 45.2264 29.2802 45.2233 29.2664 45.2174C29.2527 45.2114 29.2403 45.2028 29.23 45.1919Z" fill="#BBBBF9"/>
<path d="M38.09 47.5419C38.0606 47.5505 38.0294 47.5505 38 47.5419L37.48 46.9919C37.4674 46.9815 37.4573 46.9686 37.4504 46.9539C37.4434 46.9392 37.4398 46.9231 37.4398 46.9069C37.4398 46.8906 37.4434 46.8745 37.4504 46.8598C37.4573 46.8452 37.4674 46.8322 37.48 46.8219C37.5042 46.7986 37.5364 46.7857 37.57 46.7857C37.6035 46.7857 37.6358 46.7986 37.66 46.8219L38.18 47.3619C38.2032 47.3861 38.2162 47.4183 38.2162 47.4519C38.2162 47.4854 38.2032 47.5176 38.18 47.5419C38.1511 47.5535 38.1189 47.5535 38.09 47.5419Z" fill="#BBBBF9"/>
<path d="M35.3 36.8319C34.4775 36.8313 33.657 36.7509 32.85 36.5919C32.8171 36.5846 32.7884 36.565 32.7698 36.537C32.7511 36.509 32.744 36.4749 32.75 36.4419C32.7572 36.409 32.7769 36.3803 32.8048 36.3616C32.8328 36.343 32.8669 36.3359 32.9 36.3419C34.6371 36.6921 36.4293 36.6644 38.1548 36.2606C39.8802 35.8569 41.4986 35.0865 42.9 34.0019C42.9242 33.9786 42.9564 33.9657 42.99 33.9657C43.0235 33.9657 43.0558 33.9786 43.08 34.0019C43.0912 34.013 43.1 34.0263 43.1061 34.0408C43.1121 34.0554 43.1153 34.0711 43.1153 34.0869C43.1153 34.1027 43.1121 34.1183 43.1061 34.1329C43.1 34.1475 43.0912 34.1607 43.08 34.1719C41.4106 35.4472 39.4531 36.292 37.38 36.6319C36.6934 36.7563 35.9977 36.8232 35.3 36.8319Z" fill="#BBBBF9"/>
<path d="M37.49 68.1518L28.7 68.2019C28.5838 68.13 28.4956 68.0206 28.45 67.8918C28.4243 67.7743 28.4323 67.652 28.4729 67.5388C28.5136 67.4256 28.5854 67.3261 28.68 67.2518C29.4555 66.8145 30.2647 66.44 31.1 66.1319C31.54 65.9719 31.96 65.8418 32.36 65.7218L33.92 67.3918H37.41C37.509 67.4573 37.5802 67.557 37.61 67.6718C37.6274 67.7557 37.6256 67.8424 37.6048 67.9255C37.584 68.0086 37.5448 68.086 37.49 68.1518Z" fill="#5B98E8"/>
<path d="M30.25 68.1319H21.46C21.3446 68.0615 21.2592 67.9512 21.22 67.8218C21.1894 67.7054 21.1939 67.5824 21.2331 67.4685C21.2722 67.3547 21.3442 67.2549 21.44 67.1818C22.2199 66.7465 23.0323 66.372 23.87 66.0619C24.3 65.9019 24.72 65.7718 25.12 65.6518C25.64 66.2118 26.17 66.7619 26.69 67.3119H30.17C30.269 67.3817 30.3399 67.4845 30.37 67.6018C30.3997 67.6928 30.4042 67.7901 30.3831 67.8834C30.3619 67.9767 30.3159 68.0626 30.25 68.1319Z" fill="#5B98E8"/>
<path d="M28.68 68.2118C28.6511 68.2235 28.6189 68.2235 28.59 68.2118C28.4744 68.1038 28.4002 67.9588 28.38 67.8019C28.365 67.6753 28.3858 67.5471 28.44 67.4318C28.4452 67.4163 28.4538 67.4021 28.4652 67.3904C28.4765 67.3786 28.4904 67.3695 28.5057 67.3637C28.521 67.358 28.5375 67.3557 28.5538 67.3571C28.5701 67.3585 28.5859 67.3636 28.6 67.3719C28.6145 67.3783 28.6276 67.3876 28.6385 67.3992C28.6494 67.4108 28.6579 67.4244 28.6635 67.4393C28.6691 67.4542 28.6716 67.47 28.671 67.4859C28.6704 67.5018 28.6667 67.5174 28.66 67.5318C28.6354 67.61 28.6354 67.6937 28.66 67.7719C28.671 67.8712 28.7171 67.9634 28.79 68.0318C28.8112 68.0571 28.8228 68.0889 28.8228 68.1219C28.8228 68.1548 28.8112 68.1866 28.79 68.2118C28.7545 68.2248 28.7155 68.2248 28.68 68.2118Z" fill="#BBBBF9"/>
<path d="M45.73 25.0319C45.9996 26.2697 46.1999 27.5217 46.33 28.7819L43.65 30.4019L42.51 26.7219C42.38 26.3019 42.25 25.8819 42.11 25.4518C41.5033 23.4518 40.8833 21.4518 40.25 19.4518C39.65 18.1118 39.87 16.8018 40.47 16.4518C41.07 16.1018 42.74 16.5519 43.6 18.2419C44.01 19.2419 44.4 20.2418 44.76 21.3418C45.1581 22.551 45.4821 23.7833 45.73 25.0319Z" fill="#FF8C64"/>
<path d="M45.73 25.0319L42.51 26.7219C42.38 26.3019 42.25 25.8819 42.11 25.4519L45.73 25.0319Z" fill="#122275"/>
<path d="M46.51 24.8319L41.21 26.3619L39.47 18.8319C39.3088 18.21 39.3854 17.5505 39.6847 16.9821C39.984 16.4137 40.4846 15.9775 41.0886 15.7587C41.6925 15.5398 42.3564 15.5542 42.9503 15.7989C43.5442 16.0436 44.0255 16.5011 44.3 17.0819C45.04 19.6685 45.7767 22.2519 46.51 24.8319Z" fill="#FFC5D2"/>
<path d="M49.1 18.1219L50.25 18.4019C50.454 21.9093 49.996 25.4238 48.9 28.7619C48.7 29.3419 48.49 29.9119 48.27 30.4519C48.1681 30.7645 48.0027 31.0527 47.7843 31.2985C47.5659 31.5443 47.2991 31.7424 47.0006 31.8804C46.7021 32.0184 46.3784 32.0933 46.0497 32.1004C45.7209 32.1075 45.3942 32.0467 45.09 31.9219C44.7597 31.7791 44.4617 31.5708 44.2142 31.3095C43.9667 31.0482 43.7747 30.7395 43.65 30.4019C44.16 29.3419 44.59 28.5119 44.86 28.0119C46.97 24.0119 48.18 22.5719 48.86 19.7819C48.9697 19.2332 49.0498 18.6791 49.1 18.1219Z" fill="#FF8C64"/>
<path d="M24.46 20.5219L23.34 20.9119C23.4624 24.4203 24.2461 27.8741 25.65 31.0919C25.9 31.6618 26.16 32.2019 26.42 32.7219C26.6517 33.2035 27.0301 33.5994 27.5008 33.8527C27.9715 34.106 28.5103 34.2037 29.04 34.1319C29.2839 34.0999 29.5188 34.0182 29.73 33.8919C29.9867 33.6962 30.1963 33.4456 30.3434 33.1583C30.4904 32.871 30.5713 32.5545 30.58 32.2319C30.2907 31.4598 29.9568 30.7052 29.58 29.9719C27.8 26.4519 25.94 25.3819 24.87 22.1419C24.7061 21.6091 24.5693 21.0684 24.46 20.5219Z" fill="#FF8C64"/>
<path d="M46.34 15.5619C46.34 15.4619 46.54 15.4619 46.62 15.4619C46.7 15.4619 46.85 15.4619 47.21 15.8219C47.395 15.9995 47.5593 16.1974 47.7 16.4119C47.89 16.5619 48.01 16.5419 48.08 16.5119C48.15 16.4819 48.41 16.2419 48.25 14.0119C48.25 14.0119 48.25 13.3019 48.18 12.6219C48.18 12.5319 47.92 11.4719 48.18 11.3319C48.2036 11.3211 48.2291 11.3155 48.255 11.3155C48.2809 11.3155 48.3065 11.3211 48.33 11.3319C48.5013 11.5833 48.5984 11.8779 48.61 12.1819C48.61 12.5319 48.66 12.9419 48.76 13.4419C48.829 13.7805 48.9192 14.1145 49.03 14.4419C49.0848 14.4626 49.1453 14.4626 49.2 14.4419C49.46 14.2619 49.32 13.5919 49.37 12.4419C49.37 11.9619 49.37 10.9519 49.67 10.9019C49.75 10.9019 49.84 10.9819 49.87 11.0219C50.24 11.4119 50.08 12.0219 49.99 12.7019C49.9299 13.3404 49.9299 13.9833 49.99 14.6219C50.12 14.0919 50.24 13.5319 50.36 12.9719C50.48 12.4119 50.55 12.0319 50.63 11.5819C50.7107 11.552 50.7994 11.552 50.88 11.5819C51.07 11.6919 51.13 12.0519 50.98 12.4519L50.59 14.9519C50.7098 15.0092 50.8267 15.0726 50.94 15.1419C51.1311 14.6626 51.2915 14.1716 51.42 13.6719C51.52 13.3019 51.6 12.9119 51.75 12.9119C51.9 12.9119 51.94 13.1119 51.94 13.1319C52.0479 13.4256 52.0479 13.7481 51.94 14.0419C51.62 14.8819 51.41 15.4919 51.37 15.6219C51.33 15.7519 51.3 15.8819 51.3 15.8819C51.3023 15.9185 51.3023 15.9552 51.3 15.9919C51.3 15.9919 51.3 16.1219 51.3 16.2319C51.3 16.3419 51.3 16.4219 51.3 16.5619C51.3097 16.675 51.3097 16.7887 51.3 16.9019C51.1786 17.8329 50.8979 18.7361 50.47 19.5719C50.17 20.0819 50 20.1719 49.86 20.2019C49.7039 20.2165 49.5466 20.1943 49.4007 20.137C49.2548 20.0797 49.1244 19.9889 49.02 19.8719C49.02 19.5219 49.08 19.1819 49.11 18.8719C48.73 18.4019 47.4 17.1119 47.4 17.1119C46.42 16.2819 46.29 15.6819 46.34 15.5619Z" fill="#FF8C64"/>
<path d="M25.74 38.6619C25.82 38.7619 25.74 38.9319 25.74 39.0119C25.74 39.0919 25.59 39.2519 25.05 39.4319C24.7651 39.5333 24.47 39.6037 24.17 39.6419C23.92 39.7519 23.86 39.8919 23.85 39.9819C23.84 40.0719 23.96 40.4719 26.38 41.4919C26.38 41.4919 27.15 41.8119 27.87 42.1519C27.98 42.1519 29.22 42.4919 29.2 42.8819C29.1967 42.9419 29.1718 42.9987 29.13 43.0419C28.7883 43.0815 28.4423 43.0262 28.13 42.8819C27.6722 42.6884 27.205 42.5182 26.73 42.3719C26.3394 42.2597 25.9419 42.1729 25.54 42.1119C25.5023 42.1751 25.4848 42.2484 25.49 42.3219C25.55 42.6819 26.32 42.8919 27.49 43.5319C27.98 43.8019 29.02 44.3919 28.94 44.6719C28.94 44.7719 28.76 44.8019 28.7 44.8219C28.1 44.9919 27.51 44.4819 26.89 44.0519C26.2596 43.6313 25.5897 43.273 24.89 42.9819C25.529 43.1813 26.1405 43.4601 26.71 43.8119C27.1637 44.082 27.5892 44.3969 27.98 44.7519C28.0021 44.9071 27.9742 45.0653 27.9006 45.2037C27.8269 45.3421 27.7111 45.4535 27.57 45.5219C27.3894 45.6044 27.1835 45.613 26.9966 45.5457C26.8097 45.4784 26.6566 45.3406 26.57 45.1619L24.16 43.4219C24.243 43.4114 24.327 43.4114 24.41 43.4219C24.5243 43.4471 24.6321 43.4956 24.7268 43.5645C24.8214 43.6333 24.9008 43.7209 24.96 43.8219C25.3728 43.9956 25.7443 44.2546 26.05 44.5819C26.26 44.8119 26.47 45.0419 26.4 45.2619C26.33 45.4819 26.07 45.5619 25.98 45.5919C25.614 45.495 25.2588 45.3609 24.92 45.1919C24.2157 44.8269 23.5633 44.3695 22.98 43.8319L22.75 43.6419L22.64 43.5519L22.41 43.3919C22.26 43.2919 22.21 43.2819 22.07 43.2019C21.9526 43.135 21.8391 43.0616 21.73 42.9819C20.826 42.3565 20.0348 41.5821 19.39 40.6919C19.02 40.1119 19.01 39.8819 19.06 39.6919C19.17 39.2419 19.72 39.0419 19.85 38.9919C20.2 39.2019 20.54 39.4219 20.85 39.6319C21.55 39.4919 23.6 38.7819 23.6 38.7819C24.98 38.3719 25.64 38.5519 25.74 38.6619Z" fill="#FF8C64"/>
<path d="M32.98 18.8319C32.9623 19.016 32.8724 19.1856 32.73 19.3036C32.5876 19.4217 32.4042 19.4786 32.22 19.4619C30.72 19.3919 29.15 19.3619 27.51 19.3619H25.51C24.63 19.3619 23.78 19.3619 22.95 19.4419C22.768 19.4533 22.5886 19.3942 22.449 19.2769C22.3093 19.1596 22.2202 18.9931 22.2 18.8119C22.2076 18.7211 22.233 18.6328 22.2748 18.5519C22.3167 18.471 22.3741 18.3993 22.4438 18.3407C22.5136 18.2821 22.5942 18.2379 22.681 18.2107C22.7679 18.1834 22.8593 18.1736 22.95 18.1819C23.77 18.2319 24.62 18.2619 25.51 18.2919C26.19 18.2919 26.89 18.2919 27.6 18.2919C29.26 18.2919 30.82 18.2319 32.27 18.1519C32.4532 18.1517 32.6294 18.2224 32.7617 18.3491C32.8941 18.4758 32.9723 18.6488 32.98 18.8319Z" fill="white"/>
<path d="M25.44 18.3519V19.4219C24.56 19.4219 23.71 19.4219 22.88 19.5019C22.698 19.5132 22.5186 19.4542 22.379 19.3369C22.2394 19.2196 22.1502 19.0531 22.13 18.8719C22.1375 18.7811 22.163 18.6928 22.2048 18.6119C22.2467 18.531 22.3041 18.4593 22.3738 18.4007C22.4436 18.3421 22.5242 18.2979 22.6111 18.2707C22.6979 18.2434 22.7893 18.2336 22.88 18.2419C23.7 18.2919 24.55 18.3219 25.44 18.3519Z" fill="#122275"/>
<path d="M24.56 20.9718L23.45 21.4218C23.1806 21.1279 22.9641 20.7896 22.81 20.4218C22.4189 19.5193 22.3483 18.5101 22.61 17.5618C22.7916 17.3607 23.0139 17.2005 23.2622 17.0919C23.5105 16.9832 23.779 16.9287 24.05 16.9318C24.39 16.9318 24.74 17.2118 25.44 17.7118C26.14 18.2118 26.08 18.2818 26.07 18.3118C26.06 18.3418 25.83 18.5118 24.82 18.4018C24.73 19.2718 24.65 20.1218 24.56 20.9718Z" fill="#FF8C64"/>
<path d="M37.48 3.83186C39.42 6.31186 41.4 11.9719 39.19 13.9619C38.9633 14.1898 38.6849 14.3597 38.3785 14.4572C38.0721 14.5547 37.7468 14.5768 37.43 14.5219C36.08 14.0719 35.97 11.0419 35.96 10.6419C35.87 8.37186 36.68 7.64186 36.04 6.64186C35.7086 6.18094 35.2403 5.83623 34.7017 5.65671C34.1631 5.47718 33.5817 5.47199 33.04 5.64186C32.73 5.83186 29.85 6.05186 29.58 5.72186C29.31 5.39186 29.73 4.86186 30.08 4.27186C30.67 3.27186 31.26 2.27186 32.18 2.19186C32.68 2.19186 32.72 2.42185 33.53 2.46185C34.34 2.50185 34.61 2.22186 35.17 2.22186C36.19 2.20186 36.98 3.19186 37.48 3.83186Z" fill="#3F469A"/>
<path d="M29.65 66.8319C29.6329 66.8306 29.6162 66.826 29.6009 66.8182C29.5856 66.8105 29.572 66.7998 29.5609 66.7868C29.5497 66.7738 29.5412 66.7587 29.5359 66.7424C29.5306 66.7261 29.5286 66.7089 29.53 66.6919C29.5598 66.5332 29.5598 66.3705 29.53 66.2119C29.4681 65.9868 29.3512 65.7806 29.19 65.6119L29.08 65.4719C28.79 65.0619 28.82 64.4719 29.17 63.5719C29.1755 63.5565 29.1841 63.5423 29.1952 63.5304C29.2064 63.5184 29.2199 63.5089 29.2349 63.5023C29.2499 63.4958 29.266 63.4923 29.2824 63.4923C29.2987 63.4922 29.3149 63.4954 29.33 63.5019C29.3464 63.5059 29.3616 63.5136 29.3745 63.5245C29.3875 63.5354 29.3977 63.5491 29.4045 63.5646C29.4112 63.58 29.4144 63.5969 29.4136 63.6137C29.4128 63.6306 29.4081 63.6471 29.4 63.6619C29.09 64.4319 29.05 64.9919 29.29 65.3219C29.29 65.3219 29.35 65.4019 29.38 65.4519C29.5662 65.6491 29.7002 65.8897 29.77 66.1519C29.8099 66.3398 29.8099 66.534 29.77 66.7219C29.77 66.7372 29.7669 66.7524 29.7608 66.7664C29.7546 66.7804 29.7456 66.793 29.7343 66.8034C29.723 66.8138 29.7097 66.8216 29.6952 66.8265C29.6806 66.8314 29.6652 66.8332 29.65 66.8319Z" fill="#EA522F"/>
</svg>
