<svg width="78" height="74" viewBox="0 0 78 74" fill="none" xmlns="http://www.w3.org/2000/svg">
<path d="M25.94 66.0921L20.26 64.0921C19.78 63.7621 19.26 63.3321 19.37 62.8921C19.37 62.7221 19.51 62.6621 19.62 62.4721C19.7168 62.2445 19.7667 61.9996 19.7667 61.7521C19.7667 61.5047 19.7168 61.2598 19.62 61.0321C19.34 60.0321 20.08 52.7421 22.74 43.8521C24.0654 39.4289 25.7097 35.1076 27.66 30.9221C27.79 30.0821 28.84 24.1321 34.28 21.3521C40.65 18.0921 49.59 20.9321 52.73 26.9321C55.17 31.6121 53.15 36.4321 52.73 37.3822C49.48 47.5722 48.23 53.5821 47.81 57.3821C47.81 57.3821 47.45 60.6121 44.44 68.1821C44.1746 68.9076 43.7588 69.5687 43.22 70.1222C42.8683 70.456 42.479 70.748 42.06 70.9921C40.1557 70.8719 38.2889 70.4078 36.55 69.6222C35.5153 69.1518 34.5361 68.5683 33.63 67.8821C33.4373 67.6754 33.2847 67.4347 33.18 67.1721C32.9978 66.5895 33.0334 65.9606 33.28 65.4021C34.04 63.4622 33.66 56.0621 33.17 56.0121C32.68 55.9622 32.8 63.9521 28.48 65.7621C27.6735 66.0798 26.8009 66.1931 25.94 66.0921Z" fill="#FFC5D2"/>
<path d="M36.15 30.4121C31.6199 33.784 26.4831 36.2522 21.02 37.6821L19.93 37.9421L16.62 34.2221C16.3937 33.8979 16.2621 33.517 16.24 33.1221C16.2711 32.7532 16.3756 32.3942 16.5473 32.0663C16.719 31.7383 16.9545 31.4479 17.24 31.2121C22.66 25.7121 22.39 24.5421 26.04 22.6221C29.919 20.6236 34.2811 19.7539 38.63 20.1121L36.15 30.4121Z" fill="#FFC5D2"/>
<path d="M19.93 37.9422C19.6562 38.5003 19.2678 38.9944 18.79 39.3922C18.4135 39.7089 17.9923 39.9684 17.54 40.1622L15.99 38.2522L13.99 35.7722C14.3602 35.4329 14.7659 35.1346 15.2 34.8822C15.6579 34.61 16.1441 34.3887 16.65 34.2222L19.93 37.9422Z" fill="#5B98E8"/>
<path d="M62.31 46.5422L56.73 47.4221C56.5355 47.3454 56.3481 47.2517 56.17 47.1422C55.4247 46.6785 54.8305 46.0079 54.46 45.2122C53.94 44.2122 52.33 41.0322 50.3 36.6122L47.75 21.9921C50.85 23.4693 53.6662 25.4799 56.07 27.9322C56.07 27.9322 60.14 32.1322 62.92 41.0422C63.4716 42.4504 63.4893 44.0117 62.97 45.4322C62.7978 45.8286 62.5761 46.2016 62.31 46.5422Z" fill="#FFC5D2"/>
<path d="M63.02 48.9121L56.87 49.7322C56.77 48.9022 56.66 48.0822 56.56 47.2622L62.31 46.5422C62.55 47.3322 62.78 48.1221 63.02 48.9121Z" fill="#5B98E8"/>
<path d="M25.16 68.1721L19.96 66.2322C19.96 66.0622 19.96 65.8722 19.96 65.6822C20.0159 65.1145 20.1332 64.5545 20.31 64.0122C21.7472 64.4177 23.1568 64.9154 24.53 65.5022C25.03 65.7222 25.53 65.9421 25.98 66.1721C26.0661 66.44 26.0856 66.7248 26.0368 67.0018C25.988 67.2789 25.8724 67.5399 25.7 67.7622C25.5534 67.938 25.3688 68.0782 25.16 68.1721Z" fill="#5B98E8"/>
<path d="M39.56 72.7021L34.36 70.8222C34.3503 70.6356 34.3503 70.4487 34.36 70.2622C34.4062 69.693 34.5238 69.1319 34.71 68.5921C36.1425 69.0023 37.5485 69.4999 38.92 70.0822C39.43 70.3022 39.92 70.5222 40.38 70.7522C40.4606 71.0213 40.4763 71.3056 40.4259 71.582C40.3755 71.8583 40.2604 72.1188 40.09 72.3421C39.9411 72.4987 39.7604 72.6214 39.56 72.7021Z" fill="#5B98E8"/>
<path d="M55.55 15.0422C55.69 17.9822 55.87 22.0422 52.7 25.0422C49.53 28.0422 45.11 27.7922 44.2 27.7522C40.06 27.5622 35.7 25.3622 33.74 21.5222C32.7722 19.5265 32.4573 17.2768 32.84 15.0922C33.01 13.6922 33.41 10.4822 35.63 9.47215C36.25 9.19215 36.34 9.38215 37.05 9.12215C39.39 8.25215 39.47 5.80216 40.93 4.42216C43.1 2.37216 48.25 2.75216 51.43 4.86216C55.22 7.33216 55.41 11.8222 55.55 15.0422Z" fill="#FFC5D2"/>
<path d="M43.22 4.27215C43.51 4.65215 44.22 4.40215 44.32 4.61215C44.59 5.15215 40.55 7.47215 38.63 8.61215L37.51 9.24215C36.4621 8.92809 35.5497 8.27171 34.9188 7.37797C34.288 6.48422 33.975 5.40474 34.03 4.31215C34.1614 3.16505 34.696 2.10194 35.5386 1.3125C36.3811 0.523069 37.4768 0.0586652 38.63 0.0021519C41.2 -0.0778481 43.47 2.09215 43.29 3.27215C43.22 3.55215 42.96 3.96215 43.22 4.27215Z" fill="#FFC5D2"/>
<path d="M54.87 8.52216C54.37 8.52216 54.14 7.88216 53.87 7.94216C53.26 8.08216 53.87 12.4822 54.14 14.5722C54.21 15.0822 54.27 15.5022 54.31 15.7822C55.2866 16.3503 56.4147 16.6033 57.5404 16.5067C58.6661 16.4101 59.7346 15.9685 60.6 15.2422C61.4572 14.5076 62.0063 13.4772 62.1379 12.356C62.2695 11.2348 61.9739 10.1052 61.31 9.19216C59.77 7.26216 56.54 6.95215 55.67 7.82215C55.45 8.06215 55.27 8.50216 54.87 8.52216Z" fill="#FFC5D2"/>
<g style="mix-blend-mode:multiply">
<path d="M51.88 12.3922C53.21 15.3922 53.77 20.8322 49.88 23.6822C45.42 26.9722 37.46 25.0322 35.55 20.2922C33.64 15.5522 38.42 10.3422 41.02 9.60216C41.29 9.52216 42.1 9.33216 43.26 8.90216C45.4 8.12216 45.72 7.63215 46.48 7.54215C48.49 7.29215 50.85 10.0822 51.88 12.3922Z" fill="#FFC5D2"/>
</g>
<path d="M37.51 23.8222C37.4873 23.8298 37.4627 23.8298 37.44 23.8222C37.37 23.7722 37.23 23.6622 37.05 23.5022C37.0388 23.491 37.03 23.4778 37.0239 23.4632C37.0178 23.4486 37.0147 23.4329 37.0147 23.4172C37.0147 23.4014 37.0178 23.3857 37.0239 23.3711C37.03 23.3565 37.0388 23.3433 37.05 23.3322C37.0752 23.311 37.1071 23.2994 37.14 23.2994C37.1729 23.2994 37.2048 23.311 37.23 23.3322C37.3513 23.4419 37.4782 23.5453 37.61 23.6422C37.6312 23.6674 37.6428 23.6992 37.6428 23.7322C37.6428 23.7651 37.6312 23.7969 37.61 23.8222C37.5775 23.8328 37.5425 23.8328 37.51 23.8222Z" fill="white"/>
<path d="M47.29 25.8222C47.2614 25.8226 47.2335 25.8127 47.2115 25.7944C47.1895 25.776 47.1748 25.7504 47.17 25.7222C47.1672 25.7056 47.1678 25.6887 47.1719 25.6724C47.1761 25.6561 47.1835 25.6409 47.1939 25.6277C47.2043 25.6145 47.2173 25.6037 47.2321 25.5958C47.2469 25.588 47.2633 25.5833 47.28 25.5822C47.6173 25.537 47.9513 25.4702 48.28 25.3822C48.2958 25.3777 48.3123 25.3765 48.3285 25.3787C48.3448 25.3808 48.3604 25.3863 48.3745 25.3947C48.3885 25.4031 48.4007 25.4144 48.4102 25.4277C48.4198 25.441 48.4265 25.4561 48.43 25.4722C48.4345 25.4879 48.4357 25.5044 48.4335 25.5207C48.4313 25.5369 48.4259 25.5526 48.4174 25.5666C48.409 25.5807 48.3978 25.5929 48.3845 25.6024C48.3711 25.612 48.356 25.6187 48.34 25.6222C48.0124 25.7147 47.678 25.7815 47.34 25.8222H47.29ZM49.23 25.3022C49.2043 25.3022 49.1793 25.2946 49.1579 25.2803C49.1365 25.2661 49.1199 25.2458 49.11 25.2222C49.1019 25.2074 49.0972 25.1909 49.0964 25.174C49.0956 25.1572 49.0987 25.1403 49.1055 25.1249C49.1123 25.1094 49.1225 25.0957 49.1354 25.0848C49.1484 25.0739 49.1636 25.0662 49.18 25.0622C49.4582 24.9348 49.7286 24.7912 49.99 24.6322H50.05C50.0752 24.6096 50.1083 24.598 50.1421 24.5999C50.1758 24.6018 50.2075 24.617 50.23 24.6422C50.2526 24.6674 50.2641 24.7005 50.2623 24.7342C50.2604 24.768 50.2452 24.7996 50.22 24.8222H50.16C49.8885 24.9846 49.6081 25.1315 49.32 25.2622L49.23 25.3022ZM50.92 24.2322C50.9059 24.2385 50.8905 24.2418 50.875 24.2418C50.8595 24.2418 50.8441 24.2385 50.83 24.2322C50.8188 24.221 50.8099 24.2078 50.8039 24.1932C50.7978 24.1786 50.7947 24.1629 50.7947 24.1472C50.7947 24.1314 50.7978 24.1157 50.8039 24.1011C50.8099 24.0865 50.8188 24.0733 50.83 24.0622C51.0774 23.8431 51.3081 23.6058 51.52 23.3522C51.5412 23.327 51.5716 23.3112 51.6044 23.3084C51.6372 23.3056 51.6698 23.3159 51.695 23.3372C51.7202 23.3584 51.7359 23.3887 51.7387 23.4215C51.7416 23.4544 51.7312 23.487 51.71 23.5122C51.4939 23.7747 51.2565 24.0189 51 24.2422C50.9689 24.2339 50.941 24.2165 50.92 24.1922V24.2322ZM36.41 22.8222C36.3959 22.8285 36.3805 22.8318 36.365 22.8318C36.3495 22.8318 36.3342 22.8285 36.32 22.8222C36.0897 22.5738 35.8728 22.3135 35.67 22.0422C35.6468 22.0179 35.6338 21.9857 35.6338 21.9522C35.6338 21.9186 35.6468 21.8864 35.67 21.8622C35.6942 21.8389 35.7265 21.826 35.76 21.826C35.7936 21.826 35.8258 21.8389 35.85 21.8622C36.0426 22.1266 36.2496 22.3804 36.47 22.6222C36.4828 22.6334 36.493 22.6473 36.5 22.6628C36.507 22.6783 36.5106 22.6951 36.5106 22.7122C36.5106 22.7292 36.507 22.746 36.5 22.7615C36.493 22.777 36.4828 22.7909 36.47 22.8022C36.4524 22.8146 36.4315 22.8215 36.41 22.8222ZM52.21 22.6922H52.14C52.1288 22.681 52.1199 22.6678 52.1139 22.6532C52.1078 22.6386 52.1047 22.6229 52.1047 22.6072C52.1047 22.5914 52.1078 22.5757 52.1139 22.5611C52.1199 22.5466 52.1288 22.5333 52.14 22.5222C52.3 22.2522 52.45 21.9622 52.6 21.6422C52.6065 21.6276 52.6158 21.6145 52.6273 21.6037C52.6389 21.5928 52.6526 21.5843 52.6674 21.5787C52.6823 21.5731 52.6982 21.5705 52.7141 21.5711C52.73 21.5717 52.7456 21.5755 52.76 21.5822C52.79 21.5972 52.8131 21.6234 52.8242 21.6551C52.8354 21.6868 52.8339 21.7216 52.82 21.7522C52.6856 22.0633 52.5285 22.3641 52.35 22.6522C52.3322 22.6675 52.31 22.6767 52.2867 22.6785C52.2633 22.6803 52.2399 22.6746 52.22 22.6622L52.21 22.6922ZM35.21 21.2022C35.1877 21.2045 35.1653 21.2001 35.1456 21.1893C35.126 21.1786 35.1101 21.1622 35.1 21.1422C34.9331 20.8422 34.7861 20.5315 34.66 20.2122C34.6536 20.1971 34.6503 20.1809 34.6504 20.1646C34.6505 20.1482 34.6539 20.132 34.6605 20.117C34.667 20.1021 34.6766 20.0886 34.6885 20.0774C34.7005 20.0663 34.7146 20.0577 34.73 20.0522C34.7606 20.0419 34.7939 20.0433 34.8235 20.0563C34.8531 20.0692 34.8768 20.0927 34.89 20.1222C35.0116 20.4272 35.1519 20.7244 35.31 21.0122C35.3212 21.0233 35.3301 21.0365 35.3361 21.0511C35.3422 21.0657 35.3453 21.0814 35.3453 21.0972C35.3453 21.1129 35.3422 21.1286 35.3361 21.1432C35.3301 21.1578 35.3212 21.171 35.31 21.1822C35.2962 21.1914 35.2796 21.1955 35.2632 21.1937C35.2467 21.1918 35.2314 21.1842 35.22 21.1722L35.21 21.2022ZM53.01 20.8722C52.9 20.8722 52.87 20.7622 52.89 20.7022L52.94 20.5722C53.03 20.3022 53.12 20.0222 53.19 19.7522C53.1935 19.7361 53.2002 19.721 53.2097 19.7077C53.2193 19.6944 53.2315 19.6831 53.2455 19.6747C53.2596 19.6663 53.2752 19.6608 53.2915 19.6586C53.3077 19.6565 53.3242 19.6577 53.34 19.6622C53.3698 19.6732 53.395 19.6941 53.4113 19.7214C53.4277 19.7486 53.4343 19.7806 53.43 19.8122C53.3585 20.0966 53.2717 20.377 53.17 20.6522V20.7822C53.1535 20.7993 53.1329 20.812 53.1102 20.819C53.0875 20.826 53.0633 20.8271 53.04 20.8222L53.01 20.8722ZM34.47 19.3422C34.4414 19.3426 34.4135 19.3327 34.3915 19.3144C34.3695 19.296 34.3548 19.2704 34.35 19.2422C34.2593 18.9151 34.1991 18.5803 34.17 18.2422C34.1672 18.2256 34.1678 18.2087 34.1719 18.1924C34.1761 18.1761 34.1835 18.1609 34.1939 18.1477C34.2043 18.1345 34.2173 18.1237 34.2321 18.1158C34.2469 18.108 34.2633 18.1033 34.28 18.1022C34.2965 18.0993 34.3135 18.1 34.3297 18.1041C34.346 18.1082 34.3612 18.1157 34.3744 18.1261C34.3876 18.1364 34.3985 18.1495 34.4063 18.1643C34.4142 18.1791 34.4189 18.1954 34.42 18.2122C34.449 18.5496 34.5058 18.8841 34.59 19.2122C34.5963 19.2439 34.5906 19.2768 34.574 19.3046C34.5574 19.3323 34.531 19.3528 34.5 19.3622L34.47 19.3422ZM53.47 18.9222C53.38 18.9222 53.33 18.8522 53.34 18.7822C53.34 18.4622 53.41 18.1322 53.42 17.7822C53.42 17.7503 53.4326 17.7198 53.4551 17.6973C53.4776 17.6748 53.5082 17.6622 53.54 17.6622C53.5745 17.6622 53.6075 17.6758 53.6319 17.7002C53.6563 17.7246 53.67 17.7577 53.67 17.7922C53.67 18.1322 53.67 18.4722 53.59 18.7922C53.5885 18.8123 53.5823 18.8319 53.5718 18.8493C53.5614 18.8666 53.5471 18.8813 53.53 18.8922L53.47 18.9222ZM34.29 17.3222C34.2729 17.3222 34.256 17.3188 34.2403 17.3123C34.2245 17.3057 34.2102 17.2962 34.1981 17.2841C34.186 17.272 34.1764 17.2577 34.1699 17.2419C34.1634 17.2261 34.16 17.2092 34.16 17.1922C34.1729 16.8566 34.2096 16.5225 34.27 16.1922C34.2723 16.1752 34.2781 16.159 34.2871 16.1445C34.2962 16.1301 34.3082 16.1177 34.3224 16.1082C34.3366 16.0988 34.3526 16.0924 34.3694 16.0897C34.3863 16.0869 34.4035 16.0877 34.42 16.0922C34.4517 16.1014 34.4791 16.1215 34.4973 16.1489C34.5156 16.1764 34.5237 16.2094 34.52 16.2422C34.4571 16.5721 34.4203 16.9064 34.41 17.2422C34.4001 17.2658 34.3835 17.2861 34.3621 17.3003C34.3408 17.3146 34.3157 17.3222 34.29 17.3222ZM53.57 16.8922C53.5382 16.8922 53.5076 16.8795 53.4851 16.857C53.4626 16.8345 53.45 16.804 53.45 16.7722C53.45 16.4622 53.38 16.1422 53.33 15.7722C53.3271 15.7564 53.3275 15.7402 53.331 15.7245C53.3345 15.7089 53.3411 15.6941 53.3504 15.681C53.3598 15.668 53.3716 15.6569 53.3853 15.6485C53.3989 15.6401 53.4141 15.6346 53.43 15.6322C53.4631 15.6262 53.4972 15.6333 53.5251 15.6519C53.5531 15.6706 53.5728 15.6993 53.58 15.7322C53.63 16.1022 53.67 16.4322 53.7 16.7322C53.7004 16.7661 53.6884 16.7989 53.6663 16.8247C53.6442 16.8504 53.6136 16.8673 53.58 16.8722L53.57 16.8922ZM34.64 15.3522C34.54 15.3522 34.5 15.2522 34.52 15.1822C34.6328 14.862 34.763 14.5482 34.91 14.2422C34.9152 14.2266 34.9238 14.2124 34.9352 14.2007C34.9465 14.1889 34.9604 14.1798 34.9757 14.174C34.991 14.1683 35.0075 14.166 35.0238 14.1674C35.0401 14.1688 35.0559 14.1739 35.07 14.1822C35.0858 14.1885 35.1001 14.1982 35.1119 14.2105C35.1237 14.2228 35.1328 14.2375 35.1385 14.2536C35.1441 14.2697 35.1463 14.2868 35.1449 14.3038C35.1434 14.3208 35.1383 14.3373 35.13 14.3522C34.9879 14.6475 34.8643 14.9514 34.76 15.2622C34.7518 15.2877 34.7358 15.3101 34.7143 15.3262C34.6928 15.3423 34.6669 15.3514 34.64 15.3522ZM53.28 14.9022C53.2501 14.903 53.2209 14.8935 53.1972 14.8752C53.1736 14.857 53.1569 14.8312 53.15 14.8022C53.09 14.4722 53.01 14.1522 52.93 13.8022C52.9254 13.7871 52.9238 13.7712 52.9253 13.7555C52.9268 13.7397 52.9314 13.7245 52.9389 13.7105C52.9463 13.6966 52.9564 13.6843 52.9686 13.6743C52.9808 13.6642 52.9949 13.6567 53.01 13.6522C53.0419 13.6425 53.0762 13.6454 53.106 13.6603C53.1357 13.6751 53.1587 13.7009 53.17 13.7322C53.26 14.0622 53.33 14.3922 53.4 14.7322C53.406 14.7652 53.3989 14.7993 53.3802 14.8273C53.3616 14.8553 53.3328 14.8749 53.3 14.8822L53.28 14.9022ZM35.51 13.5422H35.44C35.4288 13.531 35.4199 13.5178 35.4139 13.5032C35.4078 13.4886 35.4047 13.4729 35.4047 13.4572C35.4047 13.4414 35.4078 13.4257 35.4139 13.4111C35.4199 13.3965 35.4288 13.3833 35.44 13.3722C35.6194 13.0836 35.8165 12.8064 36.03 12.5422C36.0499 12.517 36.079 12.5007 36.1109 12.4969C36.1428 12.4932 36.1748 12.5023 36.2 12.5222C36.2252 12.542 36.2415 12.5711 36.2452 12.603C36.249 12.6349 36.2399 12.667 36.22 12.6922C36.02 12.9522 35.83 13.2222 35.65 13.5022C35.6355 13.5247 35.6133 13.5413 35.5876 13.5486C35.5618 13.556 35.5342 13.5537 35.51 13.5422ZM52.75 12.9622C52.7243 12.9622 52.6992 12.9546 52.6779 12.9403C52.6565 12.9261 52.6399 12.9058 52.63 12.8822C52.52 12.5722 52.4 12.2522 52.26 11.9522C52.2497 11.9216 52.2512 11.8882 52.2641 11.8586C52.2771 11.8291 52.3005 11.8054 52.33 11.7922C52.3444 11.7855 52.36 11.7817 52.3759 11.7811C52.3918 11.7805 52.4077 11.7831 52.4225 11.7887C52.4374 11.7943 52.4511 11.8028 52.4626 11.8137C52.4742 11.8245 52.4835 11.8376 52.49 11.8522C52.63 12.1622 52.75 12.4822 52.87 12.8022C52.8774 12.834 52.8735 12.8674 52.8589 12.8966C52.8443 12.9258 52.8199 12.949 52.79 12.9622H52.75ZM36.75 11.9622C36.736 11.9692 36.7206 11.9728 36.705 11.9728C36.6894 11.9728 36.674 11.9692 36.66 11.9622C36.6474 11.9518 36.6373 11.9389 36.6304 11.9242C36.6234 11.9095 36.6198 11.8934 36.6198 11.8772C36.6198 11.8609 36.6234 11.8448 36.6304 11.8301C36.6373 11.8154 36.6474 11.8025 36.66 11.7922C36.85 11.5822 37.02 11.4322 37.12 11.3322L37.38 11.0822C37.4052 11.061 37.4371 11.0494 37.47 11.0494C37.5029 11.0494 37.5348 11.061 37.56 11.0822C37.5712 11.0933 37.5801 11.1066 37.5861 11.1211C37.5922 11.1357 37.5953 11.1514 37.5953 11.1672C37.5953 11.1829 37.5922 11.1986 37.5861 11.2132C37.5801 11.2278 37.5712 11.241 37.56 11.2522L37.33 11.4822C37.2 11.6022 37.04 11.7522 36.85 11.9522C36.8351 11.961 36.8184 11.9664 36.8011 11.9681C36.7838 11.9699 36.7664 11.9678 36.75 11.9622ZM51.94 11.1222C51.9177 11.1245 51.8953 11.1201 51.8756 11.1093C51.856 11.0986 51.84 11.0822 51.83 11.0622C51.67 10.7622 51.5 10.4722 51.32 10.2022C51.2996 10.1785 51.2884 10.1484 51.2884 10.1172C51.2884 10.0859 51.2996 10.0558 51.32 10.0322C51.3312 10.021 51.3444 10.0121 51.359 10.006C51.3736 9.99998 51.3892 9.99686 51.405 9.99686C51.4208 9.99686 51.4364 9.99998 51.451 10.006C51.4656 10.0121 51.4788 10.021 51.49 10.0322C51.67 10.3022 51.85 10.6022 52.01 10.9022C52.0247 10.9316 52.0277 10.9654 52.0185 10.997C52.0092 11.0285 51.9883 11.0554 51.96 11.0722L51.94 11.1222ZM38.22 10.5622C38.2058 10.5685 38.1905 10.5718 38.175 10.5718C38.1595 10.5718 38.1442 10.5685 38.13 10.5622C38.1068 10.5379 38.0938 10.5057 38.0938 10.4722C38.0938 10.4386 38.1068 10.4064 38.13 10.3822C38.42 10.1222 38.66 9.90215 38.89 9.71215C38.9142 9.68893 38.9465 9.67596 38.98 9.67596C39.0136 9.67596 39.0458 9.68893 39.07 9.71215C39.0812 9.7233 39.0901 9.73655 39.0961 9.75114C39.1022 9.76572 39.1053 9.78136 39.1053 9.79715C39.1053 9.81295 39.1022 9.82859 39.0961 9.84317C39.0901 9.85776 39.0812 9.87101 39.07 9.88215C38.84 10.0722 38.61 10.2822 38.33 10.5522L38.22 10.5622ZM50.89 9.43215C50.8705 9.43256 50.8513 9.42822 50.8338 9.41951C50.8164 9.4108 50.8014 9.39798 50.79 9.38215C50.6006 9.10832 50.397 8.84463 50.18 8.59215C50.1588 8.56694 50.1472 8.53507 50.1472 8.50215C50.1472 8.46924 50.1588 8.43737 50.18 8.41215C50.2042 8.38893 50.2364 8.37596 50.27 8.37596C50.3035 8.37596 50.3358 8.38893 50.36 8.41215C50.55 8.65215 50.76 8.91215 50.97 9.21215C50.9932 9.23636 51.0062 9.26861 51.0062 9.30215C51.0062 9.3357 50.9932 9.36795 50.97 9.39215L50.89 9.43215ZM39.78 9.30215C39.7583 9.30138 39.737 9.29556 39.7179 9.28515C39.6988 9.27473 39.6824 9.26001 39.67 9.24215C39.6514 9.21774 39.6412 9.18787 39.6412 9.15715C39.6412 9.12643 39.6514 9.09656 39.67 9.07215C39.9621 8.88497 40.274 8.7307 40.6 8.61215C40.6318 8.60473 40.6652 8.60866 40.6945 8.62327C40.7237 8.63788 40.7469 8.66225 40.76 8.69215C40.7662 8.70785 40.7691 8.72468 40.7683 8.74155C40.7676 8.75842 40.7633 8.77494 40.7558 8.79004C40.7482 8.80514 40.7376 8.81848 40.7245 8.82918C40.7115 8.83989 40.6963 8.84772 40.68 8.85215C40.3732 8.95861 40.0809 9.10307 39.81 9.28215L39.78 9.30215ZM41.67 8.70215C41.6534 8.70354 41.6367 8.70146 41.621 8.69606C41.6053 8.69065 41.5908 8.68203 41.5786 8.67075C41.5664 8.65946 41.5566 8.64576 41.55 8.63051C41.5433 8.61526 41.54 8.59879 41.54 8.58215C41.54 8.54768 41.5537 8.51461 41.5781 8.49023C41.6024 8.46585 41.6355 8.45215 41.67 8.45215C41.9916 8.46003 42.3123 8.41614 42.62 8.32215C42.6518 8.31247 42.6862 8.31538 42.7159 8.33026C42.7457 8.34514 42.7686 8.37087 42.78 8.40215C42.7892 8.4353 42.7849 8.47076 42.7681 8.50075C42.7512 8.53075 42.7231 8.55283 42.69 8.56215C42.3654 8.6579 42.0284 8.70508 41.69 8.70215H41.67ZM43.53 8.08215C43.5142 8.08876 43.4972 8.09215 43.48 8.09215C43.4628 8.09215 43.4458 8.08876 43.43 8.08215C43.4088 8.05694 43.3972 8.02507 43.3972 7.99215C43.3972 7.95924 43.4088 7.92737 43.43 7.90215C43.5413 7.79278 43.6449 7.67584 43.74 7.55215C43.8271 7.42787 43.9241 7.31083 44.03 7.20215L44.09 7.15215C44.1142 7.12893 44.1464 7.11596 44.18 7.11596C44.2135 7.11596 44.2458 7.12893 44.27 7.15215C44.2912 7.17737 44.3028 7.20924 44.3028 7.24215C44.3028 7.27507 44.2912 7.30694 44.27 7.33215V7.38215C44.1738 7.4834 44.0836 7.59025 44 7.70215C43.8981 7.8417 43.7844 7.97219 43.66 8.09215C43.6491 8.10244 43.6361 8.11037 43.622 8.11546C43.6078 8.12055 43.5928 8.12269 43.5779 8.12175C43.5629 8.12082 43.5482 8.11682 43.5348 8.11001C43.5214 8.1032 43.5096 8.09372 43.5 8.08215H43.53ZM49.61 7.89215C49.5961 7.89919 49.5806 7.90285 49.565 7.90285C49.5494 7.90285 49.5339 7.89919 49.52 7.89215C49.2877 7.6589 49.0369 7.44487 48.77 7.25215C48.7588 7.24101 48.7499 7.22776 48.7439 7.21317C48.7378 7.19859 48.7347 7.18295 48.7347 7.16715C48.7347 7.15136 48.7378 7.13572 48.7439 7.12114C48.7499 7.10655 48.7588 7.0933 48.77 7.08215C48.7942 7.05893 48.8265 7.04596 48.86 7.04596C48.8936 7.04596 48.9258 7.05893 48.95 7.08215C49.2236 7.2816 49.4811 7.50229 49.72 7.74215C49.7432 7.76636 49.7562 7.79861 49.7562 7.83215C49.7562 7.8657 49.7432 7.89795 49.72 7.92215C49.7095 7.93117 49.697 7.93764 49.6836 7.94105C49.6702 7.94446 49.6561 7.94473 49.6426 7.94182C49.629 7.93892 49.6163 7.93293 49.6055 7.92431C49.5946 7.9157 49.5859 7.90469 49.58 7.89215H49.61ZM45 6.82215C44.9743 6.82215 44.9492 6.81456 44.9279 6.80032C44.9065 6.78608 44.8899 6.76585 44.88 6.74215C44.8718 6.7115 44.8743 6.67897 44.887 6.6499C44.8997 6.62083 44.9219 6.59694 44.95 6.58215C45.2717 6.4557 45.6075 6.36841 45.95 6.32215C45.9665 6.31932 45.9835 6.31998 45.9998 6.3241C46.016 6.32822 46.0312 6.3357 46.0444 6.34607C46.0576 6.35643 46.0685 6.36945 46.0764 6.38428C46.0842 6.39911 46.0888 6.41542 46.09 6.43215C46.0929 6.44794 46.0925 6.46413 46.089 6.47978C46.0855 6.49543 46.0789 6.51022 46.0696 6.52327C46.0603 6.53632 46.0484 6.54737 46.0347 6.55577C46.0211 6.56417 46.0058 6.56974 45.99 6.57215C45.6684 6.61531 45.3529 6.69585 45.05 6.81215L45 6.82215ZM47.94 6.82215C47.6219 6.68843 47.2841 6.60737 46.94 6.58215C46.9073 6.57719 46.8777 6.55995 46.8573 6.53394C46.8368 6.50793 46.8271 6.47511 46.83 6.44215C46.8312 6.42638 46.8356 6.411 46.8429 6.39692C46.8501 6.38284 46.86 6.37032 46.8721 6.3601C46.8842 6.34987 46.8982 6.34214 46.9133 6.33734C46.9284 6.33255 46.9442 6.33079 46.96 6.33215C47.3051 6.35834 47.6432 6.44287 47.96 6.58215C47.9754 6.58766 47.9895 6.59626 48.0015 6.60742C48.0134 6.61858 48.023 6.63206 48.0295 6.64705C48.0361 6.66203 48.0395 6.6782 48.0396 6.69455C48.0397 6.71091 48.0364 6.72711 48.03 6.74215C48.001 6.75287 47.969 6.75287 47.94 6.74215V6.82215Z" fill="white"/>
<path d="M46.22 25.8222H45.76C45.7434 25.8222 45.7269 25.8188 45.7116 25.8122C45.6964 25.8055 45.6827 25.7958 45.6714 25.7836C45.6601 25.7713 45.6515 25.7569 45.6461 25.7412C45.6407 25.7254 45.6386 25.7087 45.64 25.6922C45.6399 25.6755 45.6433 25.6591 45.65 25.6438C45.6566 25.6285 45.6664 25.6148 45.6786 25.6036C45.6908 25.5923 45.7053 25.5837 45.721 25.5783C45.7367 25.5728 45.7534 25.5708 45.77 25.5722H46.22C46.33 25.5722 46.39 25.6222 46.39 25.6922C46.391 25.7132 46.3869 25.7341 46.3781 25.7532C46.3692 25.7723 46.3558 25.789 46.3391 25.8018C46.3224 25.8146 46.3028 25.8231 46.2821 25.8267C46.2613 25.8302 46.24 25.8287 46.22 25.8222Z" fill="white"/>
<path d="M46.96 44.8222L44.47 43.9822C44.7297 42.9601 44.7848 41.8967 44.632 40.8533C44.4793 39.8099 44.1217 38.8069 43.58 37.9022C43.1167 37.1061 42.4876 36.419 41.7353 35.8875C40.983 35.3561 40.1251 34.9927 39.22 34.8222C36.15 34.3222 32.88 36.4222 31.59 39.6922L29.11 38.8222C30.84 34.2522 35.31 31.4022 39.7 32.1222C40.9705 32.3605 42.1748 32.8697 43.2308 33.6152C44.2869 34.3606 45.17 35.3248 45.82 36.4422C46.5684 37.6887 47.0553 39.0744 47.2513 40.515C47.4473 41.9556 47.3482 43.421 46.96 44.8222Z" fill="#5B98E8"/>
<path d="M45.22 44.2122L42.72 43.3722C42.9999 41.9667 42.743 40.5075 42 39.2822C41.6659 38.702 41.2123 38.1996 40.6692 37.8083C40.1261 37.4169 39.506 37.1455 38.85 37.0121C37.7192 36.9042 36.5835 37.1603 35.6086 37.7431C34.6336 38.326 33.8703 39.205 33.43 40.2522L30.95 39.4221C31.5785 37.7637 32.7441 36.3633 34.2611 35.4444C35.7781 34.5256 37.559 34.141 39.32 34.3521C40.3381 34.5445 41.3028 34.954 42.1484 35.5528C42.994 36.1516 43.7005 36.9256 44.22 37.8222C45.3813 39.7375 45.7406 42.0336 45.22 44.2122Z" fill="white"/>
<path d="M43.97 43.8222L41.41 42.9622C41.4223 42.131 41.2005 41.3132 40.77 40.6022C40.5179 40.1582 40.173 39.7738 39.7588 39.4752C39.3446 39.1767 38.8709 38.971 38.37 38.8722C37.6394 38.7907 36.9006 38.9174 36.2389 39.2376C35.5772 39.5579 35.0194 40.0586 34.63 40.6822L32.08 39.8222C32.6933 38.5937 33.6734 37.5863 34.8845 36.9395C36.0957 36.2927 37.478 36.0385 38.84 36.2122C39.7057 36.3697 40.5269 36.7133 41.2468 37.2191C41.9668 37.725 42.5684 38.3811 43.01 39.1422C43.8587 40.5453 44.1977 42.1982 43.97 43.8222Z" fill="#E3E3FD"/>
<path d="M56.03 73.4921C55.5884 73.4926 55.1485 73.4388 54.72 73.3321C53.7252 73.0791 52.8271 72.5383 52.138 71.7776C51.4489 71.0168 50.9994 70.0697 50.8457 69.0548C50.6921 68.0399 50.841 67.0022 51.274 66.0715C51.707 65.1408 52.4047 64.3584 53.28 63.8221L53.82 64.6621C53.1699 65.0731 52.6415 65.6506 52.2899 66.3346C51.9382 67.0186 51.776 67.7843 51.82 68.5522C51.8876 69.4324 52.227 70.2699 52.7913 70.9489C53.3556 71.6278 54.1169 72.1147 54.97 72.3421C55.7344 72.56 56.5464 72.5451 57.3024 72.2995C58.0583 72.0539 58.7239 71.5886 59.2143 70.963C59.7047 70.3374 59.9975 69.58 60.0555 68.7872C60.1135 67.9945 59.9341 67.2024 59.54 66.5121L60.42 66.0321C60.8618 66.824 61.0853 67.7191 61.0677 68.6257C61.0501 69.5323 60.7921 70.418 60.32 71.1922C59.856 71.9053 59.2196 72.4899 58.4697 72.8919C57.7199 73.2939 56.8808 73.5004 56.03 73.4921Z" fill="#FFC5D2"/>
<path d="M63.22 62.3621C60.93 61.3621 59.68 62.8521 57.47 61.9021C55.73 61.1521 55.88 59.9021 54.21 59.4121C52.54 58.9221 50.12 59.5421 49.79 60.6621C49.16 62.7321 55 67.7421 60.57 67.2121C62.57 67.0321 65.31 66.0421 65.42 64.7121C65.47 63.7421 64.13 62.8221 63.22 62.3621ZM54.02 62.2321C53.9276 62.3826 53.7902 62.5 53.6273 62.5679C53.4643 62.6358 53.2842 62.6506 53.1123 62.6103C52.9405 62.57 52.7857 62.4765 52.67 62.3432C52.5542 62.21 52.4834 62.0436 52.4676 61.8678C52.4518 61.692 52.4918 61.5157 52.5818 61.3639C52.6719 61.2121 52.8075 61.0925 52.9694 61.0221C53.1312 60.9518 53.3112 60.9342 53.4836 60.9719C53.6561 61.0096 53.8122 61.1007 53.93 61.2321C54.0693 61.3571 54.1545 61.5313 54.1676 61.718C54.1807 61.9046 54.1206 62.089 54 62.2321H54.02ZM62.09 64.3721C62.0357 64.5417 61.929 64.6896 61.7852 64.7945C61.6414 64.8995 61.468 64.956 61.29 64.956C61.112 64.956 60.9386 64.8995 60.7948 64.7945C60.651 64.6896 60.5443 64.5417 60.49 64.3721C60.49 64.0521 60.86 63.7921 61.3 63.8021C61.74 63.8121 62.07 64.0521 62.07 64.3721H62.09Z" fill="#3F469A"/>
<path d="M61.58 57.6922C61.4 59.0822 60.37 59.3722 59.83 60.9422C59.5112 61.9506 59.4835 63.0286 59.75 64.0522C58.9174 64.4759 57.9524 64.5584 57.06 64.2821C56.3341 64.046 55.7077 63.5744 55.28 62.9422C55.602 62.4969 55.8737 62.0173 56.09 61.5122C57.31 58.5122 55.67 56.5121 56.86 55.1021C57.2951 54.6673 57.8579 54.3832 58.4662 54.2915C59.0744 54.1997 59.696 54.3051 60.24 54.5921C60.7328 54.93 61.1201 55.4004 61.3572 55.9488C61.5943 56.4973 61.6715 57.1017 61.58 57.6922Z" fill="#FFC5D2"/>
<path d="M26.15 13.8222L17.53 5.42215C17.8585 5.07451 18.2558 4.79897 18.6965 4.61305C19.1372 4.42712 19.6117 4.33487 20.09 4.34215C20.6135 4.48878 21.1567 4.55289 21.7 4.53215C22.45 4.43215 22.65 4.09215 23.17 4.00215C23.69 3.91215 24.44 4.09215 25.55 5.32215L26.04 5.80215C27.17 6.71215 27.4 7.45215 27.39 7.97215C27.39 8.66215 26.95 8.84215 26.85 9.82215C26.75 10.8022 27.1 11.0022 27.03 11.8222C26.9529 12.5644 26.6452 13.2638 26.15 13.8222Z" fill="#FFC5D2"/>
<path d="M24.51 6.89215C24.3646 6.74723 24.2492 6.57501 24.1704 6.38539C24.0917 6.19577 24.0512 5.99247 24.0512 5.78716C24.0512 5.58184 24.0917 5.37854 24.1704 5.18892C24.2492 4.9993 24.3646 4.82709 24.51 4.68216L26.33 2.82216C26.6207 2.53869 27.0105 2.37974 27.4165 2.37908C27.8226 2.37842 28.2129 2.5361 28.5045 2.81862C28.7962 3.10114 28.9661 3.48624 28.9784 3.8921C28.9906 4.29796 28.8441 4.69259 28.57 4.99216L26.72 6.82215C26.5797 6.97227 26.4112 7.0932 26.2241 7.178C26.0369 7.2628 25.8349 7.30981 25.6295 7.31631C25.4242 7.32281 25.2196 7.28869 25.0275 7.2159C24.8353 7.14312 24.6595 7.03309 24.51 6.89215Z" fill="#FFC5D2"/>
<path d="M8.30999 27.3321L3.73998 22.6522C3.15408 22.0053 2.78818 21.1894 2.69475 20.3217C2.60133 19.4539 2.7852 18.5789 3.21999 17.8221C3.4238 17.4195 3.6613 17.0348 3.92998 16.6721C5.92998 14.0021 8.58999 13.8421 11.81 11.5222C14.1671 9.7657 16.0926 7.49478 17.44 4.88215L26.44 13.8822C23.9342 15.3606 21.7264 17.2936 19.93 19.5821C17.66 22.5821 17.1 24.9821 14.25 27.2321C12.22 28.8221 9.71999 28.8221 8.30999 27.3321Z" fill="#E3E3FD"/>
<path d="M27.523 13.7585L17.6056 4.09063L15.9582 5.78053L25.8756 15.4484L27.523 13.7585Z" fill="#3F469A"/>
<path d="M22.22 16.1122C22.1532 16.1128 22.0888 16.0877 22.04 16.0422L20.64 14.6721C20.6161 14.6497 20.597 14.6226 20.584 14.5925C20.571 14.5624 20.5642 14.5299 20.5642 14.4972C20.5642 14.4644 20.571 14.4319 20.584 14.4018C20.597 14.3717 20.6161 14.3446 20.64 14.3222C20.6867 14.2763 20.7496 14.2507 20.815 14.2507C20.8804 14.2507 20.9433 14.2763 20.99 14.3222L22.39 15.6922C22.4139 15.7146 22.433 15.7417 22.446 15.7718C22.459 15.8019 22.4658 15.8344 22.4658 15.8671C22.4658 15.8999 22.459 15.9324 22.446 15.9625C22.433 15.9926 22.4139 16.0197 22.39 16.0422C22.3684 16.0654 22.342 16.0837 22.3127 16.0958C22.2833 16.1078 22.2517 16.1134 22.22 16.1122Z" fill="#5B98E8"/>
<path d="M20.35 18.0421C20.2832 18.0428 20.2188 18.0177 20.17 17.9721L18.77 16.6021C18.7242 16.5554 18.6985 16.4926 18.6985 16.4271C18.6985 16.3617 18.7242 16.2989 18.77 16.2521C18.8184 16.2057 18.8829 16.1798 18.95 16.1798C19.0171 16.1798 19.0816 16.2057 19.13 16.2521L20.53 17.6221C20.5764 17.6706 20.6024 17.7351 20.6024 17.8021C20.6024 17.8692 20.5764 17.9337 20.53 17.9821C20.4797 18.0241 20.4154 18.0455 20.35 18.0421Z" fill="#5B98E8"/>
<path d="M21.22 17.1122C21.1868 17.1136 21.1536 17.1081 21.1227 17.0961C21.0917 17.084 21.0635 17.0657 21.04 17.0422L18.04 14.1522C17.9942 14.1054 17.9685 14.0426 17.9685 13.9771C17.9685 13.9117 17.9942 13.8489 18.04 13.8022C18.0884 13.7557 18.1529 13.7298 18.22 13.7298C18.2871 13.7298 18.3516 13.7557 18.4 13.8022L21.4 16.6922C21.4239 16.7146 21.443 16.7417 21.456 16.7718C21.469 16.8019 21.4758 16.8344 21.4758 16.8671C21.4758 16.8999 21.469 16.9324 21.456 16.9625C21.443 16.9926 21.4239 17.0197 21.4 17.0422C21.3769 17.0662 21.3488 17.0849 21.3177 17.097C21.2866 17.109 21.2533 17.1142 21.22 17.1122Z" fill="#5B98E8"/>
<path d="M19.08 19.3422C19.0468 19.3436 19.0136 19.3381 18.9826 19.3261C18.9516 19.314 18.9235 19.2957 18.9 19.2722L17.5 17.9022C17.4542 17.8554 17.4285 17.7926 17.4285 17.7272C17.4285 17.6617 17.4542 17.5989 17.5 17.5522C17.5233 17.528 17.5513 17.5087 17.5822 17.4956C17.6131 17.4824 17.6464 17.4756 17.68 17.4756C17.7136 17.4756 17.7469 17.4824 17.7778 17.4956C17.8087 17.5087 17.8367 17.528 17.86 17.5522L19.22 18.9222C19.2658 18.9689 19.2915 19.0317 19.2915 19.0972C19.2915 19.1626 19.2658 19.2254 19.22 19.2722C19.1816 19.3093 19.1327 19.3338 19.08 19.3422Z" fill="#5B98E8"/>
<path d="M17.22 21.2822C17.1861 21.2817 17.1527 21.2744 17.1218 21.2606C17.0909 21.2469 17.063 21.227 17.04 21.2022L15.62 19.8222C15.5961 19.7997 15.577 19.7726 15.564 19.7425C15.551 19.7124 15.5443 19.68 15.5443 19.6472C15.5443 19.6144 15.551 19.5819 15.564 19.5518C15.577 19.5217 15.5961 19.4946 15.62 19.4722C15.6433 19.448 15.6713 19.4287 15.7022 19.4156C15.7331 19.4024 15.7664 19.3956 15.8 19.3956C15.8336 19.3956 15.8669 19.4024 15.8978 19.4156C15.9287 19.4287 15.9567 19.448 15.98 19.4722L17.38 20.8422C17.4039 20.8646 17.423 20.8917 17.436 20.9218C17.449 20.9519 17.4557 20.9844 17.4557 21.0172C17.4557 21.0499 17.449 21.0824 17.436 21.1125C17.423 21.1426 17.4039 21.1697 17.38 21.1922C17.3609 21.2173 17.3369 21.2383 17.3094 21.2538C17.2818 21.2693 17.2514 21.2789 17.22 21.2822Z" fill="#5B98E8"/>
<path d="M18.1 20.3422C18.0684 20.3428 18.0369 20.3369 18.0077 20.3249C17.9784 20.3128 17.952 20.2949 17.93 20.2722L14.93 17.3822C14.907 17.3598 14.8887 17.3332 14.876 17.3038C14.8633 17.2744 14.8565 17.2427 14.856 17.2107C14.8556 17.1786 14.8614 17.1468 14.8733 17.1171C14.8851 17.0873 14.9027 17.0601 14.925 17.0372C14.9473 17.0142 14.974 16.9958 15.0034 16.9831C15.0328 16.9704 15.0644 16.9637 15.0965 16.9632C15.1285 16.9627 15.1603 16.9686 15.1901 16.9804C15.2199 16.9922 15.247 17.0098 15.27 17.0321L18.27 19.9122C18.2942 19.9355 18.3134 19.9634 18.3266 19.9944C18.3397 20.0253 18.3465 20.0585 18.3465 20.0922C18.3465 20.1258 18.3397 20.159 18.3266 20.1899C18.3134 20.2209 18.2942 20.2488 18.27 20.2722C18.2476 20.2944 18.2211 20.3121 18.192 20.3241C18.1628 20.3361 18.1315 20.3422 18.1 20.3422Z" fill="#5B98E8"/>
<path d="M15.93 22.5821C15.8968 22.5836 15.8636 22.5781 15.8326 22.5661C15.8017 22.554 15.7735 22.5356 15.75 22.5121L14.34 21.1422C14.2935 21.0937 14.2676 21.0292 14.2676 20.9622C14.2676 20.8951 14.2935 20.8306 14.34 20.7822C14.3867 20.7363 14.4496 20.7107 14.515 20.7107C14.5805 20.7107 14.6433 20.7363 14.69 20.7822L16.1 22.1522C16.1239 22.1746 16.143 22.2017 16.156 22.2318C16.169 22.2619 16.1758 22.2944 16.1758 22.3272C16.1758 22.36 16.169 22.3924 16.156 22.4225C16.143 22.4526 16.1239 22.4797 16.1 22.5022C16.0559 22.5499 15.9949 22.5786 15.93 22.5821Z" fill="#5B98E8"/>
<path d="M14.04 24.5121C14.0084 24.5128 13.9769 24.5069 13.9477 24.4949C13.9184 24.4828 13.892 24.4649 13.87 24.4421L12.46 23.0721C12.4122 23.0257 12.3849 22.9623 12.384 22.8957C12.383 22.8291 12.4086 22.7649 12.455 22.7171C12.5014 22.6694 12.5649 22.6421 12.6315 22.6411C12.698 22.6402 12.7623 22.6657 12.81 22.7121L14.22 24.0821C14.2439 24.1046 14.263 24.1317 14.276 24.1618C14.289 24.1919 14.2957 24.2243 14.2957 24.2571C14.2957 24.2899 14.289 24.3224 14.276 24.3525C14.263 24.3826 14.2439 24.4097 14.22 24.4321C14.197 24.457 14.1692 24.4769 14.1382 24.4906C14.1073 24.5044 14.0739 24.5117 14.04 24.5121Z" fill="#5B98E8"/>
<path d="M14.95 23.5821C14.8867 23.5803 14.8262 23.5554 14.78 23.5121L11.78 20.6221C11.7564 20.5992 11.7375 20.5718 11.7244 20.5415C11.7114 20.5112 11.7044 20.4786 11.704 20.4457C11.7035 20.4127 11.7095 20.38 11.7217 20.3494C11.7339 20.3187 11.752 20.2908 11.775 20.2671C11.798 20.2435 11.8254 20.2246 11.8557 20.2116C11.886 20.1985 11.9185 20.1916 11.9515 20.1911C11.9844 20.1907 12.0172 20.1967 12.0478 20.2089C12.0784 20.2211 12.1064 20.2392 12.13 20.2621L15.13 23.1522C15.1618 23.1888 15.1827 23.2335 15.1904 23.2814C15.1981 23.3293 15.1923 23.3783 15.1735 23.4231C15.1548 23.4678 15.124 23.5064 15.0845 23.5345C15.045 23.5626 14.9984 23.5791 14.95 23.5821Z" fill="#5B98E8"/>
<path d="M8.88001 17.3822C8.65001 18.0622 8.13002 18.4922 7.73002 18.3822C7.33002 18.2722 7.19002 17.5822 7.42002 16.9122C7.65002 16.2422 8.17001 15.8022 8.57001 15.9122C8.97001 16.0222 9.12001 16.7122 8.88001 17.3822Z" fill="#5B98E8"/>
<path d="M6.35002 18.1621C5.76002 17.7721 5.47001 17.1621 5.71001 16.8021C5.95001 16.4421 6.62001 16.4821 7.21001 16.8821C7.80001 17.2821 8.09002 17.8821 7.85002 18.2421C7.61002 18.6021 6.94002 18.5621 6.35002 18.1621Z" fill="#5B98E8"/>
<path d="M8.76002 19.2121C8.07002 19.0621 7.57002 18.6021 7.66002 18.2121C7.75002 17.8221 8.38 17.5722 9.08 17.7222C9.78 17.8722 10.27 18.3222 10.18 18.7222C10.09 19.1222 9.46002 19.3521 8.76002 19.2121Z" fill="#5B98E8"/>
<path d="M7.21999 19.5521C6.97999 18.8821 7.11 18.2221 7.51 18.0821C7.91 17.9421 8.43998 18.3621 8.67998 19.0821C8.91998 19.8021 8.78999 20.4121 8.37999 20.5521C7.96999 20.6921 7.44999 20.2221 7.21999 19.5521Z" fill="#5B98E8"/>
<path d="M6.07998 18.5222C6.51998 17.9622 7.14999 17.7322 7.48999 17.9922C7.82999 18.2522 7.73001 18.9322 7.29001 19.4822C6.85001 20.0322 6.21 20.2822 5.88 20.0122C5.55 19.7422 5.62998 19.0722 6.07998 18.5222Z" fill="#5B98E8"/>
<path d="M13.3 14.0522C13.13 14.5522 12.75 14.8622 12.45 14.7622C12.15 14.6622 12.05 14.1722 12.22 13.6822C12.39 13.1922 12.77 12.8622 13.07 12.9622C13.37 13.0622 13.47 13.5522 13.3 14.0522Z" fill="#5B98E8"/>
<path d="M11.43 14.6322C10.99 14.3322 10.78 13.8822 10.96 13.6322C11.14 13.3822 11.63 13.3921 12.07 13.6921C12.51 13.9921 12.71 14.4321 12.54 14.6921C12.37 14.9521 11.87 14.9222 11.43 14.6322Z" fill="#5B98E8"/>
<path d="M13.22 15.3922C12.71 15.2922 12.34 14.9522 12.41 14.6422C12.48 14.3322 12.94 14.1722 13.46 14.2822C13.98 14.3922 14.33 14.7222 14.27 15.0322C14.21 15.3422 13.72 15.5022 13.22 15.3922Z" fill="#5B98E8"/>
<path d="M12.06 15.6521C11.89 15.1521 11.98 14.6521 12.28 14.5621C12.58 14.4721 12.96 14.7721 13.14 15.2621C13.32 15.7521 13.22 16.2621 12.92 16.3521C12.62 16.4421 12.22 16.1421 12.06 15.6521Z" fill="#5B98E8"/>
<path d="M11.22 14.8921C11.55 14.4821 12.01 14.3021 12.22 14.5021C12.43 14.7021 12.4 15.1921 12.07 15.6021C11.74 16.0121 11.28 16.1821 11.07 15.9821C10.86 15.7821 10.9 15.3021 11.22 14.8921Z" fill="#5B98E8"/>
<path d="M61.91 31.4422C63.716 31.4422 65.18 29.9781 65.18 28.1722C65.18 26.3662 63.716 24.9022 61.91 24.9022C60.104 24.9022 58.64 26.3662 58.64 28.1722C58.64 29.9781 60.104 31.4422 61.91 31.4422Z" fill="#5B98E8"/>
<path d="M63.22 32.1721C63.0874 32.1973 62.9502 32.1688 62.8386 32.0929C62.727 32.0169 62.6502 31.8998 62.625 31.7671C62.5998 31.6345 62.6283 31.4974 62.7043 31.3858C62.7802 31.2742 62.8974 31.1973 63.03 31.1721C63.7791 30.8905 64.4008 30.3469 64.78 29.6421C65.0764 29.0767 65.1968 28.4355 65.1259 27.801C65.0549 27.1665 64.7957 26.5677 64.3817 26.0817C63.9678 25.5957 63.4179 25.2446 62.8027 25.0736C62.1876 24.9026 61.5354 24.9195 60.93 25.1221C60.8644 25.1544 60.7926 25.1722 60.7196 25.1743C60.6465 25.1763 60.5738 25.1627 60.5065 25.1342C60.4392 25.1058 60.3788 25.0632 60.3293 25.0094C60.2799 24.9555 60.2426 24.8917 60.22 24.8221C60.2016 24.7591 60.1958 24.6931 60.203 24.6278C60.2101 24.5625 60.23 24.4993 60.2616 24.4417C60.2932 24.3842 60.3358 24.3334 60.387 24.2923C60.4382 24.2512 60.497 24.2205 60.56 24.2022C61.1639 24.0243 61.7985 23.976 62.4223 24.0605C63.0462 24.1449 63.6451 24.3602 64.18 24.6921C65.01 25.2919 65.6043 26.1629 65.86 27.1545C66.1156 28.1461 66.0166 29.1959 65.58 30.1221C65.0928 31.0435 64.2854 31.7549 63.31 32.1221C63.2823 32.1427 63.2521 32.1595 63.22 32.1721Z" fill="#3F469A"/>
<path d="M65.4 23.6021C64.7593 23.6853 64.1084 23.5767 63.5294 23.2903C62.9503 23.0038 62.4691 22.5522 62.1464 21.9925C61.8238 21.4328 61.6741 20.7901 61.7164 20.1455C61.7586 19.5008 61.9909 18.8831 62.3838 18.3703C62.7768 17.8576 63.3128 17.4726 63.9243 17.2642C64.5358 17.0558 65.1953 17.0331 65.8197 17.1991C66.444 17.3651 67.0052 17.7124 67.4324 18.197C67.8596 18.6816 68.1336 19.2819 68.22 19.9221C68.3336 20.784 68.1004 21.6557 67.5716 22.3458C67.0428 23.0358 66.2618 23.4877 65.4 23.6021Z" fill="#5B98E8"/>
<path d="M64.83 24.5121C64.3882 24.5125 63.9492 24.4416 63.53 24.3021C62.5406 23.9416 61.7184 23.2297 61.22 22.3021C61.1537 22.1868 61.1359 22.0498 61.1706 21.9213C61.2053 21.7929 61.2896 21.6834 61.405 21.6171C61.5204 21.5508 61.6574 21.5331 61.7858 21.5678C61.9143 21.6025 62.0237 21.6868 62.09 21.8021C62.4691 22.5085 63.0959 23.0499 63.85 23.3221C64.5998 23.5636 65.4104 23.5347 66.1412 23.2406C66.8719 22.9465 67.4765 22.4057 67.85 21.7121C68.049 21.2705 68.1519 20.7916 68.1519 20.3071C68.1519 19.8227 68.049 19.3438 67.85 18.9021C67.7996 18.7813 67.7986 18.6456 67.8472 18.5241C67.8959 18.4025 67.9902 18.3049 68.11 18.2521C68.2307 18.198 68.3679 18.194 68.4916 18.2408C68.6153 18.2877 68.7154 18.3816 68.77 18.5021C69.0262 19.0765 69.1586 19.6983 69.1586 20.3271C69.1586 20.956 69.0262 21.5778 68.77 22.1521C68.397 22.8724 67.8309 23.4747 67.135 23.8915C66.4392 24.3083 65.641 24.5232 64.83 24.5121Z" fill="#3F469A"/>
<path d="M68.61 25.8222C68.5587 25.1775 68.6996 24.5321 69.0151 23.9675C69.3305 23.4029 69.8063 22.9446 70.3822 22.6504C70.9582 22.3562 71.6084 22.2394 72.2507 22.3148C72.893 22.3902 73.4986 22.6543 73.9908 23.0738C74.483 23.4933 74.8398 24.0493 75.016 24.6715C75.1922 25.2938 75.1799 25.9543 74.9808 26.5696C74.7816 27.1849 74.4044 27.7273 73.897 28.1282C73.3896 28.5292 72.7747 28.7707 72.13 28.8222C71.7019 28.8563 71.2712 28.8059 70.8626 28.6736C70.454 28.5413 70.0755 28.3299 69.7486 28.0513C69.4217 27.7727 69.1529 27.4324 68.9576 27.05C68.7622 26.6675 68.6441 26.2503 68.61 25.8222Z" fill="#5B98E8"/>
<path d="M71.82 29.6822C71.1202 29.69 70.4306 29.5142 69.82 29.1722C68.9451 28.6407 68.284 27.8195 67.9515 26.8513C67.619 25.8831 67.6362 24.829 68 23.8722C68.4154 22.9111 69.165 22.133 70.11 21.6822C70.1691 21.6531 70.2333 21.6361 70.299 21.6319C70.3647 21.6278 70.4305 21.6367 70.4928 21.658C70.555 21.6794 70.6124 21.7129 70.6617 21.7565C70.711 21.8001 70.7512 21.853 70.78 21.9122C70.8088 21.9705 70.8257 22.034 70.8297 22.0989C70.8337 22.1639 70.8248 22.2289 70.8034 22.2904C70.782 22.3518 70.7485 22.4084 70.705 22.4568C70.6615 22.5051 70.6088 22.5444 70.55 22.5722C69.8273 22.9167 69.2524 23.5093 68.93 24.2422C68.6569 24.9743 68.6451 25.7782 68.8965 26.5181C69.148 27.2579 69.6473 27.8881 70.31 28.3022C70.74 28.5224 71.2116 28.6495 71.694 28.6754C72.1765 28.7012 72.659 28.6252 73.11 28.4522C73.171 28.4282 73.2362 28.4168 73.3017 28.4184C73.3671 28.4201 73.4316 28.4349 73.4913 28.462C73.551 28.489 73.6046 28.5277 73.649 28.5759C73.6935 28.624 73.7278 28.6805 73.75 28.7422C73.7741 28.8038 73.7857 28.8697 73.7841 28.9359C73.7826 29.0021 73.7679 29.0673 73.7409 29.1278C73.7139 29.1882 73.6752 29.2428 73.627 29.2881C73.5788 29.3335 73.522 29.3689 73.46 29.3922C72.933 29.5782 72.3789 29.6762 71.82 29.6822Z" fill="#3F469A"/>
<path d="M65.77 24.0122C66.4367 29.5522 67.12 35.0855 67.82 40.6122C68.58 42.3222 69.92 43.2622 70.72 43.0322C71.52 42.8022 72.33 40.9322 71.56 38.6922C69.92 33.6655 68.2767 28.6288 66.63 23.5822L65.77 24.0122Z" fill="#3F469A"/>
<path d="M68.6263 26.2921L65.1722 27.2331L65.4614 28.2944L68.9155 27.3534L68.6263 26.2921Z" fill="#3F469A"/>
<path d="M7.57001 30.6922L3.26001 31.5722C2.91266 31.2556 2.46877 31.0654 2 31.0322C1.58642 31.0365 1.18181 31.1532 0.829498 31.3699C0.477189 31.5866 0.190453 31.895 0 32.2621C1.19509 37.4072 2.86905 42.4291 5 47.2622C6.09 49.6422 5.73 48.3821 8 52.7421C9.52 55.7421 10.3 57.4721 11.8 57.7421C12.077 57.8173 12.3689 57.818 12.6463 57.7442C12.9236 57.6703 13.1765 57.5246 13.3795 57.3216C13.5824 57.1187 13.7282 56.8658 13.802 56.5884C13.8759 56.3111 13.8752 56.0191 13.8 55.7421C13.67 54.7421 13.03 54.3021 11.93 52.9921C11.36 52.3221 10.93 51.5322 10.34 50.8722C9.45446 49.8527 8.68321 48.7394 8.04001 47.5522L11.04 46.9521C11.3227 46.8784 11.5663 46.699 11.7205 46.4509C11.8747 46.2027 11.9278 45.9049 11.8688 45.6188C11.8098 45.3326 11.6431 45.0801 11.4033 44.9133C11.1635 44.7464 10.8688 44.678 10.58 44.7222L6.98999 45.4521L6.78 44.9521L10.48 44.2021C10.7591 44.1262 10.9988 43.947 11.1508 43.7009C11.3027 43.4548 11.3554 43.1602 11.2982 42.8767C11.2409 42.5931 11.0781 42.342 10.8427 42.174C10.6072 42.0061 10.3167 41.9339 10.03 41.9722L5.92999 42.8022C5.84999 42.6022 5.77999 42.4022 5.70999 42.2022L9.89999 41.3521C10.1791 41.2762 10.4189 41.097 10.5708 40.8509C10.7227 40.6048 10.7753 40.3102 10.7181 40.0266C10.6609 39.7431 10.4981 39.492 10.2626 39.324C10.0272 39.1561 9.7367 39.0839 9.45001 39.1222L5.14999 39.9921C5.09999 39.9921 5.07 39.9921 5.03 39.9921L4.82999 39.2922L9.16 38.4221C9.31473 38.4015 9.46356 38.3493 9.59729 38.2688C9.73102 38.1883 9.8468 38.0812 9.93744 37.9541C10.0281 37.827 10.0917 37.6827 10.1242 37.53C10.1568 37.3774 10.1577 37.2197 10.1268 37.0667C10.0959 36.9136 10.034 36.7686 9.94473 36.6405C9.85551 36.5124 9.74092 36.4041 9.60809 36.3221C9.47526 36.2401 9.32703 36.1862 9.17255 36.1639C9.01806 36.1415 8.86061 36.1512 8.70999 36.1922L4.41 37.0622L4.28 37.1122C4.28 36.9522 4.2 36.7622 4.16 36.5722C4.25943 36.5872 4.36056 36.5872 4.45999 36.5722L8.76999 35.7022C8.92471 35.6815 9.07357 35.6293 9.20731 35.5488C9.34104 35.4683 9.45681 35.3612 9.54745 35.2341C9.6381 35.107 9.70165 34.9627 9.73422 34.81C9.7668 34.6574 9.76769 34.4997 9.73682 34.3467C9.70594 34.1936 9.64397 34.0486 9.55475 33.9205C9.46552 33.7924 9.35094 33.684 9.21811 33.6021C9.08528 33.5201 8.93702 33.4662 8.78253 33.4439C8.62805 33.4215 8.47062 33.4312 8.32001 33.4722L4.01001 34.3422C3.9255 34.3681 3.84478 34.405 3.76999 34.4522C3.76999 34.2322 3.70001 34.0022 3.67001 33.7722C3.74594 33.7872 3.82407 33.7872 3.89999 33.7722L8.20001 32.9022C8.3469 32.8735 8.48663 32.816 8.61111 32.7329C8.73559 32.6498 8.84234 32.5429 8.92514 32.4182C9.00794 32.2935 9.06514 32.1537 9.09344 32.0067C9.12175 31.8598 9.12057 31.7087 9.09 31.5622C9.0593 31.3985 8.9934 31.2434 8.89688 31.1076C8.80036 30.9719 8.67552 30.8588 8.53098 30.776C8.38643 30.6933 8.22561 30.6429 8.05969 30.6285C7.89377 30.614 7.7267 30.6357 7.57001 30.6922Z" fill="#FFC5D2"/>
<path d="M71.76 46.8222L73.11 49.5621C73.197 49.7327 73.3228 49.8805 73.4774 49.9934C73.632 50.1063 73.8111 50.1812 74 50.2122L77 50.6522C77.2158 50.6846 77.4184 50.7763 77.5852 50.917C77.752 51.0578 77.8766 51.242 77.9449 51.4492C78.0133 51.6565 78.0229 51.8786 77.9726 52.091C77.9223 52.3034 77.8141 52.4976 77.66 52.6522L75.5 54.8222C75.3682 54.95 75.2687 55.1074 75.2096 55.2812C75.1505 55.4551 75.1335 55.6405 75.16 55.8222L75.67 58.8222C75.7101 59.0395 75.6879 59.2638 75.6058 59.469C75.5237 59.6742 75.3852 59.852 75.2063 59.9818C75.0274 60.1115 74.8153 60.1879 74.5948 60.2021C74.3742 60.2164 74.1541 60.1678 73.96 60.0621L71.22 58.6621C71.0502 58.5736 70.8615 58.5274 70.67 58.5274C70.4785 58.5274 70.2898 58.5736 70.12 58.6621L67.41 60.0822C67.2151 60.1812 66.9964 60.2238 66.7786 60.2049C66.5608 60.186 66.3526 60.1064 66.1777 59.9752C66.0028 59.8441 65.8681 59.6665 65.789 59.4627C65.7099 59.2589 65.6894 59.037 65.73 58.8222L66.24 55.8222C66.2665 55.6405 66.2495 55.4551 66.1904 55.2812C66.1313 55.1074 66.0318 54.95 65.9 54.8222L63.71 52.6822C63.5559 52.5276 63.4477 52.3334 63.3974 52.121C63.3471 51.9086 63.3567 51.6865 63.4251 51.4792C63.4935 51.272 63.618 51.0878 63.7848 50.947C63.9516 50.8063 64.1542 50.7146 64.37 50.6822L67.37 50.2421C67.5589 50.2112 67.738 50.1363 67.8926 50.0234C68.0472 49.9105 68.1731 49.7627 68.26 49.5921L69.64 46.8222C69.7371 46.6237 69.8879 46.4565 70.0753 46.3396C70.2626 46.2226 70.4791 46.1606 70.7 46.1606C70.9209 46.1606 71.1373 46.2226 71.3247 46.3396C71.5121 46.4565 71.663 46.6237 71.76 46.8222Z" fill="#E3E3FD"/>
<path d="M12.45 59.3821L13.35 61.2121C13.4085 61.3245 13.4922 61.4218 13.5945 61.4964C13.6969 61.571 13.8151 61.6209 13.94 61.6421L15.94 61.9321C16.0867 61.9505 16.2251 62.0101 16.3391 62.104C16.4532 62.198 16.5383 62.3224 16.5844 62.4628C16.6305 62.6032 16.6358 62.7538 16.5996 62.8971C16.5634 63.0404 16.4873 63.1705 16.38 63.2721L14.92 64.6922C14.8296 64.7803 14.7622 64.8893 14.7238 65.0097C14.6855 65.13 14.6773 65.2579 14.7 65.3821L15.04 67.3821C15.0652 67.5265 15.0492 67.6751 14.9939 67.8109C14.9386 67.9466 14.8461 68.064 14.7271 68.1496C14.6081 68.2352 14.4674 68.2855 14.3211 68.2948C14.1748 68.3041 14.0289 68.272 13.9 68.2021L12.1 67.2621C11.9873 67.2034 11.8621 67.1728 11.735 67.1728C11.6079 67.1728 11.4827 67.2034 11.37 67.2621L9.57001 68.2021C9.44114 68.272 9.29519 68.3041 9.1489 68.2948C9.00261 68.2855 8.86189 68.2352 8.74289 68.1496C8.6239 68.064 8.53145 67.9466 8.47611 67.8109C8.42077 67.6751 8.40477 67.5265 8.43 67.3821L8.78 65.3821C8.8006 65.2571 8.79042 65.1289 8.75034 65.0087C8.71027 64.8885 8.6415 64.7798 8.54999 64.6922L7.10001 63.2721C6.993 63.1711 6.91674 63.0419 6.88007 62.8993C6.8434 62.7568 6.8478 62.6068 6.89277 62.4667C6.93774 62.3265 7.02143 62.202 7.13419 62.1074C7.24695 62.0128 7.38418 61.952 7.53 61.9321L9.53 61.6421C9.65596 61.624 9.77558 61.5754 9.87842 61.5004C9.98126 61.4255 10.0642 61.3265 10.12 61.2121L11.02 59.3821C11.0838 59.2464 11.1849 59.1316 11.3115 59.0512C11.4381 58.9708 11.585 58.9281 11.735 58.9281C11.885 58.9281 12.0319 58.9708 12.1585 59.0512C12.2851 59.1316 12.3862 59.2464 12.45 59.3821Z" fill="#E3E3FD"/>
<path d="M16.8 45.5822L17.33 46.6621C17.3649 46.7282 17.4147 46.7851 17.4754 46.8285C17.5362 46.8719 17.6062 46.9006 17.68 46.9121L18.87 47.0822C18.9564 47.0951 19.0375 47.1318 19.1042 47.1883C19.1709 47.2447 19.2205 47.3186 19.2475 47.4017C19.2745 47.4848 19.2778 47.5738 19.2571 47.6586C19.2363 47.7435 19.1923 47.8209 19.13 47.8821L18.27 48.7222C18.2162 48.7747 18.1755 48.8392 18.1511 48.9105C18.1268 48.9817 18.1196 49.0576 18.13 49.1321L18.33 50.3121C18.346 50.3975 18.3376 50.4856 18.3056 50.5663C18.2737 50.647 18.2195 50.7171 18.1495 50.7683C18.0794 50.8196 17.9962 50.85 17.9096 50.8559C17.823 50.8619 17.7365 50.8433 17.66 50.8022L16.6 50.2421C16.5318 50.2078 16.4564 50.19 16.38 50.19C16.3036 50.19 16.2283 50.2078 16.16 50.2421L15.1 50.8022C15.0236 50.8433 14.937 50.8619 14.8504 50.8559C14.7638 50.85 14.6807 50.8196 14.6106 50.7683C14.5405 50.7171 14.4863 50.647 14.4544 50.5663C14.4224 50.4856 14.414 50.3975 14.43 50.3121L14.63 49.1321C14.6452 49.0584 14.6413 48.982 14.6185 48.9102C14.5958 48.8384 14.555 48.7737 14.5 48.7222L13.64 47.8821C13.5779 47.8216 13.5337 47.7449 13.5124 47.6608C13.4912 47.5767 13.4936 47.4883 13.5195 47.4054C13.5454 47.3226 13.5937 47.2485 13.6591 47.1915C13.7245 47.1344 13.8044 47.0966 13.89 47.0822L15.08 46.9121C15.1538 46.9006 15.2238 46.8719 15.2846 46.8285C15.3453 46.7851 15.3951 46.7282 15.43 46.6621L15.96 45.5822C15.9991 45.5043 16.0591 45.4388 16.1333 45.3931C16.2075 45.3473 16.2929 45.3231 16.38 45.3231C16.4672 45.3231 16.5526 45.3473 16.6268 45.3931C16.7009 45.4388 16.7609 45.5043 16.8 45.5822Z" fill="#E3E3FD"/>
<path d="M26.24 46.8621C26.6155 46.8621 26.92 46.5577 26.92 46.1821C26.92 45.8066 26.6155 45.5022 26.24 45.5022C25.8644 45.5022 25.56 45.8066 25.56 46.1821C25.56 46.5577 25.8644 46.8621 26.24 46.8621Z" fill="white"/>
<path d="M39.88 50.9022C39.882 51.0371 39.8438 51.1695 39.7703 51.2826C39.6968 51.3958 39.5913 51.4845 39.4672 51.5375C39.3432 51.5905 39.2061 51.6054 39.0736 51.5803C38.941 51.5552 38.8189 51.4912 38.7228 51.3965C38.6267 51.3018 38.561 51.1807 38.5339 51.0485C38.5068 50.9164 38.5197 50.7791 38.5709 50.6543C38.622 50.5295 38.7092 50.4227 38.8212 50.3475C38.9332 50.2723 39.0651 50.2322 39.2 50.2322C39.2888 50.2308 39.377 50.2472 39.4595 50.2802C39.5419 50.3133 39.617 50.3625 39.6802 50.4248C39.7435 50.4872 39.7938 50.5615 39.8281 50.6434C39.8624 50.7254 39.88 50.8133 39.88 50.9022Z" fill="white"/>
<path d="M48.43 36.0722C48.8055 36.0722 49.11 35.7677 49.11 35.3922C49.11 35.0166 48.8055 34.7122 48.43 34.7122C48.0544 34.7122 47.75 35.0166 47.75 35.3922C47.75 35.7677 48.0544 36.0722 48.43 36.0722Z" fill="white"/>
<path d="M46.08 53.9022C46.08 54.0371 46.0398 54.1689 45.9647 54.281C45.8895 54.393 45.7827 54.4801 45.6579 54.5313C45.533 54.5824 45.3958 54.5953 45.2636 54.5683C45.1314 54.5412 45.0103 54.4754 44.9156 54.3793C44.8209 54.2832 44.757 54.1611 44.7319 54.0286C44.7068 53.896 44.7217 53.759 44.7747 53.6349C44.8277 53.5109 44.9164 53.4054 45.0295 53.3319C45.1427 53.2584 45.2751 53.2202 45.41 53.2221C45.5886 53.2248 45.759 53.2976 45.8844 53.4248C46.0097 53.5521 46.08 53.7235 46.08 53.9022Z" fill="white"/>
<path d="M35.82 44.8222C35.82 44.9566 35.7801 45.0881 35.7054 45.1999C35.6307 45.3118 35.5245 45.3989 35.4002 45.4504C35.276 45.5019 35.1393 45.5153 35.0074 45.4891C34.8755 45.4628 34.7543 45.3981 34.6592 45.303C34.5641 45.2079 34.4993 45.0867 34.4731 44.9548C34.4468 44.8229 34.4603 44.6862 34.5118 44.5619C34.5632 44.4377 34.6504 44.3315 34.7622 44.2568C34.874 44.182 35.0055 44.1422 35.14 44.1422C35.2293 44.1422 35.3177 44.1597 35.4002 44.1939C35.4827 44.2281 35.5577 44.2782 35.6208 44.3413C35.684 44.4045 35.7341 44.4794 35.7683 44.5619C35.8024 44.6444 35.82 44.7329 35.82 44.8222Z" fill="white"/>
<path d="M31.58 29.4022C31.58 29.5366 31.5401 29.6681 31.4654 29.7799C31.3907 29.8918 31.2845 29.9789 31.1602 30.0304C31.036 30.0819 30.8992 30.0953 30.7673 30.0691C30.6354 30.0428 30.5143 29.9781 30.4192 29.883C30.3241 29.7879 30.2593 29.6667 30.2331 29.5348C30.2068 29.4029 30.2203 29.2662 30.2718 29.1419C30.3232 29.0177 30.4104 28.9115 30.5222 28.8368C30.634 28.762 30.7655 28.7222 30.9 28.7222C31.0803 28.7222 31.2533 28.7938 31.3808 28.9213C31.5084 29.0488 31.58 29.2218 31.58 29.4022Z" fill="white"/>
<path d="M49.11 30.7622C49.4856 30.7622 49.79 30.4577 49.79 30.0822C49.79 29.7066 49.4856 29.4022 49.11 29.4022C48.7345 29.4022 48.43 29.7066 48.43 30.0822C48.43 30.4577 48.7345 30.7622 49.11 30.7622Z" fill="white"/>
<path d="M40.56 28.6922C40.56 28.8266 40.5201 28.9581 40.4454 29.0699C40.3707 29.1818 40.2645 29.2689 40.1402 29.3204C40.016 29.3719 39.8793 29.3853 39.7473 29.3591C39.6154 29.3329 39.4943 29.2681 39.3992 29.173C39.3041 29.0779 39.2393 28.9567 39.2131 28.8248C39.1868 28.6929 39.2003 28.5562 39.2518 28.4319C39.3032 28.3077 39.3904 28.2015 39.5022 28.1268C39.6141 28.052 39.7455 28.0122 39.88 28.0122C40.0604 28.0122 40.2333 28.0838 40.3608 28.2113C40.4884 28.3388 40.56 28.5118 40.56 28.6922Z" fill="white"/>
<path d="M58.22 36.1222C58.22 36.2566 58.1801 36.3881 58.1054 36.4999C58.0307 36.6118 57.9245 36.6989 57.8002 36.7504C57.676 36.8019 57.5393 36.8153 57.4074 36.7891C57.2754 36.7629 57.1543 36.6981 57.0592 36.603C56.9641 36.5079 56.8993 36.3867 56.8731 36.2548C56.8468 36.1229 56.8603 35.9862 56.9118 35.8619C56.9632 35.7377 57.0504 35.6315 57.1622 35.5568C57.274 35.482 57.4055 35.4422 57.54 35.4422C57.7204 35.4422 57.8933 35.5138 58.0208 35.6413C58.1484 35.7688 58.22 35.9418 58.22 36.1222Z" fill="white"/>
<path d="M25.56 28.4222C25.562 28.5575 25.5235 28.6903 25.4496 28.8037C25.3756 28.917 25.2695 29.0057 25.1449 29.0584C25.0202 29.1111 24.8827 29.1254 24.7499 29.0995C24.617 29.0736 24.4949 29.0086 24.3992 28.9129C24.3035 28.8172 24.2386 28.6951 24.2127 28.5623C24.1867 28.4295 24.2011 28.2919 24.2538 28.1673C24.3065 28.0426 24.3952 27.9365 24.5085 27.8626C24.6219 27.7886 24.7547 27.7502 24.89 27.7522C25.0677 27.7522 25.2381 27.8227 25.3638 27.9484C25.4894 28.074 25.56 28.2445 25.56 28.4222Z" fill="white"/>
<path d="M31.58 23.5722C31.582 23.7071 31.5438 23.8395 31.4703 23.9526C31.3968 24.0658 31.2913 24.1545 31.1672 24.2075C31.0432 24.2605 30.9061 24.2754 30.7736 24.2503C30.641 24.2252 30.5189 24.1612 30.4228 24.0665C30.3267 23.9718 30.2609 23.8507 30.2339 23.7185C30.2068 23.5864 30.2197 23.4491 30.2709 23.3243C30.322 23.1994 30.4092 23.0927 30.5212 23.0175C30.6332 22.9423 30.7651 22.9022 30.9 22.9022C31.0786 22.9021 31.2501 22.9724 31.3773 23.0978C31.5045 23.2231 31.5773 23.3935 31.58 23.5722Z" fill="white"/>
<path d="M30.29 53.2222C30.29 53.3566 30.2501 53.4881 30.1754 53.5999C30.1007 53.7118 29.9945 53.7989 29.8702 53.8504C29.746 53.9019 29.6092 53.9153 29.4773 53.8891C29.3454 53.8628 29.2243 53.7981 29.1292 53.703C29.0341 53.6079 28.9693 53.4867 28.9431 53.3548C28.9168 53.2229 28.9303 53.0862 28.9818 52.9619C29.0332 52.8377 29.1204 52.7315 29.2322 52.6568C29.344 52.582 29.4755 52.5422 29.61 52.5422C29.7896 52.5447 29.961 52.6172 30.088 52.7442C30.215 52.8711 30.2874 53.0426 30.29 53.2222Z" fill="white"/>
<path d="M39.22 59.7421C39.22 59.8771 39.1798 60.0089 39.1047 60.1209C39.0295 60.233 38.9227 60.3201 38.7978 60.3713C38.673 60.4224 38.5358 60.4353 38.4036 60.4083C38.2714 60.3812 38.1503 60.3154 38.0556 60.2193C37.9609 60.1232 37.897 60.0011 37.8719 59.8686C37.8468 59.736 37.8617 59.599 37.9147 59.4749C37.9677 59.3508 38.0564 59.2454 38.1695 59.1719C38.2827 59.0984 38.4151 59.0602 38.55 59.0621C38.6388 59.0621 38.7268 59.0798 38.8087 59.1141C38.8907 59.1484 38.965 59.1986 39.0273 59.2619C39.0897 59.3252 39.1388 59.4002 39.1719 59.4827C39.205 59.5651 39.2213 59.6533 39.22 59.7421Z" fill="white"/>
<path d="M23.02 55.9121C23.02 56.0466 22.9801 56.1781 22.9054 56.2899C22.8307 56.4018 22.7245 56.4889 22.6002 56.5404C22.476 56.5919 22.3392 56.6053 22.2073 56.5791C22.0754 56.5528 21.9543 56.4881 21.8592 56.393C21.7641 56.2979 21.6993 56.1767 21.6731 56.0448C21.6468 55.9129 21.6603 55.7762 21.7118 55.6519C21.7632 55.5277 21.8504 55.4215 21.9622 55.3467C22.074 55.272 22.2055 55.2322 22.34 55.2322C22.4293 55.2322 22.5177 55.2497 22.6002 55.2839C22.6827 55.3181 22.7577 55.3682 22.8208 55.4313C22.884 55.4945 22.9341 55.5694 22.9682 55.6519C23.0024 55.7344 23.02 55.8228 23.02 55.9121Z" fill="white"/>
</svg>
