<svg width="98" height="81" viewBox="0 0 98 81" fill="none" xmlns="http://www.w3.org/2000/svg">
<path d="M43.1332 24.7227C44.1412 29.0566 44.405 33.5304 43.9132 37.9527C43.7632 38.8527 43.4632 39.8927 43.2532 41.8727C43.0032 44.3127 43.1732 45.3827 42.6632 45.5927C42.1532 45.8027 41.5532 45.1827 39.3732 42.7327C37.5532 40.7327 36.6432 39.6827 36.0732 38.9127C33.7813 35.9108 31.706 32.7495 29.8632 29.4527C25.8632 21.5527 25.6432 8.13274 29.2832 6.83274C32.9232 5.53274 40.9432 15.7627 43.1332 24.7227Z" fill="#FFC5D2"/>
<path d="M42.6932 45.8427C42.6507 45.8431 42.6089 45.8322 42.572 45.8111C42.5351 45.79 42.5044 45.7595 42.4832 45.7227C35.1706 33.931 30.5855 20.6541 29.0632 6.86274C29.0573 6.79683 29.0769 6.73119 29.1177 6.67916C29.1586 6.62714 29.2178 6.59266 29.2832 6.58274C29.3161 6.57855 29.3494 6.58094 29.3814 6.58977C29.4133 6.5986 29.4431 6.61368 29.4692 6.63415C29.4952 6.65463 29.517 6.68007 29.5331 6.70901C29.5493 6.73795 29.5595 6.76981 29.5632 6.80274C30.4006 14.359 32.1604 21.7843 34.8032 28.9127C36.9502 34.6833 39.6635 40.227 42.9032 45.4627C42.9212 45.49 42.9335 45.5207 42.9392 45.5529C42.945 45.5851 42.9441 45.6182 42.9366 45.65C42.9291 45.6818 42.9151 45.7118 42.8956 45.7381C42.8761 45.7643 42.8515 45.7864 42.8232 45.8027C42.7852 45.8295 42.7397 45.8435 42.6932 45.8427Z" fill="#BBBBF9"/>
<path d="M58.1332 22.7427C56.728 26.9617 54.6218 30.9137 51.9032 34.4327C50.9833 35.3882 50.1122 36.3895 49.2932 37.4327C47.8032 39.3827 47.4032 40.3827 46.8532 40.2927C46.3032 40.2027 46.1232 39.3727 45.5332 36.1427C45.0432 33.4527 44.8032 32.1427 44.7032 31.1427C44.3175 27.3825 44.1972 23.5998 44.3432 19.8227C45.0432 11.0027 51.8432 -0.567257 55.6332 0.222743C59.4232 1.01274 60.8532 13.9327 58.1332 22.7427Z" fill="#FFC5D2"/>
<path d="M46.8032 40.5527C46.7369 40.5527 46.6733 40.5264 46.6264 40.4795C46.5795 40.4326 46.5532 40.369 46.5532 40.3027C46.4596 26.4267 49.4697 12.7054 55.3632 0.14274C55.3914 0.0833806 55.4418 0.0375096 55.5036 0.0150519C55.5653 -0.00740585 55.6334 -0.00464402 55.6932 0.0227404C55.7525 0.0509347 55.7984 0.101367 55.8209 0.163126C55.8433 0.224885 55.8406 0.293003 55.8132 0.35274C49.9461 12.8657 46.953 26.5329 47.0532 40.3527C47.0434 40.411 47.0126 40.4636 46.9664 40.5005C46.9203 40.5374 46.8622 40.556 46.8032 40.5527Z" fill="#BBBBF9"/>
<path d="M22.0932 33.8327H75.0432C78.0693 33.8327 80.9715 35.0349 83.1113 37.1746C85.2511 39.3144 86.4532 42.2166 86.4532 45.2427V58.5027H10.6732V45.2427C10.6732 43.7435 10.9687 42.259 11.5427 40.874C12.1167 39.489 12.9581 38.2308 14.0186 37.1711C15.0792 36.1115 16.3382 35.2712 17.7237 34.6984C19.1092 34.1256 20.594 33.8314 22.0932 33.8327Z" fill="#E3E3FD"/>
<path d="M14.2932 79.5227L13.2932 79.1227C14.1732 75.9694 15.0465 72.8261 15.9132 69.6927L18.3332 70.6327L14.2932 79.5227Z" fill="#3F469A"/>
<path d="M82.8232 79.5227L83.8232 79.1227C82.9499 75.9694 82.0766 72.8261 81.2032 69.6927L78.7932 70.6327C80.1332 73.5927 81.4766 76.5561 82.8232 79.5227Z" fill="#3F469A"/>
<path d="M79.7632 72.4927H17.3632C14.8834 72.4927 12.5052 71.5077 10.7518 69.7542C8.9983 68.0007 8.01321 65.6225 8.01321 63.1427H89.1332C89.1332 64.3723 88.8907 65.5898 88.4196 66.7255C87.9485 67.8612 87.2579 68.8928 86.3876 69.7613C85.5173 70.6298 84.4841 71.3181 83.3474 71.7868C82.2107 72.2555 80.9928 72.4954 79.7632 72.4927Z" fill="#E3E3FD"/>
<path d="M89.4032 63.1427H7.7132C7.32272 63.1658 6.93168 63.1088 6.56403 62.9753C6.19637 62.8417 5.85989 62.6345 5.57526 62.3661C5.29062 62.0978 5.06385 61.7742 4.90884 61.4151C4.75384 61.0559 4.67386 60.6689 4.67386 60.2777C4.67386 59.8866 4.75384 59.4996 4.90884 59.1404C5.06385 58.7813 5.29062 58.4576 5.57526 58.1893C5.85989 57.921 6.19637 57.7137 6.56403 57.5802C6.93168 57.4466 7.32272 57.3897 7.7132 57.4127H89.4032C89.7937 57.3897 90.1847 57.4466 90.5524 57.5802C90.9201 57.7137 91.2565 57.921 91.5412 58.1893C91.8258 58.4576 92.0526 58.7813 92.2076 59.1404C92.3626 59.4996 92.4425 59.8866 92.4425 60.2777C92.4425 60.6689 92.3626 61.0559 92.2076 61.4151C92.0526 61.7742 91.8258 62.0978 91.5412 62.3661C91.2565 62.6345 90.9201 62.8417 90.5524 62.9753C90.1847 63.1088 89.7937 63.1658 89.4032 63.1427Z" fill="#E3E3FD"/>
<path d="M89.1332 63.3127H8.0332C7.99873 63.3127 7.96566 63.299 7.94128 63.2747C7.91691 63.2503 7.9032 63.2172 7.9032 63.1827C7.90314 63.1661 7.90656 63.1496 7.91321 63.1344C7.91985 63.1191 7.92958 63.1054 7.9418 63.0941C7.95403 63.0829 7.96849 63.0742 7.98422 63.0688C7.99996 63.0634 8.01663 63.0614 8.0332 63.0627H89.1332C89.165 63.0627 89.1955 63.0754 89.218 63.0979C89.2406 63.1204 89.2532 63.1509 89.2532 63.1827C89.2546 63.1993 89.2525 63.216 89.2471 63.2317C89.2417 63.2475 89.2331 63.2619 89.2218 63.2741C89.2105 63.2864 89.1968 63.2961 89.1815 63.3028C89.1663 63.3094 89.1498 63.3128 89.1332 63.3127Z" fill="#BBBBF9"/>
<path d="M5.28134 47.0818L5.00537 47.171C2.24097 48.0638 0.723819 51.0286 1.6167 53.793L4.12473 61.558C5.0176 64.3224 7.98239 65.8396 10.7468 64.9467L11.0228 64.8576C13.7872 63.9647 15.3043 60.9999 14.4115 58.2355L11.9034 50.4705C11.0106 47.7061 8.04574 46.1889 5.28134 47.0818Z" fill="#E3E3FD"/>
<path d="M9.13321 65.3127C7.98375 65.3316 6.85859 64.9811 5.92322 64.3127C5.91203 64.3016 5.90315 64.2884 5.89709 64.2738C5.89104 64.2592 5.88791 64.2435 5.88791 64.2277C5.88791 64.2119 5.89104 64.1963 5.89709 64.1817C5.90315 64.1671 5.91203 64.1539 5.92322 64.1427C5.93437 64.1316 5.9476 64.1227 5.96219 64.1166C5.97677 64.1106 5.99242 64.1075 6.00821 64.1075C6.024 64.1075 6.03964 64.1106 6.05423 64.1166C6.06882 64.1227 6.08205 64.1316 6.0932 64.1427C6.75039 64.6294 7.51423 64.9522 8.32123 65.0844C9.12823 65.2166 9.95511 65.1543 10.7332 64.9027L11.0132 64.8127C12.3074 64.3936 13.382 63.4775 14.0009 62.2661C14.6197 61.0546 14.7321 59.647 14.3132 58.3527L11.3132 49.5327C11.3035 49.5009 11.3064 49.4666 11.3213 49.4368C11.3362 49.407 11.3619 49.3841 11.3932 49.3727C11.425 49.3653 11.4584 49.3692 11.4876 49.3839C11.5169 49.3985 11.5401 49.4228 11.5532 49.4527L14.5532 58.2827C14.9906 59.6407 14.8708 61.1167 14.2201 62.3863C13.5693 63.6558 12.441 64.615 11.0832 65.0527L10.8032 65.1427C10.2597 65.2907 9.69543 65.3482 9.13321 65.3127Z" fill="#BBBBF9"/>
<path d="M6.67323 54.5427C6.33027 54.5501 5.98958 54.4854 5.67323 54.3527C5.35503 54.2302 5.0644 54.0457 4.81825 53.8097C4.57209 53.5738 4.37533 53.2913 4.23945 52.9785C4.10357 52.6658 4.03128 52.3292 4.02677 51.9883C4.02227 51.6473 4.08563 51.3089 4.21321 50.9927C4.33429 50.6733 4.51906 50.3818 4.7563 50.136C4.99353 49.8901 5.27827 49.6951 5.59321 49.5627C6.2189 49.3075 6.91943 49.3058 7.54631 49.5582C8.17319 49.8105 8.67718 50.297 8.95152 50.9146C9.22585 51.5322 9.24895 52.2323 9.01594 52.8666C8.78293 53.5009 8.3121 54.0196 7.70323 54.3127C7.37879 54.4577 7.02851 54.5359 6.67323 54.5427ZM6.67323 49.5427C6.35222 49.5395 6.03449 49.6078 5.74321 49.7427C5.21878 49.9759 4.79939 50.3951 4.56605 50.9194C4.33271 51.4438 4.302 52.036 4.47984 52.5816C4.65768 53.1273 5.03145 53.5877 5.52894 53.8738C6.02643 54.1599 6.61233 54.2515 7.17341 54.1308C7.73449 54.0102 8.23093 53.6858 8.56681 53.2205C8.90269 52.7551 9.05415 52.1818 8.99195 51.6113C8.92976 51.0408 8.65831 50.5135 8.23005 50.1315C7.80179 49.7494 7.24713 49.5397 6.67323 49.5427Z" fill="#BBBBF9"/>
<path d="M86.1001 64.8658L86.376 64.955C89.1404 65.8478 92.1052 64.3307 92.9981 61.5663L95.5061 53.8013C96.399 51.0369 94.8818 48.0721 92.1174 47.1792L91.8415 47.09C89.0771 46.1972 86.1123 47.7143 85.2194 50.4787L82.7114 58.2438C81.8185 61.0082 83.3357 63.973 86.1001 64.8658Z" fill="#E3E3FD"/>
<path d="M87.9832 65.3127C87.4227 65.3161 86.8655 65.2283 86.3332 65.0527L86.0532 64.9627C84.6954 64.525 83.5671 63.5658 82.9164 62.2963C82.2656 61.0267 82.1458 59.5507 82.5832 58.1927L85.5832 49.3627C85.5964 49.3328 85.6196 49.3085 85.6488 49.2939C85.678 49.2792 85.7114 49.2753 85.7432 49.2827C85.7745 49.2941 85.8002 49.317 85.8151 49.3468C85.83 49.3766 85.8329 49.4109 85.8232 49.4427L82.8232 58.2727C82.4074 59.5657 82.5213 60.9708 83.1399 62.1799C83.7585 63.389 84.8314 64.3035 86.1232 64.7227L86.4032 64.8127C87.1812 65.0651 88.0083 65.1278 88.8154 64.9956C89.6226 64.8634 90.3864 64.5401 91.0432 64.0527C91.0543 64.0416 91.0676 64.0327 91.0822 64.0266C91.0968 64.0206 91.1124 64.0174 91.1282 64.0174C91.144 64.0174 91.1596 64.0206 91.1742 64.0266C91.1888 64.0327 91.2021 64.0416 91.2132 64.0527C91.2244 64.0639 91.2333 64.0771 91.2394 64.0917C91.2454 64.1063 91.2485 64.1219 91.2485 64.1377C91.2485 64.1535 91.2454 64.1692 91.2394 64.1838C91.2333 64.1983 91.2244 64.2116 91.2132 64.2227C90.2835 64.9272 89.1497 65.3099 87.9832 65.3127Z" fill="#BBBBF9"/>
<path d="M90.4533 54.5427C90.1088 54.5349 89.7692 54.4601 89.4533 54.3227C89.1401 54.1869 88.8568 53.9906 88.6198 53.7449C88.3828 53.4993 88.1966 53.2092 88.0721 52.8914C87.9476 52.5735 87.8871 52.2342 87.8942 51.8929C87.9012 51.5517 87.9757 51.2151 88.1132 50.9027C88.2456 50.5878 88.4406 50.3031 88.6865 50.0658C88.9323 49.8286 89.2238 49.6438 89.5432 49.5227C89.8599 49.3902 90.1999 49.3219 90.5432 49.3219C90.8866 49.3219 91.2265 49.3902 91.5432 49.5227C92.1722 49.8012 92.6658 50.3167 92.9167 50.9571C93.1676 51.5975 93.1556 52.3111 92.8832 52.9427C92.7402 53.2582 92.5357 53.5418 92.2815 53.7771C92.0273 54.0124 91.7288 54.1945 91.4033 54.3127C91.1054 54.4527 90.7822 54.5309 90.4533 54.5427ZM90.4533 49.5427C89.9149 49.5447 89.3936 49.7315 88.9764 50.0718C88.5593 50.4121 88.2716 50.8852 88.1616 51.4122C88.0515 51.9392 88.1257 52.4879 88.3717 52.9668C88.6178 53.4456 89.0207 53.8254 89.5132 54.0427C90.0839 54.2884 90.7283 54.2991 91.3068 54.0725C91.8853 53.846 92.3511 53.4005 92.6032 52.8327C92.8509 52.2612 92.8616 51.6146 92.6329 51.0352C92.4041 50.4558 91.9546 49.9909 91.3832 49.7427C91.0883 49.624 90.7706 49.5727 90.4533 49.5927V49.5427Z" fill="#BBBBF9"/>
<path d="M82.9132 57.0927H13.9832C13.9666 57.0941 13.9499 57.0921 13.9342 57.0866C13.9185 57.0812 13.904 57.0726 13.8918 57.0613C13.8796 57.0501 13.8698 57.0364 13.8632 57.0211C13.8565 57.0058 13.8532 56.9894 13.8532 56.9727C13.8532 56.9383 13.8669 56.9052 13.8913 56.8808C13.9157 56.8564 13.9487 56.8427 13.9832 56.8427H82.9132C82.9299 56.8427 82.9463 56.8461 82.9616 56.8527C82.9768 56.8594 82.9905 56.8691 83.0018 56.8813C83.0131 56.8936 83.0217 56.908 83.0271 56.9237C83.0325 56.9395 83.0346 56.9562 83.0332 56.9727C83.0332 57.0046 83.0206 57.0351 82.9981 57.0576C82.9756 57.0801 82.9451 57.0927 82.9132 57.0927Z" fill="#BBBBF9"/>
<path d="M46.3032 43.6327L42.6332 44.8027C41.7199 42.9094 40.8132 41.0127 39.9132 39.1127C39.7432 38.7527 39.5532 38.3727 39.3832 38.0027C39.2132 37.6327 38.9832 37.1727 38.7932 36.7527C38.6032 36.3327 38.5032 36.1727 38.3732 35.8827L38.2532 27.3127C38.5053 27.3209 38.7563 27.3511 39.0032 27.4027C40.4832 27.7627 41.8632 29.2727 44.0832 35.9327C44.0832 36.0927 44.1932 36.2527 44.2432 36.4227C44.2932 36.5927 44.3232 36.7027 44.3732 36.8327L44.5132 37.2427C45.0332 38.9127 45.6632 41.0727 46.3032 43.6327Z" fill="#FF8C64"/>
<path d="M44.2432 36.4327L39.9132 39.1127C39.7432 38.7527 39.5532 38.3727 39.3832 38.0027C39.2132 37.6327 38.9832 37.1727 38.7932 36.7527L44.2432 36.4327Z" fill="#122275"/>
<path d="M37.9032 38.4727L44.7132 36.3127L41.2432 28.6627C40.9429 27.9584 40.3918 27.3906 39.6967 27.0694C39.0016 26.7483 38.212 26.6967 37.481 26.9246C36.75 27.1525 36.1297 27.6436 35.7402 28.3029C35.3508 28.9622 35.22 29.7425 35.3732 30.4927L37.9032 38.4727Z" fill="#5B98E8"/>
<path d="M41.1332 56.0627C41.5538 56.4754 42.1094 56.722 42.6976 56.757C43.2858 56.7919 43.8668 56.6128 44.3332 56.2527C44.5595 56.057 44.7432 55.817 44.873 55.5475C45.0029 55.278 45.0762 54.9848 45.0884 54.6859C45.1005 54.387 45.0514 54.0887 44.9438 53.8096C44.8363 53.5304 44.6728 53.2762 44.4632 53.0627L44.3232 52.9027C44.0632 52.6227 43.8032 52.3427 43.5632 52.0627C43.1769 51.9836 42.778 51.9901 42.3945 52.0816C42.0109 52.1732 41.6521 52.3476 41.3432 52.5927C40.8604 53.0281 40.5678 53.6358 40.5285 54.2848C40.4892 54.9338 40.7064 55.5723 41.1332 56.0627Z" fill="#FF8C64"/>
<path d="M52.5832 78.0127L42.5832 80.8527C42.3015 80.3909 42.172 79.8522 42.2132 79.3127C42.2322 79.1337 42.2657 78.9564 42.3132 78.7827C42.5271 77.9351 42.5511 77.0507 42.3832 76.1927L44.1332 75.4727C47.2832 77.9027 48.7532 78.1527 49.5032 77.8927C50.0332 77.7027 50.6432 77.8927 51.1832 77.7127C51.5332 77.6227 51.9532 77.4627 52.2732 77.7127C52.4044 77.7792 52.5124 77.8838 52.5832 78.0127Z" fill="#FF8C64"/>
<path d="M35.8432 57.5727C34.0332 58.8527 31.9632 58.3127 27.8432 57.9227H27.5432C25.765 57.6477 24.0238 57.1713 22.3532 56.5027C21.9168 55.5646 21.7078 54.5368 21.7432 53.5027L24.6732 49.7427C25.672 49.6717 26.6745 49.6717 27.6732 49.7427C33.4632 50.2127 35.4132 51.5527 36.4232 52.6227C36.7731 52.9175 37.0592 53.2807 37.2638 53.6899C37.4684 54.0992 37.5873 54.5459 37.6132 55.0027C37.5306 55.5367 37.3285 56.0451 37.0221 56.4901C36.7156 56.9351 36.3126 57.3052 35.8432 57.5727Z" fill="#FF8C64"/>
<path d="M33.2032 46.1527L31.0632 49.1527C30.3657 50.2572 29.5939 51.313 28.7532 52.3127C27.1132 53.9127 24.1932 55.0427 22.5232 54.3127C20.0932 53.3127 19.0132 47.9127 21.1632 41.1527C21.8432 39.6627 22.4332 38.3827 23.1032 36.8927C23.1032 36.2227 23.1032 35.5227 23.1032 34.8127C23.2244 32.4438 23.6102 30.0959 24.2532 27.8127C24.486 27.0073 24.8795 26.2573 25.41 25.6081C25.9405 24.9588 26.597 24.4237 27.3398 24.035C28.0827 23.6462 28.8966 23.412 29.7324 23.3463C30.5682 23.2806 31.4088 23.3848 32.2032 23.6527C33.3822 24.0471 34.5289 24.5319 35.6332 25.1027C36.0232 25.3127 36.4032 25.5227 36.7732 25.7427C37.5676 26.2193 38.3323 26.7435 39.0632 27.3127C40.5632 28.6027 39.6332 32.5027 39.3032 33.8127C37.9732 39.2127 35.1332 43.3127 33.2032 46.1527Z" fill="#FF8C64"/>
<path d="M29.9532 52.9727C29.9375 53.7655 29.7313 54.5428 29.3518 55.239C28.9724 55.9352 28.4309 56.5299 27.7732 56.9727C26.8436 57.6127 25.7307 57.9321 24.6032 57.8827C23.7708 57.8497 22.9577 57.6228 22.2285 57.22C21.4994 56.8172 20.8743 56.2497 20.4032 55.5627C19.8038 54.6801 19.5024 53.6289 19.5432 52.5627C19.5618 51.8892 19.7164 51.2264 19.9976 50.6142C20.2788 50.0019 20.6809 49.4528 21.1796 48.9998C21.6784 48.5468 22.2636 48.1993 22.9 47.9781C23.5364 47.7569 24.211 47.6667 24.8832 47.7127C25.9927 47.7524 27.0623 48.1369 27.9432 48.8127C28.5838 49.2973 29.1001 49.9272 29.4496 50.6505C29.7991 51.3737 29.9717 52.1697 29.9532 52.9727Z" fill="#FF8C64"/>
<path d="M42.7132 56.6227C40.9132 57.9027 38.8332 57.3627 34.7132 56.9727H34.4232C32.6438 56.7082 30.9018 56.235 29.2332 55.5627C28.7934 54.6254 28.581 53.5976 28.6132 52.5627L31.5532 48.8027C32.5521 48.737 33.5543 48.737 34.5532 48.8027C40.3432 49.2727 42.2932 50.6127 43.3032 51.6927C43.6545 51.9856 43.9409 52.3486 44.1441 52.7584C44.3473 53.1681 44.4628 53.6158 44.4832 54.0727C44.3999 54.6038 44.1973 55.1092 43.8908 55.5508C43.5842 55.9925 43.1817 56.3589 42.7132 56.6227Z" fill="#FF8C64"/>
<path d="M35.7732 52.2227C35.7747 52.992 35.6018 53.7515 35.2675 54.4443C34.9332 55.1371 34.4463 55.7452 33.8432 56.2227C33.045 56.8503 32.0476 57.1697 31.0332 57.1227C30.2676 57.0769 29.5254 56.8407 28.8741 56.4356C28.2228 56.0304 27.6829 55.4692 27.3032 54.8027C26.7755 53.915 26.5118 52.8951 26.5432 51.8627C26.5272 51.2303 26.638 50.601 26.869 50.0119C27.1 49.4229 27.4466 48.8861 27.8884 48.4332C28.3301 47.9803 28.8581 47.6204 29.4411 47.3747C30.0242 47.129 30.6506 47.0025 31.2832 47.0027C32.2866 47.0532 33.2427 47.4449 33.9932 48.1127C34.573 48.6255 35.033 49.2594 35.3406 49.9697C35.6482 50.6799 35.7959 51.4491 35.7732 52.2227Z" fill="#FF8C64"/>
<path d="M44.7632 75.9227L42.5532 76.7427C42.2532 76.1727 41.7832 75.2827 41.1532 74.2327C37.9132 68.7927 35.6532 67.4327 34.1532 64.0427C33.1374 61.7426 32.6882 59.2324 32.8432 56.7227L36.3432 54.0427C36.4532 54.2327 36.6232 54.5327 36.8232 54.9127C37.9308 57.015 38.7098 59.2746 39.1332 61.6127C39.5232 63.6627 40.8132 67.6027 44.7632 75.9227Z" fill="#FF8C64"/>
<path d="M39.6632 19.4927C39.3588 19.8496 39.075 20.2235 38.8132 20.6127C38.6364 20.869 38.4761 21.1362 38.3332 21.4127C38.0689 21.8934 37.8448 22.3951 37.6632 22.9127C37.6032 23.0727 37.5532 23.2427 37.4932 23.4227C37.4332 23.6027 37.4032 23.7927 37.3532 23.9727C37.1433 24.8904 37.0592 25.8324 37.1032 26.7727L31.2632 24.2127L35.0532 17.4627L39.6632 19.4927Z" fill="#FF8C64"/>
<path d="M38.3332 21.4127C38.0689 21.8934 37.8448 22.3951 37.6633 22.9127C37.2761 22.6312 36.953 22.2709 36.7151 21.8555C36.4773 21.4401 36.3301 20.9791 36.2832 20.5027C36.2587 20.26 36.2587 20.0154 36.2832 19.7727L38.2832 19.4927C38.2351 20.1328 38.2519 20.7761 38.3332 21.4127Z" fill="#122275"/>
<path d="M41.1332 12.1927C41.2132 12.7827 41.3032 13.4727 41.3532 14.2727V14.4727C41.3532 14.6227 41.3532 14.7827 41.3532 14.9527C41.3532 14.9527 41.3532 14.9527 41.3532 15.0027V15.1227C41.3532 15.5327 41.3532 15.7927 41.3532 15.9927C41.3532 16.3527 41.3532 16.4127 41.3532 16.6427C41.3532 16.8727 41.4832 17.1127 41.5432 17.4527C41.5881 17.7376 41.5881 18.0278 41.5432 18.3127C41.3632 19.9027 41.2732 20.7127 40.7832 21.3127C39.5232 22.7227 36.2632 21.7127 35.1532 20.7827C34.8186 20.4853 34.5199 20.1496 34.2632 19.7827C34.0799 19.4974 33.9226 19.1962 33.7932 18.8827C33.5042 18.1199 33.3127 17.3236 33.2232 16.5127C33.0905 15.2372 33.199 13.9481 33.5432 12.7127C34.6841 11.8502 36.0637 11.3612 37.4932 11.3127C38.7649 11.2601 40.026 11.565 41.1332 12.1927Z" fill="#FF8C64"/>
<path d="M38.5432 15.0227C38.6432 14.7527 38.5932 14.6227 38.5432 14.5527C38.2832 14.1927 37.0132 14.4327 36.2732 15.1627C36.0913 15.3442 35.9393 15.5535 35.8232 15.7827L36.0032 15.7127C36.4532 15.5327 36.6132 15.4227 36.9232 15.3127C37.0805 15.2544 37.2407 15.2043 37.4032 15.1627C37.7776 15.0782 38.1595 15.0313 38.5432 15.0227Z" fill="#122275"/>
<path d="M41.3832 14.3127V14.5127C41.3832 14.6627 41.3832 14.8227 41.3832 14.9927C41.0807 14.9613 40.7757 14.9613 40.4732 14.9927C40.3532 14.7227 40.3932 14.5927 40.4732 14.5227C40.5532 14.4527 40.9632 14.2027 41.3832 14.3127Z" fill="#122275"/>
<path d="M39.9032 18.5727C40.0524 18.6686 40.2331 18.7023 40.4068 18.6669C40.5806 18.6314 40.7336 18.5294 40.8332 18.3827L39.9032 18.5727Z" fill="#122275"/>
<path d="M40.0732 20.5727C40.0445 20.5731 40.0167 20.5633 39.9947 20.5449C39.9727 20.5266 39.958 20.501 39.9532 20.4727C39.9472 20.4397 39.9543 20.4056 39.973 20.3776C39.9916 20.3496 40.0203 20.33 40.0532 20.3227L40.5532 20.2327C40.5697 20.2283 40.5869 20.2275 40.6037 20.2302C40.6205 20.233 40.6366 20.2393 40.6508 20.2488C40.665 20.2583 40.677 20.2707 40.686 20.2851C40.6951 20.2996 40.7009 20.3158 40.7032 20.3327C40.7064 20.3669 40.697 20.401 40.6767 20.4287C40.6564 20.4563 40.6267 20.4755 40.5932 20.4827L40.0932 20.5727H40.0732Z" fill="#EA522F"/>
<path d="M41.0732 19.2127C41.1532 19.4127 40.6632 19.9127 40.0732 20.0027C39.7682 20.0052 39.4673 19.9325 39.1971 19.7913C38.9268 19.65 38.6954 19.4445 38.5232 19.1927C38.8832 19.1927 39.4432 19.1027 40.1332 19.0927C40.8232 19.0827 41.0432 19.1327 41.0732 19.2127Z" fill="white"/>
<path d="M38.2632 13.9827H37.4332C36.4332 13.9827 36.4332 13.9227 36.2832 13.9827C35.4332 14.3427 36.0032 16.8327 35.4232 16.9827C35.0032 17.1127 34.4232 15.9027 34.0632 15.9827C33.7032 16.0627 33.7332 17.1827 33.9132 18.7027C33.7204 18.1847 33.5 17.6773 33.2532 17.1827C32.5632 15.8427 32.0932 15.4927 32.1132 14.6927C32.1139 14.1844 32.2788 13.6899 32.5832 13.2827C32.9532 12.8027 33.4032 12.6927 33.4332 12.2827C33.4632 11.8727 33.0432 11.7727 33.1132 11.5127C33.1832 11.2527 33.9832 11.3927 34.8132 10.8727C35.3232 10.5527 35.2732 10.3227 35.8132 10.1227C35.9132 10.1227 36.6532 9.79274 37.0732 10.1227C37.3032 10.3127 37.2432 10.5527 37.5332 10.7227C37.7258 10.8267 37.9492 10.8586 38.1632 10.8127C38.6032 10.7427 38.7532 10.4327 38.9532 10.5127C39.1532 10.5927 39.0632 10.9027 39.2632 10.9827C39.4632 11.0627 39.6032 10.8427 39.9232 10.7127C40.3164 10.5646 40.75 10.5646 41.1432 10.7127C41.4532 10.8227 42.0832 11.1427 42.0832 11.5727C42.0832 11.7927 41.9232 11.9727 41.4532 12.3227C40.5765 13.1781 39.4668 13.7556 38.2632 13.9827Z" fill="#3F469A"/>
<path d="M33.4033 17.4127C33.5633 18.0527 34.0832 18.4827 34.5532 18.3627C34.8053 18.2504 35.0048 18.0459 35.1108 17.7911C35.2168 17.5364 35.2212 17.2507 35.1232 16.9927C34.9632 16.3427 34.4433 15.9227 33.9733 16.0427C33.7212 16.1551 33.5217 16.3596 33.4157 16.6144C33.3097 16.8691 33.3053 17.1548 33.4033 17.4127Z" fill="#FF8C64"/>
<path d="M34.3932 18.5027C34.2439 18.4994 34.0972 18.4626 33.964 18.3951C33.8307 18.3276 33.7143 18.2311 33.6232 18.1127C33.6 18.0885 33.587 18.0563 33.587 18.0227C33.587 17.9892 33.6 17.9569 33.6232 17.9327C33.6484 17.9116 33.6803 17.9 33.7132 17.9C33.7461 17.9 33.778 17.9116 33.8032 17.9327C33.8818 18.044 33.9899 18.1311 34.1154 18.1841C34.2409 18.2371 34.3787 18.254 34.5132 18.2327C34.6255 18.2026 34.7264 18.14 34.8032 18.0527C34.8143 18.0416 34.8276 18.0327 34.8422 18.0266C34.8568 18.0206 34.8724 18.0174 34.8882 18.0174C34.904 18.0174 34.9196 18.0206 34.9342 18.0266C34.9488 18.0327 34.9621 18.0416 34.9732 18.0527C34.986 18.064 34.9962 18.0779 35.0032 18.0934C35.0102 18.1089 35.0138 18.1257 35.0138 18.1427C35.0138 18.1598 35.0102 18.1766 35.0032 18.1921C34.9962 18.2076 34.986 18.2215 34.9732 18.2327C34.8642 18.3547 34.7215 18.4416 34.5632 18.4827C34.5077 18.4972 34.4505 18.504 34.3932 18.5027Z" fill="#EA522F"/>
<path d="M33.6132 18.0227C33.5926 18.0231 33.5723 18.0177 33.5546 18.0071C33.5369 17.9965 33.5226 17.9811 33.5132 17.9627C33.4267 17.8331 33.3593 17.6916 33.3132 17.5427C33.3086 17.5276 33.307 17.5118 33.3085 17.4961C33.31 17.4803 33.3146 17.4651 33.3221 17.4511C33.3295 17.4372 33.3396 17.4249 33.3518 17.4148C33.3641 17.4048 33.3781 17.3973 33.3932 17.3927C33.4089 17.3865 33.4257 17.3837 33.4426 17.3844C33.4595 17.3851 33.476 17.3894 33.4911 17.397C33.5062 17.4045 33.5195 17.4152 33.5303 17.4282C33.541 17.4413 33.5488 17.4564 33.5532 17.4727C33.5935 17.5998 33.6507 17.7209 33.7232 17.8327C33.7344 17.8439 33.7433 17.8571 33.7494 17.8717C33.7554 17.8863 33.7585 17.9019 33.7585 17.9177C33.7585 17.9335 33.7554 17.9492 33.7494 17.9638C33.7433 17.9783 33.7344 17.9916 33.7232 18.0027L33.6132 18.0227Z" fill="#EA522F"/>
<path d="M33.3832 17.4127C33.3533 17.4135 33.3241 17.404 33.3004 17.3858C33.2768 17.3676 33.2601 17.3418 33.2532 17.3127C33.1739 17.0367 33.2007 16.741 33.3284 16.4838C33.4561 16.2266 33.6754 16.0264 33.9432 15.9227C34.0619 15.8976 34.1845 15.8976 34.3032 15.9227C34.3225 15.9172 34.3429 15.9163 34.3627 15.9199C34.3825 15.9236 34.4011 15.9318 34.4172 15.944C34.4333 15.9561 34.4463 15.9718 34.4553 15.9898C34.4643 16.0078 34.4689 16.0276 34.4689 16.0477C34.4689 16.0679 34.4643 16.0877 34.4553 16.1057C34.4463 16.1237 34.4333 16.1394 34.4172 16.1515C34.4011 16.1636 34.3825 16.1719 34.3627 16.1755C34.3429 16.1792 34.3225 16.1783 34.3032 16.1727C34.221 16.1528 34.1353 16.1528 34.0532 16.1727C33.8503 16.2668 33.6882 16.4307 33.5963 16.6346C33.5045 16.8384 33.4892 17.0685 33.5532 17.2827C33.556 17.2985 33.5557 17.3147 33.5522 17.3304C33.5487 17.346 33.5421 17.3608 33.5327 17.3739C33.5234 17.3869 33.5116 17.398 33.4979 17.4064C33.4843 17.4148 33.4691 17.4203 33.4532 17.4227L33.3832 17.4127Z" fill="#EA522F"/>
<path d="M34.5832 17.8327C34.5622 17.8339 34.5412 17.83 34.5221 17.8213C34.5029 17.8126 34.4862 17.7994 34.4732 17.7827L33.7832 16.8327C33.76 16.8085 33.747 16.7763 33.747 16.7427C33.747 16.7092 33.76 16.6769 33.7832 16.6527C33.7944 16.6416 33.8076 16.6327 33.8222 16.6266C33.8368 16.6206 33.8524 16.6174 33.8682 16.6174C33.884 16.6174 33.8996 16.6206 33.9142 16.6266C33.9288 16.6327 33.9421 16.6416 33.9532 16.6527L34.6532 17.6527C34.6644 17.6639 34.6733 17.6771 34.6794 17.6917C34.6854 17.7063 34.6885 17.7219 34.6885 17.7377C34.6885 17.7535 34.6854 17.7692 34.6794 17.7838C34.6733 17.7983 34.6644 17.8116 34.6532 17.8227C34.6319 17.8345 34.607 17.838 34.5832 17.8327Z" fill="#EA522F"/>
<path d="M34.2132 17.3127C34.1032 17.3127 34.0732 17.2227 34.0932 17.1527L34.2132 16.7727C34.2225 16.7396 34.2446 16.7115 34.2746 16.6947C34.3046 16.6778 34.34 16.6735 34.3732 16.6827C34.4045 16.6941 34.4302 16.717 34.4451 16.7468C34.46 16.7766 34.4629 16.8109 34.4532 16.8427L34.3332 17.2327C34.3233 17.2564 34.3066 17.2767 34.2853 17.2909C34.2639 17.3051 34.2389 17.3127 34.2132 17.3127Z" fill="#EA522F"/>
<path d="M42.4432 80.9527L52.6332 78.1327C52.7457 78.0206 52.8133 77.8712 52.8232 77.7127C52.82 77.5771 52.775 77.4458 52.6945 77.3367C52.614 77.2275 52.5018 77.1459 52.3732 77.1027C51.3342 76.8917 50.2816 76.7547 49.2232 76.6927C48.6632 76.6927 48.1432 76.6927 47.6432 76.6927L46.3332 78.9927L42.3332 80.1527C42.2474 80.2575 42.1982 80.3874 42.1932 80.5227C42.1997 80.6086 42.2255 80.692 42.2688 80.7664C42.3121 80.8409 42.3717 80.9046 42.4432 80.9527Z" fill="#5B98E8"/>
<path d="M37.0532 17.3127C37.0275 17.3228 36.999 17.3228 36.9732 17.3127C36.95 17.2885 36.937 17.2563 36.937 17.2227C36.937 17.1892 36.95 17.1569 36.9732 17.1327C37.2529 16.733 37.663 16.443 38.1332 16.3127C38.4032 16.2527 38.6832 16.2527 38.9532 16.3127C38.9701 16.315 38.9864 16.3208 39.0008 16.3299C39.0153 16.3389 39.0277 16.3509 39.0371 16.3651C39.0466 16.3793 39.0529 16.3954 39.0557 16.4122C39.0585 16.429 39.0576 16.4463 39.0532 16.4627C39.0508 16.4786 39.0452 16.4938 39.0368 16.5075C39.0284 16.5211 39.0174 16.533 39.0043 16.5423C38.9913 16.5516 38.9765 16.5582 38.9608 16.5617C38.9452 16.5653 38.929 16.5656 38.9132 16.5627C38.6759 16.5125 38.4306 16.5125 38.1932 16.5627C37.7963 16.6609 37.4441 16.8899 37.1932 17.2127C37.1908 17.2286 37.1852 17.2438 37.1768 17.2575C37.1685 17.2711 37.1574 17.283 37.1443 17.2923C37.1313 17.3016 37.1165 17.3082 37.1009 17.3117C37.0852 17.3153 37.069 17.3156 37.0532 17.3127Z" fill="#122275"/>
<path d="M38.7132 16.8227C38.7221 16.8771 38.7191 16.9328 38.7044 16.9859C38.6896 17.039 38.6635 17.0882 38.6278 17.1302C38.5922 17.1722 38.5478 17.2059 38.4978 17.2291C38.4478 17.2522 38.3933 17.2642 38.3382 17.2642C38.2831 17.2642 38.2287 17.2522 38.1787 17.2291C38.1287 17.2059 38.0843 17.1722 38.0486 17.1302C38.0129 17.0882 37.9868 17.039 37.9721 16.9859C37.9573 16.9328 37.9543 16.8771 37.9632 16.8227C37.9543 16.7684 37.9573 16.7127 37.9721 16.6596C37.9868 16.6065 38.0129 16.5573 38.0486 16.5153C38.0843 16.4733 38.1287 16.4396 38.1787 16.4164C38.2287 16.3933 38.2831 16.3813 38.3382 16.3813C38.3933 16.3813 38.4478 16.3933 38.4978 16.4164C38.5478 16.4396 38.5922 16.4733 38.6278 16.5153C38.6635 16.5573 38.6896 16.6065 38.7044 16.6596C38.7191 16.7127 38.7221 16.7684 38.7132 16.8227Z" fill="#122275"/>
<path d="M39.9132 17.0227C39.8872 17.0312 39.8592 17.0312 39.8332 17.0227C39.822 17.0116 39.8132 16.9983 39.8071 16.9838C39.801 16.9692 39.7979 16.9535 39.7979 16.9377C39.7979 16.9219 39.801 16.9063 39.8071 16.8917C39.8132 16.8771 39.822 16.8639 39.8332 16.8527C40.1127 16.4825 40.5121 16.2209 40.9632 16.1127C41.2366 16.0525 41.5198 16.0525 41.7932 16.1127C41.826 16.12 41.8548 16.1396 41.8734 16.1676C41.8921 16.1956 41.8992 16.2297 41.8932 16.2627C41.891 16.2797 41.8851 16.2959 41.8761 16.3104C41.867 16.3248 41.855 16.3372 41.8409 16.3467C41.8267 16.3561 41.8106 16.3625 41.7937 16.3652C41.7769 16.368 41.7597 16.3672 41.7432 16.3627C41.5058 16.3128 41.2606 16.3128 41.0232 16.3627C40.627 16.4624 40.2751 16.6911 40.0232 17.0127C40.0065 17.0218 39.9881 17.0273 39.9692 17.029C39.9503 17.0308 39.9313 17.0286 39.9132 17.0227Z" fill="#122275"/>
<path d="M41.5832 16.5627C41.5921 16.6171 41.5891 16.6728 41.5744 16.7259C41.5596 16.779 41.5335 16.8282 41.4978 16.8702C41.4622 16.9122 41.4178 16.9459 41.3678 16.9691C41.3178 16.9922 41.2633 17.0042 41.2082 17.0042C41.1531 17.0042 41.0987 16.9922 41.0487 16.9691C40.9987 16.9459 40.9543 16.9122 40.9186 16.8702C40.8829 16.8282 40.8568 16.779 40.8421 16.7259C40.8273 16.6728 40.8243 16.6171 40.8332 16.5627C40.8243 16.5084 40.8273 16.4527 40.8421 16.3996C40.8568 16.3465 40.8829 16.2973 40.9186 16.2553C40.9543 16.2133 40.9987 16.1796 41.0487 16.1564C41.0987 16.1333 41.1531 16.1213 41.2082 16.1213C41.2633 16.1213 41.3178 16.1333 41.3678 16.1564C41.4178 16.1796 41.4622 16.2133 41.4978 16.2553C41.5335 16.2973 41.5596 16.3465 41.5744 16.3996C41.5891 16.4527 41.5921 16.5084 41.5832 16.5627Z" fill="#122275"/>
<path d="M37.1332 54.0527L29.3032 49.6327L34.3832 47.7327C35.6332 48.2127 36.6532 48.5727 37.3332 48.8027C40.3332 49.8027 41.6832 50.1127 43.0532 51.4327C43.3433 51.7075 43.6108 52.0051 43.8532 52.3227L37.1332 54.0527Z" fill="#3F469A"/>
<path d="M22.7032 71.7627L18.4732 62.3127C18.8905 61.9624 19.4094 61.7556 19.9532 61.7227C20.1296 61.7079 20.3069 61.7079 20.4832 61.7227C21.3548 61.8076 22.2344 61.7053 23.0632 61.4227L24.0632 63.0527C22.0632 66.5127 22.0632 68.0027 22.4332 68.7127C22.6932 69.2127 22.6232 69.8327 22.8432 70.3427C22.9932 70.6727 23.2032 71.0727 23.0432 71.4227C22.9722 71.5717 22.8522 71.6917 22.7032 71.7627Z" fill="#FF8C64"/>
<path d="M22.3532 64.2427L21.5832 62.0027C22.1732 61.7227 23.0732 61.2827 24.1432 60.6827C29.6732 57.5927 31.1432 55.3727 34.5232 53.9227C36.8531 52.9715 39.3765 52.591 41.8832 52.8127L44.4632 56.1427C44.2332 56.3027 43.8532 56.5627 43.3532 56.8527C41.3426 58.0079 39.117 58.7396 36.8132 59.0027C34.6832 59.3127 30.6732 60.4027 22.3532 64.2427Z" fill="#FF8C64"/>
<path d="M15.6332 64.7627L22.8732 72.4627C23.0211 72.5207 23.1854 72.5207 23.3332 72.4627C23.4512 72.3968 23.5462 72.2963 23.6052 72.1747C23.6642 72.053 23.6845 71.9162 23.6632 71.7827C23.4132 70.8727 23.1532 69.9427 22.8632 68.9927C22.6732 68.3727 22.4832 67.7727 22.2932 67.1827L19.2032 67.3127L16.3032 64.3127C16.1744 64.2635 16.032 64.2635 15.9032 64.3127C15.8243 64.3593 15.7582 64.4249 15.7111 64.5035C15.6639 64.582 15.6372 64.6712 15.6332 64.7627Z" fill="#5B98E8"/>
<path d="M43.2132 53.4127L41.8432 52.9327C41.8269 52.9283 41.8117 52.9205 41.7987 52.9098C41.7856 52.8991 41.775 52.8857 41.7674 52.8706C41.7599 52.8555 41.7556 52.839 41.7548 52.8221C41.7541 52.8053 41.757 52.7884 41.7632 52.7727C41.7763 52.7428 41.7995 52.7185 41.8288 52.7039C41.858 52.6892 41.8914 52.6853 41.9232 52.6927L43.2532 53.1727C43.2695 53.1772 43.2846 53.185 43.2977 53.1957C43.3107 53.2064 43.3214 53.2197 43.329 53.2348C43.3365 53.2499 43.3408 53.2665 43.3415 53.2833C43.3422 53.3002 43.3394 53.317 43.3332 53.3327C43.3233 53.3564 43.3067 53.3767 43.2853 53.3909C43.2639 53.4051 43.2389 53.4127 43.2132 53.4127Z" fill="#EA522F"/>
<path d="M38.3132 58.6327C38.2846 58.6331 38.2567 58.6233 38.2347 58.6049C38.2127 58.5866 38.198 58.561 38.1932 58.5327L37.8332 56.8427C37.8287 56.827 37.8275 56.8105 37.8297 56.7942C37.8318 56.778 37.8373 56.7623 37.8457 56.7483C37.8542 56.7342 37.8654 56.722 37.8788 56.7125C37.8921 56.7029 37.9072 56.6962 37.9232 56.6927C37.9563 56.6868 37.9904 56.6939 38.0183 56.7125C38.0463 56.7312 38.066 56.7599 38.0732 56.7927L38.4332 58.4727C38.4377 58.4885 38.4389 58.505 38.4367 58.5213C38.4346 58.5375 38.4291 58.5532 38.4207 58.5672C38.4123 58.5813 38.401 58.5934 38.3877 58.603C38.3743 58.6125 38.3592 58.6193 38.3432 58.6227L38.3132 58.6327Z" fill="#EA522F"/>
<path d="M32.9332 60.0627C32.903 60.0628 32.8739 60.0516 32.8517 60.0312C32.8294 60.0108 32.8157 59.9828 32.8132 59.9527V59.5127C32.8103 59.497 32.8106 59.4808 32.8141 59.4651C32.8177 59.4495 32.8243 59.4347 32.8336 59.4216C32.8429 59.4086 32.8548 59.3975 32.8685 59.3891C32.8821 59.3807 32.8974 59.3752 32.9132 59.3727C32.9299 59.368 32.9475 59.3673 32.9645 59.3706C32.9816 59.374 32.9976 59.3813 33.0112 59.3921C33.0249 59.4028 33.0358 59.4166 33.0431 59.4324C33.0504 59.4481 33.0538 59.4654 33.0532 59.4827L33.1132 59.9227C33.116 59.9393 33.1153 59.9562 33.1112 59.9725C33.1071 59.9887 33.0997 60.004 33.0893 60.0172C33.0789 60.0304 33.0659 60.0412 33.051 60.0491C33.0362 60.0569 33.0199 60.0616 33.0032 60.0627H32.9332Z" fill="#EA522F"/>
<path d="M32.7032 59.5927L22.3632 57.8327C21.0035 57.0716 19.945 55.8684 19.3632 54.4227C18.999 53.3778 18.8782 52.2635 19.0099 51.1648C19.1416 50.0661 19.5224 49.012 20.1232 48.0827C21.2032 47.9627 33.0032 46.8227 37.2732 53.7227C37.8097 54.5986 38.2046 55.5537 38.4432 56.5527L32.7032 59.5927Z" fill="#3F469A"/>
<path d="M34.6832 47.4227C33.6308 48.4897 32.2638 49.1907 30.7832 49.4227C28.7832 49.6527 28.6432 48.5327 26.0932 48.5027C24.0932 48.5027 22.9732 49.1427 20.7432 48.6027C20.3559 48.5073 19.9751 48.387 19.6032 48.2427C19.6732 47.6327 19.7832 46.7227 19.9432 45.6327C20.1632 44.1927 20.3832 43.0127 20.6332 41.9227C21.5432 37.7927 22.2632 36.9227 22.8332 33.9227C23.6332 29.6327 22.3432 27.5427 24.1332 25.5327C24.605 25.026 25.1596 24.6033 25.7732 24.2827C27.7253 23.2158 29.9825 22.8454 32.1732 23.2327C33.9399 27.0661 35.2332 28.8861 36.0532 28.6927C36.6132 28.5527 36.9532 27.4527 37.0532 25.3727C37.7728 25.575 38.4419 25.926 39.0172 26.4032C39.5926 26.8804 40.0614 27.473 40.3932 28.1427C40.8247 29.1586 40.9363 30.2818 40.7132 31.3627C39.9232 36.2227 35.1332 46.3927 34.6832 47.4227Z" fill="#5B98E8"/>
<path d="M26.1332 34.3127L25.3832 36.5427C24.5932 38.9327 23.8032 41.3227 23.0132 43.6927L19.2132 43.0027C19.5332 40.3727 19.8932 38.1527 20.2132 36.4427L20.2932 36.0127C20.3532 35.6927 20.4132 35.3827 20.4732 35.0927C21.8432 28.2127 23.0332 26.5327 24.4732 25.9927C24.7103 25.91 24.9548 25.8497 25.2032 25.8127L26.1332 34.3127Z" fill="#FF8C64"/>
<path d="M25.3332 36.5127L20.1332 36.4127L20.2132 35.9827C20.2732 35.6627 20.3332 35.3527 20.3932 35.0627H20.5832L25.3332 36.5127Z" fill="#122275"/>
<path d="M26.8632 36.8027L19.8632 35.4727C19.8647 32.6156 20.7329 29.8261 22.3532 27.4727C23.4632 25.9327 26.0132 23.1127 27.4732 23.8027C28.9332 24.4927 28.4732 28.1627 28.4132 28.5527C27.8732 31.3127 27.3632 34.0427 26.8632 36.8027Z" fill="#5B98E8"/>
<path d="M36.8532 53.2127C36.8337 53.2132 36.8144 53.2088 36.797 53.2001C36.7796 53.1914 36.7646 53.1786 36.7532 53.1627C36.3429 52.6161 35.8771 52.1134 35.3632 51.6627C34.267 50.6963 32.9738 49.9797 31.5732 49.5627C31.5401 49.5534 31.512 49.5313 31.4951 49.5013C31.4783 49.4714 31.4739 49.4359 31.4832 49.4027C31.4945 49.3715 31.5175 49.3457 31.5473 49.3308C31.577 49.316 31.6114 49.3131 31.6432 49.3227C33.0772 49.7564 34.4031 50.4892 35.5332 51.4727C36.0573 51.9369 36.533 52.4528 36.9532 53.0127C36.9764 53.0369 36.9894 53.0692 36.9894 53.1027C36.9894 53.1363 36.9764 53.1685 36.9532 53.1927C36.9394 53.2039 36.9231 53.2115 36.9057 53.215C36.8883 53.2185 36.8702 53.2177 36.8532 53.2127Z" fill="#BBBBF9"/>
<path d="M32.6232 58.6327C32.5802 58.6275 32.5409 58.606 32.5132 58.5727C32.4921 58.5475 32.4804 58.5157 32.4804 58.4827C32.4804 58.4498 32.4921 58.418 32.5132 58.3927L37.1732 55.5927C37.201 55.5768 37.2341 55.5726 37.265 55.5811C37.296 55.5895 37.3223 55.6099 37.3382 55.6377C37.3541 55.6656 37.3583 55.6986 37.3499 55.7296C37.3414 55.7605 37.321 55.7868 37.2932 55.8027L32.6332 58.6127L32.6232 58.6327Z" fill="#BBBBF9"/>
<path d="M32.0332 57.6627L28.8732 56.7227L27.1332 56.2127C23.0132 55.0027 21.9032 54.6827 21.1332 53.5327C20.796 52.9122 20.5892 52.2293 20.5256 51.526C20.462 50.8226 20.5428 50.1137 20.7632 49.4427C20.7667 49.4267 20.7734 49.4116 20.783 49.3983C20.7925 49.3849 20.8047 49.3737 20.8187 49.3653C20.8328 49.3569 20.8484 49.3514 20.8647 49.3492C20.8809 49.3471 20.8974 49.3483 20.9132 49.3527C20.93 49.3546 20.9462 49.3604 20.9605 49.3695C20.9747 49.3786 20.9866 49.391 20.9953 49.4055C21.004 49.42 21.0093 49.4363 21.0107 49.4532C21.012 49.4701 21.0095 49.487 21.0032 49.5027C20.7912 50.1417 20.7119 50.8172 20.7704 51.4879C20.8289 52.1585 21.0238 52.8101 21.3432 53.4027C22.0332 54.4627 23.1232 54.7827 27.1732 55.9727L28.9132 56.4827C30.2832 56.8827 31.3832 57.2227 32.0432 57.4227C32.0583 57.4273 32.0724 57.4348 32.0846 57.4448C32.0968 57.4549 32.1069 57.4672 32.1144 57.4811C32.1218 57.4951 32.1264 57.5103 32.1279 57.5261C32.1294 57.5418 32.1278 57.5576 32.1232 57.5727C32.1194 57.5952 32.1087 57.616 32.0926 57.6321C32.0764 57.6482 32.0557 57.6589 32.0332 57.6627Z" fill="#BBBBF9"/>
<path d="M70.1332 26.1927C70.3532 27.6627 71.0832 27.9227 70.8732 28.7427C70.5932 29.8727 68.8732 30.7427 67.4532 30.5427C66.6911 30.3854 65.9864 30.0228 65.4153 29.4941C64.8443 28.9653 64.4287 28.2906 64.2133 27.5427C63.1433 23.9227 67.5932 20.6427 66.3732 18.8427C65.4832 17.5327 62.6432 18.5127 62.3732 17.6227C62.1032 16.7327 63.9132 15.1327 65.8232 15.3127C66.4499 15.3883 67.0427 15.6383 67.5342 16.0344C68.0257 16.4304 68.3961 16.9565 68.6032 17.5527C68.9032 18.4927 68.3732 18.7527 68.6032 19.8627C68.9332 21.4227 70.0932 21.4127 70.4432 22.8627C70.7932 24.3127 69.8532 24.4927 70.1332 26.1927Z" fill="#3F469A"/>
<path d="M70.1832 29.5327L70.1332 29.3127C70.3062 29.2806 70.47 29.2112 70.6133 29.1093C70.7567 29.0074 70.8761 28.8755 70.9633 28.7227C71.0633 28.4527 70.9632 28.2027 70.7432 27.8127C70.4823 27.3182 70.3033 26.7846 70.2133 26.2327C70.1197 25.5927 70.1884 24.9393 70.4133 24.3327C70.601 23.8729 70.6394 23.3657 70.5233 22.8827C70.3883 22.344 70.0875 21.8613 69.6633 21.5027C69.1592 21.0804 68.8079 20.5042 68.6633 19.8627C68.5694 19.4514 68.5694 19.0241 68.6633 18.6127C68.7123 18.4268 68.7358 18.235 68.7332 18.0427C68.7285 17.8897 68.7016 17.7381 68.6533 17.5927C68.3533 16.4427 66.0033 15.8927 65.5333 15.7927L65.5833 15.5427C66.2733 15.6927 68.5832 16.2727 68.8932 17.4927C68.9435 17.6722 68.9736 17.8566 68.9832 18.0427C68.987 18.2516 68.9635 18.46 68.9133 18.6627C68.8197 19.0404 68.8197 19.4351 68.9133 19.8127C69.0393 20.404 69.3554 20.9379 69.8132 21.3327C70.272 21.7212 70.6002 22.2414 70.7532 22.8227C70.8736 23.3528 70.8318 23.9068 70.6332 24.4127C70.4158 24.9794 70.3503 25.593 70.4432 26.1927C70.5295 26.7206 70.7018 27.2307 70.9532 27.7027C71.1532 28.1227 71.3132 28.4427 71.1732 28.8127C71.076 29.0018 70.9358 29.1654 70.7639 29.2904C70.5919 29.4155 70.393 29.4985 70.1832 29.5327Z" fill="#3F469A"/>
<path d="M73.7632 32.9127L55.5132 32.8127C55.649 32.0176 56.022 31.2821 56.5833 30.7027C58.2033 29.1727 60.5132 30.2327 61.8832 28.9527C62.1956 28.6461 62.4229 28.2636 62.5432 27.8427C62.7687 27.0289 62.813 26.1756 62.6732 25.3427C62.6732 25.2127 62.6732 25.0827 62.6732 24.9427H62.9432L64.6132 24.8327C64.5218 24.7273 64.4714 24.5923 64.4714 24.4527C64.4714 24.3131 64.5218 24.1782 64.6132 24.0727C64.6763 24.0233 64.7493 23.988 64.8271 23.9692C64.905 23.9503 64.986 23.9484 65.0647 23.9636C65.1434 23.9788 65.2179 24.0107 65.2832 24.0571C65.3485 24.1035 65.4031 24.1634 65.4432 24.2327C66.0132 27.2327 67.1532 28.4727 68.1732 29.0327C69.6632 29.8627 71.1732 29.4427 72.6032 30.7227C73.1955 31.3238 73.5988 32.0851 73.7632 32.9127Z" fill="#FF8C64"/>
<path d="M70.0132 32.5127C70.0896 32.5085 70.1647 32.5335 70.2232 32.5827C70.2806 32.6322 70.3203 32.6988 70.3365 32.7728C70.3528 32.8467 70.3446 32.9239 70.3132 32.9927H58.0732C58.05 32.9331 58.0452 32.8679 58.0595 32.8055C58.0738 32.7431 58.1064 32.6864 58.1532 32.6427C58.1882 32.6154 58.2286 32.596 58.2717 32.5856C58.3148 32.5753 58.3597 32.5743 58.4032 32.5827C59.6256 32.2425 60.9003 32.1307 62.1633 32.2527C62.8633 32.3327 63.0532 32.4327 63.8332 32.4727C64.8823 32.4608 65.9288 32.3672 66.9632 32.1927C67.9905 32.1333 69.0206 32.2414 70.0132 32.5127Z" fill="white"/>
<path d="M65.1332 30.6127C65.2659 30.673 65.403 30.7232 65.5432 30.7627C66.0001 30.8983 66.48 30.9392 66.9532 30.8827C68.1832 30.7727 69.3333 30.6027 69.7133 30.5427L67.0532 30.6327L65.1332 30.6127Z" fill="#122275"/>
<path d="M64.0032 30.6127C63.8734 30.6716 63.7397 30.7217 63.6032 30.7627C63.1428 30.898 62.6598 30.9389 62.1832 30.8827C60.9532 30.7727 59.8132 30.6027 59.4232 30.5427L62.0833 30.6327L64.0032 30.6127Z" fill="#122275"/>
<path d="M47.8632 51.6327C48.1732 50.3627 48.4732 49.0927 48.7832 47.8227C51.5647 47.8135 54.3448 47.9436 57.1132 48.2127C59.9132 48.4827 62.4932 48.8827 64.8432 49.3327C65.719 50.0861 66.2822 51.1391 66.4228 52.2857C66.5633 53.4323 66.271 54.5901 65.6032 55.5327C65.0779 56.1229 64.4027 56.5599 63.6493 56.7976C62.8958 57.0352 62.0921 57.0647 61.3232 56.8827C60.059 56.71 58.8066 56.4595 57.5732 56.1327C54.1032 55.1985 50.819 53.6765 47.8632 51.6327Z" fill="#FF8C64"/>
<path d="M70.6232 48.7427C70.0159 47.7032 69.2912 46.7369 68.4633 45.8627L69.8132 38.8627C70.2485 38.6504 70.6159 38.3207 70.8738 37.9108C71.1318 37.5009 71.2701 37.0271 71.2733 36.5427C71.2704 35.9014 71.0278 35.2844 70.5933 34.8127L70.9532 32.9527C70.5227 32.4472 69.9958 32.0324 69.4033 31.7327C68.6088 31.395 67.7508 31.2327 66.8879 31.2569C66.025 31.281 65.1776 31.4911 64.4033 31.8727C63.629 31.4911 62.7814 31.281 61.9185 31.2569C61.0556 31.2327 60.1977 31.395 59.4033 31.7327C58.8083 32.0287 58.2807 32.444 57.8532 32.9527C57.9732 33.5727 58.0932 34.1927 58.2032 34.8127C57.7687 35.2844 57.5261 35.9014 57.5233 36.5427C57.5264 37.0271 57.6647 37.5009 57.9227 37.9108C58.1806 38.3207 58.5479 38.6504 58.9832 38.8627C59.4299 41.2027 59.8833 43.5361 60.3433 45.8627C59.5089 46.7338 58.7804 47.7005 58.1732 48.7427C57.0438 50.7391 56.3614 52.9568 56.1732 55.2427C57.807 55.9122 59.5111 56.3953 61.2532 56.6827C62.2693 56.8454 63.2947 56.9422 64.3232 56.9727C64.3232 56.4327 64.5332 56.4327 64.5732 56.9727C65.5984 56.9418 66.6205 56.8449 67.6332 56.6827C69.3789 56.3966 71.0865 55.9135 72.7233 55.2427C72.5031 52.9494 71.7865 50.7314 70.6232 48.7427Z" fill="#3F469A"/>
<path d="M71.9932 46.3127C71.5032 49.7627 68.6732 54.2627 63.9932 54.2627C59.3132 54.2627 56.4632 49.8427 56.1332 46.3127C55.8132 43.2227 57.2432 39.3127 60.1332 38.2227C61.4224 37.8312 62.8052 37.8805 64.0632 38.3627H64.2432C66.4932 38.9927 67.9832 38.2627 68.9532 38.4327C70.8132 38.8227 72.4732 42.8527 71.9932 46.3127Z" fill="#3F469A"/>
<path d="M64.8532 56.9127C64.1326 57.4153 63.2584 57.6489 62.3832 57.5727C62.0132 57.5127 61.6332 57.3827 60.7632 57.2627C60.1632 57.1727 59.7632 57.1427 59.6232 57.1327C56.6232 56.9027 50.8232 53.7627 50.8232 53.7627C49.8232 53.2427 48.5732 52.5227 47.0932 51.5927C46.6139 51.399 46.219 51.0413 45.979 50.5834C45.7391 50.1254 45.6697 49.5971 45.7832 49.0927C45.8859 48.8041 46.0473 48.54 46.2575 48.3171C46.4676 48.0942 46.7219 47.9175 47.0039 47.798C47.286 47.6786 47.5899 47.6191 47.8962 47.6234C48.2025 47.6276 48.5046 47.6955 48.7832 47.8227L56.1332 47.3127L63.4732 50.1827C63.9432 52.4027 64.4032 54.6527 64.8532 56.9127Z" fill="#5B98E8"/>
<path d="M48.8032 49.3127C49.3736 49.5656 49.8232 50.0307 50.0566 50.6094C50.2899 51.1881 50.2887 51.8349 50.0532 52.4127C49.857 52.8463 49.5389 53.2134 49.1375 53.4691C48.7362 53.7248 48.269 53.8581 47.7932 53.8527L46.7932 53.3327L45.8932 52.8727C45.6821 52.5304 45.5516 52.1445 45.5118 51.7443C45.4719 51.344 45.5237 50.94 45.6632 50.5627C45.9201 49.9859 46.3922 49.5323 46.9788 49.2988C47.5655 49.0653 48.2202 49.0703 48.8032 49.3127Z" fill="#FF8C64"/>
<path d="M68.2332 57.8227L67.0632 59.3627C66.6832 59.1927 66.0632 58.9327 65.3532 58.6727C59.6432 56.6727 56.4532 58.0427 52.0132 56.3127C50.4892 55.7115 49.0764 54.8598 47.8332 53.7927C48.2132 52.3027 48.5832 50.7927 48.9532 49.3227C53.0532 50.9827 56.1532 52.4627 58.2932 53.5427C59.4732 54.1427 61.4632 55.1727 64.2932 56.3427C65.9332 57.0127 67.3032 57.5027 68.2332 57.8227Z" fill="#FF8C64"/>
<path d="M70.6633 58.3127L68.8132 62.6627C68.703 62.6941 68.5874 62.7023 68.4738 62.6869C68.3602 62.6714 68.2511 62.6325 68.1533 62.5727C67.7733 62.3227 67.8132 61.6927 67.7932 61.3727C67.7932 60.7427 67.3632 59.8527 65.7932 58.7727C66.1832 58.3227 66.5632 57.8627 66.9532 57.4027L68.9532 57.6827C69.4135 57.7306 69.8609 57.8628 70.2733 58.0727C70.4087 58.1435 70.5391 58.2237 70.6633 58.3127Z" fill="#FF8C64"/>
<path d="M63.8332 58.1927C61.0332 58.1127 46.7432 57.6127 45.4232 52.4727C45.1332 51.3527 45.1532 48.8427 46.3632 48.2027C47.5732 47.5627 48.9732 48.5727 49.2632 48.7527L53.0532 50.9827L65.0532 55.7227L63.8332 58.1927Z" fill="#5B98E8"/>
<path d="M63.7733 56.9127C64.4942 57.4145 65.3681 57.648 66.2432 57.5727C66.6132 57.5127 66.9932 57.3827 67.8732 57.2627C68.4632 57.1727 68.8732 57.1427 69.0032 57.1327C72.0032 56.9027 77.8132 53.7627 77.8132 53.7627C78.8132 53.2427 80.0533 52.5227 81.5333 51.5927C82.0126 51.399 82.4074 51.0413 82.6474 50.5834C82.8874 50.1254 82.9568 49.5971 82.8433 49.0927C82.7406 48.8041 82.5791 48.54 82.369 48.3171C82.1588 48.0942 81.9046 47.9175 81.6225 47.798C81.3404 47.6786 81.0366 47.6191 80.7303 47.6234C80.424 47.6276 80.1219 47.6955 79.8433 47.8227C77.3909 47.9299 74.9537 48.2647 72.5632 48.8227C70.0932 49.4227 69.2632 49.8727 67.8132 50.1427C65.6332 50.5427 62.3232 50.4727 57.7532 47.9527L63.7733 56.9127Z" fill="#5B98E8"/>
<path d="M79.8232 49.3127C79.2545 49.5676 78.8066 50.0328 78.5735 50.6108C78.3404 51.1888 78.3403 51.8347 78.5732 52.4127C78.7721 52.8463 79.0923 53.2131 79.4952 53.4686C79.898 53.7241 80.3662 53.8576 80.8433 53.8527L81.7932 53.3327L82.6932 52.8727C82.9044 52.5304 83.0348 52.1445 83.0746 51.7443C83.1145 51.344 83.0627 50.94 82.9232 50.5627C82.6664 49.9957 82.201 49.5494 81.6237 49.3166C81.0464 49.0838 80.4016 49.0824 79.8232 49.3127Z" fill="#FF8C64"/>
<path d="M60.4033 57.8227L61.5632 59.3627C61.9432 59.1927 62.5633 58.9327 63.2733 58.6727C68.9833 56.6727 72.1832 58.0427 76.6132 56.3127C78.1383 55.7138 79.5515 54.8618 80.7932 53.7927C80.4232 52.3027 80.0432 50.7927 79.6732 49.3227C75.5732 50.9827 72.4733 52.4627 70.3333 53.5427C69.1533 54.1427 67.1633 55.1727 64.3333 56.3427C62.6933 57.0127 61.3333 57.5027 60.4033 57.8227Z" fill="#FF8C64"/>
<path d="M57.9733 58.3127C58.5866 59.7594 59.1999 61.2094 59.8132 62.6627C59.9251 62.6944 60.0423 62.7027 60.1576 62.6872C60.2728 62.6717 60.3836 62.6328 60.4832 62.5727C60.8632 62.3227 60.8233 61.6927 60.8433 61.3727C60.8433 60.7427 61.2633 59.8527 62.8433 58.7727C62.4533 58.3227 62.0732 57.8627 61.6832 57.4027L59.6832 57.6827C59.223 57.7306 58.7756 57.8628 58.3632 58.0727C58.2258 58.1401 58.0953 58.2204 57.9733 58.3127Z" fill="#FF8C64"/>
<path d="M64.7932 58.1927C67.5932 58.1127 81.8832 57.6127 83.2032 52.4727C83.4932 51.3527 83.4732 48.8427 82.2632 48.2027C81.0532 47.5627 79.6532 48.5727 79.3732 48.7527L75.5732 50.9827L63.5732 55.7227L64.7932 58.1927Z" fill="#5B98E8"/>
<path d="M71.4733 49.1427L72.3032 48.9227C71.9762 49.6365 71.4698 50.2532 70.8333 50.7127C70.0633 51.2627 69.6032 51.1827 67.3732 51.9727C66.8458 52.2082 66.3008 52.4021 65.7432 52.5527C64.6106 52.7045 63.458 52.5527 62.4033 52.1127C60.0433 51.3627 58.5432 50.8927 57.1332 49.4627C56.5128 48.8315 55.9963 48.1058 55.6032 47.3127L56.1232 47.0327L61.7332 47.4727L71.4733 49.1427Z" fill="#3F469A"/>
<path d="M64.0432 55.8527C64.0178 55.8515 63.9933 55.8435 63.9722 55.8294C63.951 55.8153 63.9341 55.7957 63.9232 55.7727C63.9129 55.7421 63.9144 55.7088 63.9274 55.6792C63.9403 55.6497 63.9638 55.626 63.9932 55.6127L79.3132 48.6127C79.3438 48.5988 79.3786 48.5973 79.4103 48.6085C79.442 48.6197 79.4681 48.6427 79.4832 48.6727C79.4971 48.7033 79.4987 48.7381 79.4875 48.7698C79.4763 48.8015 79.4532 48.8277 79.4232 48.8427L64.0932 55.8427L64.0432 55.8527Z" fill="#BBBBF9"/>
<path d="M78.2133 49.4527C78.1133 49.4527 78.0733 49.3527 78.0933 49.2927L78.2833 48.7027C78.2926 48.6718 78.3131 48.6454 78.3408 48.6287C78.3686 48.6121 78.4015 48.6064 78.4332 48.6127C78.4495 48.6172 78.4647 48.625 78.4778 48.6357C78.4908 48.6464 78.5015 48.6597 78.509 48.6749C78.5166 48.69 78.5208 48.7065 78.5215 48.7233C78.5223 48.7402 78.5195 48.757 78.5132 48.7727L78.3332 49.3627C78.3264 49.3891 78.3109 49.4124 78.2891 49.4288C78.2672 49.4452 78.2405 49.4536 78.2133 49.4527Z" fill="#BBBBF9"/>
<path d="M64.7232 55.2427L49.8832 49.1927C49.8668 49.1887 49.8516 49.1809 49.8386 49.1701C49.8257 49.1592 49.8155 49.1455 49.8087 49.13C49.802 49.1145 49.7988 49.0977 49.7996 49.0809C49.8004 49.064 49.805 49.0475 49.8132 49.0327C49.8187 49.0173 49.8273 49.0032 49.8385 48.9913C49.8496 48.9793 49.8631 48.9698 49.8781 48.9632C49.8931 48.9567 49.9093 48.9532 49.9256 48.9532C49.942 48.9531 49.9582 48.9563 49.9732 48.9627L64.7732 54.9627C64.8013 54.9775 64.8235 55.0014 64.8362 55.0305C64.8489 55.0596 64.8514 55.0921 64.8432 55.1227C64.8409 55.1538 64.8275 55.183 64.8055 55.205C64.7835 55.227 64.7543 55.2404 64.7232 55.2427Z" fill="#BBBBF9"/>
<path d="M49.8632 49.2027H49.8032L49.0532 48.8527C49.0346 48.848 49.0172 48.8392 49.0024 48.8269C48.9876 48.8147 48.9757 48.7993 48.9675 48.7819C48.9593 48.7645 48.9552 48.7454 48.9552 48.7262C48.9553 48.707 48.9596 48.688 48.9679 48.6707C48.9762 48.6533 48.9883 48.638 49.0032 48.6259C49.0181 48.6137 49.0356 48.6051 49.0542 48.6005C49.0729 48.5959 49.0924 48.5955 49.1112 48.5994C49.1301 48.6032 49.1479 48.6112 49.1632 48.6227L49.9132 48.9727C49.9433 48.9878 49.9663 49.014 49.9774 49.0457C49.9886 49.0773 49.9872 49.1121 49.9732 49.1427C49.9622 49.1619 49.9461 49.1776 49.9267 49.1882C49.9073 49.1988 49.8853 49.2038 49.8632 49.2027Z" fill="#BBBBF9"/>
<path d="M49.8732 49.0827C49.8455 49.0857 49.8178 49.0781 49.7955 49.0614C49.7732 49.0447 49.7581 49.0201 49.7532 48.9927L49.5532 48.3227C49.5435 48.2909 49.5464 48.2566 49.5613 48.2268C49.5762 48.197 49.6019 48.1741 49.6332 48.1627C49.6664 48.1535 49.7018 48.1578 49.7318 48.1747C49.7618 48.1915 49.7839 48.2196 49.7932 48.2527L49.9932 48.9227C50.0024 48.9559 49.9982 48.9913 49.9813 49.0213C49.9644 49.0513 49.9364 49.0734 49.9032 49.0827H49.8732Z" fill="#BBBBF9"/>
<path d="M64.4832 26.8527C64.4311 27.2107 64.2405 27.5338 63.9525 27.7526C63.6645 27.9715 63.302 28.0685 62.9432 28.0227C62.7993 27.9897 62.6634 27.9285 62.5432 27.8427C62.7687 27.0289 62.813 26.1756 62.6732 25.3427C62.8036 25.2421 62.9543 25.1711 63.115 25.1349C63.2756 25.0986 63.4423 25.0979 63.6032 25.1327C63.9474 25.245 64.2332 25.4889 64.3981 25.8112C64.563 26.1335 64.5935 26.5079 64.4832 26.8527Z" fill="#122275"/>
<path d="M65.1332 25.6427C64.2693 26.4794 63.1886 27.0578 62.0132 27.3127C61.8341 27.3372 61.6524 27.3372 61.4733 27.3127C61.2931 27.2901 61.1156 27.2499 60.9432 27.1927C60.1932 26.9127 59.5532 25.5827 59.5032 25.4727C59.1816 24.9295 59.0027 24.3137 58.9832 23.6827C58.9832 23.1627 59.1532 22.9527 59.2032 22.0927C59.2032 21.6227 59.2032 21.4127 59.2032 21.0927V20.9627C59.198 20.8795 59.198 20.796 59.2032 20.7127C59.1985 20.6462 59.1985 20.5793 59.2032 20.5127C59.2032 20.4527 59.2032 20.3827 59.2032 20.3227C59.1953 19.4904 59.4903 18.6836 60.0333 18.0527C60.5636 17.6025 61.2066 17.3051 61.8932 17.1927C62.1174 17.1478 62.3448 17.1211 62.5732 17.1127H62.8333C63.4723 17.126 64.102 17.2684 64.6846 17.5314C65.2671 17.7943 65.7906 18.1723 66.2233 18.6427C67.8833 20.7127 66.5932 24.0927 65.1332 25.6427Z" fill="#FF8C64"/>
<path d="M67.3632 22.8327C67.3632 23.4727 66.9132 23.9727 66.4432 23.9427C65.9732 23.9127 65.6132 23.3827 65.6432 22.7427C65.6732 22.1027 66.0932 21.5927 66.5632 21.6227C67.0332 21.6527 67.3932 22.1827 67.3632 22.8327Z" fill="#FF8C64"/>
<path d="M66.4733 24.0727C66.2995 24.0671 66.1318 24.0077 65.9932 23.9027C65.982 23.8916 65.9732 23.8783 65.9671 23.8638C65.961 23.8492 65.9579 23.8335 65.9579 23.8177C65.9579 23.802 65.961 23.7863 65.9671 23.7717C65.9732 23.7571 65.982 23.7439 65.9932 23.7327C66.0174 23.7095 66.0497 23.6966 66.0833 23.6966C66.1168 23.6966 66.149 23.7095 66.1732 23.7327C66.2629 23.8016 66.3705 23.8433 66.4832 23.8527C66.6138 23.8462 66.7402 23.8047 66.8493 23.7326C66.9584 23.6604 67.0461 23.5603 67.1032 23.4427C67.123 23.4223 67.1489 23.4089 67.1771 23.4046C67.2052 23.4004 67.2339 23.4054 67.2589 23.419C67.2839 23.4326 67.3037 23.4541 67.3153 23.48C67.3269 23.506 67.3297 23.535 67.3232 23.5627C67.2381 23.7143 67.1149 23.841 66.9659 23.9305C66.8168 24.0199 66.6471 24.0689 66.4733 24.0727Z" fill="#EA522F"/>
<path d="M67.2532 23.4527C67.1332 23.4127 67.1332 23.3127 67.1332 23.3127C67.1817 23.194 67.2152 23.0697 67.2332 22.9427C67.2344 22.926 67.239 22.9097 67.2469 22.8949C67.2547 22.88 67.2656 22.867 67.2788 22.8567C67.292 22.8463 67.3072 22.8388 67.3235 22.8347C67.3398 22.8306 67.3567 22.8299 67.3732 22.8327C67.4041 22.8375 67.4323 22.8533 67.4525 22.8772C67.4727 22.9011 67.4836 22.9315 67.4832 22.9627C67.4646 23.1144 67.4242 23.2626 67.3632 23.4027C67.3509 23.4201 67.3343 23.4338 67.315 23.4426C67.2957 23.4514 67.2744 23.4549 67.2532 23.4527Z" fill="#EA522F"/>
<path d="M67.3632 22.8327C67.3466 22.8328 67.3301 22.8294 67.3149 22.8227C67.2996 22.8161 67.286 22.8064 67.2747 22.7941C67.2634 22.7819 67.2547 22.7675 67.2493 22.7517C67.2439 22.736 67.2418 22.7193 67.2432 22.7027C67.2432 22.1827 66.9332 21.7627 66.5532 21.7027C66.4776 21.6849 66.3989 21.6849 66.3233 21.7027C66.2912 21.7135 66.2564 21.7124 66.2252 21.6995C66.1939 21.6867 66.1684 21.663 66.1533 21.6327C66.143 21.6021 66.1444 21.5688 66.1574 21.5392C66.1703 21.5097 66.1938 21.486 66.2233 21.4727C66.3336 21.4246 66.4529 21.4007 66.5733 21.4027C66.8486 21.456 67.0946 21.6088 67.2644 21.832C67.4341 22.0553 67.5156 22.3332 67.4932 22.6127C67.4909 22.6464 67.4765 22.6782 67.4526 22.7021C67.4287 22.726 67.3969 22.7404 67.3632 22.7427V22.8327Z" fill="#EA522F"/>
<path d="M66.2932 23.4527C66.2632 23.4377 66.2402 23.4115 66.229 23.3798C66.2178 23.3481 66.2193 23.3133 66.2332 23.2827L66.7232 22.2827C66.7297 22.2682 66.739 22.2551 66.7506 22.2442C66.7622 22.2333 66.7758 22.2249 66.7907 22.2193C66.8056 22.2137 66.8214 22.2111 66.8373 22.2117C66.8532 22.2123 66.8688 22.2161 66.8832 22.2227C66.9133 22.2378 66.9363 22.264 66.9475 22.2957C66.9587 22.3274 66.9571 22.3621 66.9432 22.3927L66.4632 23.3927C66.4482 23.4228 66.422 23.4458 66.3903 23.457C66.3586 23.4682 66.3238 23.4667 66.2932 23.4527Z" fill="#EA522F"/>
<path d="M66.5432 22.8427C66.5201 22.8429 66.4974 22.8364 66.4779 22.824C66.4584 22.8116 66.4429 22.7938 66.4332 22.7727L66.2432 22.4327C66.2293 22.4183 66.2189 22.4009 66.2128 22.3819C66.2068 22.3628 66.2051 22.3425 66.2081 22.3227C66.2112 22.3029 66.2187 22.2841 66.2302 22.2677C66.2417 22.2513 66.2568 22.2378 66.2744 22.2282C66.292 22.2186 66.3115 22.2132 66.3316 22.2124C66.3516 22.2116 66.3715 22.2155 66.3898 22.2237C66.4081 22.2319 66.4242 22.2442 66.437 22.2596C66.4497 22.2751 66.4587 22.2932 66.4633 22.3127L66.6533 22.6527C66.6737 22.6764 66.6849 22.7065 66.6849 22.7377C66.6849 22.7689 66.6737 22.7991 66.6533 22.8227L66.5432 22.8427Z" fill="#EA522F"/>
<path d="M62.8932 22.1627C62.9058 22.2829 62.9632 22.394 63.054 22.4737C63.1448 22.5534 63.2624 22.5959 63.3832 22.5927C63.4424 22.5982 63.502 22.592 63.5587 22.5743C63.6154 22.5566 63.6681 22.5279 63.7136 22.4898C63.7592 22.4517 63.7968 22.4049 63.8242 22.3522C63.8516 22.2995 63.8682 22.2419 63.8732 22.1827C63.8607 22.0625 63.8033 21.9515 63.7125 21.8718C63.6216 21.7921 63.504 21.7496 63.3832 21.7527C63.3241 21.7472 63.2645 21.7535 63.2078 21.7712C63.1511 21.7889 63.0984 21.8176 63.0529 21.8557C63.0073 21.8938 62.9697 21.9406 62.9423 21.9933C62.9149 22.046 62.8983 22.1036 62.8932 22.1627Z" fill="#122275"/>
<path d="M62.7233 22.3127C62.7093 22.3198 62.6939 22.3234 62.6782 22.3234C62.6626 22.3234 62.6472 22.3198 62.6332 22.3127L62.3433 22.0127C62.3321 22.0016 62.3232 21.9883 62.3171 21.9738C62.3111 21.9592 62.3079 21.9435 62.3079 21.9277C62.3079 21.9119 62.3111 21.8963 62.3171 21.8817C62.3232 21.8671 62.3321 21.8539 62.3433 21.8427C62.3675 21.8195 62.3997 21.8065 62.4332 21.8065C62.4668 21.8065 62.499 21.8195 62.5233 21.8427L62.6832 22.0227L62.7733 21.9227C63.1133 21.6027 63.7732 21.6627 64.5132 22.0827C64.5337 22.1064 64.5449 22.1365 64.5449 22.1677C64.5449 22.199 64.5337 22.2291 64.5132 22.2527C64.5021 22.2639 64.4888 22.2728 64.4742 22.2789C64.4597 22.2849 64.444 22.288 64.4282 22.288C64.4124 22.288 64.3968 22.2849 64.3822 22.2789C64.3676 22.2728 64.3544 22.2639 64.3433 22.2527C63.7433 21.9027 63.1633 21.8227 62.9033 22.0627C62.8499 22.1087 62.8087 22.1671 62.7833 22.2327C62.7766 22.2528 62.7648 22.2708 62.749 22.2848C62.7332 22.2989 62.714 22.3085 62.6932 22.3127H62.7233Z" fill="#122275"/>
<path d="M59.2632 21.8227C59.2394 21.9406 59.2627 22.0632 59.3281 22.1641C59.3935 22.2651 59.4958 22.3364 59.6132 22.3627C59.6682 22.3851 59.7272 22.3961 59.7866 22.395C59.846 22.3939 59.9045 22.3809 59.9587 22.3566C60.0129 22.3323 60.0616 22.2973 60.1019 22.2536C60.1422 22.21 60.1733 22.1587 60.1932 22.1027C60.2145 21.9851 60.1901 21.8638 60.1251 21.7635C60.0601 21.6631 59.9593 21.5914 59.8432 21.5627C59.7882 21.5404 59.7292 21.5294 59.6698 21.5305C59.6105 21.5316 59.5519 21.5446 59.4977 21.5689C59.4435 21.5932 59.3948 21.6282 59.3545 21.6718C59.3142 21.7155 59.2832 21.7668 59.2632 21.8227Z" fill="#122275"/>
<path d="M60.7633 22.3627C60.7344 22.3744 60.7021 22.3744 60.6732 22.3627C60.1832 21.8627 59.6733 21.6327 59.3433 21.7927C59.2812 21.824 59.2265 21.8683 59.1832 21.9227C59.1675 21.9349 59.1481 21.9415 59.1282 21.9415C59.1083 21.9415 59.089 21.9349 59.0733 21.9227C59.0531 21.9212 59.0335 21.915 59.0161 21.9046C58.9988 21.8942 58.9841 21.8798 58.9733 21.8627L58.7833 21.4927C58.7693 21.4784 58.7589 21.4609 58.7528 21.4419C58.7467 21.4228 58.7451 21.4026 58.7481 21.3828C58.7511 21.363 58.7587 21.3441 58.7702 21.3277C58.7817 21.3113 58.7968 21.2978 58.8144 21.2882C58.832 21.2786 58.8516 21.2732 58.8716 21.2724C58.8916 21.2716 58.9115 21.2755 58.9298 21.2837C58.948 21.2919 58.9642 21.3042 58.9769 21.3196C58.9897 21.3351 58.9987 21.3532 59.0032 21.3727L59.1132 21.5927L59.2233 21.5127C59.6433 21.3027 60.2832 21.5127 60.8532 22.1427C60.8764 22.1669 60.8894 22.1992 60.8894 22.2327C60.8894 22.2663 60.8764 22.2985 60.8532 22.3227C60.8282 22.3452 60.7967 22.3592 60.7633 22.3627Z" fill="#122275"/>
<path d="M64.9932 21.3127C64.5861 21.1457 64.1594 21.0315 63.7233 20.9727C63.3445 20.9293 62.962 20.9293 62.5833 20.9727C62.5953 20.904 62.6155 20.8368 62.6432 20.7727C62.7063 20.6292 62.8022 20.5024 62.9232 20.4027C63.2832 20.4027 63.5832 20.5227 63.7932 20.5727C64.0608 20.6102 64.3188 20.6984 64.5532 20.8327C64.741 20.9495 64.8932 21.1155 64.9932 21.3127Z" fill="#122275"/>
<path d="M62.7233 20.3127C62.6617 20.3775 62.6111 20.4518 62.5732 20.5327C62.5115 20.6461 62.4804 20.7737 62.4832 20.9027C62.4832 20.9027 62.6032 20.7027 62.6232 20.6327C62.6677 20.5398 62.7178 20.4496 62.7732 20.3627L62.8232 20.3027L62.7233 20.3127Z" fill="#122275"/>
<path d="M60.3232 20.8627C59.9407 20.8523 59.5582 20.8859 59.1832 20.9627C59.178 20.8795 59.178 20.796 59.1832 20.7127C59.1785 20.6462 59.1785 20.5793 59.1832 20.5127C59.4348 20.4279 59.6922 20.3611 59.9533 20.3127C60.0784 20.4067 60.178 20.5305 60.2432 20.6727C60.2823 20.7301 60.3095 20.7947 60.3232 20.8627Z" fill="#122275"/>
<path d="M60.1332 20.3127C60.1983 20.3768 60.2523 20.4511 60.2932 20.5327C60.3669 20.6381 60.4055 20.7641 60.4033 20.8927C60.3437 20.8101 60.2902 20.7232 60.2432 20.6327C60.2267 20.5202 60.1894 20.4117 60.1332 20.3127Z" fill="#122275"/>
<path d="M61.2833 23.7027C61.1722 23.6331 61.0443 23.595 60.9133 23.5927C60.7857 23.5772 60.6563 23.6016 60.5432 23.6627C60.6513 23.7307 60.7756 23.7686 60.9033 23.7727C61.0336 23.7789 61.1637 23.7549 61.2833 23.7027Z" fill="#122275"/>
<path d="M61.3532 25.1427H61.1932C60.782 25.1212 60.3783 25.0228 60.0032 24.8527C59.9865 24.8474 59.9712 24.8385 59.9583 24.8267C59.9454 24.8148 59.9353 24.8003 59.9286 24.7841C59.9219 24.7679 59.9189 24.7504 59.9197 24.7329C59.9205 24.7154 59.9251 24.6983 59.9332 24.6827C59.9483 24.6527 59.9745 24.6297 60.0062 24.6185C60.0379 24.6073 60.0726 24.6088 60.1032 24.6227C60.5102 24.8193 60.9563 24.9214 61.4083 24.9214C61.8602 24.9214 62.3063 24.8193 62.7133 24.6227C62.7441 24.6111 62.7781 24.6108 62.8092 24.6217C62.8403 24.6327 62.8665 24.6543 62.8832 24.6827C62.8916 24.6976 62.8966 24.7141 62.8981 24.7311C62.8995 24.7481 62.8974 24.7652 62.8917 24.7813C62.886 24.7974 62.877 24.8121 62.8652 24.8244C62.8534 24.8367 62.8391 24.8464 62.8232 24.8527C62.3616 25.0598 61.8589 25.159 61.3532 25.1427Z" fill="#EA522F"/>
<path d="M60.1832 24.7927C60.1832 25.0127 60.9432 25.0727 61.0232 25.0827C61.1032 25.0927 62.0232 25.1627 62.2232 24.8127C62.234 24.7892 62.2396 24.7636 62.2396 24.7377C62.2396 24.7119 62.234 24.6863 62.2232 24.6627C62.1732 24.5627 62.0032 24.6127 61.7332 24.5427C61.4632 24.4727 61.3632 24.3427 61.1932 24.3627C61.1166 24.3681 61.0398 24.3681 60.9632 24.3627H60.8832C60.7232 24.3627 60.7232 24.3027 60.6632 24.3027C60.5459 24.3714 60.4438 24.4633 60.3632 24.5727C60.2832 24.6227 60.1332 24.7027 60.1832 24.7927Z" fill="#EA522F"/>
<path d="M61.1333 25.7527H60.9832C60.8904 25.767 60.796 25.767 60.7033 25.7527C60.6875 25.7488 60.6727 25.7418 60.6596 25.7321C60.6466 25.7225 60.6356 25.7103 60.6272 25.6964C60.6189 25.6825 60.6133 25.667 60.6109 25.6509C60.6085 25.6349 60.6093 25.6185 60.6132 25.6027C60.6172 25.587 60.6242 25.5722 60.6339 25.5591C60.6435 25.546 60.6557 25.535 60.6696 25.5267C60.6836 25.5183 60.699 25.5128 60.715 25.5104C60.7311 25.508 60.7475 25.5088 60.7633 25.5127C60.843 25.5224 60.9235 25.5224 61.0032 25.5127C61.1954 25.5326 61.3895 25.5121 61.5733 25.4527C61.5884 25.4481 61.6042 25.4465 61.6199 25.448C61.6357 25.4496 61.6509 25.4542 61.6649 25.4616C61.6788 25.469 61.6911 25.4791 61.7011 25.4913C61.7111 25.5036 61.7187 25.5176 61.7233 25.5327C61.7295 25.5484 61.7323 25.5653 61.7316 25.5821C61.7309 25.599 61.7266 25.6155 61.719 25.6306C61.7115 25.6457 61.7008 25.6591 61.6878 25.6698C61.6747 25.6805 61.6596 25.6883 61.6433 25.6927C61.477 25.7369 61.3052 25.7571 61.1333 25.7527Z" fill="#EA522F"/>
<path d="M62.0333 24.8927C62.0333 25.0027 61.5133 25.2927 60.9633 25.2527C60.6733 25.2527 60.3232 25.1127 60.3232 24.9927C60.3232 24.8727 60.7133 24.7527 60.9633 24.7327C61.2082 24.7108 61.4551 24.7311 61.6932 24.7927C61.9132 24.8327 62.0233 24.8527 62.0333 24.8927Z" fill="white"/>
<path d="M64.1832 16.7427C65.3003 17.0404 66.26 17.7566 66.8632 18.7427C67.4132 19.7427 67.6133 21.1427 67.1533 21.4627C67.0633 21.5327 66.9932 21.4627 66.8032 21.6227C66.2932 21.9127 66.2232 22.3527 66.0732 22.3427C65.9232 22.3327 66.1432 20.6327 65.3532 19.8127C64.5632 18.9927 63.6932 19.6427 61.5532 19.2127C60.8656 19.067 60.1952 18.8491 59.5532 18.5627C59.9575 17.9486 60.5071 17.4437 61.1533 17.0927C62.0895 16.6194 63.1637 16.4953 64.1832 16.7427Z" fill="#3F469A"/>
<path d="M70.9532 32.9127H57.8632L56.3232 30.4527C57.3133 29.9383 58.4179 29.6837 59.5333 29.7127C61.2581 30.1429 63.0427 30.2814 64.8132 30.1227C66.1432 30.0131 67.4538 29.7341 68.7133 29.2927C69.7866 29.1728 70.8716 29.3711 71.8333 29.8627C72.0795 29.9917 72.3137 30.1423 72.5333 30.3127C72.0033 31.1727 71.4832 32.0427 70.9532 32.9127Z" fill="#3F469A"/>
<path d="M76.6633 38.4327C77.1792 39.5912 77.6331 40.7762 78.0233 41.9827C77.2633 42.6927 76.5032 43.4027 75.7532 44.1227C75.1132 43.0027 74.4932 41.8827 73.8632 40.7727L73.2133 39.6127L70.1333 34.1527C69.2633 32.9727 69.1933 31.6427 69.7033 31.1527C70.2133 30.6627 71.9433 30.7627 73.1433 32.2327C73.7433 33.0827 74.3432 34.0127 74.9332 35.0227C75.567 36.1295 76.1445 37.2676 76.6633 38.4327Z" fill="#FF8C64"/>
<path d="M76.6633 38.4327L73.8632 40.7727L73.2133 39.6127L76.6633 38.4327Z" fill="#122275"/>
<path d="M77.3733 38.0527L72.5033 40.6527C71.4233 38.3427 70.3333 36.0427 69.2433 33.7327C68.9428 33.1571 68.8705 32.4894 69.0406 31.8628C69.2108 31.2362 69.6109 30.6968 70.1612 30.3522C70.7115 30.0076 71.3715 29.8832 72.0095 30.0038C72.6476 30.1244 73.2166 30.4811 73.6032 31.0027C74.8566 33.3561 76.1133 35.7061 77.3733 38.0527Z" fill="#3F469A"/>
<path d="M52.5432 37.9927C51.9332 39.2127 51.4232 40.3727 51.0032 41.4727C51.7332 42.2127 52.4532 42.9727 53.1732 43.7227C53.8632 42.6427 54.5432 41.5527 55.2232 40.4627L55.9332 39.3127L59.2732 34.0127C60.2032 32.8727 60.3332 31.5527 59.8532 31.0127C59.3732 30.4727 57.6332 30.5227 56.3632 31.9327C55.7232 32.7427 55.0732 33.6427 54.4432 34.6227C53.7463 35.709 53.1119 36.8342 52.5432 37.9927Z" fill="#FF8C64"/>
<path d="M52.5432 37.9927C53.4432 38.8127 54.3333 39.6527 55.2233 40.4627L55.9332 39.3127L52.5432 37.9927Z" fill="#122275"/>
<path d="M51.8532 37.5727L56.5832 40.4227L60.1832 33.6627C60.4964 33.1042 60.5906 32.4493 60.4477 31.8251C60.3048 31.201 59.935 30.6523 59.41 30.2857C58.885 29.9191 58.2425 29.7608 57.6073 29.8415C56.9721 29.9223 56.3897 30.2364 55.9732 30.7227L51.8532 37.5727Z" fill="#3F469A"/>
<path d="M62.1332 51.7327L61.4132 52.6727C58.1311 51.4592 55.1055 49.6411 52.4932 47.3127C51.7919 46.6816 51.1243 46.014 50.4932 45.3127C50.1526 44.7697 49.9949 44.1319 50.0432 43.4927C50.1151 42.7246 50.4718 42.0112 51.0432 41.4927L52.6232 42.9927C53.2573 43.368 53.8653 43.7856 54.4432 44.2427C57.3732 46.5827 57.8832 48.6727 60.7932 50.8227C61.224 51.1488 61.6713 51.4525 62.1332 51.7327Z" fill="#FF8C64"/>
<path d="M66.4733 51.6927L67.1932 52.6927C70.4827 51.4726 73.5148 49.6479 76.1332 47.3127C76.8344 46.6815 77.502 46.0139 78.1332 45.3127C78.4738 44.7697 78.6315 44.1319 78.5833 43.4927C78.5004 42.7278 78.1455 42.018 77.5833 41.4927L75.9932 43.0027C75.3619 43.3774 74.7572 43.795 74.1832 44.2527C71.2432 46.5927 70.7432 48.6827 67.8232 50.8327C67.39 51.1449 66.9393 51.4321 66.4733 51.6927Z" fill="#FF8C64"/>
<path d="M60.6533 50.7327C61.4327 51.005 62.2666 51.0839 63.0833 50.9627C63.778 50.8559 64.4425 50.6037 65.0333 50.2227C65.1233 50.2227 65.1632 50.3127 65.1732 50.3627C65.1972 50.4238 65.1972 50.4917 65.1732 50.5527C65.3629 50.4093 65.5254 50.2332 65.6533 50.0327C65.8033 49.7927 65.9932 49.6827 66.0632 49.7227C66.1332 49.7627 66.1532 49.9827 66.0632 50.2427C66.0903 50.262 66.1139 50.2857 66.1332 50.3127C66.1737 50.3934 66.1948 50.4825 66.1948 50.5727C66.1948 50.663 66.1737 50.752 66.1332 50.8327C66.1439 50.9224 66.1439 51.0131 66.1332 51.1027C66.1182 51.5286 65.9676 51.9385 65.7032 52.2727L66.3832 51.9827C66.5432 51.9827 66.6032 51.9827 66.6132 51.9827C66.6232 51.9827 65.7132 52.9127 64.6132 53.0927C63.9788 53.1605 63.3373 53.1062 62.7233 52.9327C61.9625 52.7712 61.2191 52.5368 60.5032 52.2327C60.5332 51.7727 60.5933 51.2527 60.6533 50.7327Z" fill="#FF8C64"/>
<path d="M63.8132 51.5327C63.7888 51.5325 63.765 51.526 63.7439 51.5137C63.7229 51.5014 63.7054 51.4838 63.6932 51.4627C63.6824 51.4307 63.6835 51.3959 63.6964 51.3646C63.7093 51.3334 63.733 51.3079 63.7632 51.2927C64.236 51.1117 64.6629 50.8283 65.0132 50.4627C65.0238 50.4466 65.0379 50.433 65.0544 50.423C65.0709 50.4129 65.0894 50.4067 65.1086 50.4047C65.1278 50.4027 65.1472 50.4051 65.1654 50.4115C65.1836 50.418 65.2002 50.4285 65.2138 50.4421C65.2275 50.4558 65.238 50.4723 65.2444 50.4905C65.2509 50.5087 65.2532 50.5281 65.2513 50.5473C65.2493 50.5665 65.243 50.5851 65.233 50.6016C65.223 50.6181 65.2094 50.6322 65.1932 50.6427C64.9827 50.8562 64.7477 51.0442 64.4932 51.2027C64.294 51.3323 64.0831 51.4428 63.8632 51.5327H63.8132Z" fill="#EA522F"/>
<path d="M65.1332 51.9427H65.0632C65.0446 51.9183 65.0345 51.8885 65.0345 51.8577C65.0345 51.827 65.0446 51.7972 65.0632 51.7727L66.0032 50.2227C66.0274 50.1995 66.0597 50.1866 66.0933 50.1866C66.1268 50.1866 66.159 50.1995 66.1832 50.2227C66.2036 50.2464 66.2149 50.2765 66.2149 50.3077C66.2149 50.339 66.2036 50.3691 66.1832 50.3927L65.2432 51.9427C65.2076 51.9549 65.1689 51.9549 65.1332 51.9427Z" fill="#EA522F"/>
<path d="M64.6032 52.0627C64.576 52.055 64.5522 52.0386 64.5352 52.016C64.5181 51.9935 64.509 51.966 64.509 51.9377C64.509 51.9095 64.5181 51.882 64.5352 51.8595C64.5522 51.8369 64.576 51.8205 64.6032 51.8127L65.1032 51.6927C65.135 51.6848 65.1688 51.6898 65.1969 51.7067C65.225 51.7236 65.2453 51.7509 65.2532 51.7827C65.2612 51.8146 65.2562 51.8482 65.2393 51.8764C65.2224 51.9045 65.1951 51.9248 65.1633 51.9327L64.6633 52.0527L64.6032 52.0627Z" fill="#EA522F"/>
<path d="M65.2632 52.3127C65.2539 52.3172 65.2436 52.3195 65.2332 52.3195C65.2228 52.3195 65.2126 52.3172 65.2032 52.3127C65.1921 52.3016 65.1832 52.2883 65.1771 52.2738C65.1711 52.2592 65.168 52.2435 65.168 52.2277C65.168 52.2119 65.1711 52.1963 65.1771 52.1817C65.1832 52.1671 65.1921 52.1539 65.2032 52.1427L66.0632 50.7927C66.0868 50.7723 66.117 50.7611 66.1483 50.7611C66.1795 50.7611 66.2096 50.7723 66.2332 50.7927C66.2444 50.8039 66.2533 50.8171 66.2593 50.8317C66.2654 50.8463 66.2686 50.8619 66.2686 50.8777C66.2686 50.8935 66.2654 50.9092 66.2593 50.9238C66.2533 50.9383 66.2444 50.9516 66.2332 50.9627L65.3732 52.3127C65.3558 52.3202 65.3371 52.324 65.3182 52.324C65.2993 52.324 65.2806 52.3202 65.2632 52.3127Z" fill="#EA522F"/>
<path d="M64.7233 52.4627C64.6956 52.4657 64.6678 52.4581 64.6455 52.4414C64.6233 52.4247 64.6081 52.4001 64.6032 52.3727C64.5988 52.357 64.5976 52.3405 64.5997 52.3242C64.6019 52.308 64.6074 52.2923 64.6158 52.2783C64.6242 52.2642 64.6354 52.252 64.6488 52.2425C64.6621 52.2329 64.6772 52.2262 64.6933 52.2227L65.2332 52.0727C65.249 52.0665 65.2659 52.0639 65.2828 52.0653C65.2997 52.0667 65.316 52.0719 65.3305 52.0806C65.345 52.0893 65.3573 52.1013 65.3665 52.1155C65.3756 52.1298 65.3814 52.1459 65.3833 52.1627C65.3879 52.1778 65.3895 52.1937 65.388 52.2094C65.3864 52.2252 65.3818 52.2404 65.3744 52.2544C65.367 52.2683 65.3568 52.2806 65.3446 52.2906C65.3324 52.3007 65.3184 52.3082 65.3032 52.3127L64.7532 52.4627H64.7233Z" fill="#EA522F"/>
<path d="M64.5632 52.8627C64.5325 52.8613 64.5031 52.8497 64.4796 52.8298C64.4561 52.8099 64.4398 52.7828 64.4332 52.7527C64.4304 52.7362 64.4311 52.7193 64.4352 52.703C64.4393 52.6867 64.4468 52.6715 64.4572 52.6583C64.4675 52.6451 64.4805 52.6343 64.4954 52.6264C64.5102 52.6185 64.5265 52.6139 64.5432 52.6127C64.7454 52.5876 64.9436 52.5372 65.1333 52.4627C65.3059 52.3908 65.4702 52.3003 65.6232 52.1927C65.6344 52.1816 65.6477 52.1727 65.6622 52.1666C65.6768 52.1606 65.6925 52.1574 65.7083 52.1574C65.7241 52.1574 65.7397 52.1606 65.7543 52.1666C65.7689 52.1727 65.7821 52.1816 65.7932 52.1927C65.8165 52.2169 65.8294 52.2492 65.8294 52.2827C65.8294 52.3163 65.8165 52.3485 65.7932 52.3727C65.6224 52.4941 65.4378 52.5948 65.2432 52.6727C65.0345 52.7562 64.8162 52.8134 64.5933 52.8427L64.5632 52.8627Z" fill="#EA522F"/>
<path d="M68.7332 50.0227C68.1348 50.5894 67.4071 51.0014 66.6132 51.2227C65.9373 51.415 65.2279 51.4594 64.5333 51.3527C64.5082 51.3793 64.489 51.4108 64.477 51.4453C64.4649 51.4797 64.4603 51.5164 64.4633 51.5527C64.4771 51.616 64.5124 51.6726 64.5633 51.7127C64.3317 51.6588 64.1116 51.564 63.9133 51.4327C63.6733 51.2827 63.4633 51.2527 63.4033 51.3227C63.3433 51.3927 63.4033 51.5927 63.6533 51.7827C63.6452 51.8156 63.6452 51.8499 63.6533 51.8827C63.6429 51.9728 63.6538 52.064 63.685 52.1491C63.7163 52.2342 63.7671 52.3108 63.8333 52.3727C63.8623 52.4577 63.8956 52.5412 63.9333 52.6227C64.1212 53.0044 64.426 53.3162 64.8032 53.5127H64.0633C63.9133 53.5727 63.8733 53.6127 63.8733 53.6427C64.2288 53.8258 64.6178 53.9344 65.0168 53.9619C65.4157 53.9894 65.816 53.9352 66.1933 53.8027C66.8012 53.6069 67.365 53.2944 67.8532 52.8827C68.4683 52.4143 69.0375 51.8886 69.5532 51.3127C69.2732 50.9127 69.0032 50.4627 68.7332 50.0227Z" fill="#FF8C64"/>
<path d="M65.9633 52.0627C65.7867 52.073 65.6097 52.073 65.4332 52.0627C65.136 52.0168 64.8444 51.9397 64.5632 51.8327C64.5478 51.8272 64.5337 51.8186 64.5218 51.8075C64.5098 51.7963 64.5003 51.7828 64.4937 51.7679C64.4872 51.7529 64.4837 51.7367 64.4836 51.7203C64.4836 51.704 64.4868 51.6878 64.4932 51.6727C64.4973 51.6563 64.5051 51.6411 64.5159 51.6282C64.5268 51.6153 64.5405 51.605 64.556 51.5983C64.5714 51.5915 64.5882 51.5884 64.6051 51.5891C64.622 51.5899 64.6385 51.5946 64.6533 51.6027C64.9145 51.7031 65.1862 51.7735 65.4633 51.8127C65.6861 51.8327 65.9104 51.8327 66.1332 51.8127C66.1526 51.8072 66.173 51.8063 66.1928 51.8099C66.2125 51.8136 66.2312 51.8218 66.2473 51.834C66.2633 51.8461 66.2763 51.8618 66.2853 51.8798C66.2943 51.8978 66.299 51.9176 66.299 51.9377C66.299 51.9579 66.2943 51.9777 66.2853 51.9957C66.2763 52.0137 66.2633 52.0294 66.2473 52.0415C66.2312 52.0536 66.2125 52.0619 66.1928 52.0656C66.173 52.0692 66.1526 52.0683 66.1332 52.0627H65.9633Z" fill="#EA522F"/>
<path d="M65.1332 52.9627H65.0632L63.5732 51.9627C63.55 51.9385 63.537 51.9063 63.537 51.8727C63.537 51.8392 63.55 51.8069 63.5732 51.7827C63.5844 51.7716 63.5977 51.7627 63.6122 51.7566C63.6268 51.7506 63.6425 51.7474 63.6583 51.7474C63.6741 51.7474 63.6897 51.7506 63.7043 51.7566C63.7189 51.7627 63.7321 51.7716 63.7432 51.7827L65.2332 52.7827C65.2444 52.7939 65.2533 52.8071 65.2593 52.8217C65.2654 52.8363 65.2686 52.8519 65.2686 52.8677C65.2686 52.8835 65.2654 52.8992 65.2593 52.9138C65.2533 52.9283 65.2444 52.9416 65.2332 52.9527C65.2023 52.9683 65.1667 52.9719 65.1332 52.9627Z" fill="#EA522F"/>
<path d="M65.1332 52.9627C65.1061 52.955 65.0822 52.9386 65.0652 52.916C65.0482 52.8935 65.0389 52.866 65.0389 52.8377C65.0389 52.8095 65.0482 52.782 65.0652 52.7595C65.0822 52.7369 65.1061 52.7205 65.1332 52.7127L65.6432 52.6127C65.6748 52.6095 65.7064 52.6179 65.7322 52.6363C65.758 52.6547 65.7761 52.6819 65.7833 52.7127C65.7877 52.7292 65.7885 52.7465 65.7858 52.7633C65.783 52.7801 65.7766 52.7962 65.7672 52.8104C65.7577 52.8246 65.7453 52.8366 65.7308 52.8456C65.7164 52.8546 65.7001 52.8605 65.6832 52.8627L65.1832 52.9627H65.1332Z" fill="#EA522F"/>
<path d="M65.1332 53.3727H65.0632L63.7233 52.5027C63.7021 52.4775 63.6905 52.4457 63.6905 52.4127C63.6905 52.3798 63.7021 52.348 63.7233 52.3227C63.7344 52.3116 63.7476 52.3027 63.7622 52.2966C63.7768 52.2906 63.7924 52.2874 63.8082 52.2874C63.824 52.2874 63.8397 52.2906 63.8542 52.2966C63.8688 52.3027 63.8821 52.3116 63.8932 52.3227L65.2332 53.1927C65.2536 53.2164 65.2649 53.2465 65.2649 53.2777C65.2649 53.3089 65.2536 53.3391 65.2332 53.3627C65.2023 53.3783 65.1667 53.3819 65.1332 53.3727Z" fill="#EA522F"/>
<path d="M65.1332 53.3727C65.1046 53.3731 65.0767 53.3633 65.0547 53.3449C65.0327 53.3266 65.018 53.301 65.0132 53.2727C65.0073 53.2397 65.0144 53.2056 65.033 53.1776C65.0516 53.1496 65.0804 53.13 65.1132 53.1227L65.6732 53.0327C65.6897 53.0299 65.7067 53.0306 65.7229 53.0347C65.7392 53.0388 65.7544 53.0463 65.7676 53.0567C65.7808 53.067 65.7917 53.08 65.7995 53.0949C65.8074 53.1097 65.8121 53.126 65.8132 53.1427C65.8161 53.1585 65.8157 53.1747 65.8122 53.1904C65.8087 53.206 65.8021 53.2208 65.7928 53.2339C65.7834 53.2469 65.7716 53.258 65.758 53.2664C65.7443 53.2748 65.7291 53.2803 65.7132 53.2827L65.1532 53.3727H65.1332Z" fill="#EA522F"/>
<path d="M65.2733 53.6927C65.1003 53.7075 64.9263 53.7075 64.7533 53.6927C64.7223 53.6834 64.6959 53.6629 64.6793 53.6351C64.6626 53.6074 64.6569 53.5745 64.6633 53.5427C64.6656 53.5258 64.6714 53.5096 64.6804 53.4951C64.6894 53.4806 64.7015 53.4683 64.7157 53.4588C64.7299 53.4493 64.7459 53.443 64.7627 53.4402C64.7796 53.4375 64.7968 53.4383 64.8133 53.4427C64.996 53.463 65.1805 53.463 65.3632 53.4427C65.5672 53.4322 65.7689 53.3952 65.9633 53.3327C65.98 53.3224 65.9988 53.316 66.0183 53.314C66.0378 53.3119 66.0575 53.3143 66.076 53.321C66.0944 53.3277 66.1111 53.3385 66.1248 53.3525C66.1385 53.3666 66.1489 53.3835 66.1551 53.4021C66.1613 53.4208 66.1632 53.4405 66.1607 53.46C66.1581 53.4795 66.1512 53.4981 66.1405 53.5145C66.1297 53.5309 66.1154 53.5447 66.0985 53.5548C66.0817 53.5648 66.0628 53.571 66.0432 53.5727C65.8263 53.6425 65.601 53.6829 65.3733 53.6927H65.2733Z" fill="#EA522F"/>
<path d="M60.4832 38.9027C60.0541 38.9054 59.6256 38.8686 59.2033 38.7927C59.1874 38.7903 59.1722 38.7848 59.1585 38.7764C59.1448 38.768 59.133 38.7569 59.1237 38.7439C59.1143 38.7308 59.1078 38.716 59.1043 38.7004C59.1007 38.6847 59.1004 38.6685 59.1032 38.6527C59.1055 38.6358 59.1113 38.6196 59.1204 38.6051C59.1294 38.5907 59.1415 38.5783 59.1556 38.5688C59.1698 38.5593 59.1859 38.553 59.2027 38.5502C59.2195 38.5475 59.2368 38.5483 59.2532 38.5527C60.1096 38.7078 60.9869 38.7078 61.8433 38.5527C62.7602 38.3908 63.6367 38.0511 64.4232 37.5527C64.4436 37.5381 64.4681 37.5302 64.4932 37.5302C64.5183 37.5302 64.5428 37.5381 64.5632 37.5527C65.3223 38.0904 66.203 38.4313 67.1263 38.5447C68.0496 38.6582 68.9865 38.5407 69.8532 38.2027C69.8839 38.1946 69.9164 38.197 69.9455 38.2097C69.9746 38.2225 69.9985 38.2447 70.0133 38.2727C70.0241 38.3048 70.0229 38.3396 70.0101 38.3708C69.9972 38.4021 69.9735 38.4276 69.9432 38.4427C69.0573 38.7776 68.1053 38.9009 67.1633 38.8027C66.2059 38.6888 65.29 38.3458 64.4932 37.8027C63.298 38.5634 61.91 38.9659 60.4932 38.9627L60.4832 38.9027Z" fill="#BBBBF9"/>
<path d="M55.1332 32.5627H52.5432C52.2432 32.9927 51.9332 33.4127 51.6232 33.8427C51.5332 33.4727 50.5632 29.6427 52.2332 28.0627C52.5432 27.7627 53.2332 27.0627 54.0332 27.2727C54.3174 27.3365 54.5714 27.4952 54.7532 27.7227C55.0867 27.8975 55.381 28.1383 55.6183 28.4306C55.8556 28.7229 56.0308 29.0605 56.1332 29.4227C56.2607 30.2038 56.097 31.0044 55.6732 31.6727C55.5294 31.9899 55.3481 32.2887 55.1332 32.5627Z" fill="#FF8C64"/>
<path d="M53.2532 30.7427L55.1332 32.5627C53.9432 34.3827 53.0532 35.9227 52.4432 37.0027C50.1932 41.0027 49.5132 43.1427 47.3432 44.9027C46.6735 45.4541 45.9295 45.9086 45.1332 46.2527L42.1332 43.9727C42.8106 42.8942 43.5589 41.8619 44.3732 40.8827C47.3732 37.2927 49.5832 36.3127 52.0032 32.7427C52.4576 32.1004 52.875 31.4327 53.2532 30.7427Z" fill="#FF8C64"/>
<path d="M59.0532 27.1727L51.0532 28.9427C50.9922 28.9452 50.9323 28.9261 50.8839 28.8888C50.8356 28.8516 50.8019 28.7984 50.7888 28.7388C50.7756 28.6792 50.7839 28.6168 50.8121 28.5627C50.8404 28.5086 50.8868 28.4661 50.9432 28.4427L58.9432 26.6727C58.9734 26.6654 59.0048 26.6643 59.0355 26.6695C59.0662 26.6746 59.0955 26.686 59.1217 26.7028C59.1479 26.7196 59.1704 26.7416 59.1878 26.7674C59.2053 26.7931 59.2173 26.8222 59.2232 26.8527C59.2339 26.8849 59.238 26.9189 59.2352 26.9527C59.2324 26.9864 59.2228 27.0193 59.2069 27.0492C59.191 27.0791 59.1691 27.1055 59.1427 27.1268C59.1163 27.148 59.0858 27.1636 59.0532 27.1727Z" fill="#122275"/>
<path d="M59.6633 26.8027C59.7333 27.1027 59.2133 27.4727 58.5133 27.6227C57.8133 27.7727 57.1832 27.6227 57.1132 27.3727C57.0432 27.1227 57.5633 26.7127 58.2733 26.5527C58.9833 26.3927 59.6033 26.5127 59.6633 26.8027Z" fill="#122275"/>
<path d="M55.1332 32.5627L53.1332 30.9027L53.4633 28.0527C53.6309 27.7893 53.8524 27.5644 54.1132 27.3927C54.6232 27.0527 55.3632 26.9027 55.4932 27.1127C55.4932 27.1627 55.6032 27.3627 54.9432 28.0527C55.0132 29.5527 55.0632 31.0627 55.1332 32.5627Z" fill="#FF8C64"/>
<path d="M53.8732 30.3127H53.8132C53.7928 30.2891 53.7816 30.259 53.7816 30.2277C53.7816 30.1965 53.7928 30.1664 53.8132 30.1427L54.9133 28.1427C54.933 28.1223 54.9589 28.1089 54.9871 28.1046C55.0152 28.1003 55.0439 28.1054 55.0689 28.119C55.0939 28.1326 55.1137 28.1541 55.1253 28.18C55.1369 28.206 55.1397 28.235 55.1332 28.2627L54.0333 30.2627C54.0184 30.2903 53.9933 30.311 53.9634 30.3203C53.9335 30.3296 53.9011 30.3269 53.8732 30.3127Z" fill="#EA522F"/>
<path d="M54.4232 32.1027C54.3975 32.1027 54.3725 32.0951 54.3511 32.0809C54.3298 32.0667 54.3131 32.0464 54.3032 32.0227L53.6832 30.2127C53.677 30.197 53.6742 30.1802 53.6749 30.1633C53.6756 30.1465 53.6799 30.13 53.6874 30.1149C53.695 30.0998 53.7057 30.0864 53.7187 30.0757C53.7318 30.065 53.7469 30.0572 53.7632 30.0527C53.7783 30.0463 53.7945 30.0431 53.8108 30.0432C53.8272 30.0432 53.8433 30.0467 53.8583 30.0532C53.8733 30.0598 53.8868 30.0693 53.8979 30.0813C53.9091 30.0932 53.9177 30.1073 53.9232 30.1227L54.5432 31.9427C54.5529 31.9746 54.55 32.0089 54.5351 32.0387C54.5203 32.0685 54.4945 32.0914 54.4632 32.1027H54.4232Z" fill="#EA522F"/>
<path d="M52.5132 29.5827C52.4905 29.5904 52.4659 29.5904 52.4432 29.5827C52.4307 29.5724 52.4206 29.5594 52.4136 29.5448C52.4067 29.5301 52.4031 29.514 52.4031 29.4977C52.4031 29.4815 52.4067 29.4654 52.4136 29.4507C52.4206 29.436 52.4307 29.4231 52.4432 29.4127L53.7432 27.7627C53.7544 27.7516 53.7676 27.7427 53.7822 27.7366C53.7968 27.7306 53.8125 27.7274 53.8282 27.7274C53.844 27.7274 53.8597 27.7306 53.8743 27.7366C53.8889 27.7427 53.9021 27.7516 53.9133 27.7627C53.926 27.774 53.9362 27.7879 53.9432 27.8034C53.9502 27.8189 53.9539 27.8357 53.9539 27.8527C53.9539 27.8698 53.9502 27.8866 53.9432 27.9021C53.9362 27.9176 53.926 27.9315 53.9133 27.9427L52.6132 29.5927C52.5968 29.5984 52.5794 29.6004 52.5621 29.5987C52.5449 29.597 52.5282 29.5915 52.5132 29.5827Z" fill="#EA522F"/>
<path d="M54.6832 30.2327C54.6607 30.2412 54.6358 30.2412 54.6132 30.2327C54.5928 30.2091 54.5816 30.179 54.5816 30.1477C54.5816 30.1165 54.5928 30.0864 54.6132 30.0627L55.4932 28.7927C55.5168 28.7723 55.547 28.7611 55.5782 28.7611C55.6095 28.7611 55.6397 28.7723 55.6633 28.7927C55.6844 28.818 55.696 28.8498 55.696 28.8827C55.696 28.9157 55.6844 28.9475 55.6633 28.9727L54.7833 30.2427C54.7497 30.2502 54.7146 30.2467 54.6832 30.2327Z" fill="#EA522F"/>
<path d="M54.9232 30.7627C54.9075 30.7699 54.8905 30.7737 54.8732 30.7737C54.856 30.7737 54.8389 30.7699 54.8232 30.7627C54.8105 30.7515 54.8002 30.7376 54.7932 30.7221C54.7862 30.7066 54.7826 30.6898 54.7826 30.6727C54.7826 30.6557 54.7862 30.6389 54.7932 30.6234C54.8002 30.6078 54.8105 30.594 54.8232 30.5827L56.0933 29.5827C56.1057 29.5722 56.1201 29.5643 56.1357 29.5594C56.1512 29.5544 56.1676 29.5526 56.1838 29.554C56.2001 29.5554 56.2159 29.56 56.2304 29.5675C56.2449 29.575 56.2577 29.5853 56.2682 29.5977C56.2788 29.6102 56.2867 29.6246 56.2916 29.6402C56.2966 29.6557 56.2984 29.6721 56.297 29.6883C56.2956 29.7046 56.291 29.7204 56.2835 29.7349C56.276 29.7494 56.2657 29.7622 56.2532 29.7727L54.9733 30.7727L54.9232 30.7627Z" fill="#EA522F"/>
<path d="M54.7233 30.3627H54.6732L54.0633 30.0927C54.0487 30.0863 54.0356 30.077 54.0247 30.0654C54.0138 30.0538 54.0054 30.0402 53.9998 30.0253C53.9942 30.0104 53.9917 29.9946 53.9923 29.9787C53.9929 29.9628 53.9966 29.9472 54.0033 29.9327C54.0073 29.9163 54.015 29.9011 54.0259 29.8882C54.0368 29.8753 54.0505 29.865 54.066 29.8583C54.0815 29.8515 54.0983 29.8484 54.1151 29.8491C54.132 29.8499 54.1485 29.8546 54.1633 29.8627L54.7833 30.1327C54.8133 30.1478 54.8363 30.174 54.8475 30.2057C54.8587 30.2373 54.8572 30.2721 54.8433 30.3027C54.8315 30.3236 54.8138 30.3404 54.7924 30.3511C54.7711 30.3618 54.747 30.3658 54.7233 30.3627Z" fill="#EA522F"/>
<path d="M54.9932 31.0327C54.9675 31.0327 54.9425 31.0251 54.9211 31.0109C54.8998 30.9967 54.8831 30.9764 54.8732 30.9527L54.6532 30.3627C54.6424 30.3307 54.6435 30.2959 54.6564 30.2646C54.6693 30.2334 54.693 30.2079 54.7232 30.1927C54.7565 30.1826 54.7922 30.1852 54.8236 30.2C54.8551 30.2148 54.8799 30.2407 54.8932 30.2727L55.1132 30.8627C55.1229 30.8946 55.12 30.9289 55.1051 30.9587C55.0903 30.9884 55.0645 31.0114 55.0332 31.0227L54.9932 31.0327Z" fill="#EA522F"/>
<path d="M37.3032 51.9027C36.261 51.9054 35.2284 51.7025 34.2647 51.3058C33.3009 50.9091 32.4248 50.3263 31.6864 49.5907C30.9481 48.8551 30.362 47.9812 29.9616 47.019C29.5613 46.0567 29.3545 45.025 29.3532 43.9827H45.2132C45.2132 46.0815 44.3801 48.0945 42.897 49.5795C41.4139 51.0645 39.402 51.9001 37.3032 51.9027Z" fill="white"/>
<path d="M33.6832 48.5527L32.5532 50.2427C31.6032 50.1727 30.1432 50.0527 28.3432 49.9527C22.0332 49.6027 20.3432 49.8727 19.3432 48.6927C18.8532 48.1427 17.9932 46.6927 19.1932 42.9727L22.9932 43.6627C22.9932 43.9627 22.9932 44.2627 22.9932 44.5527C23.3832 44.7227 24.0732 45.0127 24.9932 45.3327C27.8332 46.3327 29.1332 46.5427 31.5832 47.5527C31.9632 47.7527 32.7432 48.0827 33.6832 48.5527Z" fill="#FF8C64"/>
<path d="M35.9632 47.8927C35.7561 47.926 35.552 47.9762 35.3532 48.0427C35.8838 48.119 36.4226 48.119 36.9532 48.0427C36.9532 48.0427 37.7832 48.0427 38.5832 48.0427C38.6932 48.0427 39.9532 47.8427 40.0932 48.2127C40.1123 48.2678 40.1123 48.3277 40.0932 48.3827C39.7901 48.5586 39.4434 48.6453 39.0932 48.6327C38.5958 48.6263 38.0984 48.6463 37.6032 48.6927C37.1991 48.7372 36.7983 48.8073 36.4032 48.9027C36.3817 48.9711 36.3817 49.0444 36.4032 49.1127C36.5932 49.4327 37.4032 49.3327 38.6832 49.4927C39.2332 49.5527 40.4132 49.7027 40.4532 49.9927C40.4532 50.0927 40.3332 50.1827 40.2832 50.2227C39.7932 50.6027 39.0632 50.3527 38.2832 50.2227C37.543 50.0682 36.7893 49.9878 36.0332 49.9827C36.7004 49.9298 37.3714 49.9533 38.0332 50.0527C38.5547 50.1324 39.0671 50.263 39.5632 50.4427C39.6561 50.5917 39.6914 50.7695 39.6624 50.9427C39.6334 51.1159 39.5422 51.2725 39.4058 51.3831C39.2694 51.4937 39.0972 51.5506 38.9218 51.5432C38.7464 51.5357 38.5797 51.4645 38.4532 51.3427L35.5632 50.6527C35.6321 50.6038 35.7104 50.5698 35.7932 50.5527C35.9066 50.5288 36.0239 50.5307 36.1365 50.5584C36.249 50.5861 36.3539 50.6389 36.4432 50.7127C36.894 50.7188 37.3392 50.814 37.7532 50.9927C38.0332 51.1227 38.3132 51.2627 38.3332 51.4927C38.3271 51.584 38.3006 51.6727 38.2556 51.7524C38.2106 51.832 38.1482 51.9005 38.0732 51.9527C37.6943 51.9947 37.312 51.9947 36.9332 51.9527C36.1735 51.8663 35.4277 51.6849 34.7132 51.4127L34.4232 51.3127H34.2932L34.0132 51.2427C33.8432 51.2427 33.7932 51.2427 33.6332 51.2427L33.2332 51.1727C32.1713 50.9338 31.1572 50.518 30.2332 49.9427C29.6632 49.5427 29.5732 49.3427 29.5432 49.1727C29.5359 48.9796 29.5759 48.7876 29.6595 48.6134C29.7432 48.4392 29.868 48.2879 30.0232 48.1727C30.4232 48.2327 30.8232 48.3027 31.2032 48.3827C31.3813 48.1818 31.5866 48.0068 31.8132 47.8627C32.8132 47.2627 33.3432 47.7627 34.6232 47.4327C35.4477 47.0944 36.311 46.8593 37.1932 46.7327C37.2732 46.7327 37.4632 46.7327 37.5132 46.8627C37.5632 46.9927 37.3732 47.2227 37.3232 47.2827C37.2732 47.3427 36.9032 47.6827 35.9632 47.8927Z" fill="#FF8C64"/>
</svg>
