<svg width="68" height="82" viewBox="0 0 68 82" fill="none" xmlns="http://www.w3.org/2000/svg">
<path d="M48.4534 38.791C45.806 41.4316 43.6251 44.5017 42.0034 47.871C41.7134 48.581 41.4534 49.461 40.7234 50.961C39.8134 52.811 39.2134 53.501 39.4834 53.871C39.7534 54.241 40.4834 54.0809 43.1034 53.3009C45.3034 52.6609 46.4034 52.3009 47.1634 52.0509C50.1344 50.9235 53.0216 49.5868 55.8034 48.0509C62.1634 44.2009 68.3034 34.7409 66.2934 32.1909C64.2834 29.6409 54.0234 33.401 48.4534 38.791Z" fill="#E3E3FD"/>
<path d="M39.4835 54.1209C39.4385 54.1211 39.3943 54.109 39.3556 54.0862C39.3169 54.0633 39.285 54.0304 39.2634 53.9909C39.2349 53.9309 39.2303 53.8623 39.2508 53.799C39.2712 53.7358 39.3151 53.6828 39.3735 53.6509C49.7799 48.5388 58.9099 41.1617 66.0935 32.0609C66.1413 32.0174 66.2037 31.9932 66.2684 31.9932C66.3332 31.9932 66.3956 32.0174 66.4435 32.0609C66.4674 32.0834 66.4864 32.1105 66.4995 32.1406C66.5125 32.1707 66.5192 32.2031 66.5192 32.2359C66.5192 32.2687 66.5125 32.3012 66.4995 32.3313C66.4864 32.3614 66.4674 32.3885 66.4435 32.4109C62.4897 37.4375 57.9321 41.9582 52.8735 45.8709C48.7452 49.0432 44.3137 51.7999 39.6434 54.1009C39.6196 54.1152 39.5931 54.1243 39.5656 54.1278C39.538 54.1312 39.51 54.1289 39.4835 54.1209Z" fill="#BBBBF9"/>
<path d="M35.2434 36.7409C35.2132 40.0358 35.7406 43.312 36.8034 46.4309C37.2057 47.3224 37.5628 48.2335 37.8734 49.1609C38.4434 50.8909 38.4934 51.6909 38.8734 51.7609C39.2534 51.8309 39.6134 51.2909 40.8034 49.1609C41.8034 47.4009 42.2734 46.5209 42.5734 45.8709C43.7579 43.332 44.7604 40.7121 45.5734 38.0309C47.2034 31.6809 45.2134 21.9409 42.3634 21.5809C39.5134 21.2209 35.4234 29.9009 35.2434 36.7409Z" fill="#E3E3FD"/>
<path d="M38.9334 52.0109H38.8534C38.8217 52.001 38.7925 51.9845 38.7675 51.9627C38.7425 51.9408 38.7223 51.914 38.7082 51.8839C38.6941 51.8538 38.6864 51.8211 38.6856 51.7879C38.6847 51.7547 38.6908 51.7217 38.7034 51.6909C40.1982 47.3839 41.2602 42.9386 41.8734 38.4209C42.6432 32.8487 42.7238 27.2029 42.1134 21.6109C42.1078 21.5435 42.1287 21.4766 42.1716 21.4243C42.2146 21.372 42.2762 21.3385 42.3434 21.3309C42.4082 21.3253 42.4726 21.3451 42.523 21.3862C42.5735 21.4273 42.6059 21.4864 42.6134 21.5509C43.2255 27.1865 43.1415 32.8759 42.3634 38.4909C41.7361 43.0368 40.6575 47.5089 39.1434 51.8409C39.1264 51.8852 39.0981 51.9243 39.0612 51.9541C39.0244 51.984 38.9803 52.0036 38.9334 52.0109Z" fill="#BBBBF9"/>
<path d="M21.4734 30.6309C21.7508 30.4579 22.038 30.301 22.3334 30.1609C22.7306 29.9615 23.1417 29.7911 23.5634 29.6509L25.7734 28.2909C25.1068 26.5243 24.4634 24.7543 23.8434 22.9809C23.5434 22.0909 23.2234 21.2209 22.9134 20.3309L17.9134 13.8409C17.7293 13.9892 17.5617 14.1568 17.4134 14.3409C16.0934 16.0309 16.9234 18.7009 18.8234 24.1909C18.8734 24.3309 18.9134 24.4809 18.9734 24.6309C18.9734 24.6309 19.1634 25.2009 19.3834 25.7909C19.6034 26.3809 20.3334 28.1509 21.4734 30.6309Z" fill="#FF8C64"/>
<path d="M19.3734 25.7409L23.8534 22.9409L22.2034 22.8709C21.0834 23.3009 19.9534 23.7209 18.8134 24.1409C19.0034 24.7009 19.1934 25.2309 19.3734 25.7409Z" fill="#122275"/>
<path d="M18.4834 24.751L24.4834 22.751L21.1734 13.091C19.9093 12.7085 18.5499 12.7937 17.3434 13.331C16.6019 13.6879 16.0222 14.3114 15.72 15.0769C15.4179 15.8424 15.4155 16.6938 15.7134 17.461L18.4834 24.751Z" fill="#E3E3FD"/>
<path d="M15.7834 41.101L7.34344 35.351L9.77345 32.121L11.3334 21.761C11.3334 21.241 11.0834 17.071 12.7134 14.101C13.2518 13.1397 13.9253 12.2608 14.7134 11.491C15.1848 11.0398 15.7008 10.6378 16.2534 10.291L19.9934 12.291C20.3434 12.651 24.2334 16.791 22.9034 20.991C22.6801 21.6702 22.3419 22.3061 21.9034 22.871C21.2168 24.9776 20.5068 27.1176 19.7734 29.291C18.4534 33.2376 17.1234 37.1743 15.7834 41.101Z" fill="#FF8C64"/>
<path d="M18.1234 54.771C18.4934 57.8909 18.1234 60.441 17.1234 60.771C16.1234 61.101 14.0434 58.911 12.5534 55.181C11.2267 49.921 9.91675 44.6243 8.62341 39.291L17.5234 36.041C18.1567 38.0259 18.6086 40.0643 18.8734 42.131C19.419 46.354 19.1646 50.642 18.1234 54.771Z" fill="#FF8C64"/>
<path d="M14.5534 53.5209H19.1634C20.0067 49.5678 20.0305 45.4837 19.2334 41.5209C18.8511 39.6344 18.2781 37.7917 17.5234 36.0209L13.1234 36.3409C13.6034 37.7709 14.1234 39.2109 14.5534 40.6409V53.5209Z" fill="#122275"/>
<path d="M10.4034 80.9709H0.463439C0.316331 80.4721 0.333863 79.9391 0.513438 79.451C0.577462 79.2898 0.657885 79.1357 0.753438 78.991C1.16398 78.2582 1.41608 77.4473 1.49344 76.611L3.29344 76.4109C5.57344 79.4709 6.85344 80.081 7.62344 80.041C8.15344 80.041 8.62344 80.301 9.21344 80.311C9.38771 80.2826 9.56588 80.2892 9.73757 80.3304C9.90926 80.3716 10.071 80.4466 10.2134 80.5509C10.3161 80.6696 10.3821 80.8155 10.4034 80.9709Z" fill="#FF8C64"/>
<path d="M23.4834 9.64095L22.0634 11.4709L19.8034 14.3809L15.4434 11.1009L20.8734 5.55095C21.2747 6.43079 21.7462 7.27686 22.2834 8.08095C22.649 8.62651 23.0499 9.14761 23.4834 9.64095Z" fill="#FF8C64"/>
<path d="M23.4834 9.64095L22.0634 11.471C21.2634 10.831 21.3534 9.33095 22.2834 8.10095C22.6934 8.60095 23.0834 9.12095 23.4834 9.64095Z" fill="#122275"/>
<path d="M11.8734 56.091C11.4134 59.201 10.3534 61.561 9.31341 61.591C8.27341 61.621 6.82342 59.001 6.31342 55.011L6.67341 38.6909L16.1034 37.851C16.2155 39.9309 16.1318 42.0167 15.8534 44.0809C15.2855 48.297 13.9357 52.3701 11.8734 56.091Z" fill="#FF8C64"/>
<path d="M3.76343 78.1609L1.34343 77.4509C1.29423 74.8881 1.38102 72.3245 1.60343 69.7709C2.18343 63.3209 3.24343 61.7709 3.77343 61.1009C4.38544 60.4082 4.95641 59.6803 5.48343 58.9209C6.28867 57.718 6.95936 56.4303 7.48343 55.0809L9.70343 61.3609C9.20343 62.3009 8.70343 63.2709 8.23343 64.2909C6.18404 68.7149 4.68291 73.3728 3.76343 78.1609Z" fill="#FF8C64"/>
<path d="M22.6934 80.931H12.7534C12.6156 80.4269 12.6365 79.8926 12.8134 79.401C12.8769 79.2445 12.9538 79.094 13.0434 78.951C13.4639 78.2225 13.7167 77.4094 13.7834 76.571L15.5934 76.361C17.8634 79.421 19.1534 80.041 19.9134 79.991C20.4534 79.991 20.9734 80.261 21.5134 80.261C21.8534 80.261 22.2834 80.261 22.5134 80.511C22.6181 80.6273 22.6814 80.7749 22.6934 80.931Z" fill="#FF8C64"/>
<path d="M16.4334 77.811H13.9134C13.1766 75.3559 12.5756 72.8622 12.1134 70.341C10.9434 63.961 11.5534 62.181 11.8834 61.401C12.2846 60.5669 12.6417 59.7124 12.9534 58.841C13.4143 57.4695 13.7195 56.0506 13.8634 54.611L17.6834 60.071C17.4434 61.071 17.2334 62.181 17.0534 63.281C16.2525 68.0806 16.0443 72.9605 16.4334 77.811Z" fill="#FF8C64"/>
<path d="M22.7234 9.76095C21.5449 8.43968 20.8226 6.77431 20.6634 5.01095C20.5813 4.29625 20.6709 3.57225 20.9248 2.89915C21.1787 2.22604 21.5897 1.62327 22.1234 1.14095C22.619 0.733675 23.2002 0.443844 23.8237 0.293175C24.4471 0.142505 25.0966 0.13491 25.7234 0.27095C27.9634 0.75095 29.4134 3.04094 29.2234 4.35094C29.1977 4.54442 29.1438 4.73309 29.0634 4.91095C28.4734 6.20095 28.2134 6.78094 28.2034 6.81094C28.2135 6.84352 28.2135 6.87837 28.2034 6.91095C28.1854 6.93639 28.1613 6.957 28.1334 6.97095L27.6934 7.32095C27.3289 7.82025 26.9949 8.3412 26.6934 8.88094C26.5734 9.11094 26.5234 9.23095 26.4234 9.29095C26.3234 9.35095 26.3634 9.29094 26.3634 9.35094C26.3634 9.41094 26.4234 9.45095 26.4134 9.50095C26.4034 9.55095 26.2334 9.63095 26.2034 9.64095C26.1734 9.65095 25.9034 9.71095 25.7834 9.58095C25.7495 9.54552 25.7284 9.49976 25.7234 9.45095C25.7234 9.45095 25.9134 9.74095 25.8334 9.84095C25.8174 9.8598 25.7975 9.87494 25.7751 9.8853C25.7526 9.89566 25.7282 9.901 25.7034 9.90095C25.6637 9.90786 25.6231 9.90786 25.5834 9.90095C25.4234 9.90095 25.2034 10.6809 24.9334 10.9009C24.6634 11.1209 23.4634 10.5409 22.7234 9.76095Z" fill="#FF8C64"/>
<path d="M27.4634 9.03094C27.3534 9.18094 27.1034 9.18094 27.0034 9.18094C26.8228 9.17085 26.649 9.10829 26.5034 9.00094C26.4814 8.95047 26.47 8.89601 26.47 8.84094C26.47 8.78588 26.4814 8.73141 26.5034 8.68094C26.5034 8.59094 26.6334 8.58094 26.7234 8.49094C26.8194 8.40195 26.8798 8.28113 26.8934 8.15094C27.1534 7.83094 27.4134 7.51094 27.6834 7.15094C27.6834 7.42094 27.6034 7.65094 27.5834 7.80094C27.5034 8.31094 27.4934 8.31094 27.4834 8.45094C27.4934 8.81094 27.5534 8.91094 27.4634 9.03094Z" fill="#FF8C64"/>
<path d="M27.4235 7.06094C27.4095 7.06797 27.3941 7.07164 27.3785 7.07164C27.3628 7.07164 27.3474 7.06797 27.3335 7.06094C26.945 6.65741 26.4542 6.36707 25.9135 6.22094C25.8974 6.21746 25.8823 6.21075 25.869 6.2012C25.8557 6.19164 25.8444 6.17946 25.836 6.16541C25.8276 6.15135 25.8221 6.13572 25.82 6.11948C25.8178 6.10323 25.819 6.08671 25.8235 6.07094C25.8253 6.05412 25.8311 6.03796 25.8402 6.02371C25.8494 6.00947 25.8617 5.99752 25.8762 5.98882C25.8907 5.98011 25.907 5.97487 25.9239 5.9735C25.9408 5.97214 25.9577 5.97468 25.9735 5.98094C26.3302 6.0621 26.6691 6.20783 26.9735 6.41094C27.143 6.52083 27.3005 6.64819 27.4435 6.79094L27.6035 6.60094C27.6146 6.58975 27.6279 6.58088 27.6424 6.57482C27.657 6.56877 27.6727 6.56564 27.6885 6.56564C27.7043 6.56564 27.7199 6.56877 27.7345 6.57482C27.7491 6.58088 27.7623 6.58975 27.7735 6.60094C27.786 6.61126 27.7961 6.62423 27.8031 6.63893C27.81 6.65363 27.8136 6.66968 27.8136 6.68594C27.8136 6.70219 27.81 6.71825 27.8031 6.73295C27.7961 6.74765 27.786 6.76062 27.7735 6.77094L27.5335 7.08094C27.5147 7.08534 27.4953 7.08584 27.4764 7.0824C27.4574 7.07896 27.4394 7.07165 27.4235 7.06094Z" fill="#122275"/>
<path d="M27.1934 7.09094C27.133 7.17613 27.0416 7.23428 26.9388 7.25296C26.836 7.27165 26.73 7.24939 26.6434 7.19094C26.5572 7.12463 26.5009 7.02681 26.4868 6.91897C26.4728 6.81114 26.5021 6.70213 26.5684 6.61593C26.6347 6.52974 26.7326 6.47341 26.8404 6.45935C26.9482 6.44528 27.0572 6.47463 27.1434 6.54094C27.2209 6.60861 27.2693 6.7035 27.2786 6.80592C27.2879 6.90834 27.2574 7.01041 27.1934 7.09094Z" fill="#122275"/>
<path d="M26.1534 5.23096C26.279 5.24587 26.4029 5.27265 26.5234 5.31095C27.0552 5.55255 27.5556 5.85814 28.0134 6.22096C28.1465 6.14181 28.2514 6.02288 28.3134 5.88095C28.3728 5.76006 28.397 5.62494 28.3834 5.49095C28.0011 5.35316 27.63 5.18599 27.2734 4.99095C27.0463 4.85629 26.7948 4.76793 26.5334 4.73096C26.4307 4.71484 26.3261 4.71484 26.2234 4.73096C26.1072 4.76757 25.9995 4.82716 25.9067 4.90617C25.814 4.98519 25.738 5.08203 25.6834 5.19096C25.8409 5.19218 25.998 5.20555 26.1534 5.23096Z" fill="#122275"/>
<path d="M25.6934 9.75095C25.5492 9.72429 25.4127 9.66626 25.2934 9.58095C25.096 9.44305 24.9514 9.24201 24.8834 9.01095C24.8788 8.99585 24.8772 8.97998 24.8787 8.96426C24.8803 8.94854 24.8849 8.93327 24.8923 8.91934C24.8997 8.9054 24.9098 8.89307 24.922 8.88305C24.9342 8.87303 24.9483 8.86552 24.9634 8.86095C24.9791 8.85473 24.996 8.85189 25.0128 8.85262C25.0297 8.85335 25.0462 8.85763 25.0613 8.86518C25.0764 8.87273 25.0898 8.88338 25.1005 8.89644C25.1112 8.90949 25.119 8.92466 25.1234 8.94095C25.1797 9.11838 25.292 9.27278 25.4434 9.38095C25.5286 9.44008 25.6233 9.48407 25.7234 9.51095C25.7403 9.51283 25.7564 9.51856 25.7707 9.52771C25.7849 9.53685 25.7968 9.54916 25.8056 9.56368C25.8143 9.57819 25.8195 9.59452 25.8209 9.61139C25.8222 9.62827 25.8197 9.64523 25.8134 9.66095C25.8066 9.68736 25.791 9.71065 25.7692 9.72701C25.7474 9.74337 25.7207 9.75181 25.6934 9.75095Z" fill="#EA522F"/>
<path d="M6.07343 52.3409L14.5934 53.8709C15.1909 51.4335 15.6417 48.9624 15.9434 46.4709C16.3536 43.0438 16.474 39.5883 16.3034 36.1409L8.87342 32.0209C8.29244 32.7551 7.78658 33.5458 7.36343 34.3809C6.89977 35.2895 6.53436 36.2449 6.27342 37.2309C6.22009 42.2709 6.15343 47.3076 6.07343 52.3409Z" fill="#122275"/>
<path d="M10.4034 51.3709C10.3869 51.3723 10.3702 51.3702 10.3544 51.3648C10.3387 51.3594 10.3243 51.3508 10.312 51.3395C10.2998 51.3283 10.2901 51.3146 10.2834 51.2993C10.2768 51.2841 10.2734 51.2676 10.2734 51.2509V35.4309C10.2734 35.3965 10.2871 35.3634 10.3115 35.339C10.3359 35.3146 10.369 35.3009 10.4034 35.3009C10.4201 35.3009 10.4365 35.3043 10.4518 35.3109C10.467 35.3176 10.4807 35.3273 10.492 35.3395C10.5033 35.3518 10.5119 35.3662 10.5173 35.3819C10.5227 35.3977 10.5248 35.4144 10.5234 35.4309V51.2909C10.5148 51.3155 10.4984 51.3366 10.4768 51.351C10.4552 51.3654 10.4294 51.3724 10.4034 51.3709Z" fill="#BBBBF9"/>
<path d="M15.9434 46.5909C15.9089 46.5909 15.8759 46.5772 15.8515 46.5529C15.8271 46.5285 15.8134 46.4954 15.8134 46.4609L16.4034 41.0909C16.4046 41.0742 16.4092 41.0579 16.4171 41.0431C16.4249 41.0282 16.4358 41.0152 16.449 41.0049C16.4622 40.9945 16.4774 40.987 16.4937 40.9829C16.5099 40.9788 16.5269 40.9781 16.5434 40.9809C16.5602 40.9821 16.5765 40.9868 16.5913 40.9946C16.6061 41.0025 16.6191 41.0133 16.6295 41.0265C16.6399 41.0397 16.6474 41.0549 16.6515 41.0712C16.6556 41.0875 16.6563 41.1044 16.6534 41.1209L16.0634 46.4809C16.0609 46.511 16.0472 46.539 16.0249 46.5594C16.0027 46.5798 15.9736 46.5911 15.9434 46.5909Z" fill="#BBBBF9"/>
<path d="M14.8735 52.921C14.8381 52.916 14.806 52.8977 14.7837 52.8698C14.7614 52.8419 14.7506 52.8065 14.7535 52.771L15.4335 49.321C15.4369 49.3049 15.4436 49.2898 15.4532 49.2765C15.4627 49.2632 15.4749 49.2519 15.489 49.2435C15.503 49.2351 15.5187 49.2296 15.5349 49.2275C15.5512 49.2253 15.5677 49.2265 15.5835 49.231C15.5991 49.2332 15.6141 49.2387 15.6273 49.2473C15.6406 49.2558 15.6519 49.2671 15.6605 49.2804C15.669 49.2937 15.6746 49.3086 15.6768 49.3243C15.6791 49.3399 15.6779 49.3558 15.6735 49.371L14.9935 52.821C14.987 52.8484 14.9718 52.873 14.9501 52.891C14.9285 52.909 14.9016 52.9196 14.8735 52.921Z" fill="#BBBBF9"/>
<path d="M8.58344 32.4309C10.9434 36.1509 14.2334 38.3709 17.1134 37.8309C17.7412 37.7184 18.3398 37.4803 18.8734 37.1309L23.5134 19.5109C23.4144 17.946 22.9958 16.4179 22.2834 15.0209C21.8944 14.276 21.4213 13.5781 20.8734 12.9409L16.3734 10.1209C15.4277 10.5515 14.5777 11.1669 13.8734 11.9309C12.5364 13.404 11.7641 15.3028 11.6934 17.2909C10.6534 22.3376 9.61677 27.3843 8.58344 32.4309Z" fill="#E3E3FD"/>
<path d="M13.8734 29.5509C14.182 29.4451 14.4957 29.355 14.8134 29.2809C15.2452 29.1809 15.6827 29.1074 16.1234 29.0609L18.5934 28.1809L17.9034 22.5809C17.8034 21.6409 17.6934 20.7209 17.5834 19.7909L14.1534 12.3409C13.9387 12.4427 13.7372 12.5703 13.5534 12.7209C11.8934 14.0709 12.1034 16.8509 12.7334 22.6309C12.7334 22.7809 12.7334 22.9309 12.7334 23.0909C12.7334 23.0909 12.8034 23.7009 12.8834 24.3109C12.9634 24.9209 13.2934 26.8709 13.8734 29.5509Z" fill="#FF8C64"/>
<path d="M12.8734 24.291C14.5334 23.721 16.2034 23.151 17.8734 22.571C17.3534 22.411 16.8134 22.281 16.2934 22.131L12.7034 22.611C12.7734 23.221 12.8734 23.781 12.8734 24.291Z" fill="#122275"/>
<path d="M12.2534 23.1509L18.5234 22.5109L17.5234 12.3909C16.376 11.7347 15.0314 11.5112 13.7334 11.7609C12.9282 11.9414 12.2215 12.4206 11.7557 13.1016C11.2899 13.7827 11.0996 14.6151 11.2234 15.4309L12.2534 23.1509Z" fill="#E3E3FD"/>
<path d="M18.0634 22.6809C18.0316 22.6809 18.0011 22.6683 17.9786 22.6458C17.9561 22.6233 17.9434 22.5928 17.9434 22.5609L17.6434 15.2209C17.6476 15.1879 17.6626 15.1572 17.6862 15.1337C17.7097 15.1102 17.7404 15.0951 17.7734 15.0909C17.8053 15.0909 17.8358 15.1036 17.8583 15.1261C17.8808 15.1486 17.8934 15.1791 17.8934 15.2109L18.1934 22.5509C18.1948 22.5675 18.1927 22.5842 18.1873 22.5999C18.1819 22.6157 18.1733 22.6301 18.162 22.6423C18.1507 22.6546 18.137 22.6643 18.1218 22.671C18.1065 22.6776 18.0901 22.681 18.0734 22.6809H18.0634Z" fill="#BBBBF9"/>
<path d="M22.1434 24.1409C22.1241 24.1398 22.1052 24.1346 22.088 24.1257C22.0707 24.1169 22.0555 24.1045 22.0433 24.0895C22.0311 24.0744 22.0221 24.057 22.017 24.0383C22.0118 24.0197 22.0106 24.0001 22.0134 23.9809L23.0134 19.8109C23.0248 19.7792 23.0472 19.7526 23.0766 19.7361C23.106 19.7195 23.1404 19.7142 23.1734 19.7209C23.2044 19.7303 23.2308 19.7508 23.2474 19.7785C23.2641 19.8063 23.2698 19.8392 23.2634 19.8709L22.2634 24.0409C22.2556 24.0676 22.2401 24.0914 22.2187 24.1092C22.1973 24.1271 22.1711 24.1381 22.1434 24.1409Z" fill="#BBBBF9"/>
<path d="M12.2435 23.001C12.2139 22.999 12.1859 22.9871 12.1641 22.9671C12.1423 22.9471 12.128 22.9202 12.1235 22.891L11.4635 18.371C11.4606 18.3552 11.4609 18.339 11.4645 18.3233C11.468 18.3077 11.4746 18.2929 11.4839 18.2798C11.4932 18.2668 11.5051 18.2557 11.5187 18.2473C11.5324 18.2389 11.5476 18.2334 11.5635 18.231C11.5799 18.2265 11.5972 18.2257 11.614 18.2285C11.6308 18.2312 11.6469 18.2376 11.6611 18.247C11.6753 18.2565 11.6873 18.2689 11.6963 18.2833C11.7054 18.2978 11.7112 18.314 11.7135 18.331L12.3735 22.851C12.3763 22.8681 12.3757 22.8856 12.3717 22.9024C12.3677 22.9193 12.3603 22.9351 12.3501 22.9491C12.3398 22.9631 12.3269 22.9749 12.312 22.9838C12.2971 22.9927 12.2806 22.9985 12.2635 23.001H12.2435Z" fill="#BBBBF9"/>
<path d="M22.9334 0.380946C21.9554 0.861254 21.1871 1.68296 20.7734 2.69095C20.3975 3.67977 20.3975 4.77213 20.7734 5.76095C20.8167 5.86737 20.8989 5.95324 21.0034 6.00095C21.5934 6.21095 22.6834 4.45095 22.9434 4.00095C23.115 4.27536 23.3461 4.50769 23.6196 4.68078C23.8931 4.85387 24.202 4.96329 24.5234 5.00095C25.4434 5.00095 25.7834 4.10095 26.8534 4.12095C27.3234 4.12095 27.3334 4.29095 28.4234 4.61095C29.5134 4.93095 30.1734 5.12095 30.4934 4.86095C31.0234 4.45095 30.7934 3.08095 30.1934 2.16095C29.5465 1.33983 28.6407 0.761815 27.6234 0.520953C26.4058 0.00352323 25.0599 -0.132469 23.7634 0.130946C23.4777 0.18064 23.199 0.264578 22.9334 0.380946Z" fill="#3F469A"/>
<path d="M22.2534 4.23093C22.0921 4.45829 22.0268 4.74005 22.0717 5.01519C22.1166 5.29033 22.2681 5.5367 22.4934 5.70093C22.7574 5.74868 23.0297 5.71024 23.2702 5.59128C23.5107 5.47232 23.7065 5.27915 23.8287 5.04034C23.9509 4.80152 23.993 4.52972 23.9489 4.26511C23.9047 4.00049 23.7766 3.75711 23.5834 3.57093C23.3194 3.48749 23.0333 3.50963 22.7853 3.6327C22.5373 3.75578 22.3466 3.97022 22.2534 4.23093Z" fill="#FF8C64"/>
<path d="M22.8034 5.90093C22.6746 5.90196 22.5474 5.87104 22.4334 5.81093C22.2769 5.71617 22.1494 5.58029 22.0648 5.41807C21.9801 5.25585 21.9416 5.07352 21.9534 4.89093C21.956 4.85821 21.9708 4.82766 21.9949 4.80541C22.019 4.78315 22.0506 4.77084 22.0834 4.77094C22.1001 4.77088 22.1165 4.77428 22.1318 4.78092C22.147 4.78757 22.1608 4.79732 22.172 4.80954C22.1833 4.82177 22.1919 4.8362 22.1973 4.85194C22.2027 4.86767 22.2048 4.88435 22.2034 4.90093C22.1925 5.03593 22.2184 5.17135 22.2782 5.29284C22.3381 5.41433 22.4297 5.51734 22.5434 5.59094C22.654 5.62617 22.7728 5.62617 22.8834 5.59094C22.9028 5.58541 22.9232 5.58445 22.9429 5.58813C22.9627 5.59181 22.9814 5.60004 22.9974 5.61215C23.0135 5.62427 23.0265 5.63995 23.0355 5.65796C23.0445 5.67597 23.0491 5.69581 23.0491 5.71594C23.0491 5.73606 23.0445 5.7559 23.0355 5.77391C23.0265 5.79192 23.0135 5.8076 22.9974 5.81972C22.9814 5.83184 22.9627 5.84005 22.9429 5.84374C22.9232 5.84742 22.9028 5.84646 22.8834 5.84094L22.8034 5.90093Z" fill="#EA522F"/>
<path d="M22.0934 4.86095C22.0034 4.86095 21.9534 4.79095 21.9634 4.72095C21.9867 4.56588 22.0305 4.41457 22.0934 4.27095C22.1066 4.2415 22.1303 4.21802 22.1599 4.20508C22.1895 4.19214 22.2228 4.19067 22.2534 4.20095C22.2852 4.21421 22.3105 4.23957 22.3236 4.27145C22.3368 4.30333 22.3367 4.33913 22.3234 4.37095C22.2671 4.49109 22.23 4.61931 22.2134 4.75095C22.2089 4.78021 22.1946 4.80706 22.1728 4.82706C22.151 4.84706 22.123 4.85901 22.0934 4.86095Z" fill="#EA522F"/>
<path d="M22.3135 4.29094H22.2435C22.2223 4.26572 22.2107 4.23386 22.2107 4.20094C22.2107 4.16802 22.2223 4.13615 22.2435 4.11094C22.3658 3.85237 22.58 3.64865 22.8444 3.53956C23.1088 3.43047 23.4044 3.42383 23.6735 3.52094C23.7838 3.57424 23.8797 3.65309 23.9535 3.75094C23.9767 3.77514 23.9896 3.80739 23.9896 3.84094C23.9896 3.87448 23.9767 3.90673 23.9535 3.93094C23.9423 3.94212 23.9291 3.951 23.9145 3.95706C23.8999 3.96312 23.8842 3.96623 23.8685 3.96623C23.8527 3.96623 23.837 3.96312 23.8224 3.95706C23.8079 3.951 23.7946 3.94212 23.7835 3.93094C23.7324 3.86451 23.6676 3.80993 23.5935 3.77094C23.3807 3.70297 23.1504 3.71649 22.9471 3.8089C22.7438 3.9013 22.5821 4.06598 22.4935 4.27094C22.4707 4.29505 22.4401 4.3103 22.4071 4.31396C22.3742 4.31762 22.341 4.30946 22.3135 4.29094Z" fill="#EA522F"/>
<path d="M22.9335 5.35096C22.9168 5.35102 22.9004 5.34762 22.8851 5.34097C22.8699 5.33433 22.8562 5.32458 22.8449 5.31236C22.8336 5.30013 22.825 5.28569 22.8196 5.26996C22.8142 5.25422 22.8121 5.23754 22.8135 5.22096L22.9235 4.04096C22.9235 4.0252 22.9266 4.0096 22.9326 3.99504C22.9386 3.98048 22.9475 3.96725 22.9586 3.95611C22.9698 3.94497 22.983 3.93613 22.9975 3.9301C23.0121 3.92407 23.0277 3.92096 23.0435 3.92096C23.0606 3.92222 23.0772 3.92686 23.0925 3.93459C23.1078 3.94232 23.1214 3.95299 23.1326 3.966C23.1437 3.97901 23.1522 3.9941 23.1575 4.0104C23.1628 4.0267 23.1648 4.04388 23.1635 4.06096L23.0635 5.24096C23.0587 5.27187 23.0429 5.30001 23.019 5.32021C22.9951 5.34042 22.9647 5.35133 22.9335 5.35096Z" fill="#EA522F"/>
<path d="M23.0335 4.68095C23.0117 4.68018 22.9905 4.67436 22.9714 4.66395C22.9523 4.65353 22.9359 4.63881 22.9235 4.62096C22.9088 4.59155 22.9057 4.55766 22.915 4.52612C22.9243 4.49457 22.9452 4.46772 22.9735 4.45096L23.3135 4.24095C23.3246 4.22976 23.3379 4.22089 23.3524 4.21484C23.367 4.20878 23.3827 4.20566 23.3985 4.20566C23.4143 4.20566 23.4299 4.20878 23.4445 4.21484C23.4591 4.22089 23.4723 4.22976 23.4835 4.24095C23.4947 4.2521 23.5035 4.26535 23.5096 4.27994C23.5156 4.29452 23.5188 4.31016 23.5188 4.32596C23.5188 4.34175 23.5156 4.35738 23.5096 4.37197C23.5035 4.38656 23.4947 4.39981 23.4835 4.41096L23.1435 4.62096L23.0335 4.68095Z" fill="#EA522F"/>
<path d="M30.0234 81.061C38.6943 81.061 45.7234 75.3839 45.7234 68.381C45.7234 61.378 38.6943 55.701 30.0234 55.701C21.3526 55.701 14.3234 61.378 14.3234 68.381C14.3234 75.3839 21.3526 81.061 30.0234 81.061Z" fill="#FFC5D2"/>
<path d="M59.2634 78.7409L61.2634 77.641C59.0932 74.1728 57.1878 70.5459 55.5634 66.7909C54.3507 64.0195 53.2957 61.1816 52.4034 58.2909C51.8617 57.7421 51.1628 57.3752 50.4034 57.2409C49.8108 57.1645 49.2085 57.2219 48.6409 57.4088C48.0733 57.5957 47.5548 57.9074 47.1234 58.3209C47.5134 59.1909 47.8934 60.051 48.2734 60.921C48.4053 62.2108 48.6394 63.4881 48.9734 64.7409C49.3599 66.4722 50.0002 68.1369 50.8734 69.6809C52.6034 72.5809 54.2734 72.681 57.7734 76.841C58.4234 77.631 58.9334 78.2909 59.2634 78.7409Z" fill="#FF8C64"/>
<path d="M49.6334 67.021L55.0734 65.751C54.4534 63.991 53.8301 62.2243 53.2034 60.451L48.5334 63.881C48.8734 64.931 49.2634 65.981 49.6334 67.021Z" fill="#5B98E8"/>
<path d="M26.8734 52.381C26.3205 53.1671 25.9265 54.0537 25.7134 54.991C25.5619 55.6461 25.5047 56.3196 25.5434 56.991L33.5934 60.8309C33.9508 60.1246 34.2034 59.3701 34.3434 58.591C34.5157 57.452 34.492 56.2919 34.2734 55.1609C34.0734 53.681 33.9534 52.161 33.6834 50.731C33.3234 48.831 33.1534 45.801 34.0334 40.821L29.6034 35.821C28.7865 35.3088 28.1744 34.527 27.8734 33.611C27.8239 33.4332 27.7839 33.2529 27.7534 33.071C27.6458 32.3341 27.7355 31.5818 28.0134 30.891L26.9234 30.671L25.2734 30.291C24.6934 32.3443 24.1068 34.3943 23.5134 36.4409C23.0695 37.6108 22.882 38.8624 22.9634 40.111C23.1534 42.711 24.5334 43.941 25.6734 46.901C26.3464 48.657 26.751 50.5044 26.8734 52.381Z" fill="#FF8C64"/>
<path d="M30.6435 42.9409C30.685 43.4461 30.8755 43.9275 31.1908 44.3243C31.5062 44.721 31.9322 45.0153 32.4149 45.1697C32.8977 45.3241 33.4154 45.3317 33.9025 45.1916C34.3895 45.0515 34.8241 44.77 35.151 44.3827C35.478 43.9955 35.6826 43.5199 35.739 43.0162C35.7954 42.5125 35.701 42.0034 35.4678 41.5534C35.2346 41.1034 34.873 40.7328 34.429 40.4885C33.985 40.2441 33.4784 40.1371 32.9735 40.181C32.3001 40.242 31.678 40.566 31.2418 41.0826C30.8057 41.5992 30.5907 42.2669 30.6435 42.9409Z" fill="#FF8C64"/>
<path d="M31.0234 62.0609C34.3334 62.3509 37.2234 60.2909 37.4734 57.4609C37.7234 54.6309 35.2534 52.0809 31.9434 51.7809C28.6334 51.4809 25.7534 53.5509 25.4934 56.3809C25.2334 59.2109 27.7234 61.7609 31.0234 62.0609Z" fill="#FF8C64"/>
<path d="M50.1834 60.031L50.6934 55.151C44.8699 52.632 38.5883 51.345 32.2434 51.371C33.3301 54.351 34.4267 57.3243 35.5334 60.291C36.9855 60.7717 38.4958 61.0542 40.0234 61.131C41.2134 61.191 42.1734 61.131 47.9434 60.321L50.1834 60.031Z" fill="#FF8C64"/>
<path d="M40.5034 76.601L42.5034 77.601C44.1712 73.8666 46.1236 70.266 48.3434 66.8309C49.9775 64.2984 51.7502 61.858 53.6534 59.521C53.8117 58.7644 53.7277 57.9771 53.4134 57.271C53.148 56.7352 52.7659 56.2658 52.2952 55.8972C51.8245 55.5285 51.2772 55.2702 50.6934 55.141L49.1634 57.5509C48.1655 58.3745 47.2358 59.2775 46.3834 60.251C45.1836 61.5377 44.1734 62.989 43.3834 64.561C41.9334 67.611 42.7534 69.071 41.2734 74.281C40.9634 75.291 40.6834 76.081 40.5034 76.601Z" fill="#FF8C64"/>
<path d="M39.9734 80.381H49.4234C49.5173 80.3444 49.6014 80.2865 49.6691 80.2119C49.7368 80.1373 49.7862 80.048 49.8134 79.951C49.8414 79.799 49.8183 79.642 49.7478 79.5046C49.6772 79.3671 49.5632 79.2568 49.4234 79.1909C48.6641 79.1237 47.9136 78.9797 47.1834 78.761C46.1501 78.5778 45.182 78.1299 44.3734 77.461C43.9137 76.9943 43.5711 76.4254 43.3734 75.8009L40.9534 75.351C40.7893 76.0527 40.5231 76.7265 40.1634 77.351C39.9198 77.7312 39.7186 78.1369 39.5634 78.561C39.2634 79.471 39.4434 79.8509 39.4934 79.9409C39.609 80.1297 39.7753 80.2822 39.9734 80.381Z" fill="#FF8C64"/>
<path d="M57.1634 80.381H66.6134C66.7073 80.3444 66.7914 80.2865 66.8591 80.2119C66.9268 80.1373 66.9762 80.048 67.0034 79.951C67.0332 79.7989 67.0109 79.6412 66.9402 79.5033C66.8694 79.3655 66.7543 79.2554 66.6134 79.1909C65.8542 79.1237 65.1036 78.9797 64.3734 78.761C63.3886 78.4403 62.4454 78.0039 61.5634 77.461C60.8534 77.081 59.9334 76.531 58.8734 75.821L58.1134 75.351C57.9519 76.0519 57.6891 76.7257 57.3334 77.351C57.0862 77.7306 56.8816 78.1364 56.7234 78.561C56.6204 78.7747 56.5611 79.0069 56.5491 79.2439C56.537 79.4809 56.5725 79.7179 56.6534 79.9409C56.7796 80.1319 56.9561 80.2842 57.1634 80.381Z" fill="#FF8C64"/>
<path d="M24.8734 31.8709C25.6606 31.9531 26.4521 31.9865 27.2434 31.9709C27.875 31.9591 28.4989 31.8302 29.0834 31.5909C29.2029 31.5555 29.3136 31.4953 29.4083 31.4144C29.5031 31.3334 29.5798 31.2334 29.6334 31.1209C29.6751 31.0077 29.6896 30.8863 29.6757 30.7664C29.6618 30.6466 29.6199 30.5316 29.5534 30.4309C29.5426 30.4074 29.5371 30.3818 29.5371 30.3559C29.5371 30.3301 29.5426 30.3045 29.5534 30.2809C29.6234 30.2109 29.7534 30.281 29.8434 30.141C29.8826 30.0853 29.9036 30.019 29.9036 29.9509C29.9036 29.8829 29.8826 29.8166 29.8434 29.7609C29.8012 29.7144 29.7451 29.6828 29.6834 29.6709C29.5634 29.6709 29.5334 29.6709 29.5234 29.6709C29.5134 29.6709 29.8034 29.5409 29.8734 29.3309C29.8935 29.2589 29.8919 29.1825 29.8688 29.1113C29.8457 29.0402 29.8021 28.9774 29.7434 28.9309C29.6767 28.8801 29.597 28.8489 29.5134 28.8409C28.9034 28.7409 28.6134 27.2909 28.6234 26.9909C28.6234 26.9909 28.6234 26.7709 28.6234 26.5309C28.6234 26.4609 28.6234 26.3709 28.6234 26.2809C28.5389 25.8108 28.3548 25.3641 28.0834 24.9709C27.7012 24.4145 27.2029 23.9476 26.6228 23.6023C26.0428 23.2571 25.3948 23.0417 24.7234 22.9709C22.9934 22.8409 20.6334 23.9709 20.2034 25.9709C20.0938 26.8824 20.272 27.8054 20.7131 28.6106C21.1543 29.4157 21.8362 30.0627 22.6634 30.4609C23.1363 30.6078 23.5822 30.8307 23.9834 31.1209C24.3088 31.3348 24.6075 31.5865 24.8734 31.8709Z" fill="#FF8C64"/>
<path d="M29.3435 28.7609C29.3939 28.6744 29.458 28.5968 29.5335 28.5309C29.6435 28.4509 29.7035 28.4609 29.7835 28.3809C29.8476 28.3167 29.8866 28.2315 29.8935 28.1409C29.9046 28.0933 29.9059 28.0439 29.8973 27.9958C29.8887 27.9476 29.8704 27.9018 29.8435 27.8609C29.7577 27.7508 29.6319 27.6789 29.4935 27.6609C29.1683 27.5336 28.8821 27.3232 28.6635 27.0509L28.7934 27.9809L29.3435 28.7609Z" fill="#FF8C64"/>
<path d="M27.1535 27.5809H27.0935C27.0731 27.5573 27.0618 27.5272 27.0618 27.4959C27.0618 27.4647 27.0731 27.4345 27.0935 27.4109C27.3062 26.9358 27.6677 26.5427 28.1235 26.2909C28.1384 26.2826 28.1548 26.2775 28.1718 26.2761C28.1888 26.2746 28.206 26.2768 28.222 26.2825C28.2381 26.2882 28.2528 26.2972 28.2651 26.309C28.2775 26.3208 28.2871 26.3351 28.2935 26.3509C28.3001 26.3654 28.3039 26.381 28.3045 26.3969C28.3051 26.4127 28.3025 26.4286 28.2969 26.4435C28.2913 26.4584 28.2829 26.472 28.272 26.4836C28.2611 26.4952 28.248 26.5045 28.2335 26.5109C28.0282 26.6202 27.8396 26.7583 27.6735 26.9209C27.5063 27.0832 27.3676 27.2725 27.2635 27.4809C27.261 27.5083 27.2483 27.5338 27.2279 27.5523C27.2076 27.5708 27.181 27.581 27.1535 27.5809Z" fill="#122275"/>
<path d="M27.7635 27.1309C27.9135 27.3509 28.1435 27.451 28.2835 27.351C28.4235 27.251 28.4135 27.011 28.2835 26.791C28.1535 26.571 27.9135 26.481 27.7735 26.571C27.6335 26.661 27.6135 26.9209 27.7635 27.1309Z" fill="#122275"/>
<path d="M27.6135 25.391C27.6734 25.3718 27.7368 25.3663 27.7992 25.375C27.8615 25.3836 27.921 25.4062 27.9735 25.4409C28.0642 25.4994 28.1314 25.5879 28.1635 25.6909L27.6135 25.391Z" fill="#122275"/>
<path d="M27.5735 25.4109L27.8235 25.571C27.9935 25.671 28.0435 25.671 28.0435 25.701C28.0435 25.731 27.5235 25.8909 27.0435 26.1609C26.7663 26.3242 26.5221 26.5379 26.3235 26.791C26.313 26.7079 26.313 26.624 26.3235 26.541C26.4535 25.791 27.4135 25.4609 27.5735 25.4109Z" fill="#122275"/>
<path d="M29.2834 30.431C29.2533 30.4311 29.2241 30.4198 29.2019 30.3994C29.1797 30.379 29.1659 30.351 29.1634 30.321C29.1606 30.3052 29.1609 30.289 29.1644 30.2733C29.1679 30.2577 29.1745 30.2429 29.1838 30.2298C29.1932 30.2168 29.205 30.2057 29.2187 30.1973C29.2324 30.1889 29.2476 30.1834 29.2634 30.181H29.5634C29.58 30.1781 29.5969 30.1788 29.6132 30.1829C29.6294 30.187 29.6446 30.1945 29.6578 30.2049C29.671 30.2152 29.6819 30.2282 29.6898 30.2431C29.6976 30.2579 29.7023 30.2742 29.7034 30.291C29.7063 30.3067 29.7059 30.3229 29.7024 30.3386C29.6989 30.3542 29.6923 30.369 29.683 30.3821C29.6737 30.3951 29.6618 30.4062 29.6482 30.4146C29.6345 30.423 29.6193 30.4285 29.6034 30.431H29.3034H29.2834Z" fill="#EA522F"/>
<path d="M24.6635 28.8909C24.8835 29.5109 25.4335 29.8909 25.8935 29.7309C26.1347 29.5956 26.3148 29.3729 26.3967 29.1087C26.4785 28.8445 26.4559 28.559 26.3335 28.3109C26.1135 27.6809 25.5735 27.3109 25.1035 27.4709C24.8622 27.6063 24.6821 27.829 24.6003 28.0932C24.5184 28.3574 24.541 28.6429 24.6635 28.8909Z" fill="#FF8C64"/>
<path d="M25.6735 29.891C25.3971 29.8776 25.1361 29.7596 24.9435 29.561C24.9223 29.5357 24.9107 29.5039 24.9107 29.4709C24.9107 29.438 24.9223 29.4062 24.9435 29.381C24.9677 29.3577 24.9999 29.3448 25.0335 29.3448C25.067 29.3448 25.0993 29.3577 25.1235 29.381C25.2135 29.4839 25.3303 29.56 25.461 29.6006C25.5916 29.6412 25.7309 29.6448 25.8635 29.611C25.9704 29.5659 26.0635 29.4935 26.1335 29.401C26.1446 29.3898 26.1579 29.3809 26.1724 29.3748C26.187 29.3688 26.2027 29.3657 26.2185 29.3657C26.2343 29.3657 26.2499 29.3688 26.2645 29.3748C26.2791 29.3809 26.2923 29.3898 26.3035 29.401C26.3147 29.4121 26.3235 29.4254 26.3296 29.4399C26.3356 29.4545 26.3388 29.4702 26.3388 29.486C26.3388 29.5018 26.3356 29.5174 26.3296 29.532C26.3235 29.5466 26.3147 29.5598 26.3035 29.571C26.2049 29.7039 26.0692 29.8048 25.9135 29.861C25.8355 29.8831 25.7545 29.8932 25.6735 29.891Z" fill="#EA522F"/>
<path d="M24.8735 29.4709C24.8553 29.4716 24.8374 29.4672 24.8215 29.4584C24.8057 29.4496 24.7925 29.4367 24.7835 29.421C24.6805 29.3028 24.5993 29.1674 24.5435 29.0209C24.5371 29.0059 24.5338 28.9897 24.5339 28.9734C24.534 28.957 24.5374 28.9408 24.5439 28.9258C24.5505 28.9109 24.56 28.8974 24.572 28.8862C24.584 28.8751 24.5981 28.8665 24.6135 28.861C24.6282 28.8528 24.6447 28.8481 24.6616 28.8473C24.6784 28.8466 24.6953 28.8497 24.7107 28.8565C24.7262 28.8632 24.7399 28.8735 24.7508 28.8864C24.7617 28.8993 24.7694 28.9146 24.7735 28.9309C24.8243 29.0529 24.8916 29.1673 24.9735 29.2709C24.9846 29.2821 24.9935 29.2953 24.9996 29.3099C25.0056 29.3245 25.0088 29.3402 25.0088 29.356C25.0088 29.3717 25.0056 29.3874 24.9996 29.402C24.9935 29.4166 24.9846 29.4298 24.9735 29.4409C24.9606 29.4538 24.9447 29.4633 24.9273 29.4686C24.9098 29.4738 24.8913 29.4746 24.8735 29.4709Z" fill="#EA522F"/>
<path d="M24.6234 28.891C24.5957 28.8881 24.5695 28.8771 24.5482 28.8592C24.5268 28.8414 24.5112 28.8177 24.5034 28.7909C24.4013 28.5242 24.4021 28.2291 24.5056 27.9629C24.6091 27.6967 24.8079 27.4786 25.0634 27.3509C25.1822 27.3264 25.3047 27.3264 25.4234 27.3509C25.4401 27.3521 25.4565 27.3567 25.4713 27.3646C25.4861 27.3724 25.4991 27.3833 25.5095 27.3965C25.5199 27.4097 25.5273 27.4249 25.5315 27.4412C25.5356 27.4575 25.5362 27.4744 25.5334 27.4909C25.5323 27.5077 25.5276 27.524 25.5197 27.5388C25.5119 27.5537 25.501 27.5667 25.4878 27.577C25.4746 27.5874 25.4594 27.5949 25.4432 27.599C25.4269 27.6031 25.4099 27.6038 25.3934 27.6009C25.3142 27.5856 25.2327 27.5856 25.1534 27.6009C24.9596 27.7125 24.8125 27.8902 24.7391 28.1014C24.6656 28.3126 24.6707 28.5432 24.7534 28.751C24.7598 28.7827 24.7541 28.8156 24.7374 28.8433C24.7208 28.8711 24.6944 28.8916 24.6634 28.9009L24.6234 28.891Z" fill="#EA522F"/>
<path d="M25.8734 29.2009C25.8576 29.2075 25.8406 29.2109 25.8234 29.2109C25.8063 29.2109 25.7893 29.2075 25.7734 29.2009L25.0034 28.3109C24.9802 28.2867 24.9672 28.2545 24.9672 28.2209C24.9672 28.1874 24.9802 28.1551 25.0034 28.1309C25.0286 28.1098 25.0605 28.0982 25.0934 28.0982C25.1263 28.0982 25.1582 28.1098 25.1834 28.1309L25.9534 29.0309C25.9646 29.0421 25.9735 29.0553 25.9795 29.0699C25.9856 29.0845 25.9887 29.1001 25.9887 29.1159C25.9887 29.1317 25.9856 29.1474 25.9795 29.162C25.9735 29.1765 25.9646 29.1898 25.9534 29.2009C25.9277 29.211 25.8991 29.211 25.8734 29.2009Z" fill="#EA522F"/>
<path d="M25.4434 28.671C25.3434 28.671 25.3034 28.5809 25.3234 28.5209L25.4034 28.121C25.4106 28.0881 25.4303 28.0594 25.4583 28.0407C25.4862 28.0221 25.5203 28.015 25.5534 28.0209C25.5851 28.0302 25.6125 28.0503 25.6308 28.0777C25.6491 28.1052 25.6571 28.1382 25.6534 28.171L25.5634 28.571C25.5586 28.5992 25.5439 28.6248 25.5219 28.6432C25.4999 28.6615 25.4721 28.6714 25.4434 28.671Z" fill="#EA522F"/>
<path d="M29.2034 50.3809C29.2034 51.7318 29.604 53.0523 30.3545 54.1755C31.105 55.2987 32.1717 56.1741 33.4197 56.691C34.6677 57.208 36.041 57.3432 37.3659 57.0797C38.6908 56.8162 39.9078 56.1657 40.863 55.2105C41.8182 54.2553 42.4687 53.0383 42.7322 51.7134C42.9957 50.3885 42.8605 49.0152 42.3435 47.7672C41.8266 46.5192 40.9512 45.4525 39.828 44.702C38.7048 43.9515 37.3843 43.5509 36.0334 43.5509C34.222 43.5509 32.4848 44.2705 31.2039 45.5514C29.923 46.8323 29.2034 48.5695 29.2034 50.3809Z" fill="#FF8C64"/>
<path d="M29.1035 29.821H28.8735L28.5335 29.751C28.5172 29.7465 28.502 29.7387 28.4889 29.728C28.4759 29.7173 28.4652 29.704 28.4577 29.6888C28.4501 29.6737 28.4458 29.6572 28.4451 29.6404C28.4444 29.6235 28.4472 29.6067 28.4535 29.591C28.4566 29.575 28.4633 29.56 28.473 29.5469C28.4827 29.5339 28.4952 29.5232 28.5095 29.5155C28.5239 29.5079 28.5398 29.5035 28.556 29.5027C28.5722 29.5019 28.5884 29.5047 28.6035 29.511L28.9035 29.571C29.1352 29.5958 29.3695 29.5754 29.5935 29.511C29.6252 29.5046 29.6581 29.5103 29.6859 29.527C29.7136 29.5436 29.7341 29.57 29.7435 29.601C29.7531 29.6328 29.7502 29.6671 29.7353 29.6969C29.7205 29.7267 29.6947 29.7496 29.6635 29.761C29.4795 29.8013 29.2917 29.8214 29.1035 29.821Z" fill="#EA522F"/>
<path d="M29.3334 29.291C29.2034 29.531 29.2034 29.561 29.2234 29.591C29.2434 29.621 29.7034 29.781 29.9034 29.591C29.9574 29.5309 29.9943 29.4575 30.0101 29.3783C30.0259 29.2991 30.0202 29.2172 29.9934 29.141C29.9688 29.0669 29.922 29.0023 29.8594 28.9558C29.7968 28.9093 29.7214 28.8831 29.6434 28.881C29.6434 28.881 29.5634 28.831 29.3334 29.291Z" fill="#EA522F"/>
<path d="M26.2334 48.8409C28.4234 47.5209 30.7634 46.2009 33.2334 44.9309C34.1734 44.4509 35.1034 43.9909 36.0234 43.5509C36.2432 42.6657 36.1731 41.7333 35.8234 40.8909C35.4486 40.1182 34.8672 39.4644 34.1435 39.0019C33.4198 38.5394 32.5821 38.2864 31.7234 38.2709C31.291 38.2892 30.8593 38.2212 30.4534 38.0709C29.8434 37.8309 29.5434 37.4709 29.4034 37.5609C29.2634 37.6509 29.5934 38.5609 29.6934 38.9409C29.9134 39.9409 29.0434 41.5509 24.4534 44.3609C24.9304 45.1844 25.3353 46.0477 25.6634 46.9409C25.8904 47.5626 26.0808 48.197 26.2334 48.8409Z" fill="#FFC5D2"/>
<path d="M31.7135 62.0809C32.9535 62.1609 34.2635 62.191 35.6335 62.151C39.1306 62.0618 42.6063 61.5754 45.9935 60.701L51.2235 55.141C50.2935 54.691 49.2735 54.251 48.1535 53.841C46.3419 53.1757 44.4744 52.6737 42.5735 52.341C36.4735 52.861 32.2535 53.341 30.5735 53.631C29.9344 53.7917 29.2634 53.7744 28.6335 53.5809C27.9182 53.2939 27.3052 52.7994 26.8735 52.1609C25.9708 53.0082 25.364 54.1229 25.1425 55.3409C24.9209 56.5589 25.0963 57.8159 25.6427 58.9267C26.1892 60.0376 27.0779 60.9436 28.178 61.5115C29.2781 62.0793 30.5314 62.2789 31.7535 62.0809H31.7135Z" fill="#5B98E8"/>
<path d="M44.4034 62.751L49.9234 64.621C50.3334 64.201 50.9234 63.6209 51.5734 62.8309C52.205 62.1783 52.7618 61.4571 53.2334 60.681C53.6234 59.961 54.4934 58.301 53.7534 56.851C53.4782 56.4019 53.11 56.0169 52.6736 55.722C52.2372 55.427 51.7428 55.2289 51.2234 55.141L46.4034 59.881C45.7334 60.841 45.0634 61.791 44.4034 62.751Z" fill="#5B98E8"/>
<path d="M50.0734 64.591C50.0477 64.601 50.0192 64.601 49.9934 64.591C49.9809 64.5806 49.9707 64.5677 49.9638 64.553C49.9569 64.5383 49.9532 64.5222 49.9532 64.506C49.9532 64.4897 49.9569 64.4736 49.9638 64.4589C49.9707 64.4442 49.9809 64.4313 49.9934 64.421L52.9934 61.111C53.0186 61.0898 53.0505 61.0782 53.0834 61.0782C53.1163 61.0782 53.1482 61.0898 53.1734 61.111C53.1967 61.1352 53.2096 61.1674 53.2096 61.201C53.2096 61.2345 53.1967 61.2667 53.1734 61.291L50.1734 64.591C50.1579 64.5989 50.1408 64.603 50.1234 64.603C50.106 64.603 50.0889 64.5989 50.0734 64.591Z" fill="#BBBBF9"/>
<path d="M45.9235 60.681C45.8975 60.6894 45.8695 60.6894 45.8435 60.681C45.8323 60.6698 45.8234 60.6566 45.8173 60.642C45.8113 60.6274 45.8082 60.6117 45.8082 60.5959C45.8082 60.5802 45.8113 60.5645 45.8173 60.5499C45.8234 60.5354 45.8323 60.5221 45.8435 60.511L47.1835 58.981C47.2077 58.9577 47.2399 58.9448 47.2735 58.9448C47.307 58.9448 47.3392 58.9577 47.3635 58.981C47.3746 58.9921 47.3835 59.0054 47.3896 59.0199C47.3956 59.0345 47.3988 59.0502 47.3988 59.0659C47.3988 59.0817 47.3956 59.0974 47.3896 59.112C47.3835 59.1266 47.3746 59.1398 47.3635 59.151L46.0235 60.681C46.0076 60.6876 45.9906 60.6909 45.9735 60.6909C45.9563 60.6909 45.9393 60.6876 45.9235 60.681Z" fill="#BBBBF9"/>
<path d="M30.3435 38.9509C30.3039 38.949 30.2654 38.9381 30.2307 38.9191C30.1961 38.9 30.1662 38.8733 30.1435 38.8409C28.9235 37.0909 26.3935 34.2909 24.7035 34.8409C24.5635 34.8935 24.4294 34.9605 24.3035 35.0409C24.2766 35.0601 24.2462 35.0738 24.214 35.0812C24.1818 35.0885 24.1485 35.0895 24.116 35.0839C24.0834 35.0783 24.0523 35.0663 24.0244 35.0487C23.9965 35.031 23.9724 35.008 23.9535 34.9809C23.9343 34.9541 23.9206 34.9237 23.9132 34.8915C23.9059 34.8593 23.9049 34.826 23.9105 34.7934C23.9161 34.7609 23.9281 34.7298 23.9457 34.7019C23.9634 34.674 23.9864 34.6499 24.0135 34.6309C24.181 34.5205 24.3626 34.433 24.5535 34.3709C26.9335 33.6109 29.9635 37.7409 30.5535 38.5709C30.5726 38.5978 30.5863 38.6282 30.5937 38.6604C30.6011 38.6926 30.602 38.7259 30.5964 38.7584C30.5908 38.791 30.5788 38.8221 30.5612 38.85C30.5435 38.8779 30.5205 38.902 30.4935 38.9209C30.4469 38.9437 30.3952 38.9541 30.3435 38.9509Z" fill="#FFC5D2"/>
<path d="M19.8734 26.2009C19.4634 29.3109 23.0934 32.6109 24.5734 32.0809C24.8537 31.9554 25.0779 31.7312 25.2034 31.4509C24.9134 30.7709 24.6934 30.1809 24.5334 29.7309C24.1634 28.6609 24.1434 28.3809 24.2634 28.1209C24.4634 27.6909 24.9734 27.6109 25.4334 27.4309C26.9034 26.8709 28.2134 25.0709 27.9034 24.0109C27.5934 22.9509 25.2534 22.6009 24.0234 22.6809C22.938 22.6939 21.8939 23.0988 21.0834 23.8209C20.4378 24.4658 20.014 25.2993 19.8734 26.2009Z" fill="#3F469A"/>
<path d="M19.4034 39.2909C19.2534 41.0409 20.1434 41.4909 20.1134 42.9409C20.0834 44.3909 19.2334 44.431 19.3434 45.641C19.3823 46.2299 19.6005 46.7928 19.9688 47.2541C20.337 47.7153 20.8377 48.0527 21.4034 48.2209C21.9238 48.2511 22.4427 48.1419 22.9068 47.9045C23.3709 47.6672 23.7632 47.3104 24.0434 46.8709C24.9434 45.6309 24.7434 44.0709 24.3334 41.2909C23.9734 38.8009 23.7234 39.161 23.6934 38.001C23.5934 34.481 25.9834 32.8809 25.0434 31.1809C24.8792 30.8576 24.6267 30.5873 24.3152 30.4015C24.0038 30.2157 23.646 30.1219 23.2834 30.1309C22.2234 30.3009 21.4634 32.2009 21.4634 33.7709C21.4634 35.3409 22.1734 35.9309 21.6934 36.6509C21.2134 37.3709 20.3434 37.121 19.7534 38.001C19.5255 38.3927 19.4048 38.8377 19.4034 39.2909Z" fill="#3F469A"/>
<path d="M15.7434 45.0509L18.4234 46.6709C20.5447 45.2717 22.5152 43.6564 24.3034 41.8509C25.1234 41.0109 25.8534 40.1809 26.5134 39.3809C27.6134 37.8309 27.3434 36.1909 26.6534 35.7809C25.9634 35.3709 24.7734 35.8409 23.8634 36.9909L15.7434 45.0509Z" fill="#FF8C64"/>
<path d="M22.9334 59.7909L23.9934 59.2609C23.3397 55.8175 22.1127 52.5082 20.3634 49.4709C19.7536 48.4342 19.0858 47.4326 18.3634 46.4709C17.5534 45.1709 16.3634 44.7409 15.7634 45.0909C15.5961 45.2395 15.4636 45.4232 15.3754 45.6289C15.2872 45.8346 15.2456 46.0573 15.2534 46.2809C15.5868 47.8807 16.1815 49.4145 17.0134 50.8209C18.6834 53.6109 20.5934 54.7309 22.3034 58.2809C22.6134 58.9209 22.8734 59.5009 22.9334 59.7909Z" fill="#FF8C64"/>
<path d="M22.5634 60.061C22.406 60.5434 22.3962 61.0619 22.5351 61.55C22.6741 62.0381 22.9555 62.4737 23.3434 62.8009C23.8555 63.1644 24.4182 63.4508 25.0134 63.6509C25.1434 63.6509 26.0134 63.9909 26.1134 63.8209C26.2134 63.6509 26.1134 63.6109 25.4534 63.1309C25.9734 63.6209 26.2934 63.8209 26.4534 63.7409C26.6134 63.6609 26.5334 63.5509 26.4534 63.3309L24.4534 60.6809C25.0134 60.9109 25.6834 61.131 25.8034 60.951C25.9234 60.771 25.7134 60.5809 25.6634 60.5109C25.3434 60.0609 24.9834 60.2109 24.6634 59.7909C24.4634 59.5509 24.4534 59.3409 24.1934 59.2109C24.083 59.1631 23.9637 59.1393 23.8434 59.141C23.5694 59.1726 23.308 59.2738 23.084 59.4348C22.86 59.5958 22.6808 59.8113 22.5634 60.061Z" fill="#FF8C64"/>
<path d="M37.8735 44.0509C38.0018 43.9107 38.0901 43.7385 38.1291 43.5524C38.168 43.3663 38.1562 43.1731 38.0949 42.9932C38.0335 42.8132 37.9249 42.6531 37.7804 42.5295C37.6359 42.406 37.4608 42.3236 37.2735 42.2909L35.9435 41.9409C35.7852 41.9049 35.6206 41.9079 35.4638 41.9498C35.307 41.9916 35.1627 42.0709 35.0435 42.1809C34.9791 42.2548 34.9283 42.3394 34.8935 42.4309C34.4925 42.7862 34.1365 43.1892 33.8335 43.6309C33.7914 43.6757 33.7612 43.7302 33.7455 43.7896C33.7298 43.8489 33.7291 43.9112 33.7435 43.9709C33.8135 44.1109 34.0535 44.1309 34.1035 44.1309C34.0874 44.1797 34.0874 44.2322 34.1035 44.2809C34.1935 44.5109 34.6535 44.6009 35.2235 44.5109L36.8735 44.2909C36.8235 44.2909 36.0435 44.9409 36.1935 45.2909C36.2111 45.3281 36.2377 45.3603 36.2709 45.3848C36.304 45.4092 36.3427 45.4251 36.3835 45.4309C36.5635 45.4309 36.6935 45.2009 36.9035 44.9309C37.0956 44.697 37.3136 44.4857 37.5535 44.3009C37.6717 44.2418 37.7797 44.1642 37.8735 44.0709V44.0509Z" fill="#FF8C64"/>
<path d="M36.3934 45.5409C36.324 45.5361 36.2571 45.5133 36.1992 45.4747C36.1414 45.4361 36.0945 45.3831 36.0634 45.3209C35.9434 45.0609 36.2234 44.7109 36.4734 44.4609L35.2134 44.6009C34.5634 44.7109 34.0834 44.6009 33.9634 44.2909V44.2109C33.893 44.205 33.8252 44.1818 33.7659 44.1435C33.7066 44.1051 33.6577 44.0527 33.6234 43.9909C33.5997 43.9127 33.5955 43.8299 33.6112 43.7497C33.6269 43.6695 33.662 43.5944 33.7134 43.5309C33.8437 43.3231 33.9945 43.1288 34.1634 42.9509C34.1746 42.9398 34.1878 42.9309 34.2024 42.9248C34.217 42.9188 34.2326 42.9156 34.2484 42.9156C34.2642 42.9156 34.2798 42.9188 34.2944 42.9248C34.309 42.9309 34.3223 42.9398 34.3334 42.9509C34.3566 42.9751 34.3696 43.0074 34.3696 43.0409C34.3696 43.0745 34.3566 43.1067 34.3334 43.1309C34.1807 43.3007 34.0403 43.4811 33.9134 43.6709C33.9134 43.6709 33.8134 43.8409 33.8434 43.8909C33.8734 43.9409 33.9634 43.9809 34.0834 43.9809C34.1125 43.9702 34.1444 43.9702 34.1734 43.9809C34.1833 44.0101 34.1833 44.0418 34.1734 44.0709C34.168 44.1007 34.168 44.1312 34.1734 44.1609C34.2334 44.3009 34.5934 44.4009 35.1734 44.3209L36.8334 44.1309C36.8599 44.1244 36.8879 44.1279 36.9119 44.1409C36.9359 44.1538 36.9543 44.1752 36.9634 44.2009C36.9789 44.2229 36.9872 44.2491 36.9872 44.2759C36.9872 44.3028 36.9789 44.329 36.9634 44.3509C36.6034 44.6309 36.2534 45.0309 36.3234 45.1809C36.3321 45.1987 36.3447 45.2142 36.3603 45.2263C36.3759 45.2385 36.3941 45.2469 36.4134 45.2509C36.4834 45.2509 36.5934 45.1109 36.6934 44.9609C36.7337 44.9052 36.7771 44.8518 36.8234 44.8009C37.016 44.5518 37.2414 44.3298 37.4934 44.1409C37.59 44.0915 37.6806 44.0311 37.7634 43.9609C37.7746 43.9498 37.7878 43.9409 37.8024 43.9348C37.817 43.9288 37.8326 43.9256 37.8484 43.9256C37.8642 43.9256 37.8798 43.9288 37.8944 43.9348C37.909 43.9409 37.9223 43.9498 37.9334 43.9609C37.9462 43.9722 37.9564 43.9861 37.9634 44.0016C37.9704 44.0171 37.974 44.0339 37.974 44.0509C37.974 44.068 37.9704 44.0848 37.9634 44.1003C37.9564 44.1158 37.9462 44.1297 37.9334 44.1409C37.844 44.2222 37.7428 44.2896 37.6334 44.3409C37.4084 44.5176 37.2038 44.7188 37.0234 44.9409L36.9034 45.1009C36.7134 45.3609 36.5834 45.5409 36.3934 45.5409Z" fill="#EA522F"/>
<path d="M34.1034 44.2209C34.0736 44.2217 34.0444 44.2122 34.0207 44.194C33.997 44.1758 33.9803 44.15 33.9734 44.1209C33.9706 44.1038 33.9712 44.0863 33.9752 44.0695C33.9792 44.0526 33.9866 44.0368 33.9968 44.0228C34.0071 44.0088 34.02 43.997 34.0349 43.9881C34.0498 43.9792 34.0663 43.9734 34.0834 43.9709L35.8734 43.7209C35.9064 43.718 35.9392 43.7278 35.9652 43.7482C35.9912 43.7687 36.0085 43.7982 36.0134 43.8309C36.0163 43.8475 36.0156 43.8644 36.0115 43.8807C36.0074 43.897 35.9999 43.9122 35.9895 43.9254C35.9792 43.9386 35.9661 43.9494 35.9513 43.9573C35.9365 43.9651 35.9202 43.9698 35.9034 43.9709L34.1234 44.2209H34.1034Z" fill="#EA522F"/>
<path d="M33.7334 43.8609C33.7069 43.8589 33.6816 43.8493 33.6603 43.8334C33.6391 43.8174 33.6228 43.7958 33.6134 43.7709C33.6037 43.7391 33.6066 43.7048 33.6215 43.675C33.6364 43.6452 33.6621 43.6223 33.6934 43.6109L35.5834 42.9709C35.6139 42.9603 35.6474 42.9623 35.6764 42.9763C35.7055 42.9904 35.7278 43.0154 35.7384 43.0459C35.749 43.0764 35.7471 43.1099 35.733 43.139C35.7189 43.168 35.6939 43.1903 35.6634 43.2009L33.7734 43.8509L33.7334 43.8609Z" fill="#EA522F"/>
<path d="M34.3134 43.1009C34.2908 43.0991 34.269 43.0917 34.2498 43.0795C34.2306 43.0673 34.2147 43.0507 34.2034 43.031C34.1895 43.0004 34.188 42.9656 34.1992 42.9339C34.2104 42.9022 34.2334 42.876 34.2634 42.861L35.6834 42.1909C35.7015 42.1779 35.7229 42.1702 35.7452 42.1687C35.7674 42.1671 35.7896 42.1718 35.8094 42.1822C35.8291 42.1926 35.8455 42.2083 35.8568 42.2275C35.8682 42.2467 35.8739 42.2687 35.8734 42.291C35.8818 42.3058 35.8868 42.3223 35.8883 42.3393C35.8898 42.3563 35.8876 42.3734 35.8819 42.3895C35.8762 42.4056 35.8672 42.4203 35.8554 42.4326C35.8436 42.4449 35.8293 42.4546 35.8134 42.461L34.4034 43.1309L34.3134 43.1009Z" fill="#EA522F"/>
<path d="M24.4834 39.8409L22.1234 40.9109C21.391 39.8168 20.5717 38.7835 19.6734 37.8209C17.3334 35.2909 15.7734 34.6609 14.6734 32.5009C14.1896 31.5191 13.901 30.4527 13.8234 29.3609L18.5534 28.1809C19.138 28.9526 19.6565 29.7722 20.1034 30.6309C21.7134 33.7609 21.5034 35.7509 23.3534 38.4509C23.6994 38.9384 24.0769 39.4027 24.4834 39.8409Z" fill="#FF8C64"/>
<path d="M23.6834 38.881C23.4482 38.8399 23.2067 38.8538 22.9778 38.9214C22.7488 38.9891 22.5386 39.1087 22.3634 39.271C22.1152 39.4977 21.9492 39.8003 21.8913 40.1314C21.8334 40.4625 21.8869 40.8035 22.0434 41.101C22.2634 41.731 22.4734 42.371 22.6934 43.001C22.7824 43.2139 22.9186 43.4039 23.0919 43.5563C23.2652 43.7088 23.4709 43.8198 23.6934 43.881C23.8323 43.9063 23.9746 43.9063 24.1134 43.881C24.8655 44.0732 25.6373 44.1772 26.4134 44.191C26.5011 44.2003 26.5896 44.1898 26.6727 44.1604C26.7558 44.131 26.8312 44.0833 26.8934 44.021C27.0134 43.811 26.8334 43.511 26.8034 43.461C26.8678 43.4243 26.9227 43.3729 26.9634 43.311C27.1634 43.011 26.9034 42.391 26.3334 41.771L24.7534 39.921C24.8434 39.921 26.2234 40.391 26.4934 39.921C26.5207 39.8667 26.5349 39.8067 26.5349 39.746C26.5349 39.6852 26.5207 39.6253 26.4934 39.571C26.3734 39.351 25.9634 39.391 25.4934 39.351C25.0497 39.3212 24.6123 39.2304 24.1934 39.081C24.0261 38.9819 23.8437 38.911 23.6534 38.871L23.6834 38.881Z" fill="#FF8C64"/>
<path d="M26.3435 44.351C26.0355 44.3489 25.7281 44.3255 25.4235 44.281C25.3926 44.2738 25.3654 44.2556 25.347 44.2299C25.3286 44.2041 25.3202 44.1725 25.3235 44.141C25.3246 44.1242 25.3293 44.1079 25.3371 44.0931C25.345 44.0783 25.3558 44.0652 25.369 44.0549C25.3822 44.0445 25.3974 44.037 25.4137 44.0329C25.43 44.0288 25.4469 44.0281 25.4635 44.031C25.794 44.0843 26.1287 44.1077 26.4635 44.101C26.6035 44.101 26.7835 44.101 26.8335 43.981C26.8835 43.861 26.8335 43.691 26.7435 43.551C26.7328 43.5185 26.7328 43.4834 26.7435 43.451C26.7478 43.4357 26.7554 43.4215 26.7658 43.4094C26.7761 43.3973 26.789 43.3876 26.8035 43.381C26.8513 43.3584 26.8926 43.324 26.9235 43.281C27.0835 43.031 26.8335 42.461 26.3035 41.891L24.7234 40.031C24.7064 40.0097 24.6971 39.9832 24.6971 39.956C24.6971 39.9287 24.7064 39.9022 24.7234 39.881C24.7389 39.8593 24.7606 39.8429 24.7856 39.834C24.8106 39.825 24.8378 39.824 24.8635 39.831C25.4235 40.021 26.2935 40.171 26.4535 39.911C26.4683 39.8762 26.476 39.8388 26.476 39.801C26.476 39.7631 26.4683 39.7257 26.4535 39.691C26.3835 39.581 26.1335 39.571 25.8335 39.551H25.5335C25.0807 39.5096 24.6344 39.4156 24.2035 39.271C24.0719 39.1859 23.9263 39.125 23.7735 39.091C23.7436 39.0799 23.7185 39.059 23.7021 39.0317C23.6858 39.0045 23.6792 38.9725 23.6835 38.941C23.6869 38.9249 23.6936 38.9098 23.7032 38.8965C23.7127 38.8832 23.7249 38.8719 23.739 38.8635C23.753 38.8551 23.7687 38.8496 23.7849 38.8474C23.8012 38.8453 23.8177 38.8465 23.8335 38.851C24.0029 38.8923 24.1648 38.9598 24.3134 39.051C24.7152 39.184 25.1316 39.2679 25.5535 39.301H25.8735C26.2435 39.301 26.5735 39.301 26.7035 39.571C26.7404 39.6438 26.7596 39.7243 26.7596 39.806C26.7596 39.8876 26.7404 39.9681 26.7035 40.041C26.4735 40.421 25.7034 40.301 25.2234 40.191L26.5335 41.721C27.1635 42.401 27.4135 43.051 27.1735 43.411C27.1483 43.4571 27.1143 43.4979 27.0735 43.531C27.1184 43.621 27.1417 43.7203 27.1417 43.821C27.1417 43.9216 27.1184 44.0209 27.0735 44.111C27.0012 44.1922 26.9114 44.2559 26.811 44.2975C26.7105 44.3391 26.602 44.3573 26.4935 44.351H26.3435Z" fill="#EA522F"/>
<path d="M26.8734 43.561C26.8576 43.5676 26.8406 43.571 26.8234 43.571C26.8063 43.571 26.7893 43.5676 26.7734 43.561L25.0234 41.611C25.008 41.5994 24.9954 41.5846 24.9864 41.5676C24.9775 41.5506 24.9724 41.5318 24.9716 41.5126C24.9707 41.4934 24.9742 41.4742 24.9816 41.4565C24.9891 41.4387 25.0004 41.4229 25.0148 41.4101C25.0291 41.3973 25.0461 41.3878 25.0645 41.3823C25.083 41.3768 25.1024 41.3755 25.1214 41.3785C25.1404 41.3814 25.1585 41.3886 25.1744 41.3994C25.1903 41.4102 25.2037 41.4244 25.2134 41.4409L26.9634 43.391C26.9867 43.4152 26.9996 43.4474 26.9996 43.481C26.9996 43.5145 26.9867 43.5467 26.9634 43.571C26.9486 43.5758 26.9329 43.5774 26.9174 43.5756C26.9018 43.5739 26.8869 43.5689 26.8734 43.561Z" fill="#EA522F"/>
<path d="M26.6834 44.2909C26.6607 44.2986 26.6362 44.2986 26.6134 44.2909L24.2934 42.5309C24.2723 42.5057 24.2607 42.4739 24.2607 42.4409C24.2607 42.408 24.2723 42.3762 24.2934 42.3509C24.3046 42.3397 24.3178 42.3309 24.3324 42.3248C24.347 42.3188 24.3627 42.3156 24.3784 42.3156C24.3942 42.3156 24.4099 42.3188 24.4245 42.3248C24.439 42.3309 24.4523 42.3397 24.4634 42.3509L26.7834 44.1109C26.8046 44.1362 26.8162 44.168 26.8162 44.2009C26.8162 44.2339 26.8046 44.2657 26.7834 44.2909C26.7678 44.2981 26.7507 44.3018 26.7334 44.3018C26.7162 44.3018 26.6991 44.2981 26.6834 44.2909Z" fill="#EA522F"/>
<path d="M25.3034 44.2109C25.2925 44.2162 25.2805 44.219 25.2684 44.219C25.2563 44.219 25.2443 44.2162 25.2334 44.2109L23.2334 43.0509C23.2222 43.0398 23.2134 43.0265 23.2073 43.012C23.2012 42.9974 23.1981 42.9817 23.1981 42.9659C23.1981 42.9501 23.2012 42.9345 23.2073 42.9199C23.2134 42.9053 23.2222 42.8921 23.2334 42.8809C23.257 42.8605 23.2872 42.8493 23.3184 42.8493C23.3496 42.8493 23.3798 42.8605 23.4034 42.8809L25.4034 44.0509C25.4146 44.0621 25.4235 44.0753 25.4295 44.0899C25.4356 44.1045 25.4387 44.1201 25.4387 44.1359C25.4387 44.1517 25.4356 44.1674 25.4295 44.182C25.4235 44.1965 25.4146 44.2098 25.4034 44.2209C25.3871 44.2273 25.3696 44.2298 25.3522 44.228C25.3348 44.2263 25.3181 44.2204 25.3034 44.2109Z" fill="#EA522F"/>
</svg>
