<svg width="63" height="83" viewBox="0 0 63 83" fill="none" xmlns="http://www.w3.org/2000/svg">
<path d="M33.971 24.8993C32.7323 27.7037 31.9491 30.6879 31.6511 33.7393C31.6511 34.3693 31.651 35.0993 31.521 36.4593C31.351 38.1393 31.091 38.8393 31.381 39.0393C31.671 39.2393 32.141 38.8893 33.861 37.4793C35.291 36.3093 36.001 35.7193 36.471 35.2693C38.3384 33.4905 40.0856 31.5897 41.7011 29.5793C45.3211 24.6893 47.311 15.6593 45.191 14.3793C43.071 13.0993 36.611 19.0993 33.971 24.8993Z" fill="#E3E3FD"/>
<path d="M31.381 39.2893C31.3327 39.2887 31.2855 39.274 31.2453 39.2471C31.2051 39.2202 31.1736 39.1822 31.1545 39.1378C31.1355 39.0933 31.1298 39.0443 31.138 38.9966C31.1463 38.949 31.1682 38.9047 31.2011 38.8693C33.9789 35.6765 36.453 32.2316 38.5911 28.5793C41.2479 24.0629 43.3817 19.2586 44.9511 14.2593C44.9709 14.1956 45.0153 14.1425 45.0744 14.1116C45.1335 14.0806 45.2024 14.0744 45.2661 14.0943C45.3297 14.1142 45.3829 14.1585 45.4138 14.2176C45.4447 14.2767 45.4509 14.3456 45.4311 14.4093C43.8511 19.4446 41.7004 24.2827 39.021 28.8293C36.8701 32.5005 34.3755 35.9594 31.5711 39.1593C31.5521 39.1946 31.525 39.2248 31.4919 39.2475C31.4588 39.2701 31.4208 39.2844 31.381 39.2893Z" fill="#BBBBF9"/>
<path d="M43.8711 30.1693C40.7427 30.8929 37.7466 32.1008 34.9911 33.7493C34.4511 34.1193 33.861 34.6193 32.631 35.3493C31.111 36.2493 30.3611 36.4693 30.3711 36.8493C30.3811 37.2293 30.9711 37.3893 33.2411 37.9493C35.1111 38.4193 36.0511 38.6493 36.7311 38.7693C39.3934 39.221 42.0825 39.4982 44.7811 39.5993C51.1511 39.5993 59.9911 35.5993 59.7811 33.0193C59.5711 30.4393 50.4011 28.7593 43.8711 30.1693Z" fill="#E3E3FD"/>
<path d="M35.941 37.3193C34.071 37.3193 32.211 37.2393 30.361 37.0993C30.2947 37.0993 30.2311 37.0729 30.1843 37.0261C30.1374 36.9792 30.111 36.9156 30.111 36.8493C30.111 36.783 30.1374 36.7194 30.1843 36.6725C30.2311 36.6256 30.2947 36.5993 30.361 36.5993C34.7777 36.9426 39.2167 36.8756 43.621 36.3993C49.0742 35.8019 54.4419 34.5875 59.621 32.7793C59.6525 32.7684 59.6859 32.7639 59.7192 32.766C59.7524 32.7682 59.7849 32.777 59.8147 32.7919C59.8446 32.8068 59.8711 32.8275 59.8928 32.8528C59.9145 32.8781 59.9309 32.9075 59.941 32.9393C59.96 33.0016 59.9539 33.0689 59.9241 33.1268C59.8942 33.1847 59.8429 33.2286 59.7811 33.2493C54.5637 35.0739 49.1555 36.2985 43.661 36.8993C41.0971 37.1776 38.52 37.3178 35.941 37.3193Z" fill="#BBBBF9"/>
<path d="M21.871 36.9993L20.131 38.9293C21.131 40.2793 21.901 41.4493 22.411 42.2693C24.271 45.2693 24.891 46.7893 26.751 48.1793C27.3352 48.6142 27.9657 48.9831 28.631 49.2793C30.261 50.4493 32.051 50.0593 32.511 49.2793C32.971 48.4993 32.5111 47.3593 31.4211 46.4493C30.8481 45.6415 30.2056 44.8853 29.501 44.1893C26.951 41.6293 24.9611 41.1893 22.8911 38.5493C22.508 38.0623 22.1668 37.5438 21.871 36.9993Z" fill="#FF8C64"/>
<path d="M30.1411 46.6393L31.291 50.3193L37.501 49.3193L38.721 49.1193L40.081 48.8893L41.081 48.7293L48.151 43.9293C48.0074 43.7233 47.8395 43.5353 47.651 43.3693C46.521 42.3693 44.481 42.0893 37.751 44.0893L37.261 44.2293L36.851 44.3593L36.431 44.4793C34.741 44.9893 32.6111 45.6993 30.1411 46.6393Z" fill="#FF8C64"/>
<path d="M37.231 44.2093L37.501 49.2993L38.721 49.0993L40.081 48.8693L37.231 44.2093Z" fill="#122275"/>
<path d="M39.181 50.5793L37.081 43.7393L45.341 42.2093C46.0961 42.039 46.8876 42.1584 47.559 42.5437C48.2303 42.9291 48.7325 43.5523 48.9663 44.2902C49.2002 45.0281 49.1485 45.8269 48.8216 46.5285C48.4947 47.2302 47.9164 47.7836 47.201 48.0793L39.181 50.5793Z" fill="#3F469A"/>
<path d="M21.961 81.2093H31.901C32.0442 80.7093 32.0232 80.1765 31.841 79.6893C31.7835 79.5271 31.7063 79.3726 31.611 79.2293C31.2005 78.4965 30.9484 77.6857 30.871 76.8493L29.071 76.6493C26.791 79.7093 25.511 80.3193 24.741 80.2793C24.201 80.2793 23.741 80.5393 23.151 80.5493C22.801 80.5493 22.371 80.5493 22.151 80.7893C22.0484 80.9079 21.9824 81.0538 21.961 81.2093Z" fill="#FF8C64"/>
<path d="M28.591 78.2093L31.111 78.2593C31.9165 75.8289 32.5842 73.3549 33.111 70.8493C34.491 64.5193 33.9411 62.7093 33.6411 61.9193C33.2556 61.077 32.9216 60.2121 32.6411 59.3293C32.2282 57.942 31.97 56.5133 31.871 55.0693L27.871 60.3993C28.071 61.4493 28.2411 62.5293 28.3911 63.6393C29.0541 68.4694 29.1213 73.3628 28.591 78.2093Z" fill="#FF8C64"/>
<path d="M21.651 81.2293H34.251V79.2293C32.7474 78.5475 31.0983 78.2486 29.4511 78.3593C28.7424 78.4077 28.0414 78.5352 27.361 78.7393C26.221 78.8893 21.6111 79.5293 21.5311 80.8393C21.5274 80.9789 21.5696 81.1158 21.651 81.2293Z" fill="#122275"/>
<path d="M51.3211 61.2393C48.4911 59.6493 45.1311 60.2393 43.8211 62.6093C42.5111 64.9793 43.751 68.1293 46.581 69.7193C49.411 71.3093 52.771 70.7193 54.081 68.3493C55.391 65.9793 54.1211 62.8193 51.3211 61.2393Z" fill="#FF8C64"/>
<path d="M34.171 54.8393C33.3804 54.6071 32.5457 54.5677 31.7367 54.7243C30.9277 54.8808 30.1679 55.2289 29.521 55.7393C28.8625 56.3021 28.3674 57.0316 28.0877 57.8515C27.8079 58.6713 27.7538 59.5513 27.931 60.3993L32.291 60.1493L46.551 68.1493L52.051 60.4393C50.3172 59.2923 48.479 58.3113 46.561 57.5093C42.6328 55.8571 38.4311 54.9516 34.171 54.8393Z" fill="#FF8C64"/>
<path d="M34.041 61.5793L42.321 66.0393C43.1558 65.3476 43.837 64.4893 44.321 63.5193C44.8401 62.3085 45.0961 61.0013 45.0719 59.6842C45.0478 58.3671 44.7441 57.0702 44.181 55.8793C40.5925 54.9357 36.891 54.4915 33.181 54.5593C31.831 54.4739 30.4976 54.8946 29.441 55.7393C28.5497 56.5718 27.9362 57.6585 27.6839 58.8519C27.4316 60.0452 27.5528 61.2872 28.0311 62.4093L28.541 77.0293L32.071 77.8493C34.0477 72.6685 34.7241 67.0821 34.041 61.5793Z" fill="#5B98E8"/>
<path d="M39.471 39.6493C39.671 40.1693 39.8711 40.6493 40.0611 41.1993C40.1511 41.3993 40.221 41.6093 40.301 41.8093C40.741 42.9493 41.181 44.1093 41.611 45.2493L46.741 43.3793C45.531 41.0793 44.3311 38.7893 43.1411 36.4893C42.5012 37.2095 41.8058 37.8782 41.0611 38.4893L40.6711 38.7893C40.2611 39.1193 39.861 39.3993 39.471 39.6493Z" fill="#FF8C64"/>
<path d="M39.471 39.6493C39.671 40.1693 39.8711 40.6493 40.0611 41.1993C40.3641 40.8878 40.58 40.5021 40.687 40.0809C40.7941 39.6597 40.7886 39.2177 40.6711 38.7993C40.2611 39.1193 39.861 39.3993 39.471 39.6493Z" fill="#122275"/>
<path d="M40.211 51.2393C40.4574 51.9066 40.8234 52.5233 41.291 53.0593C42.111 55.1593 42.941 57.2693 43.781 59.3693C44.621 61.4693 45.461 63.6193 46.291 65.7393C47.001 67.4893 47.701 69.2493 48.401 70.9993L52.881 63.4293L53.881 61.6893C53.171 58.2693 52.471 54.8493 51.751 51.4293C51.751 50.9093 51.751 46.7393 49.971 43.8493C49.4985 43.1251 48.9486 42.4545 48.331 41.8493C48.12 41.6757 47.896 41.5186 47.661 41.3793C47.0999 41.0201 46.4949 40.7345 45.861 40.5293C45.001 41.0293 44.161 41.5293 43.291 42.0093C43.061 42.1593 42.821 42.2993 42.591 42.4293C42.3351 42.7276 42.098 43.0415 41.881 43.3693C40.811 44.9293 39.031 48.1493 40.211 51.2393Z" fill="#FF8C64"/>
<path d="M47.3911 62.1093C44.6111 63.7693 43.4711 66.9893 44.8411 69.2893C46.2111 71.5893 49.591 72.1093 52.381 70.4393C55.171 68.7693 56.311 65.5593 54.931 63.2593C53.551 60.9593 50.1811 60.4393 47.3911 62.1093Z" fill="#FF8C64"/>
<path d="M33.321 73.7593C30.851 75.6993 29.321 77.7593 29.801 78.6993C30.281 79.6393 33.291 79.5793 36.991 78.0293L50.991 69.6493L47.051 61.0293C45.1966 61.9705 43.4297 63.0749 41.771 64.3293C38.3931 66.9205 35.5275 70.1184 33.321 73.7593Z" fill="#FF8C64"/>
<path d="M29.481 79.0893C29.891 80.7093 32.581 81.9693 36.151 81.3793C37.921 81.0793 39.271 81.0393 39.411 80.9993C41.731 80.4293 45.641 79.9993 52.721 80.5493C53.491 80.5993 54.301 80.6593 55.151 80.7493L54.151 79.0393C53.751 78.8793 53.361 78.7293 52.981 78.5993C50.571 77.7093 48.481 77.0793 46.851 76.5993C40.581 74.9193 38.751 75.3893 37.951 75.6493C37.1006 76.029 36.2211 76.34 35.321 76.5793C33.6341 76.944 31.8932 76.9847 30.191 76.6993C29.9042 77.0209 29.6919 77.4019 29.5691 77.815C29.4464 78.2281 29.4163 78.6632 29.481 79.0893Z" fill="#FF8C64"/>
<path d="M52.721 80.5793C53.491 80.6293 54.301 80.6893 55.151 80.7793C55.3177 80.7101 55.4879 80.65 55.661 80.5993C57.011 80.2193 57.971 80.4593 59.861 80.5493C60.7646 80.5841 61.6694 80.5674 62.571 80.4993C62.6414 80.4538 62.7011 80.3936 62.746 80.3228C62.7909 80.252 62.8199 80.1723 62.831 80.0893C62.831 79.7393 62.311 79.4993 61.991 79.3493C61.7477 79.2231 61.4933 79.1193 61.231 79.0393C60.9897 78.9756 60.7407 78.9453 60.491 78.9493C59.161 78.9493 54.321 76.2193 53.201 77.2893C53.1096 77.3844 53.0392 77.4976 52.9944 77.6216C52.9496 77.7457 52.9314 77.8777 52.941 78.0093C52.9517 78.2158 52.9517 78.4228 52.941 78.6293C52.9879 79.2873 52.9133 79.9483 52.721 80.5793Z" fill="#FF8C64"/>
<path d="M41.321 75.5193C43.4628 74.2025 45.7518 73.1419 48.1411 72.3593C49.4328 72.0301 50.6814 71.5502 51.861 70.9293C53.321 70.0993 55.4611 68.9293 55.8111 66.6993C55.9518 65.3516 55.5527 64.0032 54.701 62.9493L44.301 62.2293C40.2446 65.0075 36.6277 68.3783 33.571 72.2293C32.171 74.0093 32.321 74.5493 30.841 76.0793C30.0551 76.707 29.5167 77.5926 29.321 78.5793C29.2805 79.0913 29.3955 79.6037 29.651 80.0493C30.1508 80.7275 30.8985 81.1804 31.731 81.3093C33.581 81.7393 41.161 81.6393 51.411 81.0093L51.961 78.1793C50.1136 77.1792 48.134 76.4452 46.081 75.9993C44.5155 75.6732 42.9201 75.5123 41.321 75.5193Z" fill="#5B98E8"/>
<path d="M40.5911 52.8993C41.9871 56.5925 42.5935 60.5373 42.3711 64.4793C43.038 65.3107 44.0032 65.8489 45.0611 65.9793C45.4841 65.9957 45.9052 65.9136 46.2911 65.7393C46.9374 65.4132 47.5503 65.0247 48.1211 64.5793C49.5552 63.7224 51.2131 63.3149 52.881 63.4093C53.6524 63.4283 54.4212 63.5051 55.1811 63.6393C54.5611 59.4393 53.8211 55.8593 53.1811 53.0493C51.5811 46.1493 50.361 43.3593 48.381 41.7993C48.17 41.6257 47.9461 41.4686 47.7111 41.3293C47.1499 40.9701 46.5449 40.6845 45.911 40.4793L45.131 40.2693L43.3211 41.9793L41.911 43.3393C40.7501 44.4848 39.9743 45.9631 39.691 47.5693C39.4805 49.3953 39.7926 51.2436 40.5911 52.8993Z" fill="#3F469A"/>
<path d="M51.251 78.9193C46.4466 77.2575 41.4045 76.3862 36.321 76.3393C36.2946 76.3372 36.2692 76.3276 36.248 76.3117C36.2267 76.2958 36.2105 76.2741 36.201 76.2493C36.1974 76.2236 36.2001 76.1975 36.2088 76.1731C36.2175 76.1487 36.232 76.1268 36.251 76.1093L37.601 75.1093L50.691 66.7893C50.4187 66.7357 50.1635 66.6167 49.9475 66.4425C49.7315 66.2683 49.5611 66.0441 49.451 65.7893C49.3713 65.5732 49.3356 65.3433 49.3459 65.1132C49.3562 64.8831 49.4123 64.6574 49.511 64.4493C49.5158 64.4306 49.5246 64.4133 49.5368 64.3985C49.5491 64.3836 49.5645 64.3717 49.5819 64.3636C49.5993 64.3554 49.6183 64.3512 49.6376 64.3513C49.6568 64.3514 49.6758 64.3557 49.6931 64.364C49.7105 64.3723 49.7258 64.3844 49.7379 64.3993C49.75 64.4142 49.7587 64.4316 49.7633 64.4503C49.7679 64.469 49.7683 64.4884 49.7644 64.5073C49.7606 64.5261 49.7526 64.5439 49.741 64.5593C49.6535 64.7333 49.603 64.9235 49.5927 65.118C49.5824 65.3125 49.6125 65.507 49.681 65.6893C49.8009 65.9525 49.9958 66.1745 50.2413 66.3275C50.4868 66.4804 50.7719 66.5576 51.061 66.5493C51.0893 66.5494 51.1168 66.5581 51.14 66.5742C51.1632 66.5902 51.181 66.6129 51.191 66.6393C51.197 66.666 51.1945 66.6939 51.1837 66.719C51.1729 66.7441 51.1545 66.7652 51.131 66.7793L37.741 75.2993L36.691 76.0693C41.6742 76.1688 46.6109 77.0495 51.321 78.6793C51.3373 78.6837 51.3525 78.6916 51.3656 78.7023C51.3786 78.713 51.3893 78.7263 51.3968 78.7414C51.4044 78.7565 51.4086 78.773 51.4094 78.7899C51.4101 78.8068 51.4073 78.8236 51.401 78.8393C51.3898 78.8684 51.3685 78.8925 51.3409 78.9072C51.3134 78.9219 51.2815 78.9262 51.251 78.9193Z" fill="#BBBBF9"/>
<path d="M40.591 75.7493C40.5624 75.7497 40.5345 75.7398 40.5125 75.7215C40.4905 75.7031 40.4758 75.6775 40.471 75.6493C40.4666 75.6328 40.4658 75.6156 40.4685 75.5987C40.4713 75.5819 40.4776 75.5659 40.4871 75.5517C40.4966 75.5375 40.5089 75.5254 40.5234 75.5164C40.5379 75.5074 40.5541 75.5015 40.571 75.4993L41.461 75.3093C41.4788 75.3019 41.498 75.2985 41.5172 75.2994C41.5364 75.3003 41.5552 75.3055 41.5721 75.3145C41.5891 75.3236 41.6039 75.3363 41.6153 75.3517C41.6268 75.3671 41.6347 75.3849 41.6385 75.4038C41.6423 75.4226 41.6418 75.4421 41.6372 75.4608C41.6325 75.4794 41.6238 75.4968 41.6116 75.5117C41.5994 75.5266 41.584 75.5385 41.5666 75.5468C41.5493 75.555 41.5303 75.5593 41.511 75.5593L40.621 75.7493H40.591Z" fill="#BBBBF9"/>
<path d="M30.601 76.5793H30.521C30.4999 76.5541 30.4883 76.5222 30.4883 76.4893C30.4883 76.4564 30.4999 76.4245 30.521 76.3993L33.521 72.1593C33.5322 72.1481 33.5454 72.1392 33.56 72.1332C33.5746 72.1271 33.5903 72.124 33.606 72.124C33.6218 72.124 33.6375 72.1271 33.6521 72.1332C33.6667 72.1392 33.6799 72.1481 33.691 72.1593C33.7022 72.1704 33.7111 72.1837 33.7172 72.1983C33.7232 72.2129 33.7263 72.2285 33.7263 72.2443C33.7263 72.2601 33.7232 72.2757 33.7172 72.2903C33.7111 72.3049 33.7022 72.3181 33.691 72.3293L30.691 76.5793C30.6619 76.5892 30.6302 76.5892 30.601 76.5793Z" fill="#BBBBF9"/>
<path d="M40.321 65.3893C40.2954 65.3893 40.2703 65.3817 40.2489 65.3674C40.2276 65.3532 40.2109 65.333 40.201 65.3093C40.1902 65.2773 40.1914 65.2424 40.2042 65.2112C40.2171 65.1799 40.2408 65.1544 40.271 65.1393L42.271 64.3693C42.2861 64.3629 42.3023 64.3596 42.3186 64.3597C42.335 64.3598 42.3512 64.3632 42.3661 64.3698C42.3811 64.3763 42.3946 64.3859 42.4058 64.3978C42.4169 64.4098 42.4255 64.4239 42.431 64.4393C42.4374 64.4543 42.4407 64.4705 42.4406 64.4869C42.4405 64.5032 42.4371 64.5194 42.4306 64.5344C42.424 64.5494 42.4145 64.5629 42.4025 64.574C42.3905 64.5852 42.3764 64.5938 42.361 64.5993L40.361 65.3793L40.321 65.3893Z" fill="#BBBBF9"/>
<path d="M56.831 80.3793C58.23 80.5959 59.6461 80.683 61.0611 80.6393C61.6411 80.6393 62.201 80.5793 62.731 80.5193C62.9026 80.3201 62.9888 80.0615 62.971 79.7993C62.943 79.6019 62.8566 79.4175 62.723 79.2696C62.5893 79.1217 62.4145 79.0171 62.221 78.9693C60.221 78.3893 58.681 77.9693 57.711 77.6193C55.081 76.8093 53.881 76.3993 53.271 76.9893C53.1028 77.2176 52.9885 77.4811 52.9365 77.7599C52.8846 78.0387 52.8964 78.3257 52.971 78.5993L56.831 80.3793Z" fill="#122275"/>
<path d="M36.861 57.5793L40.181 59.5793C41.491 57.9493 42.791 56.2993 44.101 54.6493L44.871 53.6493L45.731 52.5693L46.341 51.7993C47.0077 49.0393 47.6744 46.2726 48.341 43.4993C48.0982 43.445 47.8499 43.4181 47.601 43.4193C46.071 43.4193 44.381 44.5993 40.721 50.5793L40.451 51.0293L40.241 51.3893L40.011 51.7693C39.161 53.2893 38.061 55.2493 36.861 57.5793Z" fill="#FF8C64"/>
<path d="M40.481 51.0493L44.101 54.6293L44.871 53.6293L45.731 52.5493L40.481 51.0493Z" fill="#122275"/>
<path d="M46.201 54.4593L40.0611 50.7893L45.161 44.1193C45.6099 43.4933 46.2763 43.0576 47.0297 42.8975C47.7831 42.7373 48.5692 42.8643 49.2338 43.2536C49.8984 43.6429 50.3937 44.2663 50.6226 45.0018C50.8515 45.7372 50.7974 46.5316 50.471 47.2293C49.0377 49.6359 47.6144 52.0459 46.201 54.4593Z" fill="#3F469A"/>
<path d="M22.131 31.3393L20.131 34.1793L28.711 39.9093C29.0801 39.2113 29.3462 38.4635 29.501 37.6893C29.7012 36.5547 29.7012 35.3938 29.501 34.2593C29.331 32.7793 29.241 31.2593 29.001 29.8093C28.681 27.9093 28.571 24.8693 29.551 19.9093L25.211 14.9093C24.4167 14.3644 23.8397 13.5572 23.581 12.6293C23.531 12.4523 23.4942 12.2718 23.471 12.0893C23.3724 11.3498 23.4725 10.5973 23.761 9.90929C23.3879 9.90896 23.0192 9.82704 22.681 9.66928C22.042 9.34809 21.5513 8.79295 21.3111 8.11929C20.4613 10.5142 19.7337 12.9506 19.131 15.4193C18.7559 16.6016 18.544 17.8296 18.501 19.0693C18.641 21.6693 20.001 22.9293 21.081 25.9093C21.6954 27.658 22.0492 29.4876 22.131 31.3393Z" fill="#FF8C64"/>
<path d="M25.431 22.1293C25.4637 22.6345 25.6455 23.1187 25.9534 23.5207C26.2612 23.9226 26.6814 24.2242 27.1606 24.3874C27.6399 24.5506 28.1568 24.5679 28.646 24.4374C29.1351 24.3068 29.5746 24.0341 29.9088 23.6538C30.243 23.2734 30.4569 22.8025 30.5235 22.3006C30.5901 21.7987 30.5063 21.2884 30.2829 20.8341C30.0594 20.3798 29.7062 20.0019 29.268 19.7483C28.8298 19.4947 28.3263 19.3767 27.821 19.4093C27.4855 19.4309 27.1575 19.5184 26.8558 19.6668C26.5541 19.8152 26.2845 20.0216 26.0626 20.2742C25.8407 20.5268 25.6707 20.8206 25.5623 21.1389C25.4539 21.4572 25.4093 21.7938 25.431 22.1293Z" fill="#FF8C64"/>
<path d="M17.991 37.5793C18.0898 38.5794 18.4768 39.5293 19.105 40.3137C19.7332 41.0981 20.5756 41.6832 21.53 41.998C22.4844 42.3128 23.5096 42.3438 24.4812 42.0872C25.4529 41.8306 26.3291 41.2974 27.0035 40.5524C27.678 39.8074 28.1216 38.8826 28.2806 37.8903C28.4395 36.898 28.307 35.8809 27.8991 34.9624C27.4911 34.044 26.8253 33.2638 25.9825 32.7165C25.1396 32.1692 24.156 31.8783 23.151 31.8793C21.7122 31.9544 20.3616 32.5961 19.3946 33.6643C18.4276 34.7325 17.923 36.1401 17.991 37.5793Z" fill="#FF8C64"/>
<path d="M19.911 54.2193C20.051 55.1293 20.161 55.8993 20.251 56.4493L25.121 56.9093C25.451 56.1193 25.781 55.2893 26.121 54.3993C26.501 53.3393 26.851 52.1993 27.121 50.9993C27.171 50.8093 27.231 50.6093 27.271 50.4093C28.2691 46.489 28.7465 42.4543 28.691 38.4093L19.7811 41.7993C19.3142 43.256 19.0517 44.7704 19.001 46.2993C18.971 47.4793 19.061 48.4493 19.911 54.2193Z" fill="#FF8C64"/>
<path d="M18.031 77.2493L20.251 77.5693C20.9564 70.4938 22.5974 63.5431 25.131 56.8993C23.5867 56.2475 21.8784 56.0903 20.241 56.4493C19.5529 57.546 18.9543 58.6964 18.451 59.8893C17.7094 61.492 17.2009 63.1925 16.941 64.9393C16.531 68.2893 17.771 69.4193 18.011 74.8293C18.051 75.8493 18.051 76.6993 18.031 77.2493Z" fill="#FF8C64"/>
<path d="M23.051 11.7493C23.1695 11.8664 23.3003 11.9703 23.441 12.0593C23.3424 11.3198 23.4425 10.5673 23.7311 9.87929L22.6511 9.63928L22.581 9.69929C22.141 10.1593 22.321 11.0793 23.051 11.7493Z" fill="#122275"/>
<path d="M20.851 8.57928C21.4135 9.13662 22.0078 9.66083 22.631 10.1493C23.1346 10.5303 23.7041 10.8151 24.3111 10.9893C24.4258 11.0409 24.5502 11.0676 24.676 11.0676C24.8019 11.0676 24.9263 11.0409 25.041 10.9893C25.144 10.927 25.2304 10.8409 25.2931 10.7382C25.3557 10.6355 25.3928 10.5193 25.401 10.3993C25.431 10.3535 25.4776 10.3212 25.5311 10.3093C25.6311 10.3093 25.7011 10.4193 25.8411 10.3793C25.9811 10.3393 26.101 10.2493 26.101 10.1093C26.1038 10.0774 26.0989 10.0453 26.0867 10.0158C26.0746 9.98618 26.0555 9.95996 26.0311 9.93928C26.1114 9.94192 26.1915 9.92722 26.2657 9.89615C26.3399 9.86509 26.4065 9.81841 26.461 9.75928C26.4872 9.72384 26.5053 9.68307 26.5139 9.63986C26.5226 9.59665 26.5216 9.55207 26.511 9.50928C26.4791 9.39111 26.4557 9.2708 26.441 9.14928C26.3445 8.44879 26.5082 7.73722 26.901 7.14928C27.0068 7.03692 27.1038 6.91656 27.191 6.78928L27.321 6.57928C27.5484 6.15972 27.6815 5.69559 27.711 5.21928C27.7749 4.62175 27.7066 4.0175 27.511 3.44929C27.3046 2.69504 26.8926 2.01301 26.321 1.47928C25.061 0.299284 22.531 -0.330718 20.941 0.969282C20.2958 1.60968 19.8648 2.43423 19.7072 3.32956C19.5496 4.2249 19.6732 5.14706 20.0611 5.96928C20.3409 6.38192 20.5504 6.8381 20.681 7.31928C20.7961 7.72931 20.8534 8.15341 20.851 8.57928Z" fill="#FF8C64"/>
<path d="M26.321 8.91928C26.4127 8.87995 26.5113 8.85954 26.611 8.85928C26.741 8.85928 26.781 8.85928 26.901 8.85928C26.9873 8.84733 27.0676 8.8089 27.131 8.74928C27.2063 8.6855 27.256 8.59674 27.271 8.49928C27.273 8.4291 27.2607 8.35925 27.2349 8.29394C27.2091 8.22863 27.1704 8.16922 27.121 8.11929C26.9407 7.81719 26.8472 7.47113 26.851 7.11929L26.371 7.92928C26.321 8.27928 26.321 8.57928 26.321 8.91928Z" fill="#FF8C64"/>
<path d="M26.811 7.07928C26.7886 7.07665 26.7671 7.06898 26.748 7.05686C26.729 7.04474 26.7129 7.02848 26.701 7.00928C26.6188 6.86523 26.4974 6.74736 26.351 6.66928C26.2115 6.59895 26.0573 6.56232 25.901 6.56232C25.7447 6.56232 25.5906 6.59895 25.451 6.66928C25.4367 6.68321 25.4192 6.69363 25.4002 6.69971C25.3811 6.7058 25.3608 6.70741 25.341 6.70439C25.3212 6.70138 25.3024 6.69382 25.286 6.68233C25.2696 6.67083 25.2561 6.6557 25.2465 6.63812C25.2369 6.62054 25.2315 6.60098 25.2307 6.58097C25.2299 6.56096 25.2338 6.54104 25.242 6.52276C25.2502 6.50448 25.2625 6.48834 25.2779 6.47559C25.2934 6.46285 25.3115 6.45385 25.331 6.44929C25.5079 6.36045 25.7031 6.31419 25.901 6.31419C26.099 6.31419 26.2942 6.36045 26.471 6.44929C26.6397 6.53169 26.7818 6.65991 26.881 6.81928H27.251C27.331 6.81928 27.381 6.81928 27.391 6.92928C27.3924 6.94586 27.3903 6.96255 27.3849 6.97829C27.3795 6.99402 27.3709 7.00845 27.3596 7.02068C27.3483 7.0329 27.3346 7.04265 27.3194 7.04929C27.3041 7.05594 27.2877 7.05935 27.271 7.05929H26.821L26.811 7.07928Z" fill="#122275"/>
<path d="M26.031 6.75929C26.0191 6.80657 26.0166 6.85574 26.0237 6.90399C26.0308 6.95224 26.0474 6.99862 26.0725 7.04044C26.0976 7.08226 26.1307 7.11871 26.1699 7.14768C26.2091 7.17666 26.2537 7.19759 26.301 7.20928C26.347 7.22176 26.395 7.22506 26.4422 7.219C26.4894 7.21293 26.535 7.19763 26.5764 7.17395C26.6177 7.15027 26.6539 7.11869 26.683 7.081C26.7122 7.04331 26.7336 7.00025 26.746 6.95429C26.7585 6.90832 26.7618 6.86035 26.7557 6.81311C26.7497 6.76587 26.7344 6.72029 26.7107 6.67897C26.687 6.63765 26.6554 6.6014 26.6177 6.57228C26.5801 6.54317 26.537 6.52176 26.491 6.50929C26.4444 6.49547 26.3955 6.49098 26.3472 6.49607C26.2988 6.50115 26.2519 6.51572 26.2092 6.53894C26.1665 6.56216 26.1288 6.59357 26.0982 6.63138C26.0676 6.66919 26.0448 6.71265 26.031 6.75929Z" fill="#122275"/>
<path d="M25.821 9.89929C25.6795 9.89494 25.5416 9.85356 25.4211 9.77928C25.2924 9.70218 25.191 9.58681 25.131 9.44929C25.1168 9.42137 25.1141 9.389 25.1235 9.35911C25.1328 9.32921 25.1535 9.30415 25.181 9.28929C25.1953 9.28065 25.2112 9.27508 25.2277 9.27293C25.2443 9.27078 25.2611 9.2721 25.2771 9.2768C25.2931 9.28151 25.3079 9.2895 25.3206 9.30026C25.3334 9.31101 25.3437 9.32431 25.351 9.33929C25.3932 9.43421 25.4629 9.51431 25.551 9.56928C25.634 9.61567 25.7262 9.643 25.821 9.64929C25.8377 9.64923 25.8541 9.65263 25.8694 9.65927C25.8847 9.66592 25.8984 9.67567 25.9096 9.68789C25.9209 9.70012 25.9295 9.71455 25.935 9.73029C25.9404 9.74602 25.9424 9.7627 25.941 9.77928C25.941 9.81111 25.9284 9.84163 25.9059 9.86414C25.8834 9.88664 25.8529 9.89929 25.821 9.89929Z" fill="#EA522F"/>
<path d="M25.931 9.57929C25.8306 9.6329 25.7337 9.69303 25.6411 9.75929C25.7545 9.84475 25.8896 9.89671 26.0311 9.90929C26.0311 9.90929 26.391 9.90928 26.501 9.66928C26.501 9.58928 26.501 9.44929 26.501 9.39929C26.501 9.34929 26.191 9.42929 25.931 9.57929Z" fill="#EA522F"/>
<path d="M27.101 5.18929C27.1706 5.21187 27.2348 5.24833 27.2898 5.29646C27.3448 5.34459 27.3894 5.40339 27.4211 5.46928C27.4637 5.59236 27.4637 5.72621 27.4211 5.84928L27.101 5.18929Z" fill="#122275"/>
<path d="M27.051 5.17929L27.201 5.49929C27.311 5.71929 27.351 5.74928 27.341 5.77928C27.331 5.80928 26.731 5.63928 26.111 5.59928C25.7704 5.58522 25.4303 5.63963 25.111 5.75929C25.1518 5.67387 25.2021 5.59335 25.261 5.51929C25.751 4.83929 26.871 5.12929 27.051 5.17929Z" fill="#122275"/>
<path d="M25.521 10.3593C25.4985 10.3677 25.4736 10.3677 25.4511 10.3593L25.191 10.2093C25.1632 10.192 25.1433 10.1645 25.1358 10.1326C25.1283 10.1007 25.1338 10.0671 25.151 10.0393C25.1683 10.0114 25.1959 9.99158 25.2278 9.98408C25.2597 9.97658 25.2932 9.98205 25.321 9.99929L25.581 10.1493C25.5922 10.1604 25.6011 10.1737 25.6072 10.1883C25.6132 10.2029 25.6163 10.2185 25.6163 10.2343C25.6163 10.2501 25.6132 10.2657 25.6072 10.2803C25.6011 10.2949 25.5922 10.3081 25.581 10.3193C25.5661 10.339 25.545 10.3531 25.521 10.3593Z" fill="#EA522F"/>
<path d="M22.531 6.08928C22.4081 6.33878 22.3851 6.62585 22.4669 6.8917C22.5487 7.15755 22.7291 7.38207 22.971 7.51928C23.421 7.67928 23.971 7.30928 24.201 6.67928C24.3235 6.43127 24.3461 6.14573 24.2642 5.88153C24.1824 5.61733 24.0023 5.39461 23.761 5.25928C23.321 5.09928 22.751 5.46928 22.531 6.08928Z" fill="#FF8C64"/>
<path d="M23.191 7.67928C23.1016 7.6935 23.0105 7.6935 22.9211 7.67928C22.756 7.60566 22.6139 7.48868 22.51 7.34077C22.4062 7.19286 22.3443 7.01955 22.331 6.83929C22.3388 6.81212 22.3552 6.78822 22.3778 6.77121C22.4003 6.7542 22.4278 6.745 22.456 6.745C22.4843 6.745 22.5118 6.7542 22.5343 6.77121C22.5569 6.78822 22.5733 6.81212 22.581 6.83929C22.5834 6.97605 22.6253 7.1092 22.7016 7.22274C22.7779 7.33628 22.8853 7.42536 23.011 7.47929C23.1216 7.51452 23.2404 7.51452 23.351 7.47929C23.3668 7.47482 23.3833 7.47362 23.3996 7.47578C23.4158 7.47794 23.4315 7.4834 23.4455 7.49184C23.4596 7.50027 23.4717 7.51149 23.4813 7.52481C23.4908 7.53813 23.4976 7.55327 23.501 7.56928C23.5055 7.58505 23.5067 7.60157 23.5045 7.61782C23.5024 7.63407 23.4969 7.6497 23.4885 7.66376C23.4801 7.67781 23.4688 7.68999 23.4555 7.69954C23.4422 7.70909 23.4271 7.71581 23.411 7.71928C23.3362 7.71594 23.2622 7.70248 23.191 7.67928Z" fill="#EA522F"/>
<path d="M22.441 6.73929C22.4213 6.74043 22.4015 6.73666 22.3836 6.72832C22.3656 6.71998 22.35 6.70732 22.3381 6.69148C22.3262 6.67564 22.3185 6.6571 22.3155 6.63753C22.3125 6.61795 22.3144 6.59794 22.3211 6.57928C22.3213 6.42402 22.3415 6.26943 22.381 6.11928C22.3924 6.088 22.4153 6.06227 22.4451 6.04738C22.4749 6.0325 22.5092 6.0296 22.5411 6.03928C22.557 6.04247 22.572 6.04916 22.5851 6.05886C22.5981 6.06856 22.6089 6.08103 22.6165 6.09537C22.6242 6.10972 22.6285 6.12558 22.6293 6.14182C22.6301 6.15806 22.6273 6.17427 22.6211 6.18928C22.5897 6.31698 22.5729 6.44781 22.5711 6.57928C22.5757 6.59867 22.5757 6.61885 22.5713 6.63827C22.5669 6.6577 22.558 6.67584 22.5455 6.6913C22.5329 6.70677 22.517 6.71914 22.4988 6.72746C22.4807 6.73578 22.461 6.73983 22.441 6.73929Z" fill="#EA522F"/>
<path d="M22.581 6.09928C22.551 6.0842 22.528 6.05807 22.5168 6.02637C22.5056 5.99468 22.5071 5.95988 22.521 5.92928C22.6088 5.65686 22.7942 5.4265 23.0416 5.28251C23.2889 5.13853 23.5808 5.09108 23.861 5.14928C23.9745 5.19316 24.0769 5.26143 24.161 5.34928C24.1736 5.3596 24.1837 5.37258 24.1907 5.38727C24.1976 5.40197 24.2012 5.41803 24.2012 5.43428C24.2012 5.45054 24.1976 5.46659 24.1907 5.48129C24.1837 5.49599 24.1736 5.50897 24.161 5.51928C24.1368 5.54251 24.1046 5.55547 24.071 5.55547C24.0375 5.55547 24.0052 5.54251 23.981 5.51928C23.9214 5.46112 23.8497 5.41674 23.771 5.38928C23.411 5.25928 22.961 5.54928 22.771 6.02928C22.7635 6.04664 22.7525 6.0623 22.7388 6.0753C22.725 6.0883 22.7088 6.09837 22.691 6.10492C22.6732 6.11146 22.6543 6.11433 22.6354 6.11336C22.6165 6.11239 22.598 6.1076 22.581 6.09928Z" fill="#EA522F"/>
<path d="M23.321 7.10928C23.3045 7.11067 23.2878 7.10859 23.272 7.10319C23.2563 7.09778 23.2419 7.08917 23.2296 7.07788C23.2174 7.0666 23.2077 7.0529 23.201 7.03764C23.1944 7.02239 23.191 7.00593 23.191 6.98929L23.1411 5.80929C23.143 5.77712 23.156 5.74662 23.1779 5.72293C23.1998 5.69925 23.2291 5.68383 23.261 5.67928C23.2939 5.67919 23.3255 5.6915 23.3496 5.71376C23.3737 5.73602 23.3885 5.76657 23.3911 5.79929L23.441 6.97929C23.4424 6.99587 23.4404 7.01255 23.435 7.02828C23.4295 7.04402 23.4209 7.05845 23.4096 7.07068C23.3984 7.0829 23.3847 7.09265 23.3694 7.0993C23.3541 7.10594 23.3377 7.10934 23.321 7.10928Z" fill="#EA522F"/>
<path d="M23.321 6.42928C23.3069 6.43563 23.2916 6.43891 23.276 6.43891C23.2605 6.43891 23.2452 6.43563 23.231 6.42928C23.2183 6.41802 23.2081 6.40417 23.201 6.38866C23.194 6.37314 23.1904 6.35631 23.1904 6.33929C23.1904 6.32226 23.194 6.30543 23.201 6.28991C23.2081 6.27439 23.2183 6.26054 23.231 6.24928L23.541 5.99928C23.5523 5.98651 23.5661 5.97629 23.5817 5.96928C23.5972 5.96228 23.614 5.95866 23.631 5.95866C23.6481 5.95866 23.6649 5.96228 23.6804 5.96928C23.6959 5.97629 23.7098 5.98651 23.721 5.99928C23.7322 6.01043 23.7411 6.02368 23.7472 6.03827C23.7532 6.05286 23.7563 6.06849 23.7563 6.08428C23.7563 6.10008 23.7532 6.11572 23.7472 6.1303C23.7411 6.14489 23.7322 6.15813 23.721 6.16928L23.401 6.42928C23.3753 6.43932 23.3468 6.43932 23.321 6.42928Z" fill="#EA522F"/>
<path d="M22.571 33.1593C22.651 36.6193 24.751 41.3793 28.711 41.7793C32.361 42.1593 35.601 38.6593 36.301 35.3393C37.431 29.9093 31.951 23.8193 27.831 24.5093C24.701 25.0293 22.481 29.4193 22.571 33.1593Z" fill="#FF8C64"/>
<path d="M19.541 51.6393C20.8771 52.8571 22.5016 53.7141 24.261 54.1293C24.8625 54.27 25.4746 54.3604 26.091 54.3993C26.471 53.3393 26.821 52.1993 27.091 50.9993L19.541 51.6393Z" fill="#122275"/>
<path d="M16.881 50.2293C20.4917 52.6046 24.891 53.4665 29.131 52.6293C29.4041 50.9426 29.7747 49.2731 30.241 47.6293C30.5674 46.2099 31.3172 44.9231 32.3911 43.9393C34.4657 42.1157 35.8732 39.6525 36.3911 36.9393C36.804 35.4729 36.8953 33.9346 36.6589 32.4296C36.4224 30.9246 35.8637 29.4884 35.021 28.2193C33.5034 26.2247 31.3026 24.8608 28.841 24.3893C30.381 24.0393 30.841 23.3893 30.941 23.0793C31.661 21.5793 30.111 18.7993 26.631 16.6093L18.811 20.9393C18.811 21.1893 18.901 21.5993 19.011 22.0893C19.651 24.9393 20.951 25.9393 21.521 28.4293C21.6833 29.1647 21.7604 29.9163 21.751 30.6693C20.5356 31.5644 19.5149 32.6973 18.751 33.9993C17.551 36.1093 17.441 37.9993 17.191 43.9093C17.171 45.2493 17.061 47.4493 16.881 50.2293Z" fill="#FFC5D2"/>
<path d="M17.821 10.3993C17.4509 11.3906 17.2645 12.4411 17.271 13.4993C17.271 14.6693 17.561 14.7793 17.501 15.7693C17.411 17.3793 16.661 17.7693 16.641 19.0593C16.641 20.0593 17.101 20.3093 17.501 21.5593C18.501 24.6793 16.671 26.8093 17.821 27.8293C18.1337 28.0658 18.5116 28.2003 18.9034 28.2146C19.2952 28.2289 19.6819 28.1223 20.011 27.9093C20.791 27.3193 20.331 26.1393 20.871 24.1493C21.1753 23.2497 21.5672 22.3822 22.041 21.5593C23.701 17.7293 21.361 16.1293 22.761 12.1093C23.101 11.1093 23.691 9.91928 23.151 8.81928C22.861 8.21928 22.3411 7.88928 22.3111 7.19928C22.3407 6.62523 22.5959 6.08612 23.021 5.69928L24.021 5.42928C24.619 5.51576 25.2283 5.47874 25.8114 5.3205C26.3944 5.16226 26.9389 4.88617 27.411 4.50928C27.7783 4.18472 28.0774 3.79041 28.291 3.34928C27.8292 2.4342 27.1407 1.65269 26.291 1.07928C24.941 0.189281 22.731 -0.450719 21.121 0.399281C18.761 1.62928 19.581 5.06928 17.821 10.3993Z" fill="#3F469A"/>
<path d="M17.691 28.0793C17.5094 28.0851 17.3306 28.0325 17.181 27.9293C16.561 27.4793 16.701 26.2593 16.851 24.8493C17.0578 23.7758 17.0578 22.6727 16.851 21.5993C16.7227 21.2212 16.5656 20.8534 16.381 20.4993C16.1089 20.0654 15.9698 19.5613 15.981 19.0493C15.9975 18.5125 16.1342 17.9862 16.381 17.5093C16.6451 16.9608 16.8013 16.3667 16.841 15.7593C16.8647 15.4001 16.8344 15.0394 16.751 14.6893C16.6617 14.2988 16.6148 13.8998 16.611 13.4993C16.6347 12.4308 16.8202 11.3722 17.161 10.3593C17.561 9.24928 17.891 8.28929 18.161 7.43929C19.241 4.28929 19.731 2.84929 21.411 1.69929C21.8044 1.43502 22.2232 1.21058 22.661 1.02928L22.761 1.25928C22.3336 1.42777 21.9275 1.64594 21.551 1.90929C19.941 3.00929 19.461 4.41928 18.401 7.52928C18.111 8.36928 17.781 9.32929 17.401 10.4493C17.0688 11.4158 16.8867 12.4276 16.861 13.4493C16.8627 13.8362 16.9063 14.2218 16.991 14.5993C17.0846 14.9682 17.1183 15.3497 17.091 15.7293C17.0525 16.368 16.8894 16.9931 16.611 17.5693C16.3793 18.0188 16.2496 18.5139 16.231 19.0193C16.2226 19.4891 16.3512 19.9513 16.601 20.3493C16.7947 20.7107 16.9554 21.0889 17.081 21.4793C17.2984 22.5887 17.2984 23.7298 17.081 24.8393C16.941 26.1193 16.811 27.3193 17.311 27.6893C17.811 28.0593 18.501 27.6893 19.681 26.9093L19.8111 27.1193C19.2003 27.6188 18.4694 27.9498 17.691 28.0793Z" fill="#3F469A"/>
<path d="M17.411 81.8293H26.861C26.9545 81.7876 27.0383 81.727 27.1072 81.6512C27.176 81.5755 27.2284 81.4863 27.261 81.3893C27.2895 81.2374 27.2654 81.0804 27.1927 80.9441C27.12 80.8078 27.003 80.7003 26.861 80.6393C26.1025 80.5611 25.3528 80.4139 24.621 80.1993C23.6075 79.9563 22.6524 79.5144 21.8111 78.8993C21.158 78.3996 20.6079 77.7781 20.191 77.0693L18.041 76.8493C18.0697 77.9954 17.79 79.1282 17.231 80.1293C17.101 80.3393 16.721 80.8893 16.911 81.3593C17.0171 81.57 17.1942 81.7365 17.411 81.8293Z" fill="#FF8C64"/>
<path d="M17.031 81.9993L27.281 81.9393C27.4144 81.8111 27.5177 81.6549 27.5834 81.482C27.6491 81.3091 27.6756 81.1237 27.661 80.9393C27.541 80.3793 23.341 79.4993 22.131 79.1693C22.991 79.6993 23.131 79.9293 23.131 80.0293C23.131 80.1293 22.021 80.0293 20.721 79.8893C19.6052 79.7901 18.4818 79.8135 17.371 79.9593C17.1869 80.0503 17.0274 80.1843 16.9059 80.35C16.7845 80.5157 16.7047 80.7082 16.6733 80.9112C16.642 81.1142 16.6599 81.3217 16.7256 81.5164C16.7914 81.711 16.903 81.8869 17.051 82.0293L17.031 81.9993Z" fill="#E3E3FD"/>
<path d="M3.90105 71.4093L5.35104 73.1193C10.5862 68.3095 16.4374 64.217 22.751 60.9493L20.4211 56.7993L19.4211 57.3593C18.1762 57.7177 16.9623 58.1759 15.791 58.7293C14.1711 59.4317 12.6593 60.3611 11.301 61.4893C8.76105 63.7193 8.94105 65.3893 5.51105 69.5793C4.85105 70.3693 4.32105 70.9993 3.90105 71.4093Z" fill="#FF8C64"/>
<path d="M0.40105 74.3993L7.40105 80.6993C7.49801 80.7317 7.60078 80.7432 7.70251 80.7328C7.80424 80.7225 7.9026 80.6906 7.99105 80.6393C8.11439 80.5448 8.20223 80.4114 8.24034 80.2608C8.27846 80.1102 8.26461 79.9511 8.20105 79.8093C7.68202 79.2533 7.21974 78.647 6.82105 77.9993C6.22537 77.1395 5.80409 76.1712 5.58105 75.1493C5.42403 74.3402 5.42403 73.5084 5.58105 72.6993L4.12105 71.1093C3.37875 71.9842 2.41523 72.6438 1.33105 73.0193C1.09105 73.0893 0.441045 73.2493 0.271045 73.7193C0.223096 73.9542 0.269819 74.1986 0.40105 74.3993Z" fill="#FF8C64"/>
<path d="M0.00104504 74.2793L7.68105 81.0593C7.87567 81.0566 8.06706 81.0092 8.24045 80.9208C8.41384 80.8323 8.56459 80.7052 8.68105 80.5493C8.96105 80.0393 6.42104 76.5493 5.74104 75.5493C6.03104 76.5493 5.99104 76.7993 5.89104 76.8493C5.79104 76.8993 5.08105 76.0893 4.19105 75.1393C3.42524 74.3195 2.56989 73.5883 1.64104 72.9593C1.43702 72.9077 1.22368 72.9053 1.01855 72.9522C0.813414 72.9992 0.622346 73.0941 0.461044 73.2293C0.309795 73.358 0.189792 73.5194 0.1101 73.7013C0.0304076 73.8832 -0.00688591 74.0808 0.00104504 74.2793Z" fill="#E3E3FD"/>
<path d="M17.051 64.3293C16.961 64.3293 16.911 64.2493 16.931 64.1793C17.0962 63.2705 17.3268 62.3748 17.621 61.4993C18.146 59.9409 18.8543 58.4504 19.731 57.0593C19.7422 57.0481 19.7554 57.0392 19.77 57.0332C19.7846 57.0271 19.8002 57.024 19.816 57.024C19.8318 57.024 19.8475 57.0271 19.8621 57.0332C19.8766 57.0392 19.8899 57.0481 19.901 57.0593C19.9122 57.0704 19.9211 57.0837 19.9272 57.0983C19.9332 57.1129 19.9363 57.1285 19.9363 57.1443C19.9363 57.1601 19.9332 57.1757 19.9272 57.1903C19.9211 57.2049 19.9122 57.2181 19.901 57.2293C19.0342 58.6039 18.3359 60.0779 17.821 61.6193C17.5303 62.4857 17.2997 63.3711 17.131 64.2693C17.1228 64.2845 17.1114 64.2977 17.0976 64.308C17.0838 64.3184 17.0679 64.3256 17.051 64.3293Z" fill="#EA522F"/>
<path d="M38.121 39.4293C39.8746 39.6489 41.6522 39.2983 43.191 38.4293C43.8238 38.0874 44.366 37.5999 44.7729 37.0069C45.1798 36.4139 45.4397 35.7326 45.5311 35.0193C45.5803 34.3797 45.4845 33.7372 45.2507 33.1398C45.017 32.5425 44.6513 32.0056 44.181 31.5693C42.511 29.9993 39.791 30.1193 38.831 31.0293C38.6897 31.1635 38.5654 31.3146 38.461 31.4793C37.741 32.6993 37.4611 33.2493 37.3911 33.2693C37.389 33.3026 37.389 33.336 37.3911 33.3693C37.3811 33.3985 37.3811 33.4301 37.3911 33.4593C37.3911 33.6493 37.3911 33.8393 37.3911 34.0193C37.1918 34.6091 36.958 35.1868 36.691 35.7493C36.561 35.9693 36.501 36.0793 36.511 36.1993C36.521 36.3193 36.511 36.2793 36.511 36.2893C36.511 36.2993 36.391 36.1593 36.321 36.1693C36.251 36.1793 36.191 36.4093 36.261 36.5993C36.2944 36.678 36.3481 36.7463 36.4166 36.7973C36.4852 36.8483 36.5661 36.88 36.651 36.8893C36.6975 36.8949 36.7446 36.8949 36.791 36.8893C36.791 36.8893 36.441 36.8893 36.401 37.0193C36.3882 37.0651 36.3882 37.1135 36.401 37.1593C36.401 37.2193 36.4711 37.2293 36.4811 37.2493C36.4911 37.2693 36.0611 38.0193 36.0611 38.3393C35.9611 38.8393 37.051 39.2693 38.121 39.4293Z" fill="#FF8C64"/>
<path d="M36.001 35.1193C35.941 35.3093 36.091 35.5093 36.141 35.5893C36.2531 35.7346 36.4065 35.8427 36.581 35.8993C36.6336 35.8867 36.683 35.8633 36.726 35.8306C36.769 35.7978 36.8048 35.7566 36.831 35.7093C36.881 35.6193 36.831 35.5393 36.831 35.4093C36.8612 35.2855 36.9233 35.1717 37.011 35.0793C37.121 34.6793 37.231 34.2893 37.351 33.8893C37.141 34.0793 36.981 34.2393 36.871 34.3493C36.7209 34.5064 36.5606 34.6533 36.391 34.7893C36.161 34.9793 36.051 34.9893 36.001 35.1193Z" fill="#FF8C64"/>
<path d="M38.971 34.8493C38.7299 34.8491 38.4939 34.7797 38.291 34.6493C38.1077 34.5273 37.9567 34.3626 37.851 34.1693C37.8371 34.1387 37.8356 34.1039 37.8468 34.0722C37.858 34.0405 37.881 34.0144 37.911 33.9993C37.9404 33.9846 37.9743 33.9816 38.0059 33.9908C38.0374 34.0001 38.0643 34.021 38.081 34.0493C38.1547 34.2091 38.2727 34.3445 38.421 34.4393C38.5469 34.521 38.6896 34.5733 38.8385 34.5923C38.9874 34.6114 39.1386 34.5967 39.281 34.5493C39.3128 34.5429 39.3457 34.5486 39.3734 34.5653C39.4012 34.5819 39.4217 34.6083 39.431 34.6393C39.4357 34.6544 39.4373 34.6703 39.4357 34.686C39.4342 34.7017 39.4296 34.717 39.4222 34.7309C39.4147 34.7448 39.4046 34.7572 39.3924 34.7672C39.3802 34.7772 39.3662 34.7847 39.351 34.7893C39.2279 34.8273 39.0999 34.8475 38.971 34.8493Z" fill="#122275"/>
<path d="M39.971 34.1093C39.8985 34.0069 39.8146 33.9129 39.721 33.8293C39.25 33.4782 38.7358 33.1892 38.191 32.9693C38.2022 32.8307 38.2468 32.6969 38.321 32.5793C38.4026 32.472 38.509 32.3862 38.631 32.3293C38.9454 32.5946 39.2797 32.8354 39.631 33.0493C39.8602 33.1819 40.0607 33.3586 40.221 33.5693C40.2895 33.6477 40.3406 33.7397 40.371 33.8393C40.3979 33.9571 40.4002 34.0791 40.3778 34.1978C40.3555 34.3165 40.3089 34.4294 40.241 34.5293C40.171 34.3893 40.091 34.2593 39.971 34.1093Z" fill="#122275"/>
<path d="M37.1411 37.2893C37.0516 37.3032 36.9605 37.3032 36.871 37.2893C36.7099 37.2464 36.5621 37.1639 36.441 37.0493C36.4178 37.0251 36.4048 36.9928 36.4048 36.9593C36.4048 36.9257 36.4178 36.8935 36.441 36.8693C36.4663 36.8481 36.4981 36.8365 36.5311 36.8365C36.564 36.8365 36.5958 36.8481 36.621 36.8693C36.7119 36.9539 36.8216 37.0156 36.941 37.0493C37.0976 37.096 37.2645 37.096 37.4211 37.0493C37.4361 37.0429 37.4523 37.0396 37.4686 37.0397C37.485 37.0398 37.5012 37.0432 37.5162 37.0498C37.5311 37.0563 37.5446 37.0659 37.5558 37.0778C37.5669 37.0898 37.5755 37.1039 37.581 37.1193C37.5873 37.135 37.5901 37.1518 37.5894 37.1687C37.5887 37.1856 37.5844 37.2021 37.5768 37.2172C37.5693 37.2323 37.5586 37.2456 37.5456 37.2563C37.5325 37.267 37.5173 37.2748 37.501 37.2793C37.3825 37.3033 37.2607 37.3067 37.1411 37.2893Z" fill="#EA522F"/>
<path d="M38.741 30.5793C38.591 30.6793 38.401 30.5793 38.341 30.6393C38.281 30.6993 38.781 31.4393 38.781 31.4393C40.001 32.8493 40.491 32.7793 40.861 33.5293C41.231 34.2793 41.031 35.1593 41.411 35.2693C41.641 35.3393 41.771 35.0493 42.041 35.0393C42.881 35.0393 43.091 37.9393 43.931 38.0393C44.771 38.1393 45.681 35.9693 45.931 34.1093C45.991 33.5393 46.161 32.0193 45.341 31.3893C45.061 31.1693 44.911 31.2493 44.561 30.9493C43.871 30.3493 43.871 29.5193 43.561 29.5093C43.251 29.4993 43.291 29.8893 42.991 29.9393C42.481 30.0193 42.211 28.9393 41.441 28.8193C41.1418 28.8788 40.8524 28.9798 40.581 29.1193C39.091 29.7293 38.971 30.0093 38.941 30.1193C38.911 30.2293 38.861 30.4793 38.741 30.5793Z" fill="#3F469A"/>
<path d="M42.971 35.8193C42.971 36.4793 42.591 37.0193 42.101 37.0193C41.611 37.0193 41.2111 36.4993 41.2011 35.8393C41.1911 35.1793 41.581 34.6393 42.071 34.6293C42.561 34.6193 42.961 35.1593 42.971 35.8193Z" fill="#FF8C64"/>
<path d="M42.091 37.1493C41.9306 37.1477 41.7741 37.099 41.6411 37.0093C41.6178 36.9851 41.6049 36.9528 41.6049 36.9193C41.6049 36.8857 41.6178 36.8535 41.6411 36.8293C41.6647 36.8089 41.6948 36.7977 41.726 36.7977C41.7573 36.7977 41.7874 36.8089 41.8111 36.8293C41.9047 36.8951 42.0166 36.9301 42.131 36.9293C42.2682 36.9174 42.3992 36.8669 42.5089 36.7838C42.6186 36.7006 42.7025 36.5881 42.751 36.4593C42.7558 36.4406 42.7646 36.4233 42.7768 36.4085C42.7891 36.3936 42.8045 36.3817 42.8219 36.3736C42.8393 36.3654 42.8583 36.3612 42.8776 36.3613C42.8968 36.3614 42.9158 36.3657 42.9331 36.374C42.9505 36.3823 42.9658 36.3943 42.9779 36.4093C42.9901 36.4242 42.9987 36.4416 43.0033 36.4603C43.0079 36.479 43.0083 36.4985 43.0044 36.5173C43.0006 36.5361 42.9926 36.5539 42.981 36.5693C42.9103 36.7381 42.7945 36.8843 42.6464 36.9918C42.4983 37.0994 42.3235 37.1642 42.1411 37.1793L42.091 37.1493Z" fill="#EA522F"/>
<path d="M42.891 36.4593C42.781 36.4593 42.751 36.3593 42.771 36.2993C42.8136 36.1735 42.8372 36.042 42.841 35.9093C42.8436 35.8766 42.8584 35.846 42.8825 35.8238C42.9066 35.8015 42.9382 35.7892 42.971 35.7893C42.9877 35.7892 43.0041 35.7926 43.0194 35.7993C43.0346 35.8059 43.0483 35.8157 43.0596 35.8279C43.0709 35.8401 43.0795 35.8546 43.0849 35.8703C43.0903 35.886 43.0924 35.9027 43.091 35.9193C43.0798 36.0749 43.053 36.229 43.011 36.3793C43.0012 36.403 42.9845 36.4232 42.9631 36.4375C42.9418 36.4517 42.9167 36.4593 42.891 36.4593Z" fill="#EA522F"/>
<path d="M42.961 35.8093C42.9309 35.8094 42.9018 35.7981 42.8795 35.7777C42.8573 35.7574 42.8436 35.7293 42.8411 35.6993C42.7911 35.1693 42.451 34.7593 42.081 34.7593C41.9941 34.7589 41.9083 34.7795 41.831 34.8193C41.8157 34.8308 41.7979 34.8388 41.7791 34.8427C41.7602 34.8465 41.7407 34.8461 41.7221 34.8415C41.7034 34.837 41.686 34.8283 41.671 34.8161C41.6561 34.804 41.6441 34.7887 41.6358 34.7714C41.6275 34.754 41.6231 34.735 41.623 34.7158C41.623 34.6966 41.6272 34.6776 41.6353 34.6602C41.6435 34.6427 41.6554 34.6273 41.6702 34.6151C41.685 34.6028 41.7024 34.594 41.721 34.5893C41.8307 34.538 41.95 34.5107 42.071 34.5093C42.3493 34.5501 42.6036 34.6899 42.7872 34.9029C42.9709 35.116 43.0716 35.388 43.071 35.6693C43.0714 35.7032 43.0594 35.7361 43.0374 35.7618C43.0153 35.7876 42.9846 35.8044 42.9511 35.8093H42.961Z" fill="#EA522F"/>
<path d="M41.911 36.5793C41.801 36.5793 41.771 36.4693 41.791 36.4093L42.221 35.3093C42.2324 35.278 42.2553 35.2523 42.2851 35.2374C42.3149 35.2225 42.3492 35.2196 42.381 35.2293C42.3977 35.2346 42.4131 35.2435 42.426 35.2554C42.4389 35.2672 42.449 35.2818 42.4557 35.298C42.4623 35.3142 42.4654 35.3316 42.4646 35.3491C42.4638 35.3666 42.4592 35.3838 42.451 35.3993L42.031 36.4993C42.0212 36.523 42.0045 36.5432 41.9832 36.5574C41.9618 36.5717 41.9367 36.5793 41.911 36.5793Z" fill="#EA522F"/>
<path d="M42.121 35.8793C42.1004 35.8797 42.0801 35.8742 42.0624 35.8636C42.0448 35.853 42.0304 35.8377 42.021 35.8193L41.801 35.4793C41.7899 35.4681 41.781 35.4549 41.7749 35.4403C41.7689 35.4257 41.7657 35.4101 41.7657 35.3943C41.7657 35.3785 41.7689 35.3629 41.7749 35.3483C41.781 35.3337 41.7899 35.3204 41.801 35.3093C41.8122 35.2981 41.8254 35.2892 41.84 35.2832C41.8546 35.2771 41.8703 35.274 41.886 35.274C41.9018 35.274 41.9175 35.2771 41.9321 35.2832C41.9467 35.2892 41.9599 35.2981 41.971 35.3093L42.191 35.6493C42.2114 35.6729 42.2227 35.7031 42.2227 35.7343C42.2227 35.7655 42.2114 35.7957 42.191 35.8193L42.121 35.8793Z" fill="#EA522F"/>
<path d="M29.661 47.1693C29.081 47.8093 28.501 48.4493 27.931 49.0993C28.931 50.4493 29.691 51.6193 30.201 52.4393C32.061 55.4393 32.691 56.9593 34.541 58.3493C35.1224 58.7856 35.7535 59.1515 36.4211 59.4393C38.0511 60.6193 39.851 60.2293 40.301 59.4393C40.751 58.6493 40.301 57.5193 39.211 56.6093C38.6379 55.8044 37.9991 55.0485 37.301 54.3493C34.741 51.7893 32.751 51.3493 30.681 48.7093C30.3058 48.2202 29.965 47.7056 29.661 47.1693Z" fill="#FF8C64"/>
<path d="M29.801 43.2193C29.691 43.1593 29.541 43.2693 29.461 43.3293C29.381 43.3893 29.251 43.5093 29.161 44.0693C29.1096 44.3697 29.0895 44.6747 29.101 44.9793C29.021 45.2493 28.9011 45.3193 28.8111 45.3393C28.7211 45.3593 28.3111 45.3393 26.9211 43.0893C26.9211 43.0893 26.471 42.3893 26.021 41.7293C26.021 41.6293 25.471 40.4593 25.081 40.5393C25.0528 40.544 25.0258 40.5543 25.0018 40.5698C24.9777 40.5853 24.957 40.6055 24.941 40.6293C24.9532 40.9858 25.064 41.3319 25.261 41.6293C25.5321 42.0448 25.7792 42.4755 26.001 42.9193C26.1713 43.2863 26.3182 43.6638 26.441 44.0493C26.3887 44.0968 26.3216 44.1251 26.251 44.1293C25.881 44.1293 25.541 43.4093 24.731 42.3893C24.391 41.9493 23.641 41.0193 23.371 41.1493C23.281 41.1493 23.271 41.3393 23.271 41.4093C23.191 42.0293 23.791 42.5193 24.271 43.0693C24.7913 43.617 25.2537 44.2168 25.651 44.8593C25.3526 44.2583 24.9796 43.6972 24.541 43.1893C24.2007 42.7871 23.8223 42.4187 23.411 42.0893C23.2556 42.0964 23.1061 42.151 22.9827 42.2458C22.8593 42.3406 22.768 42.4709 22.721 42.6193C22.6742 42.8035 22.6999 42.9986 22.793 43.1643C22.8861 43.33 23.0394 43.4535 23.221 43.5093L25.331 45.6093C25.3447 45.5265 25.3447 45.4421 25.331 45.3593C25.2888 45.2515 25.2241 45.1539 25.1414 45.0729C25.0587 44.9919 24.9597 44.9293 24.851 44.8893C24.622 44.4889 24.3038 44.1467 23.9211 43.8893C23.6611 43.7193 23.401 43.5493 23.191 43.6493C23.116 43.7031 23.0544 43.7735 23.0111 43.855C22.9677 43.9366 22.9437 44.027 22.941 44.1193C23.0968 44.471 23.2878 44.806 23.511 45.1193C23.9792 45.7207 24.5238 46.2586 25.131 46.7193L25.361 46.9093L25.461 47.0093L25.6711 47.2093C25.7811 47.3393 25.801 47.3893 25.901 47.5193C26.001 47.6493 26.0011 47.6393 26.1711 47.8093C26.9339 48.6018 27.8268 49.258 28.8111 49.7493C29.4511 50.0293 29.6711 49.9993 29.8111 49.9293C29.9642 49.83 30.0932 49.6976 30.1883 49.5418C30.2835 49.386 30.3425 49.2109 30.361 49.0293C30.101 48.7193 29.831 48.4193 29.571 48.1293C29.571 47.4193 29.961 45.2793 29.961 45.2793C30.221 43.9693 29.931 43.2993 29.801 43.2193Z" fill="#FF8C64"/>
<path d="M32.091 50.3193C32.0769 50.3256 32.0616 50.3289 32.0461 50.3289C32.0305 50.3289 32.0152 50.3256 32.001 50.3193L30.001 48.0593C29.9778 48.0351 29.9649 48.0028 29.9649 47.9693C29.9649 47.9357 29.9778 47.9035 30.001 47.8793C30.0122 47.8681 30.0254 47.8592 30.04 47.8532C30.0546 47.8471 30.0703 47.844 30.086 47.844C30.1018 47.844 30.1175 47.8471 30.1321 47.8532C30.1467 47.8592 30.1599 47.8681 30.1711 47.8793L32.1711 50.1293C32.1922 50.1545 32.2038 50.1864 32.2038 50.2193C32.2038 50.2522 32.1922 50.2841 32.1711 50.3093C32.1466 50.3226 32.118 50.3262 32.091 50.3193Z" fill="#EA522F"/>
<path d="M26.0311 30.5793L22.931 30.2293C22.1041 27.8229 21.5343 25.3357 21.231 22.8093C21.101 21.6493 21.021 20.5393 20.991 19.4993C21.071 17.6093 22.291 16.4993 23.091 16.5693C23.891 16.6393 24.541 17.7693 24.551 19.2393C25.0644 23.0326 25.5577 26.8126 26.0311 30.5793Z" fill="#FF8C64"/>
<path d="M34.4011 38.8593L35.911 39.1793C35.9913 39.5073 35.9971 39.8492 35.9278 40.1797C35.8586 40.5102 35.7162 40.821 35.5111 41.0893C35.2268 41.4368 34.8372 41.6825 34.4011 41.7893C34.1011 41.1893 33.791 40.5993 33.491 40.0093C30.3303 38.4934 27.4414 36.4662 24.941 34.0093C24.241 33.3093 23.6111 32.6093 23.0311 31.9193C22.9146 31.5986 22.8538 31.2604 22.851 30.9193C22.8475 30.6901 22.8744 30.4614 22.931 30.2393L25.241 29.6593C25.8578 30.0605 26.4429 30.5085 26.991 30.9993C29.821 33.4693 30.221 35.5793 32.991 37.8693C33.44 38.2283 33.9109 38.559 34.4011 38.8593Z" fill="#FF8C64"/>
<path d="M40.481 51.1693C40.371 51.1693 40.341 51.0693 40.371 50.9993L42.961 44.2993C42.9651 44.2829 42.9728 44.2676 42.9837 44.2547C42.9946 44.2418 43.0083 44.2316 43.0238 44.2248C43.0392 44.218 43.0561 44.2149 43.0729 44.2157C43.0898 44.2165 43.1063 44.2211 43.121 44.2293C43.1364 44.2348 43.1505 44.2434 43.1625 44.2545C43.1745 44.2657 43.184 44.2792 43.1906 44.2942C43.1971 44.3092 43.2006 44.3253 43.2006 44.3417C43.2007 44.358 43.1974 44.3742 43.191 44.3893L40.601 51.0893C40.5912 51.113 40.5745 51.1332 40.5532 51.1474C40.5318 51.1617 40.5067 51.1693 40.481 51.1693Z" fill="#BBBBF9"/>
<path d="M39.781 50.5193C39.691 50.5193 39.641 50.4493 39.651 50.3793C39.741 49.4593 39.881 48.5193 40.051 47.6093C40.2739 46.4476 40.561 45.2992 40.911 44.1693C40.9156 44.1542 40.9231 44.1401 40.9331 44.1279C40.9432 44.1157 40.9555 44.1056 40.9694 44.0981C40.9834 44.0907 40.9986 44.0861 41.0144 44.0846C41.0301 44.0831 41.0459 44.0846 41.061 44.0893C41.0942 44.0986 41.1222 44.1207 41.1391 44.1507C41.156 44.1807 41.1603 44.2161 41.151 44.2493C40.8021 45.3686 40.5182 46.5071 40.301 47.6593C40.131 48.5593 39.991 49.4893 39.901 50.4093C39.8966 50.4385 39.8822 50.4654 39.8604 50.4854C39.8386 50.5054 39.8106 50.5173 39.781 50.5193Z" fill="#BBBBF9"/>
<path d="M46.201 54.5793C46.171 54.5642 46.148 54.5381 46.1368 54.5064C46.1256 54.4747 46.1271 54.4399 46.141 54.4093L49.391 47.9993C49.4078 47.9709 49.434 47.9493 49.4651 47.9383C49.4962 47.9273 49.5302 47.9277 49.561 47.9393C49.5911 47.9544 49.6141 47.9805 49.6253 48.0122C49.6365 48.0439 49.635 48.0787 49.621 48.1093L46.321 54.5193C46.3077 54.5385 46.2897 54.5541 46.2687 54.5646C46.2477 54.5751 46.2245 54.5801 46.201 54.5793Z" fill="#BBBBF9"/>
</svg>
