<svg width="30" height="30" viewBox="0 0 30 30" fill="none" xmlns="http://www.w3.org/2000/svg">
<path fill-rule="evenodd" clip-rule="evenodd" d="M4.33163 25.6688L19.0136 10.9867L4.33163 25.6688ZM11.1344 11.5394C13.1575 13.0569 13.5676 15.9271 12.0502 17.9503C11.8549 18.2106 11.6326 18.4491 11.3873 18.6619L11.1344 18.8661C9.11117 17.3487 8.70116 14.4784 10.2186 12.4553C10.4138 12.1949 10.6361 11.9564 10.8814 11.7436L11.1344 11.5394ZM14.7976 7.87615C16.8208 9.39355 17.2308 12.2638 15.7134 14.2869C15.5182 14.5473 15.2959 14.7858 15.0506 14.9986L14.7976 15.2028C12.7744 13.6853 12.3644 10.8151 13.8818 8.79195C14.0771 8.53161 14.2993 8.29308 14.5447 8.08026L14.7976 7.87615ZM18.4609 4.21284C20.4841 5.73025 20.8941 8.60046 19.3767 10.6236C19.1815 10.884 18.9592 11.1225 18.7138 11.3353L18.4609 11.5394C16.4377 10.022 16.0277 7.15183 17.5451 5.12865C17.7404 4.86831 17.9626 4.62978 18.208 4.41696L18.4609 4.21284ZM25.7874 11.5394C24.2701 13.5626 21.3999 13.9727 19.3767 12.4553C19.1164 12.26 18.8779 12.0378 18.665 11.7924L18.4609 11.5394C19.9783 9.51628 22.8484 9.10624 24.8716 10.6236C25.132 10.8189 25.3705 11.0411 25.5833 11.2865L25.7874 11.5394ZM22.1242 15.2028C20.6068 17.2259 17.7366 17.636 15.7135 16.1186C15.4531 15.9233 15.2146 15.7011 15.0018 15.4557L14.7976 15.2028C16.315 13.1796 19.1852 12.7695 21.2083 14.2869C21.4687 14.4822 21.7072 14.7044 21.9201 14.9498L22.1242 15.2028ZM18.4609 18.8661C16.9435 20.8892 14.0734 21.2993 12.0502 19.7819C11.7899 19.5866 11.5513 19.3644 11.3385 19.119L11.1344 18.8661C12.6517 16.8429 15.5219 16.4328 17.5451 17.9502C17.8054 18.1455 18.044 18.3677 18.2568 18.6131L18.4609 18.8661ZM7.38436 15.2894C9.40755 16.8069 9.81757 19.6771 8.30016 21.7003C8.10491 21.9606 7.88265 22.1991 7.63728 22.4119L7.38436 22.6161C5.36117 21.0987 4.95116 18.2284 6.46856 16.2053C6.66381 15.9449 6.88607 15.7064 7.13144 15.4936L7.38436 15.2894ZM14.7109 22.6161C13.1935 24.6392 10.3234 25.0493 8.3002 23.5319C8.03985 23.3366 7.80131 23.1144 7.58848 22.869L7.38436 22.6161C8.90172 20.5929 11.7719 20.1828 13.7951 21.7002C14.0554 21.8955 14.294 22.1177 14.5068 22.3631L14.7109 22.6161ZM25.9219 4.07923C26.2796 6.58282 24.54 8.90227 22.0365 9.25992C21.7143 9.30594 21.3885 9.31745 21.0645 9.29444L20.7413 9.25987C20.3836 6.75632 22.1232 4.43687 24.6268 4.07922C25.0563 4.01786 25.4924 4.01786 25.9219 4.07923Z" stroke="#E91E63" stroke-linecap="round"/>
</svg>
