<svg width="17" height="17" viewBox="0 0 17 17" fill="none" xmlns="http://www.w3.org/2000/svg">
<path fill-rule="evenodd" clip-rule="evenodd" d="M14.2141 11.4805C14.3605 11.334 14.598 11.334 14.7444 11.4805C14.8908 11.6269 14.8908 11.8644 14.7444 12.0108L14.4792 12.276C14.1257 14.0438 13.6837 15.1928 13.1534 15.7231C12.3579 16.5186 11.234 16.4554 10.5018 15.7231C9.76953 14.9909 9.70626 13.867 10.5018 13.0715C11.0321 12.5412 12.1811 12.0992 13.9489 11.7457L14.2141 11.4805ZM1.19479 11.3307C1.29835 11.1513 1.52769 11.0899 1.70705 11.1934L2.03181 11.3809C3.83085 11.2649 5.05513 11.3944 5.70465 11.7694C6.67893 12.3319 6.90871 13.4339 6.39095 14.3307C5.87318 15.2275 4.80393 15.5795 3.82965 15.017C3.18013 14.642 2.45585 13.6465 1.65681 12.0304L1.33205 11.8429C1.15269 11.7394 1.09124 11.51 1.19479 11.3307ZM8.79287 3.70752C8.99998 3.70752 9.16787 3.87542 9.16787 4.08252V4.45752C10.1679 5.95752 10.6679 7.08252 10.6679 7.83252C10.6679 8.95752 9.8284 9.70752 8.79287 9.70752C7.75734 9.70752 6.91787 8.95752 6.91787 7.83252C6.91787 7.08252 7.41787 5.95752 8.41787 4.45752V4.08252C8.41787 3.87542 8.58576 3.70752 8.79287 3.70752ZM13.8466 2.72132C14.8469 2.4533 15.8518 2.96047 16.143 4.04714C16.3371 4.77158 16.1453 5.98766 15.5676 7.69537L15.6647 8.05759C15.7183 8.25764 15.5996 8.46327 15.3995 8.51687C15.1995 8.57047 14.9939 8.45175 14.9403 8.25171L14.8432 7.88948C13.489 6.69941 12.7149 5.74216 12.5208 5.01771C12.2296 3.93105 12.8464 2.98933 13.8466 2.72132ZM3.49435 0.797545L3.56933 0.809746C3.76938 0.863349 3.8881 1.06898 3.83449 1.26903L3.73743 1.63125C4.31513 3.33896 4.50692 4.55503 4.31281 5.27948C4.02164 6.36614 3.01666 6.87332 2.01641 6.6053C1.01616 6.33729 0.399416 5.39557 0.690588 4.3089C0.884702 3.58446 1.65884 2.6272 3.01299 1.43713L3.11005 1.07491C3.16365 0.874861 3.36928 0.756143 3.56933 0.809746L3.49435 0.797545Z" stroke="#E91E63" stroke-linecap="round"/>
</svg>
