<svg width="30" height="30" viewBox="0 0 30 30" fill="none" xmlns="http://www.w3.org/2000/svg">
<g clip-path="url(#clip0_43_1754)">
<path d="M25 7.5H20V5C20 3.625 18.875 2.5 17.5 2.5H12.5C11.125 2.5 10 3.625 10 5V7.5H5C3.625 7.5 2.5 8.625 2.5 10V25C2.5 26.375 3.625 27.5 5 27.5H25C26.375 27.5 27.5 26.375 27.5 25V10C27.5 8.625 26.375 7.5 25 7.5ZM12.5 5H17.5V7.5H12.5V5ZM18.75 18.75H16.25V21.25C16.25 21.9375 15.6875 22.5 15 22.5C14.3125 22.5 13.75 21.9375 13.75 21.25V18.75H11.25C10.5625 18.75 10 18.1875 10 17.5C10 16.8125 10.5625 16.25 11.25 16.25H13.75V13.75C13.75 13.0625 14.3125 12.5 15 12.5C15.6875 12.5 16.25 13.0625 16.25 13.75V16.25H18.75C19.4375 16.25 20 16.8125 20 17.5C20 18.1875 19.4375 18.75 18.75 18.75Z" fill="#EC407A"/>
</g>
<defs>
<clipPath id="clip0_43_1754">
<rect width="30" height="30" fill="white"/>
</clipPath>
</defs>
</svg>
